<?xml version="1.0" encoding="UTF-8" standalone="no"?><svg xmlns="http://www.w3.org/2000/svg" xmlns:xlink="http://www.w3.org/1999/xlink" contentStyleType="text/css" height="895px" preserveAspectRatio="none" style="width:3165px;height:895px;background:#000000;" version="1.1" viewBox="0 0 3165 895" width="3165px" zoomAndPan="magnify"><defs/><g><!--class Observer--><g id="elem_Observer"><rect codeLine="1" fill="#303030" height="64.2969" id="Observer" rx="2.5" ry="2.5" style="stroke:#E7E7E7;stroke-width:0.5;" width="126" x="1692" y="7"/><ellipse cx="1720.05" cy="23" fill="#352866" rx="11" ry="11" style="stroke:#E7E7E7;stroke-width:1.0;"/><path d="M1721.0031,19.7813 L1722.7219,19.7813 C1723.1125,19.7813 1723.3,19.75 1723.425,19.6719 C1723.6906,19.5156 1723.8313,19.2344 1723.8313,18.9375 C1723.8313,18.6719 1723.7219,18.4063 1723.4875,18.2344 C1723.3156,18.125 1723.175,18.0938 1722.7219,18.0938 L1717.5813,18.0938 C1717.1438,18.0938 1717.0188,18.1094 1716.8625,18.2031 C1716.6125,18.3594 1716.4563,18.6563 1716.4563,18.9375 C1716.4563,19.2188 1716.5969,19.4688 1716.8156,19.6406 C1716.9719,19.75 1717.1594,19.7813 1717.5813,19.7813 L1719.3,19.7813 L1719.3,26.2969 L1717.5813,26.2969 C1717.1438,26.2969 1717.0188,26.3125 1716.8625,26.4219 C1716.6125,26.5781 1716.4563,26.8594 1716.4563,27.1563 C1716.4563,27.4063 1716.5969,27.6719 1716.8156,27.8281 C1716.9719,27.9531 1717.175,28 1717.5813,28 L1722.7219,28 C1723.4719,28 1723.8313,27.7188 1723.8313,27.1563 C1723.8313,26.875 1723.7219,26.625 1723.4875,26.4531 C1723.3156,26.3281 1723.175,26.2969 1722.7219,26.2969 L1721.0031,26.2969 L1721.0031,19.7813 Z " fill="#FFFFFF"/><text fill="#FFFFFF" font-family="sans-serif" font-size="14" font-style="italic" lengthAdjust="spacing" textLength="65" x="1736.95" y="27.8467">Observer</text><line style="stroke:#E7E7E7;stroke-width:0.5;" x1="1693" x2="1817" y1="39" y2="39"/><line style="stroke:#E7E7E7;stroke-width:0.5;" x1="1693" x2="1817" y1="47" y2="47"/><ellipse cx="1703" cy="60.6484" fill="#84BE84" rx="3" ry="3" style="stroke:#038048;stroke-width:1.0;"/><text fill="#FFFFFF" font-family="sans-serif" font-size="14" lengthAdjust="spacing" textLength="100" x="1712" y="63.9951">update(): void</text></g><!--class CardObserver--><g id="elem_CardObserver"><rect codeLine="5" fill="#303030" height="48" id="CardObserver" rx="2.5" ry="2.5" style="stroke:#E7E7E7;stroke-width:0.5;" width="131" x="1228.5" y="131"/><ellipse cx="1243.5" cy="147" fill="#2A5D60" rx="11" ry="11" style="stroke:#E7E7E7;stroke-width:1.0;"/><path d="M1245.5781,148.8125 L1245.9688,149.7969 L1245.5781,149.7969 C1245.125,149.7969 1245.0156,149.8125 1244.8594,149.9219 C1244.6094,150.0781 1244.4531,150.3594 1244.4531,150.6563 C1244.4531,150.9219 1244.5938,151.1719 1244.8125,151.3281 C1244.9531,151.4531 1245.1563,151.5 1245.5781,151.5 L1247.9375,151.5 C1248.2969,151.5 1248.5156,151.4688 1248.6563,151.375 C1248.9063,151.2344 1249.0625,150.9375 1249.0625,150.6563 C1249.0625,150.375 1248.9219,150.125 1248.7031,149.9688 C1248.5313,149.8281 1248.375,149.7969 1247.9063,149.7969 L1244.5156,141.5938 L1240.8438,141.5938 C1240.3906,141.5938 1240.2656,141.6094 1240.1094,141.7031 C1239.8594,141.875 1239.7031,142.1563 1239.7031,142.4375 C1239.7031,142.7188 1239.8438,142.9688 1240.0625,143.1406 C1240.2344,143.25 1240.4063,143.2813 1240.8438,143.2813 L1241.9219,143.2813 L1239.2813,149.7969 C1238.8594,149.7969 1238.7031,149.8125 1238.5469,149.9219 C1238.2969,150.0781 1238.1406,150.3594 1238.1406,150.6563 C1238.1406,151.2188 1238.5156,151.5 1239.2656,151.5 L1241.5313,151.5 C1241.8906,151.5 1242.1094,151.4688 1242.2344,151.375 C1242.5,151.2344 1242.6406,150.9375 1242.6406,150.6563 C1242.6406,150.375 1242.5156,150.125 1242.2969,149.9531 C1242.125,149.8281 1241.9844,149.7969 1241.5313,149.7969 L1241.1406,149.7969 L1241.5313,148.8125 L1245.5781,148.8125 Z M1244.875,147.1094 L1242.2031,147.1094 L1243.5469,143.8438 L1244.875,147.1094 Z " fill="#FFFFFF"/><text fill="#FFFFFF" font-family="sans-serif" font-size="14" font-style="italic" lengthAdjust="spacing" textLength="99" x="1257.5" y="151.8467">CardObserver</text><line style="stroke:#E7E7E7;stroke-width:0.5;" x1="1229.5" x2="1358.5" y1="163" y2="163"/><line style="stroke:#E7E7E7;stroke-width:0.5;" x1="1229.5" x2="1358.5" y1="171" y2="171"/></g><!--class DeckObserver--><g id="elem_DeckObserver"><rect codeLine="8" fill="#303030" height="48" id="DeckObserver" rx="2.5" ry="2.5" style="stroke:#E7E7E7;stroke-width:0.5;" width="133" x="1012.5" y="131"/><ellipse cx="1027.5" cy="147" fill="#2A5D60" rx="11" ry="11" style="stroke:#E7E7E7;stroke-width:1.0;"/><path d="M1029.5781,148.8125 L1029.9688,149.7969 L1029.5781,149.7969 C1029.125,149.7969 1029.0156,149.8125 1028.8594,149.9219 C1028.6094,150.0781 1028.4531,150.3594 1028.4531,150.6563 C1028.4531,150.9219 1028.5938,151.1719 1028.8125,151.3281 C1028.9531,151.4531 1029.1563,151.5 1029.5781,151.5 L1031.9375,151.5 C1032.2969,151.5 1032.5156,151.4688 1032.6563,151.375 C1032.9063,151.2344 1033.0625,150.9375 1033.0625,150.6563 C1033.0625,150.375 1032.9219,150.125 1032.7031,149.9688 C1032.5313,149.8281 1032.375,149.7969 1031.9063,149.7969 L1028.5156,141.5938 L1024.8438,141.5938 C1024.3906,141.5938 1024.2656,141.6094 1024.1094,141.7031 C1023.8594,141.875 1023.7031,142.1563 1023.7031,142.4375 C1023.7031,142.7188 1023.8438,142.9688 1024.0625,143.1406 C1024.2344,143.25 1024.4063,143.2813 1024.8438,143.2813 L1025.9219,143.2813 L1023.2813,149.7969 C1022.8594,149.7969 1022.7031,149.8125 1022.5469,149.9219 C1022.2969,150.0781 1022.1406,150.3594 1022.1406,150.6563 C1022.1406,151.2188 1022.5156,151.5 1023.2656,151.5 L1025.5313,151.5 C1025.8906,151.5 1026.1094,151.4688 1026.2344,151.375 C1026.5,151.2344 1026.6406,150.9375 1026.6406,150.6563 C1026.6406,150.375 1026.5156,150.125 1026.2969,149.9531 C1026.125,149.8281 1025.9844,149.7969 1025.5313,149.7969 L1025.1406,149.7969 L1025.5313,148.8125 L1029.5781,148.8125 Z M1028.875,147.1094 L1026.2031,147.1094 L1027.5469,143.8438 L1028.875,147.1094 Z " fill="#FFFFFF"/><text fill="#FFFFFF" font-family="sans-serif" font-size="14" font-style="italic" lengthAdjust="spacing" textLength="101" x="1041.5" y="151.8467">DeckObserver</text><line style="stroke:#E7E7E7;stroke-width:0.5;" x1="1013.5" x2="1144.5" y1="163" y2="163"/><line style="stroke:#E7E7E7;stroke-width:0.5;" x1="1013.5" x2="1144.5" y1="171" y2="171"/></g><!--class DeckListObserver--><g id="elem_DeckListObserver"><rect codeLine="11" fill="#303030" height="48" id="DeckListObserver" rx="2.5" ry="2.5" style="stroke:#E7E7E7;stroke-width:0.5;" width="157" x="2137.5" y="131"/><ellipse cx="2152.5" cy="147" fill="#2A5D60" rx="11" ry="11" style="stroke:#E7E7E7;stroke-width:1.0;"/><path d="M2154.5781,148.8125 L2154.9688,149.7969 L2154.5781,149.7969 C2154.125,149.7969 2154.0156,149.8125 2153.8594,149.9219 C2153.6094,150.0781 2153.4531,150.3594 2153.4531,150.6563 C2153.4531,150.9219 2153.5938,151.1719 2153.8125,151.3281 C2153.9531,151.4531 2154.1563,151.5 2154.5781,151.5 L2156.9375,151.5 C2157.2969,151.5 2157.5156,151.4688 2157.6563,151.375 C2157.9063,151.2344 2158.0625,150.9375 2158.0625,150.6563 C2158.0625,150.375 2157.9219,150.125 2157.7031,149.9688 C2157.5313,149.8281 2157.375,149.7969 2156.9063,149.7969 L2153.5156,141.5938 L2149.8438,141.5938 C2149.3906,141.5938 2149.2656,141.6094 2149.1094,141.7031 C2148.8594,141.875 2148.7031,142.1563 2148.7031,142.4375 C2148.7031,142.7188 2148.8438,142.9688 2149.0625,143.1406 C2149.2344,143.25 2149.4063,143.2813 2149.8438,143.2813 L2150.9219,143.2813 L2148.2813,149.7969 C2147.8594,149.7969 2147.7031,149.8125 2147.5469,149.9219 C2147.2969,150.0781 2147.1406,150.3594 2147.1406,150.6563 C2147.1406,151.2188 2147.5156,151.5 2148.2656,151.5 L2150.5313,151.5 C2150.8906,151.5 2151.1094,151.4688 2151.2344,151.375 C2151.5,151.2344 2151.6406,150.9375 2151.6406,150.6563 C2151.6406,150.375 2151.5156,150.125 2151.2969,149.9531 C2151.125,149.8281 2150.9844,149.7969 2150.5313,149.7969 L2150.1406,149.7969 L2150.5313,148.8125 L2154.5781,148.8125 Z M2153.875,147.1094 L2151.2031,147.1094 L2152.5469,143.8438 L2153.875,147.1094 Z " fill="#FFFFFF"/><text fill="#FFFFFF" font-family="sans-serif" font-size="14" font-style="italic" lengthAdjust="spacing" textLength="125" x="2166.5" y="151.8467">DeckListObserver</text><line style="stroke:#E7E7E7;stroke-width:0.5;" x1="2138.5" x2="2293.5" y1="163" y2="163"/><line style="stroke:#E7E7E7;stroke-width:0.5;" x1="2138.5" x2="2293.5" y1="171" y2="171"/></g><!--class StageObserver--><g id="elem_StageObserver"><rect codeLine="14" fill="#303030" height="48" id="StageObserver" rx="2.5" ry="2.5" style="stroke:#E7E7E7;stroke-width:0.5;" width="138" x="3020" y="279.5"/><ellipse cx="3035" cy="295.5" fill="#2A5D60" rx="11" ry="11" style="stroke:#E7E7E7;stroke-width:1.0;"/><path d="M3037.0781,297.3125 L3037.4688,298.2969 L3037.0781,298.2969 C3036.625,298.2969 3036.5156,298.3125 3036.3594,298.4219 C3036.1094,298.5781 3035.9531,298.8594 3035.9531,299.1563 C3035.9531,299.4219 3036.0938,299.6719 3036.3125,299.8281 C3036.4531,299.9531 3036.6563,300 3037.0781,300 L3039.4375,300 C3039.7969,300 3040.0156,299.9688 3040.1563,299.875 C3040.4063,299.7344 3040.5625,299.4375 3040.5625,299.1563 C3040.5625,298.875 3040.4219,298.625 3040.2031,298.4688 C3040.0313,298.3281 3039.875,298.2969 3039.4063,298.2969 L3036.0156,290.0938 L3032.3438,290.0938 C3031.8906,290.0938 3031.7656,290.1094 3031.6094,290.2031 C3031.3594,290.375 3031.2031,290.6563 3031.2031,290.9375 C3031.2031,291.2188 3031.3438,291.4688 3031.5625,291.6406 C3031.7344,291.75 3031.9063,291.7813 3032.3438,291.7813 L3033.4219,291.7813 L3030.7813,298.2969 C3030.3594,298.2969 3030.2031,298.3125 3030.0469,298.4219 C3029.7969,298.5781 3029.6406,298.8594 3029.6406,299.1563 C3029.6406,299.7188 3030.0156,300 3030.7656,300 L3033.0313,300 C3033.3906,300 3033.6094,299.9688 3033.7344,299.875 C3034,299.7344 3034.1406,299.4375 3034.1406,299.1563 C3034.1406,298.875 3034.0156,298.625 3033.7969,298.4531 C3033.625,298.3281 3033.4844,298.2969 3033.0313,298.2969 L3032.6406,298.2969 L3033.0313,297.3125 L3037.0781,297.3125 Z M3036.375,295.6094 L3033.7031,295.6094 L3035.0469,292.3438 L3036.375,295.6094 Z " fill="#FFFFFF"/><text fill="#FFFFFF" font-family="sans-serif" font-size="14" font-style="italic" lengthAdjust="spacing" textLength="106" x="3049" y="300.3467">StageObserver</text><line style="stroke:#E7E7E7;stroke-width:0.5;" x1="3021" x2="3157" y1="311.5" y2="311.5"/><line style="stroke:#E7E7E7;stroke-width:0.5;" x1="3021" x2="3157" y1="319.5" y2="319.5"/></g><!--class Observed--><g id="elem_Observed"><rect codeLine="17" fill="#303030" height="80.5938" id="Observed" rx="2.5" ry="2.5" style="stroke:#E7E7E7;stroke-width:0.5;" width="268" x="1468" y="263"/><ellipse cx="1563.75" cy="279" fill="#2A5D60" rx="11" ry="11" style="stroke:#E7E7E7;stroke-width:1.0;"/><path d="M1565.8281,280.8125 L1566.2188,281.7969 L1565.8281,281.7969 C1565.375,281.7969 1565.2656,281.8125 1565.1094,281.9219 C1564.8594,282.0781 1564.7031,282.3594 1564.7031,282.6563 C1564.7031,282.9219 1564.8438,283.1719 1565.0625,283.3281 C1565.2031,283.4531 1565.4063,283.5 1565.8281,283.5 L1568.1875,283.5 C1568.5469,283.5 1568.7656,283.4688 1568.9063,283.375 C1569.1563,283.2344 1569.3125,282.9375 1569.3125,282.6563 C1569.3125,282.375 1569.1719,282.125 1568.9531,281.9688 C1568.7813,281.8281 1568.625,281.7969 1568.1563,281.7969 L1564.7656,273.5938 L1561.0938,273.5938 C1560.6406,273.5938 1560.5156,273.6094 1560.3594,273.7031 C1560.1094,273.875 1559.9531,274.1563 1559.9531,274.4375 C1559.9531,274.7188 1560.0938,274.9688 1560.3125,275.1406 C1560.4844,275.25 1560.6563,275.2813 1561.0938,275.2813 L1562.1719,275.2813 L1559.5313,281.7969 C1559.1094,281.7969 1558.9531,281.8125 1558.7969,281.9219 C1558.5469,282.0781 1558.3906,282.3594 1558.3906,282.6563 C1558.3906,283.2188 1558.7656,283.5 1559.5156,283.5 L1561.7813,283.5 C1562.1406,283.5 1562.3594,283.4688 1562.4844,283.375 C1562.75,283.2344 1562.8906,282.9375 1562.8906,282.6563 C1562.8906,282.375 1562.7656,282.125 1562.5469,281.9531 C1562.375,281.8281 1562.2344,281.7969 1561.7813,281.7969 L1561.3906,281.7969 L1561.7813,280.8125 L1565.8281,280.8125 Z M1565.125,279.1094 L1562.4531,279.1094 L1563.7969,275.8438 L1565.125,279.1094 Z " fill="#FFFFFF"/><text fill="#FFFFFF" font-family="sans-serif" font-size="14" font-style="italic" lengthAdjust="spacing" textLength="68" x="1584.25" y="283.8467">Observed</text><line style="stroke:#E7E7E7;stroke-width:0.5;" x1="1469" x2="1735" y1="295" y2="295"/><line style="stroke:#E7E7E7;stroke-width:0.5;" x1="1469" x2="1735" y1="303" y2="303"/><ellipse cx="1479" cy="316.6484" fill="#84BE84" rx="3" ry="3" style="stroke:#038048;stroke-width:1.0;"/><text fill="#FFFFFF" font-family="sans-serif" font-size="14" lengthAdjust="spacing" textLength="242" x="1488" y="319.9951">addObs(observer: Observer): void</text><ellipse cx="1479" cy="332.9453" fill="#84BE84" rx="3" ry="3" style="stroke:#038048;stroke-width:1.0;"/><text fill="#FFFFFF" font-family="sans-serif" font-size="14" lengthAdjust="spacing" textLength="120" x="1488" y="336.292">notifyObs(): void</text></g><!--class GlobalView--><g id="elem_GlobalView"><rect codeLine="22" fill="#303030" height="129.4844" id="GlobalView" rx="2.5" ry="2.5" style="stroke:#E7E7E7;stroke-width:0.5;" width="356" x="2629" y="239"/><ellipse cx="2762.75" cy="255" fill="#2E5233" rx="11" ry="11" style="stroke:#E7E7E7;stroke-width:1.0;"/><path d="M2765.0938,250.6719 C2764.1563,250.2344 2763.5625,250.0938 2762.6875,250.0938 C2760.0625,250.0938 2758.0625,252.1719 2758.0625,254.8906 L2758.0625,256.0156 C2758.0625,258.5938 2760.1719,260.4844 2763.0625,260.4844 C2764.2813,260.4844 2765.4375,260.1875 2766.1875,259.6406 C2766.7656,259.2344 2767.0938,258.7813 2767.0938,258.3906 C2767.0938,257.9375 2766.7031,257.5469 2766.2344,257.5469 C2766.0156,257.5469 2765.8125,257.625 2765.625,257.8125 C2765.1719,258.2969 2765.1719,258.2969 2764.9844,258.3906 C2764.5625,258.6563 2763.875,258.7813 2763.1094,258.7813 C2761.0625,258.7813 2759.7656,257.6875 2759.7656,255.9844 L2759.7656,254.8906 C2759.7656,253.1094 2761.0156,251.7969 2762.75,251.7969 C2763.3281,251.7969 2763.9375,251.9531 2764.4063,252.2031 C2764.8906,252.4844 2765.0625,252.7031 2765.1563,253.1094 C2765.2188,253.5156 2765.25,253.6406 2765.3906,253.7656 C2765.5313,253.9063 2765.7656,254.0156 2765.9844,254.0156 C2766.25,254.0156 2766.5156,253.875 2766.6875,253.6563 C2766.7969,253.5 2766.8281,253.3125 2766.8281,252.8906 L2766.8281,251.4688 C2766.8281,251.0313 2766.8125,250.9063 2766.7188,250.75 C2766.5625,250.4844 2766.2813,250.3438 2765.9844,250.3438 C2765.6875,250.3438 2765.4844,250.4375 2765.2656,250.75 L2765.0938,250.6719 Z " fill="#FFFFFF"/><text fill="#FFFFFF" font-family="sans-serif" font-size="14" lengthAdjust="spacing" textLength="80" x="2783.25" y="259.8467">GlobalView</text><line style="stroke:#E7E7E7;stroke-width:0.5;" x1="2630" x2="2984" y1="271" y2="271"/><line style="stroke:#E7E7E7;stroke-width:0.5;" x1="2630" x2="2984" y1="279" y2="279"/><ellipse cx="2640" cy="292.6484" fill="#84BE84" rx="3" ry="3" style="stroke:#038048;stroke-width:1.0;"/><text fill="#FFFFFF" font-family="sans-serif" font-size="14" lengthAdjust="spacing" textLength="135" x="2649" y="295.9951">removeDeck(i: int)</text><ellipse cx="2640" cy="308.9453" fill="#84BE84" rx="3" ry="3" style="stroke:#038048;stroke-width:1.0;"/><text fill="#FFFFFF" font-family="sans-serif" font-size="14" lengthAdjust="spacing" textLength="129" x="2649" y="312.292">exportDeck(i: int)</text><ellipse cx="2640" cy="325.2422" fill="#84BE84" rx="3" ry="3" style="stroke:#038048;stroke-width:1.0;"/><text fill="#FFFFFF" font-family="sans-serif" font-size="14" lengthAdjust="spacing" textLength="97" x="2649" y="328.5889">importDeck()</text><ellipse cx="2640" cy="341.5391" fill="#84BE84" rx="3" ry="3" style="stroke:#038048;stroke-width:1.0;"/><text fill="#FFFFFF" font-family="sans-serif" font-size="14" lengthAdjust="spacing" textLength="330" x="2649" y="344.8857">createDeck(name: String, description: String)</text><ellipse cx="2640" cy="357.8359" fill="#84BE84" rx="3" ry="3" style="stroke:#038048;stroke-width:1.0;"/><text fill="#FFFFFF" font-family="sans-serif" font-size="14" lengthAdjust="spacing" textLength="136" x="2649" y="361.1826">toDeckView(): void</text></g><!--class DeckView--><g id="elem_DeckView"><rect codeLine="30" fill="#303030" height="129.4844" id="DeckView" rx="2.5" ry="2.5" style="stroke:#E7E7E7;stroke-width:0.5;" width="321" x="2201.5" y="239"/><ellipse cx="2322.25" cy="255" fill="#2E5233" rx="11" ry="11" style="stroke:#E7E7E7;stroke-width:1.0;"/><path d="M2324.5938,250.6719 C2323.6563,250.2344 2323.0625,250.0938 2322.1875,250.0938 C2319.5625,250.0938 2317.5625,252.1719 2317.5625,254.8906 L2317.5625,256.0156 C2317.5625,258.5938 2319.6719,260.4844 2322.5625,260.4844 C2323.7813,260.4844 2324.9375,260.1875 2325.6875,259.6406 C2326.2656,259.2344 2326.5938,258.7813 2326.5938,258.3906 C2326.5938,257.9375 2326.2031,257.5469 2325.7344,257.5469 C2325.5156,257.5469 2325.3125,257.625 2325.125,257.8125 C2324.6719,258.2969 2324.6719,258.2969 2324.4844,258.3906 C2324.0625,258.6563 2323.375,258.7813 2322.6094,258.7813 C2320.5625,258.7813 2319.2656,257.6875 2319.2656,255.9844 L2319.2656,254.8906 C2319.2656,253.1094 2320.5156,251.7969 2322.25,251.7969 C2322.8281,251.7969 2323.4375,251.9531 2323.9063,252.2031 C2324.3906,252.4844 2324.5625,252.7031 2324.6563,253.1094 C2324.7188,253.5156 2324.75,253.6406 2324.8906,253.7656 C2325.0313,253.9063 2325.2656,254.0156 2325.4844,254.0156 C2325.75,254.0156 2326.0156,253.875 2326.1875,253.6563 C2326.2969,253.5 2326.3281,253.3125 2326.3281,252.8906 L2326.3281,251.4688 C2326.3281,251.0313 2326.3125,250.9063 2326.2188,250.75 C2326.0625,250.4844 2325.7813,250.3438 2325.4844,250.3438 C2325.1875,250.3438 2324.9844,250.4375 2324.7656,250.75 L2324.5938,250.6719 Z " fill="#FFFFFF"/><text fill="#FFFFFF" font-family="sans-serif" font-size="14" lengthAdjust="spacing" textLength="71" x="2342.75" y="259.8467">DeckView</text><line style="stroke:#E7E7E7;stroke-width:0.5;" x1="2202.5" x2="2521.5" y1="271" y2="271"/><line style="stroke:#E7E7E7;stroke-width:0.5;" x1="2202.5" x2="2521.5" y1="279" y2="279"/><ellipse cx="2212.5" cy="292.6484" fill="#84BE84" rx="3" ry="3" style="stroke:#038048;stroke-width:1.0;"/><text fill="#FFFFFF" font-family="sans-serif" font-size="14" lengthAdjust="spacing" textLength="173" x="2221.5" y="295.9951">editName(name: String)</text><ellipse cx="2212.5" cy="308.9453" fill="#84BE84" rx="3" ry="3" style="stroke:#038048;stroke-width:1.0;"/><text fill="#FFFFFF" font-family="sans-serif" font-size="14" lengthAdjust="spacing" textLength="258" x="2221.5" y="312.292">editDescription(description: String)</text><ellipse cx="2212.5" cy="325.2422" fill="#84BE84" rx="3" ry="3" style="stroke:#038048;stroke-width:1.0;"/><text fill="#FFFFFF" font-family="sans-serif" font-size="14" lengthAdjust="spacing" textLength="295" x="2221.5" y="328.5889">addCard(question: String, answer: String)</text><ellipse cx="2212.5" cy="341.5391" fill="#84BE84" rx="3" ry="3" style="stroke:#038048;stroke-width:1.0;"/><text fill="#FFFFFF" font-family="sans-serif" font-size="14" lengthAdjust="spacing" textLength="213" x="2221.5" y="344.8857">removeCard(question: String)</text><ellipse cx="2212.5" cy="357.8359" fill="#84BE84" rx="3" ry="3" style="stroke:#038048;stroke-width:1.0;"/><text fill="#FFFFFF" font-family="sans-serif" font-size="14" lengthAdjust="spacing" textLength="145" x="2221.5" y="361.1826">toGlobalView(): void</text></g><!--class StageView--><g id="elem_StageView"><rect codeLine="38" fill="#303030" height="48" id="StageView" rx="2.5" ry="2.5" style="stroke:#E7E7E7;stroke-width:0.5;" width="108" x="3039" y="509.5"/><ellipse cx="3054" cy="525.5" fill="#2E5233" rx="11" ry="11" style="stroke:#E7E7E7;stroke-width:1.0;"/><path d="M3056.3438,521.1719 C3055.4063,520.7344 3054.8125,520.5938 3053.9375,520.5938 C3051.3125,520.5938 3049.3125,522.6719 3049.3125,525.3906 L3049.3125,526.5156 C3049.3125,529.0938 3051.4219,530.9844 3054.3125,530.9844 C3055.5313,530.9844 3056.6875,530.6875 3057.4375,530.1406 C3058.0156,529.7344 3058.3438,529.2813 3058.3438,528.8906 C3058.3438,528.4375 3057.9531,528.0469 3057.4844,528.0469 C3057.2656,528.0469 3057.0625,528.125 3056.875,528.3125 C3056.4219,528.7969 3056.4219,528.7969 3056.2344,528.8906 C3055.8125,529.1563 3055.125,529.2813 3054.3594,529.2813 C3052.3125,529.2813 3051.0156,528.1875 3051.0156,526.4844 L3051.0156,525.3906 C3051.0156,523.6094 3052.2656,522.2969 3054,522.2969 C3054.5781,522.2969 3055.1875,522.4531 3055.6563,522.7031 C3056.1406,522.9844 3056.3125,523.2031 3056.4063,523.6094 C3056.4688,524.0156 3056.5,524.1406 3056.6406,524.2656 C3056.7813,524.4063 3057.0156,524.5156 3057.2344,524.5156 C3057.5,524.5156 3057.7656,524.375 3057.9375,524.1563 C3058.0469,524 3058.0781,523.8125 3058.0781,523.3906 L3058.0781,521.9688 C3058.0781,521.5313 3058.0625,521.4063 3057.9688,521.25 C3057.8125,520.9844 3057.5313,520.8438 3057.2344,520.8438 C3056.9375,520.8438 3056.7344,520.9375 3056.5156,521.25 L3056.3438,521.1719 Z " fill="#FFFFFF"/><text fill="#FFFFFF" font-family="sans-serif" font-size="14" lengthAdjust="spacing" textLength="76" x="3068" y="530.3467">StageView</text><line style="stroke:#E7E7E7;stroke-width:0.5;" x1="3040" x2="3146" y1="541.5" y2="541.5"/><line style="stroke:#E7E7E7;stroke-width:0.5;" x1="3040" x2="3146" y1="549.5" y2="549.5"/></g><!--class DeckListModel--><g id="elem_DeckListModel"><rect codeLine="41" fill="#303030" height="96.8906" id="DeckListModel" rx="2.5" ry="2.5" style="stroke:#E7E7E7;stroke-width:0.5;" width="374" x="1782" y="485"/><ellipse cx="1911.75" cy="501" fill="#2E5233" rx="11" ry="11" style="stroke:#E7E7E7;stroke-width:1.0;"/><path d="M1914.0938,496.6719 C1913.1563,496.2344 1912.5625,496.0938 1911.6875,496.0938 C1909.0625,496.0938 1907.0625,498.1719 1907.0625,500.8906 L1907.0625,502.0156 C1907.0625,504.5938 1909.1719,506.4844 1912.0625,506.4844 C1913.2813,506.4844 1914.4375,506.1875 1915.1875,505.6406 C1915.7656,505.2344 1916.0938,504.7813 1916.0938,504.3906 C1916.0938,503.9375 1915.7031,503.5469 1915.2344,503.5469 C1915.0156,503.5469 1914.8125,503.625 1914.625,503.8125 C1914.1719,504.2969 1914.1719,504.2969 1913.9844,504.3906 C1913.5625,504.6563 1912.875,504.7813 1912.1094,504.7813 C1910.0625,504.7813 1908.7656,503.6875 1908.7656,501.9844 L1908.7656,500.8906 C1908.7656,499.1094 1910.0156,497.7969 1911.75,497.7969 C1912.3281,497.7969 1912.9375,497.9531 1913.4063,498.2031 C1913.8906,498.4844 1914.0625,498.7031 1914.1563,499.1094 C1914.2188,499.5156 1914.25,499.6406 1914.3906,499.7656 C1914.5313,499.9063 1914.7656,500.0156 1914.9844,500.0156 C1915.25,500.0156 1915.5156,499.875 1915.6875,499.6563 C1915.7969,499.5 1915.8281,499.3125 1915.8281,498.8906 L1915.8281,497.4688 C1915.8281,497.0313 1915.8125,496.9063 1915.7188,496.75 C1915.5625,496.4844 1915.2813,496.3438 1914.9844,496.3438 C1914.6875,496.3438 1914.4844,496.4375 1914.2656,496.75 L1914.0938,496.6719 Z " fill="#FFFFFF"/><text fill="#FFFFFF" font-family="sans-serif" font-size="14" lengthAdjust="spacing" textLength="106" x="1932.25" y="505.8467">DeckListModel</text><line style="stroke:#E7E7E7;stroke-width:0.5;" x1="1783" x2="2155" y1="517" y2="517"/><line style="stroke:#E7E7E7;stroke-width:0.5;" x1="1783" x2="2155" y1="525" y2="525"/><ellipse cx="1793" cy="538.6484" fill="#84BE84" rx="3" ry="3" style="stroke:#038048;stroke-width:1.0;"/><text fill="#FFFFFF" font-family="sans-serif" font-size="14" lengthAdjust="spacing" textLength="348" x="1802" y="541.9951">addDeck(name: String, description: String): void</text><ellipse cx="1793" cy="554.9453" fill="#84BE84" rx="3" ry="3" style="stroke:#038048;stroke-width:1.0;"/><text fill="#FFFFFF" font-family="sans-serif" font-size="14" lengthAdjust="spacing" textLength="174" x="1802" y="558.292">removeDeck(i: int): void</text><ellipse cx="1793" cy="571.2422" fill="#84BE84" rx="3" ry="3" style="stroke:#038048;stroke-width:1.0;"/><text fill="#FFFFFF" font-family="sans-serif" font-size="14" lengthAdjust="spacing" textLength="92" x="1802" y="574.5889">notify(): void</text></g><!--class DeckModel--><g id="elem_DeckModel"><rect codeLine="47" fill="#303030" height="210.9688" id="DeckModel" rx="2.5" ry="2.5" style="stroke:#E7E7E7;stroke-width:0.5;" width="432" x="625" y="428"/><ellipse cx="796.75" cy="444" fill="#2E5233" rx="11" ry="11" style="stroke:#E7E7E7;stroke-width:1.0;"/><path d="M799.0938,439.6719 C798.1563,439.2344 797.5625,439.0938 796.6875,439.0938 C794.0625,439.0938 792.0625,441.1719 792.0625,443.8906 L792.0625,445.0156 C792.0625,447.5938 794.1719,449.4844 797.0625,449.4844 C798.2813,449.4844 799.4375,449.1875 800.1875,448.6406 C800.7656,448.2344 801.0938,447.7813 801.0938,447.3906 C801.0938,446.9375 800.7031,446.5469 800.2344,446.5469 C800.0156,446.5469 799.8125,446.625 799.625,446.8125 C799.1719,447.2969 799.1719,447.2969 798.9844,447.3906 C798.5625,447.6563 797.875,447.7813 797.1094,447.7813 C795.0625,447.7813 793.7656,446.6875 793.7656,444.9844 L793.7656,443.8906 C793.7656,442.1094 795.0156,440.7969 796.75,440.7969 C797.3281,440.7969 797.9375,440.9531 798.4063,441.2031 C798.8906,441.4844 799.0625,441.7031 799.1563,442.1094 C799.2188,442.5156 799.25,442.6406 799.3906,442.7656 C799.5313,442.9063 799.7656,443.0156 799.9844,443.0156 C800.25,443.0156 800.5156,442.875 800.6875,442.6563 C800.7969,442.5 800.8281,442.3125 800.8281,441.8906 L800.8281,440.4688 C800.8281,440.0313 800.8125,439.9063 800.7188,439.75 C800.5625,439.4844 800.2813,439.3438 799.9844,439.3438 C799.6875,439.3438 799.4844,439.4375 799.2656,439.75 L799.0938,439.6719 Z " fill="#FFFFFF"/><text fill="#FFFFFF" font-family="sans-serif" font-size="14" lengthAdjust="spacing" textLength="80" x="817.25" y="448.8467">DeckModel</text><line style="stroke:#E7E7E7;stroke-width:0.5;" x1="626" x2="1056" y1="460" y2="460"/><rect fill="none" height="6" style="stroke:#C82930;stroke-width:1.0;" width="6" x="633" y="470.6484"/><text fill="#FFFFFF" font-family="sans-serif" font-size="14" lengthAdjust="spacing" textLength="93" x="645" y="476.9951">name: String</text><rect fill="none" height="6" style="stroke:#C82930;stroke-width:1.0;" width="6" x="633" y="486.9453"/><text fill="#FFFFFF" font-family="sans-serif" font-size="14" lengthAdjust="spacing" textLength="135" x="645" y="493.292">description: String</text><rect fill="none" height="6" style="stroke:#C82930;stroke-width:1.0;" width="6" x="633" y="503.2422"/><text fill="#FFFFFF" font-family="sans-serif" font-size="14" lengthAdjust="spacing" textLength="106" x="645" y="509.5889">activeCard: int</text><line style="stroke:#E7E7E7;stroke-width:0.5;" x1="626" x2="1056" y1="516.8906" y2="516.8906"/><ellipse cx="636" cy="530.5391" fill="#84BE84" rx="3" ry="3" style="stroke:#038048;stroke-width:1.0;"/><text fill="#FFFFFF" font-family="sans-serif" font-size="14" lengthAdjust="spacing" textLength="206" x="645" y="533.8857">setName(name: String): void</text><ellipse cx="636" cy="546.8359" fill="#84BE84" rx="3" ry="3" style="stroke:#038048;stroke-width:1.0;"/><text fill="#FFFFFF" font-family="sans-serif" font-size="14" lengthAdjust="spacing" textLength="291" x="645" y="550.1826">setDescription(description: String): void</text><ellipse cx="636" cy="563.1328" fill="#84BE84" rx="3" ry="3" style="stroke:#038048;stroke-width:1.0;"/><text fill="#FFFFFF" font-family="sans-serif" font-size="14" lengthAdjust="spacing" textLength="193" x="645" y="566.4795">setActiveCard(id: int): void</text><ellipse cx="636" cy="579.4297" fill="#84BE84" rx="3" ry="3" style="stroke:#038048;stroke-width:1.0;"/><text fill="#FFFFFF" font-family="sans-serif" font-size="14" lengthAdjust="spacing" textLength="406" x="645" y="582.7764">setDrawCardStrategy(strategy: DrawCardStrategy): void</text><ellipse cx="636" cy="595.7266" fill="#84BE84" rx="3" ry="3" style="stroke:#038048;stroke-width:1.0;"/><text fill="#FFFFFF" font-family="sans-serif" font-size="14" lengthAdjust="spacing" textLength="404" x="645" y="599.0732">setBuildCardStrategy(strategy: BuildCardStrategy): void</text><ellipse cx="636" cy="612.0234" fill="#84BE84" rx="3" ry="3" style="stroke:#038048;stroke-width:1.0;"/><text fill="#FFFFFF" font-family="sans-serif" font-size="14" lengthAdjust="spacing" textLength="334" x="645" y="615.3701">addCard(question: String, answer: String): void</text><ellipse cx="636" cy="628.3203" fill="#84BE84" rx="3" ry="3" style="stroke:#038048;stroke-width:1.0;"/><text fill="#FFFFFF" font-family="sans-serif" font-size="14" lengthAdjust="spacing" textLength="179" x="645" y="631.667">removeCard(id: int): void</text></g><!--class CardModel--><g id="elem_CardModel"><rect codeLine="60" fill="#303030" height="129.4844" id="CardModel" rx="2.5" ry="2.5" style="stroke:#E7E7E7;stroke-width:0.5;" width="277" x="1272.5" y="469"/><ellipse cx="1368.75" cy="485" fill="#2E5233" rx="11" ry="11" style="stroke:#E7E7E7;stroke-width:1.0;"/><path d="M1371.0938,480.6719 C1370.1563,480.2344 1369.5625,480.0938 1368.6875,480.0938 C1366.0625,480.0938 1364.0625,482.1719 1364.0625,484.8906 L1364.0625,486.0156 C1364.0625,488.5938 1366.1719,490.4844 1369.0625,490.4844 C1370.2813,490.4844 1371.4375,490.1875 1372.1875,489.6406 C1372.7656,489.2344 1373.0938,488.7813 1373.0938,488.3906 C1373.0938,487.9375 1372.7031,487.5469 1372.2344,487.5469 C1372.0156,487.5469 1371.8125,487.625 1371.625,487.8125 C1371.1719,488.2969 1371.1719,488.2969 1370.9844,488.3906 C1370.5625,488.6563 1369.875,488.7813 1369.1094,488.7813 C1367.0625,488.7813 1365.7656,487.6875 1365.7656,485.9844 L1365.7656,484.8906 C1365.7656,483.1094 1367.0156,481.7969 1368.75,481.7969 C1369.3281,481.7969 1369.9375,481.9531 1370.4063,482.2031 C1370.8906,482.4844 1371.0625,482.7031 1371.1563,483.1094 C1371.2188,483.5156 1371.25,483.6406 1371.3906,483.7656 C1371.5313,483.9063 1371.7656,484.0156 1371.9844,484.0156 C1372.25,484.0156 1372.5156,483.875 1372.6875,483.6563 C1372.7969,483.5 1372.8281,483.3125 1372.8281,482.8906 L1372.8281,481.4688 C1372.8281,481.0313 1372.8125,480.9063 1372.7188,480.75 C1372.5625,480.4844 1372.2813,480.3438 1371.9844,480.3438 C1371.6875,480.3438 1371.4844,480.4375 1371.2656,480.75 L1371.0938,480.6719 Z " fill="#FFFFFF"/><text fill="#FFFFFF" font-family="sans-serif" font-size="14" lengthAdjust="spacing" textLength="76" x="1389.25" y="489.8467">CardModel</text><line style="stroke:#E7E7E7;stroke-width:0.5;" x1="1273.5" x2="1548.5" y1="501" y2="501"/><rect fill="none" height="6" style="stroke:#C82930;stroke-width:1.0;" width="6" x="1280.5" y="511.6484"/><text fill="#FFFFFF" font-family="sans-serif" font-size="14" lengthAdjust="spacing" textLength="115" x="1292.5" y="517.9951">question: String</text><rect fill="none" height="6" style="stroke:#C82930;stroke-width:1.0;" width="6" x="1280.5" y="527.9453"/><text fill="#FFFFFF" font-family="sans-serif" font-size="14" lengthAdjust="spacing" textLength="103" x="1292.5" y="534.292">answer: String</text><rect fill="none" height="6" style="stroke:#C82930;stroke-width:1.0;" width="6" x="1280.5" y="544.2422"/><text fill="#FFFFFF" font-family="sans-serif" font-size="14" lengthAdjust="spacing" textLength="123" x="1292.5" y="550.5889">probability: float</text><line style="stroke:#E7E7E7;stroke-width:0.5;" x1="1273.5" x2="1548.5" y1="557.8906" y2="557.8906"/><ellipse cx="1283.5" cy="571.5391" fill="#84BE84" rx="3" ry="3" style="stroke:#038048;stroke-width:1.0;"/><text fill="#FFFFFF" font-family="sans-serif" font-size="14" lengthAdjust="spacing" textLength="251" x="1292.5" y="574.8857">setQuestion(question: String): void</text><ellipse cx="1283.5" cy="587.8359" fill="#84BE84" rx="3" ry="3" style="stroke:#038048;stroke-width:1.0;"/><text fill="#FFFFFF" font-family="sans-serif" font-size="14" lengthAdjust="spacing" textLength="227" x="1292.5" y="591.1826">setAnswer(answer: String): void</text></g><!--class StageModel--><g id="elem_StageModel"><rect codeLine="68" fill="#303030" height="80.5938" id="StageModel" rx="2.5" ry="2.5" style="stroke:#E7E7E7;stroke-width:0.5;" width="259" x="2673.5" y="699"/><ellipse cx="2756.25" cy="715" fill="#2E5233" rx="11" ry="11" style="stroke:#E7E7E7;stroke-width:1.0;"/><path d="M2758.5938,710.6719 C2757.6563,710.2344 2757.0625,710.0938 2756.1875,710.0938 C2753.5625,710.0938 2751.5625,712.1719 2751.5625,714.8906 L2751.5625,716.0156 C2751.5625,718.5938 2753.6719,720.4844 2756.5625,720.4844 C2757.7813,720.4844 2758.9375,720.1875 2759.6875,719.6406 C2760.2656,719.2344 2760.5938,718.7813 2760.5938,718.3906 C2760.5938,717.9375 2760.2031,717.5469 2759.7344,717.5469 C2759.5156,717.5469 2759.3125,717.625 2759.125,717.8125 C2758.6719,718.2969 2758.6719,718.2969 2758.4844,718.3906 C2758.0625,718.6563 2757.375,718.7813 2756.6094,718.7813 C2754.5625,718.7813 2753.2656,717.6875 2753.2656,715.9844 L2753.2656,714.8906 C2753.2656,713.1094 2754.5156,711.7969 2756.25,711.7969 C2756.8281,711.7969 2757.4375,711.9531 2757.9063,712.2031 C2758.3906,712.4844 2758.5625,712.7031 2758.6563,713.1094 C2758.7188,713.5156 2758.75,713.6406 2758.8906,713.7656 C2759.0313,713.9063 2759.2656,714.0156 2759.4844,714.0156 C2759.75,714.0156 2760.0156,713.875 2760.1875,713.6563 C2760.2969,713.5 2760.3281,713.3125 2760.3281,712.8906 L2760.3281,711.4688 C2760.3281,711.0313 2760.3125,710.9063 2760.2188,710.75 C2760.0625,710.4844 2759.7813,710.3438 2759.4844,710.3438 C2759.1875,710.3438 2758.9844,710.4375 2758.7656,710.75 L2758.5938,710.6719 Z " fill="#FFFFFF"/><text fill="#FFFFFF" font-family="sans-serif" font-size="14" lengthAdjust="spacing" textLength="85" x="2776.75" y="719.8467">StageModel</text><line style="stroke:#E7E7E7;stroke-width:0.5;" x1="2674.5" x2="2931.5" y1="731" y2="731"/><rect fill="none" height="6" style="stroke:#C82930;stroke-width:1.0;" width="6" x="2681.5" y="741.6484"/><text fill="#FFFFFF" font-family="sans-serif" font-size="14" lengthAdjust="spacing" textLength="117" x="2693.5" y="747.9951">activeScene: int</text><line style="stroke:#E7E7E7;stroke-width:0.5;" x1="2674.5" x2="2931.5" y1="755.2969" y2="755.2969"/><ellipse cx="2684.5" cy="768.9453" fill="#84BE84" rx="3" ry="3" style="stroke:#038048;stroke-width:1.0;"/><text fill="#FFFFFF" font-family="sans-serif" font-size="14" lengthAdjust="spacing" textLength="233" x="2693.5" y="772.292">setActiveScene(scene: int): void</text></g><!--class DeckListController--><g id="elem_DeckListController"><rect codeLine="73" fill="#303030" height="113.1875" id="DeckListController" rx="2.5" ry="2.5" style="stroke:#E7E7E7;stroke-width:0.5;" width="395" x="1771.5" y="247"/><ellipse cx="1896.75" cy="263" fill="#2E5233" rx="11" ry="11" style="stroke:#E7E7E7;stroke-width:1.0;"/><path d="M1899.0938,258.6719 C1898.1563,258.2344 1897.5625,258.0938 1896.6875,258.0938 C1894.0625,258.0938 1892.0625,260.1719 1892.0625,262.8906 L1892.0625,264.0156 C1892.0625,266.5938 1894.1719,268.4844 1897.0625,268.4844 C1898.2813,268.4844 1899.4375,268.1875 1900.1875,267.6406 C1900.7656,267.2344 1901.0938,266.7813 1901.0938,266.3906 C1901.0938,265.9375 1900.7031,265.5469 1900.2344,265.5469 C1900.0156,265.5469 1899.8125,265.625 1899.625,265.8125 C1899.1719,266.2969 1899.1719,266.2969 1898.9844,266.3906 C1898.5625,266.6563 1897.875,266.7813 1897.1094,266.7813 C1895.0625,266.7813 1893.7656,265.6875 1893.7656,263.9844 L1893.7656,262.8906 C1893.7656,261.1094 1895.0156,259.7969 1896.75,259.7969 C1897.3281,259.7969 1897.9375,259.9531 1898.4063,260.2031 C1898.8906,260.4844 1899.0625,260.7031 1899.1563,261.1094 C1899.2188,261.5156 1899.25,261.6406 1899.3906,261.7656 C1899.5313,261.9063 1899.7656,262.0156 1899.9844,262.0156 C1900.25,262.0156 1900.5156,261.875 1900.6875,261.6563 C1900.7969,261.5 1900.8281,261.3125 1900.8281,260.8906 L1900.8281,259.4688 C1900.8281,259.0313 1900.8125,258.9063 1900.7188,258.75 C1900.5625,258.4844 1900.2813,258.3438 1899.9844,258.3438 C1899.6875,258.3438 1899.4844,258.4375 1899.2656,258.75 L1899.0938,258.6719 Z " fill="#FFFFFF"/><text fill="#FFFFFF" font-family="sans-serif" font-size="14" lengthAdjust="spacing" textLength="136" x="1917.25" y="267.8467">DeckListController</text><line style="stroke:#E7E7E7;stroke-width:0.5;" x1="1772.5" x2="2165.5" y1="279" y2="279"/><line style="stroke:#E7E7E7;stroke-width:0.5;" x1="1772.5" x2="2165.5" y1="287" y2="287"/><ellipse cx="1782.5" cy="300.6484" fill="#84BE84" rx="3" ry="3" style="stroke:#038048;stroke-width:1.0;"/><text fill="#FFFFFF" font-family="sans-serif" font-size="14" lengthAdjust="spacing" textLength="369" x="1791.5" y="303.9951">createDeck(name: String, description: String): void</text><ellipse cx="1782.5" cy="316.9453" fill="#84BE84" rx="3" ry="3" style="stroke:#038048;stroke-width:1.0;"/><text fill="#FFFFFF" font-family="sans-serif" font-size="14" lengthAdjust="spacing" textLength="166" x="1791.5" y="320.292">deleteDeck(i: int): void</text><ellipse cx="1782.5" cy="333.2422" fill="#84BE84" rx="3" ry="3" style="stroke:#038048;stroke-width:1.0;"/><text fill="#FFFFFF" font-family="sans-serif" font-size="14" lengthAdjust="spacing" textLength="168" x="1791.5" y="336.5889">exportDeck(i: int): void</text><ellipse cx="1782.5" cy="349.5391" fill="#84BE84" rx="3" ry="3" style="stroke:#038048;stroke-width:1.0;"/><text fill="#FFFFFF" font-family="sans-serif" font-size="14" lengthAdjust="spacing" textLength="136" x="1791.5" y="352.8857">importDeck(): void</text></g><!--class DeckController--><g id="elem_DeckController"><rect codeLine="80" fill="#303030" height="113.1875" id="DeckController" rx="2.5" ry="2.5" style="stroke:#E7E7E7;stroke-width:0.5;" width="360" x="618" y="247"/><ellipse cx="738.75" cy="263" fill="#2E5233" rx="11" ry="11" style="stroke:#E7E7E7;stroke-width:1.0;"/><path d="M741.0938,258.6719 C740.1563,258.2344 739.5625,258.0938 738.6875,258.0938 C736.0625,258.0938 734.0625,260.1719 734.0625,262.8906 L734.0625,264.0156 C734.0625,266.5938 736.1719,268.4844 739.0625,268.4844 C740.2813,268.4844 741.4375,268.1875 742.1875,267.6406 C742.7656,267.2344 743.0938,266.7813 743.0938,266.3906 C743.0938,265.9375 742.7031,265.5469 742.2344,265.5469 C742.0156,265.5469 741.8125,265.625 741.625,265.8125 C741.1719,266.2969 741.1719,266.2969 740.9844,266.3906 C740.5625,266.6563 739.875,266.7813 739.1094,266.7813 C737.0625,266.7813 735.7656,265.6875 735.7656,263.9844 L735.7656,262.8906 C735.7656,261.1094 737.0156,259.7969 738.75,259.7969 C739.3281,259.7969 739.9375,259.9531 740.4063,260.2031 C740.8906,260.4844 741.0625,260.7031 741.1563,261.1094 C741.2188,261.5156 741.25,261.6406 741.3906,261.7656 C741.5313,261.9063 741.7656,262.0156 741.9844,262.0156 C742.25,262.0156 742.5156,261.875 742.6875,261.6563 C742.7969,261.5 742.8281,261.3125 742.8281,260.8906 L742.8281,259.4688 C742.8281,259.0313 742.8125,258.9063 742.7188,258.75 C742.5625,258.4844 742.2813,258.3438 741.9844,258.3438 C741.6875,258.3438 741.4844,258.4375 741.2656,258.75 L741.0938,258.6719 Z " fill="#FFFFFF"/><text fill="#FFFFFF" font-family="sans-serif" font-size="14" lengthAdjust="spacing" textLength="110" x="759.25" y="267.8467">DeckController</text><line style="stroke:#E7E7E7;stroke-width:0.5;" x1="619" x2="977" y1="279" y2="279"/><line style="stroke:#E7E7E7;stroke-width:0.5;" x1="619" x2="977" y1="287" y2="287"/><ellipse cx="629" cy="300.6484" fill="#84BE84" rx="3" ry="3" style="stroke:#038048;stroke-width:1.0;"/><text fill="#FFFFFF" font-family="sans-serif" font-size="14" lengthAdjust="spacing" textLength="206" x="638" y="303.9951">setName(name: String): void</text><ellipse cx="629" cy="316.9453" fill="#84BE84" rx="3" ry="3" style="stroke:#038048;stroke-width:1.0;"/><text fill="#FFFFFF" font-family="sans-serif" font-size="14" lengthAdjust="spacing" textLength="291" x="638" y="320.292">setDescription(description: String): void</text><ellipse cx="629" cy="333.2422" fill="#84BE84" rx="3" ry="3" style="stroke:#038048;stroke-width:1.0;"/><text fill="#FFFFFF" font-family="sans-serif" font-size="14" lengthAdjust="spacing" textLength="334" x="638" y="336.5889">addCard(question: String, answer: String): void</text><ellipse cx="629" cy="349.5391" fill="#84BE84" rx="3" ry="3" style="stroke:#038048;stroke-width:1.0;"/><text fill="#FFFFFF" font-family="sans-serif" font-size="14" lengthAdjust="spacing" textLength="179" x="638" y="352.8857">removeCard(id: int): void</text></g><!--class CardController--><g id="elem_CardController"><rect codeLine="87" fill="#303030" height="80.5938" id="CardController" rx="2.5" ry="2.5" style="stroke:#E7E7E7;stroke-width:0.5;" width="277" x="1155.5" y="263"/><ellipse cx="1236.75" cy="279" fill="#2E5233" rx="11" ry="11" style="stroke:#E7E7E7;stroke-width:1.0;"/><path d="M1239.0938,274.6719 C1238.1563,274.2344 1237.5625,274.0938 1236.6875,274.0938 C1234.0625,274.0938 1232.0625,276.1719 1232.0625,278.8906 L1232.0625,280.0156 C1232.0625,282.5938 1234.1719,284.4844 1237.0625,284.4844 C1238.2813,284.4844 1239.4375,284.1875 1240.1875,283.6406 C1240.7656,283.2344 1241.0938,282.7813 1241.0938,282.3906 C1241.0938,281.9375 1240.7031,281.5469 1240.2344,281.5469 C1240.0156,281.5469 1239.8125,281.625 1239.625,281.8125 C1239.1719,282.2969 1239.1719,282.2969 1238.9844,282.3906 C1238.5625,282.6563 1237.875,282.7813 1237.1094,282.7813 C1235.0625,282.7813 1233.7656,281.6875 1233.7656,279.9844 L1233.7656,278.8906 C1233.7656,277.1094 1235.0156,275.7969 1236.75,275.7969 C1237.3281,275.7969 1237.9375,275.9531 1238.4063,276.2031 C1238.8906,276.4844 1239.0625,276.7031 1239.1563,277.1094 C1239.2188,277.5156 1239.25,277.6406 1239.3906,277.7656 C1239.5313,277.9063 1239.7656,278.0156 1239.9844,278.0156 C1240.25,278.0156 1240.5156,277.875 1240.6875,277.6563 C1240.7969,277.5 1240.8281,277.3125 1240.8281,276.8906 L1240.8281,275.4688 C1240.8281,275.0313 1240.8125,274.9063 1240.7188,274.75 C1240.5625,274.4844 1240.2813,274.3438 1239.9844,274.3438 C1239.6875,274.3438 1239.4844,274.4375 1239.2656,274.75 L1239.0938,274.6719 Z " fill="#FFFFFF"/><text fill="#FFFFFF" font-family="sans-serif" font-size="14" lengthAdjust="spacing" textLength="106" x="1257.25" y="283.8467">CardController</text><line style="stroke:#E7E7E7;stroke-width:0.5;" x1="1156.5" x2="1431.5" y1="295" y2="295"/><line style="stroke:#E7E7E7;stroke-width:0.5;" x1="1156.5" x2="1431.5" y1="303" y2="303"/><ellipse cx="1166.5" cy="316.6484" fill="#84BE84" rx="3" ry="3" style="stroke:#038048;stroke-width:1.0;"/><text fill="#FFFFFF" font-family="sans-serif" font-size="14" lengthAdjust="spacing" textLength="251" x="1175.5" y="319.9951">setQuestion(question: String): void</text><ellipse cx="1166.5" cy="332.9453" fill="#84BE84" rx="3" ry="3" style="stroke:#038048;stroke-width:1.0;"/><text fill="#FFFFFF" font-family="sans-serif" font-size="14" lengthAdjust="spacing" textLength="227" x="1175.5" y="336.292">setAnswer(answer: String): void</text></g><!--class StageController--><g id="elem_StageController"><rect codeLine="92" fill="#303030" height="96.8906" id="StageController" rx="2.5" ry="2.5" style="stroke:#E7E7E7;stroke-width:0.5;" width="259" x="2673.5" y="485"/><ellipse cx="2741.25" cy="501" fill="#2E5233" rx="11" ry="11" style="stroke:#E7E7E7;stroke-width:1.0;"/><path d="M2743.5938,496.6719 C2742.6563,496.2344 2742.0625,496.0938 2741.1875,496.0938 C2738.5625,496.0938 2736.5625,498.1719 2736.5625,500.8906 L2736.5625,502.0156 C2736.5625,504.5938 2738.6719,506.4844 2741.5625,506.4844 C2742.7813,506.4844 2743.9375,506.1875 2744.6875,505.6406 C2745.2656,505.2344 2745.5938,504.7813 2745.5938,504.3906 C2745.5938,503.9375 2745.2031,503.5469 2744.7344,503.5469 C2744.5156,503.5469 2744.3125,503.625 2744.125,503.8125 C2743.6719,504.2969 2743.6719,504.2969 2743.4844,504.3906 C2743.0625,504.6563 2742.375,504.7813 2741.6094,504.7813 C2739.5625,504.7813 2738.2656,503.6875 2738.2656,501.9844 L2738.2656,500.8906 C2738.2656,499.1094 2739.5156,497.7969 2741.25,497.7969 C2741.8281,497.7969 2742.4375,497.9531 2742.9063,498.2031 C2743.3906,498.4844 2743.5625,498.7031 2743.6563,499.1094 C2743.7188,499.5156 2743.75,499.6406 2743.8906,499.7656 C2744.0313,499.9063 2744.2656,500.0156 2744.4844,500.0156 C2744.75,500.0156 2745.0156,499.875 2745.1875,499.6563 C2745.2969,499.5 2745.3281,499.3125 2745.3281,498.8906 L2745.3281,497.4688 C2745.3281,497.0313 2745.3125,496.9063 2745.2188,496.75 C2745.0625,496.4844 2744.7813,496.3438 2744.4844,496.3438 C2744.1875,496.3438 2743.9844,496.4375 2743.7656,496.75 L2743.5938,496.6719 Z " fill="#FFFFFF"/><text fill="#FFFFFF" font-family="sans-serif" font-size="14" lengthAdjust="spacing" textLength="115" x="2761.75" y="505.8467">StageController</text><line style="stroke:#E7E7E7;stroke-width:0.5;" x1="2674.5" x2="2931.5" y1="517" y2="517"/><line style="stroke:#E7E7E7;stroke-width:0.5;" x1="2674.5" x2="2931.5" y1="525" y2="525"/><ellipse cx="2684.5" cy="538.6484" fill="#84BE84" rx="3" ry="3" style="stroke:#038048;stroke-width:1.0;"/><text fill="#FFFFFF" font-family="sans-serif" font-size="14" lengthAdjust="spacing" textLength="233" x="2693.5" y="541.9951">setActiveScene(scene: int): void</text><ellipse cx="2684.5" cy="554.9453" fill="#84BE84" rx="3" ry="3" style="stroke:#038048;stroke-width:1.0;"/><text fill="#FFFFFF" font-family="sans-serif" font-size="14" lengthAdjust="spacing" textLength="152" x="2693.5" y="558.292">setGlobalView(): void</text><ellipse cx="2684.5" cy="571.2422" fill="#84BE84" rx="3" ry="3" style="stroke:#038048;stroke-width:1.0;"/><text fill="#FFFFFF" font-family="sans-serif" font-size="14" lengthAdjust="spacing" textLength="143" x="2693.5" y="574.5889">setDeckView(): void</text></g><!--class Tag--><g id="elem_Tag"><rect codeLine="98" fill="#303030" height="80.5938" id="Tag" rx="2.5" ry="2.5" style="stroke:#E7E7E7;stroke-width:0.5;" width="145" x="1092.5" y="493"/><ellipse cx="1147.75" cy="509" fill="#2E5233" rx="11" ry="11" style="stroke:#E7E7E7;stroke-width:1.0;"/><path d="M1150.0938,504.6719 C1149.1563,504.2344 1148.5625,504.0938 1147.6875,504.0938 C1145.0625,504.0938 1143.0625,506.1719 1143.0625,508.8906 L1143.0625,510.0156 C1143.0625,512.5938 1145.1719,514.4844 1148.0625,514.4844 C1149.2813,514.4844 1150.4375,514.1875 1151.1875,513.6406 C1151.7656,513.2344 1152.0938,512.7813 1152.0938,512.3906 C1152.0938,511.9375 1151.7031,511.5469 1151.2344,511.5469 C1151.0156,511.5469 1150.8125,511.625 1150.625,511.8125 C1150.1719,512.2969 1150.1719,512.2969 1149.9844,512.3906 C1149.5625,512.6563 1148.875,512.7813 1148.1094,512.7813 C1146.0625,512.7813 1144.7656,511.6875 1144.7656,509.9844 L1144.7656,508.8906 C1144.7656,507.1094 1146.0156,505.7969 1147.75,505.7969 C1148.3281,505.7969 1148.9375,505.9531 1149.4063,506.2031 C1149.8906,506.4844 1150.0625,506.7031 1150.1563,507.1094 C1150.2188,507.5156 1150.25,507.6406 1150.3906,507.7656 C1150.5313,507.9063 1150.7656,508.0156 1150.9844,508.0156 C1151.25,508.0156 1151.5156,507.875 1151.6875,507.6563 C1151.7969,507.5 1151.8281,507.3125 1151.8281,506.8906 L1151.8281,505.4688 C1151.8281,505.0313 1151.8125,504.9063 1151.7188,504.75 C1151.5625,504.4844 1151.2813,504.3438 1150.9844,504.3438 C1150.6875,504.3438 1150.4844,504.4375 1150.2656,504.75 L1150.0938,504.6719 Z " fill="#FFFFFF"/><text fill="#FFFFFF" font-family="sans-serif" font-size="14" lengthAdjust="spacing" textLength="26" x="1168.25" y="513.8467">Tag</text><line style="stroke:#E7E7E7;stroke-width:0.5;" x1="1093.5" x2="1236.5" y1="525" y2="525"/><rect fill="none" height="6" style="stroke:#C82930;stroke-width:1.0;" width="6" x="1100.5" y="535.6484"/><text fill="#FFFFFF" font-family="sans-serif" font-size="14" lengthAdjust="spacing" textLength="93" x="1112.5" y="541.9951">name: String</text><rect fill="none" height="6" style="stroke:#C82930;stroke-width:1.0;" width="6" x="1100.5" y="551.9453"/><text fill="#FFFFFF" font-family="sans-serif" font-size="14" lengthAdjust="spacing" textLength="119" x="1112.5" y="558.292">listUsed: String[]</text><line style="stroke:#E7E7E7;stroke-width:0.5;" x1="1093.5" x2="1236.5" y1="565.5938" y2="565.5938"/></g><!--class CardTag--><g id="elem_CardTag"><rect codeLine="103" fill="#303030" height="48" id="CardTag" rx="2.5" ry="2.5" style="stroke:#E7E7E7;stroke-width:0.5;" width="91" x="1266.5" y="715.5"/><ellipse cx="1281.5" cy="731.5" fill="#2E5233" rx="11" ry="11" style="stroke:#E7E7E7;stroke-width:1.0;"/><path d="M1283.8438,727.1719 C1282.9063,726.7344 1282.3125,726.5938 1281.4375,726.5938 C1278.8125,726.5938 1276.8125,728.6719 1276.8125,731.3906 L1276.8125,732.5156 C1276.8125,735.0938 1278.9219,736.9844 1281.8125,736.9844 C1283.0313,736.9844 1284.1875,736.6875 1284.9375,736.1406 C1285.5156,735.7344 1285.8438,735.2813 1285.8438,734.8906 C1285.8438,734.4375 1285.4531,734.0469 1284.9844,734.0469 C1284.7656,734.0469 1284.5625,734.125 1284.375,734.3125 C1283.9219,734.7969 1283.9219,734.7969 1283.7344,734.8906 C1283.3125,735.1563 1282.625,735.2813 1281.8594,735.2813 C1279.8125,735.2813 1278.5156,734.1875 1278.5156,732.4844 L1278.5156,731.3906 C1278.5156,729.6094 1279.7656,728.2969 1281.5,728.2969 C1282.0781,728.2969 1282.6875,728.4531 1283.1563,728.7031 C1283.6406,728.9844 1283.8125,729.2031 1283.9063,729.6094 C1283.9688,730.0156 1284,730.1406 1284.1406,730.2656 C1284.2813,730.4063 1284.5156,730.5156 1284.7344,730.5156 C1285,730.5156 1285.2656,730.375 1285.4375,730.1563 C1285.5469,730 1285.5781,729.8125 1285.5781,729.3906 L1285.5781,727.9688 C1285.5781,727.5313 1285.5625,727.4063 1285.4688,727.25 C1285.3125,726.9844 1285.0313,726.8438 1284.7344,726.8438 C1284.4375,726.8438 1284.2344,726.9375 1284.0156,727.25 L1283.8438,727.1719 Z " fill="#FFFFFF"/><text fill="#FFFFFF" font-family="sans-serif" font-size="14" lengthAdjust="spacing" textLength="59" x="1295.5" y="736.3467">CardTag</text><line style="stroke:#E7E7E7;stroke-width:0.5;" x1="1267.5" x2="1356.5" y1="747.5" y2="747.5"/><line style="stroke:#E7E7E7;stroke-width:0.5;" x1="1267.5" x2="1356.5" y1="755.5" y2="755.5"/></g><!--class DeckTag--><g id="elem_DeckTag"><rect codeLine="106" fill="#303030" height="48" id="DeckTag" rx="2.5" ry="2.5" style="stroke:#E7E7E7;stroke-width:0.5;" width="95" x="1037.5" y="715.5"/><ellipse cx="1052.5" cy="731.5" fill="#2E5233" rx="11" ry="11" style="stroke:#E7E7E7;stroke-width:1.0;"/><path d="M1054.8438,727.1719 C1053.9063,726.7344 1053.3125,726.5938 1052.4375,726.5938 C1049.8125,726.5938 1047.8125,728.6719 1047.8125,731.3906 L1047.8125,732.5156 C1047.8125,735.0938 1049.9219,736.9844 1052.8125,736.9844 C1054.0313,736.9844 1055.1875,736.6875 1055.9375,736.1406 C1056.5156,735.7344 1056.8438,735.2813 1056.8438,734.8906 C1056.8438,734.4375 1056.4531,734.0469 1055.9844,734.0469 C1055.7656,734.0469 1055.5625,734.125 1055.375,734.3125 C1054.9219,734.7969 1054.9219,734.7969 1054.7344,734.8906 C1054.3125,735.1563 1053.625,735.2813 1052.8594,735.2813 C1050.8125,735.2813 1049.5156,734.1875 1049.5156,732.4844 L1049.5156,731.3906 C1049.5156,729.6094 1050.7656,728.2969 1052.5,728.2969 C1053.0781,728.2969 1053.6875,728.4531 1054.1563,728.7031 C1054.6406,728.9844 1054.8125,729.2031 1054.9063,729.6094 C1054.9688,730.0156 1055,730.1406 1055.1406,730.2656 C1055.2813,730.4063 1055.5156,730.5156 1055.7344,730.5156 C1056,730.5156 1056.2656,730.375 1056.4375,730.1563 C1056.5469,730 1056.5781,729.8125 1056.5781,729.3906 L1056.5781,727.9688 C1056.5781,727.5313 1056.5625,727.4063 1056.4688,727.25 C1056.3125,726.9844 1056.0313,726.8438 1055.7344,726.8438 C1055.4375,726.8438 1055.2344,726.9375 1055.0156,727.25 L1054.8438,727.1719 Z " fill="#FFFFFF"/><text fill="#FFFFFF" font-family="sans-serif" font-size="14" lengthAdjust="spacing" textLength="63" x="1066.5" y="736.3467">DeckTag</text><line style="stroke:#E7E7E7;stroke-width:0.5;" x1="1038.5" x2="1131.5" y1="747.5" y2="747.5"/><line style="stroke:#E7E7E7;stroke-width:0.5;" x1="1038.5" x2="1131.5" y1="755.5" y2="755.5"/></g><!--class DrawCardStrategy--><g id="elem_DrawCardStrategy"><rect codeLine="109" fill="#303030" height="80.5938" id="DrawCardStrategy" rx="2.5" ry="2.5" style="stroke:#E7E7E7;stroke-width:0.5;" width="253" x="372.5" y="699"/><ellipse cx="429.25" cy="715" fill="#352866" rx="11" ry="11" style="stroke:#E7E7E7;stroke-width:1.0;"/><path d="M430.2031,711.7813 L431.9219,711.7813 C432.3125,711.7813 432.5,711.75 432.625,711.6719 C432.8906,711.5156 433.0313,711.2344 433.0313,710.9375 C433.0313,710.6719 432.9219,710.4063 432.6875,710.2344 C432.5156,710.125 432.375,710.0938 431.9219,710.0938 L426.7813,710.0938 C426.3438,710.0938 426.2188,710.1094 426.0625,710.2031 C425.8125,710.3594 425.6563,710.6563 425.6563,710.9375 C425.6563,711.2188 425.7969,711.4688 426.0156,711.6406 C426.1719,711.75 426.3594,711.7813 426.7813,711.7813 L428.5,711.7813 L428.5,718.2969 L426.7813,718.2969 C426.3438,718.2969 426.2188,718.3125 426.0625,718.4219 C425.8125,718.5781 425.6563,718.8594 425.6563,719.1563 C425.6563,719.4063 425.7969,719.6719 426.0156,719.8281 C426.1719,719.9531 426.375,720 426.7813,720 L431.9219,720 C432.6719,720 433.0313,719.7188 433.0313,719.1563 C433.0313,718.875 432.9219,718.625 432.6875,718.4531 C432.5156,718.3281 432.375,718.2969 431.9219,718.2969 L430.2031,718.2969 L430.2031,711.7813 Z " fill="#FFFFFF"/><text fill="#FFFFFF" font-family="sans-serif" font-size="14" font-style="italic" lengthAdjust="spacing" textLength="131" x="449.75" y="719.8467">DrawCardStrategy</text><line style="stroke:#E7E7E7;stroke-width:0.5;" x1="373.5" x2="624.5" y1="731" y2="731"/><line style="stroke:#E7E7E7;stroke-width:0.5;" x1="373.5" x2="624.5" y1="739" y2="739"/><ellipse cx="383.5" cy="752.6484" fill="#84BE84" rx="3" ry="3" style="stroke:#038048;stroke-width:1.0;"/><text fill="#FFFFFF" font-family="sans-serif" font-size="14" lengthAdjust="spacing" textLength="227" x="392.5" y="755.9951">handleAnswer(answer: boolean)</text><ellipse cx="383.5" cy="768.9453" fill="#84BE84" rx="3" ry="3" style="stroke:#038048;stroke-width:1.0;"/><text fill="#FFFFFF" font-family="sans-serif" font-size="14" lengthAdjust="spacing" textLength="76" x="392.5" y="772.292">nextCard()</text></g><!--class BuildCardStrategy--><g id="elem_BuildCardStrategy"><rect codeLine="114" fill="#303030" height="64.2969" id="BuildCardStrategy" rx="2.5" ry="2.5" style="stroke:#E7E7E7;stroke-width:0.5;" width="162" x="800" y="707.5"/><ellipse cx="815" cy="723.5" fill="#352866" rx="11" ry="11" style="stroke:#E7E7E7;stroke-width:1.0;"/><path d="M815.9531,720.2813 L817.6719,720.2813 C818.0625,720.2813 818.25,720.25 818.375,720.1719 C818.6406,720.0156 818.7813,719.7344 818.7813,719.4375 C818.7813,719.1719 818.6719,718.9063 818.4375,718.7344 C818.2656,718.625 818.125,718.5938 817.6719,718.5938 L812.5313,718.5938 C812.0938,718.5938 811.9688,718.6094 811.8125,718.7031 C811.5625,718.8594 811.4063,719.1563 811.4063,719.4375 C811.4063,719.7188 811.5469,719.9688 811.7656,720.1406 C811.9219,720.25 812.1094,720.2813 812.5313,720.2813 L814.25,720.2813 L814.25,726.7969 L812.5313,726.7969 C812.0938,726.7969 811.9688,726.8125 811.8125,726.9219 C811.5625,727.0781 811.4063,727.3594 811.4063,727.6563 C811.4063,727.9063 811.5469,728.1719 811.7656,728.3281 C811.9219,728.4531 812.125,728.5 812.5313,728.5 L817.6719,728.5 C818.4219,728.5 818.7813,728.2188 818.7813,727.6563 C818.7813,727.375 818.6719,727.125 818.4375,726.9531 C818.2656,726.8281 818.125,726.7969 817.6719,726.7969 L815.9531,726.7969 L815.9531,720.2813 Z " fill="#FFFFFF"/><text fill="#FFFFFF" font-family="sans-serif" font-size="14" font-style="italic" lengthAdjust="spacing" textLength="130" x="829" y="728.3467">BuildCardStrategy</text><line style="stroke:#E7E7E7;stroke-width:0.5;" x1="801" x2="961" y1="739.5" y2="739.5"/><line style="stroke:#E7E7E7;stroke-width:0.5;" x1="801" x2="961" y1="747.5" y2="747.5"/><ellipse cx="811" cy="761.1484" fill="#84BE84" rx="3" ry="3" style="stroke:#038048;stroke-width:1.0;"/><text fill="#FFFFFF" font-family="sans-serif" font-size="14" lengthAdjust="spacing" textLength="78" x="820" y="764.4951">buildCard()</text></g><!--class BuildCardStrategyTheme1--><g id="elem_BuildCardStrategyTheme1"><rect codeLine="118" fill="#303030" height="48" id="BuildCardStrategyTheme1" rx="2.5" ry="2.5" style="stroke:#E7E7E7;stroke-width:0.5;" width="222" x="770" y="840"/><ellipse cx="785" cy="856" fill="#2E5233" rx="11" ry="11" style="stroke:#E7E7E7;stroke-width:1.0;"/><path d="M787.3438,851.6719 C786.4063,851.2344 785.8125,851.0938 784.9375,851.0938 C782.3125,851.0938 780.3125,853.1719 780.3125,855.8906 L780.3125,857.0156 C780.3125,859.5938 782.4219,861.4844 785.3125,861.4844 C786.5313,861.4844 787.6875,861.1875 788.4375,860.6406 C789.0156,860.2344 789.3438,859.7813 789.3438,859.3906 C789.3438,858.9375 788.9531,858.5469 788.4844,858.5469 C788.2656,858.5469 788.0625,858.625 787.875,858.8125 C787.4219,859.2969 787.4219,859.2969 787.2344,859.3906 C786.8125,859.6563 786.125,859.7813 785.3594,859.7813 C783.3125,859.7813 782.0156,858.6875 782.0156,856.9844 L782.0156,855.8906 C782.0156,854.1094 783.2656,852.7969 785,852.7969 C785.5781,852.7969 786.1875,852.9531 786.6563,853.2031 C787.1406,853.4844 787.3125,853.7031 787.4063,854.1094 C787.4688,854.5156 787.5,854.6406 787.6406,854.7656 C787.7813,854.9063 788.0156,855.0156 788.2344,855.0156 C788.5,855.0156 788.7656,854.875 788.9375,854.6563 C789.0469,854.5 789.0781,854.3125 789.0781,853.8906 L789.0781,852.4688 C789.0781,852.0313 789.0625,851.9063 788.9688,851.75 C788.8125,851.4844 788.5313,851.3438 788.2344,851.3438 C787.9375,851.3438 787.7344,851.4375 787.5156,851.75 L787.3438,851.6719 Z " fill="#FFFFFF"/><text fill="#FFFFFF" font-family="sans-serif" font-size="14" lengthAdjust="spacing" textLength="190" x="799" y="860.8467">BuildCardStrategyTheme1</text><line style="stroke:#E7E7E7;stroke-width:0.5;" x1="771" x2="991" y1="872" y2="872"/><line style="stroke:#E7E7E7;stroke-width:0.5;" x1="771" x2="991" y1="880" y2="880"/></g><!--class BuildCardStrategyTheme2--><g id="elem_BuildCardStrategyTheme2"><rect codeLine="121" fill="#303030" height="48" id="BuildCardStrategyTheme2" rx="2.5" ry="2.5" style="stroke:#E7E7E7;stroke-width:0.5;" width="221" x="1027.5" y="840"/><ellipse cx="1042.5" cy="856" fill="#2E5233" rx="11" ry="11" style="stroke:#E7E7E7;stroke-width:1.0;"/><path d="M1044.8438,851.6719 C1043.9063,851.2344 1043.3125,851.0938 1042.4375,851.0938 C1039.8125,851.0938 1037.8125,853.1719 1037.8125,855.8906 L1037.8125,857.0156 C1037.8125,859.5938 1039.9219,861.4844 1042.8125,861.4844 C1044.0313,861.4844 1045.1875,861.1875 1045.9375,860.6406 C1046.5156,860.2344 1046.8438,859.7813 1046.8438,859.3906 C1046.8438,858.9375 1046.4531,858.5469 1045.9844,858.5469 C1045.7656,858.5469 1045.5625,858.625 1045.375,858.8125 C1044.9219,859.2969 1044.9219,859.2969 1044.7344,859.3906 C1044.3125,859.6563 1043.625,859.7813 1042.8594,859.7813 C1040.8125,859.7813 1039.5156,858.6875 1039.5156,856.9844 L1039.5156,855.8906 C1039.5156,854.1094 1040.7656,852.7969 1042.5,852.7969 C1043.0781,852.7969 1043.6875,852.9531 1044.1563,853.2031 C1044.6406,853.4844 1044.8125,853.7031 1044.9063,854.1094 C1044.9688,854.5156 1045,854.6406 1045.1406,854.7656 C1045.2813,854.9063 1045.5156,855.0156 1045.7344,855.0156 C1046,855.0156 1046.2656,854.875 1046.4375,854.6563 C1046.5469,854.5 1046.5781,854.3125 1046.5781,853.8906 L1046.5781,852.4688 C1046.5781,852.0313 1046.5625,851.9063 1046.4688,851.75 C1046.3125,851.4844 1046.0313,851.3438 1045.7344,851.3438 C1045.4375,851.3438 1045.2344,851.4375 1045.0156,851.75 L1044.8438,851.6719 Z " fill="#FFFFFF"/><text fill="#FFFFFF" font-family="sans-serif" font-size="14" lengthAdjust="spacing" textLength="189" x="1056.5" y="860.8467">BuildCardStrategyTheme2</text><line style="stroke:#E7E7E7;stroke-width:0.5;" x1="1028.5" x2="1247.5" y1="872" y2="872"/><line style="stroke:#E7E7E7;stroke-width:0.5;" x1="1028.5" x2="1247.5" y1="880" y2="880"/></g><!--class DrawCardStrategyRandom--><g id="elem_DrawCardStrategyRandom"><rect codeLine="124" fill="#303030" height="48" id="DrawCardStrategyRandom" rx="2.5" ry="2.5" style="stroke:#E7E7E7;stroke-width:0.5;" width="223" x="511.5" y="840"/><ellipse cx="526.5" cy="856" fill="#2E5233" rx="11" ry="11" style="stroke:#E7E7E7;stroke-width:1.0;"/><path d="M528.8438,851.6719 C527.9063,851.2344 527.3125,851.0938 526.4375,851.0938 C523.8125,851.0938 521.8125,853.1719 521.8125,855.8906 L521.8125,857.0156 C521.8125,859.5938 523.9219,861.4844 526.8125,861.4844 C528.0313,861.4844 529.1875,861.1875 529.9375,860.6406 C530.5156,860.2344 530.8438,859.7813 530.8438,859.3906 C530.8438,858.9375 530.4531,858.5469 529.9844,858.5469 C529.7656,858.5469 529.5625,858.625 529.375,858.8125 C528.9219,859.2969 528.9219,859.2969 528.7344,859.3906 C528.3125,859.6563 527.625,859.7813 526.8594,859.7813 C524.8125,859.7813 523.5156,858.6875 523.5156,856.9844 L523.5156,855.8906 C523.5156,854.1094 524.7656,852.7969 526.5,852.7969 C527.0781,852.7969 527.6875,852.9531 528.1563,853.2031 C528.6406,853.4844 528.8125,853.7031 528.9063,854.1094 C528.9688,854.5156 529,854.6406 529.1406,854.7656 C529.2813,854.9063 529.5156,855.0156 529.7344,855.0156 C530,855.0156 530.2656,854.875 530.4375,854.6563 C530.5469,854.5 530.5781,854.3125 530.5781,853.8906 L530.5781,852.4688 C530.5781,852.0313 530.5625,851.9063 530.4688,851.75 C530.3125,851.4844 530.0313,851.3438 529.7344,851.3438 C529.4375,851.3438 529.2344,851.4375 529.0156,851.75 L528.8438,851.6719 Z " fill="#FFFFFF"/><text fill="#FFFFFF" font-family="sans-serif" font-size="14" lengthAdjust="spacing" textLength="191" x="540.5" y="860.8467">DrawCardStrategyRandom</text><line style="stroke:#E7E7E7;stroke-width:0.5;" x1="512.5" x2="733.5" y1="872" y2="872"/><line style="stroke:#E7E7E7;stroke-width:0.5;" x1="512.5" x2="733.5" y1="880" y2="880"/></g><!--class DrawCardStrategyWeighted--><g id="elem_DrawCardStrategyWeighted"><rect codeLine="127" fill="#303030" height="48" id="DrawCardStrategyWeighted" rx="2.5" ry="2.5" style="stroke:#E7E7E7;stroke-width:0.5;" width="234" x="7" y="840"/><ellipse cx="22" cy="856" fill="#2E5233" rx="11" ry="11" style="stroke:#E7E7E7;stroke-width:1.0;"/><path d="M24.3438,851.6719 C23.4063,851.2344 22.8125,851.0938 21.9375,851.0938 C19.3125,851.0938 17.3125,853.1719 17.3125,855.8906 L17.3125,857.0156 C17.3125,859.5938 19.4219,861.4844 22.3125,861.4844 C23.5313,861.4844 24.6875,861.1875 25.4375,860.6406 C26.0156,860.2344 26.3438,859.7813 26.3438,859.3906 C26.3438,858.9375 25.9531,858.5469 25.4844,858.5469 C25.2656,858.5469 25.0625,858.625 24.875,858.8125 C24.4219,859.2969 24.4219,859.2969 24.2344,859.3906 C23.8125,859.6563 23.125,859.7813 22.3594,859.7813 C20.3125,859.7813 19.0156,858.6875 19.0156,856.9844 L19.0156,855.8906 C19.0156,854.1094 20.2656,852.7969 22,852.7969 C22.5781,852.7969 23.1875,852.9531 23.6563,853.2031 C24.1406,853.4844 24.3125,853.7031 24.4063,854.1094 C24.4688,854.5156 24.5,854.6406 24.6406,854.7656 C24.7813,854.9063 25.0156,855.0156 25.2344,855.0156 C25.5,855.0156 25.7656,854.875 25.9375,854.6563 C26.0469,854.5 26.0781,854.3125 26.0781,853.8906 L26.0781,852.4688 C26.0781,852.0313 26.0625,851.9063 25.9688,851.75 C25.8125,851.4844 25.5313,851.3438 25.2344,851.3438 C24.9375,851.3438 24.7344,851.4375 24.5156,851.75 L24.3438,851.6719 Z " fill="#FFFFFF"/><text fill="#FFFFFF" font-family="sans-serif" font-size="14" lengthAdjust="spacing" textLength="202" x="36" y="860.8467">DrawCardStrategyWeighted</text><line style="stroke:#E7E7E7;stroke-width:0.5;" x1="8" x2="240" y1="872" y2="872"/><line style="stroke:#E7E7E7;stroke-width:0.5;" x1="8" x2="240" y1="880" y2="880"/></g><!--class DrawCardStrategyTime--><g id="elem_DrawCardStrategyTime"><rect codeLine="130" fill="#303030" height="48" id="DrawCardStrategyTime" rx="2.5" ry="2.5" style="stroke:#E7E7E7;stroke-width:0.5;" width="200" x="276" y="840"/><ellipse cx="291" cy="856" fill="#2E5233" rx="11" ry="11" style="stroke:#E7E7E7;stroke-width:1.0;"/><path d="M293.3438,851.6719 C292.4063,851.2344 291.8125,851.0938 290.9375,851.0938 C288.3125,851.0938 286.3125,853.1719 286.3125,855.8906 L286.3125,857.0156 C286.3125,859.5938 288.4219,861.4844 291.3125,861.4844 C292.5313,861.4844 293.6875,861.1875 294.4375,860.6406 C295.0156,860.2344 295.3438,859.7813 295.3438,859.3906 C295.3438,858.9375 294.9531,858.5469 294.4844,858.5469 C294.2656,858.5469 294.0625,858.625 293.875,858.8125 C293.4219,859.2969 293.4219,859.2969 293.2344,859.3906 C292.8125,859.6563 292.125,859.7813 291.3594,859.7813 C289.3125,859.7813 288.0156,858.6875 288.0156,856.9844 L288.0156,855.8906 C288.0156,854.1094 289.2656,852.7969 291,852.7969 C291.5781,852.7969 292.1875,852.9531 292.6563,853.2031 C293.1406,853.4844 293.3125,853.7031 293.4063,854.1094 C293.4688,854.5156 293.5,854.6406 293.6406,854.7656 C293.7813,854.9063 294.0156,855.0156 294.2344,855.0156 C294.5,855.0156 294.7656,854.875 294.9375,854.6563 C295.0469,854.5 295.0781,854.3125 295.0781,853.8906 L295.0781,852.4688 C295.0781,852.0313 295.0625,851.9063 294.9688,851.75 C294.8125,851.4844 294.5313,851.3438 294.2344,851.3438 C293.9375,851.3438 293.7344,851.4375 293.5156,851.75 L293.3438,851.6719 Z " fill="#FFFFFF"/><text fill="#FFFFFF" font-family="sans-serif" font-size="14" lengthAdjust="spacing" textLength="168" x="305" y="860.8467">DrawCardStrategyTime</text><line style="stroke:#E7E7E7;stroke-width:0.5;" x1="277" x2="475" y1="872" y2="872"/><line style="stroke:#E7E7E7;stroke-width:0.5;" x1="277" x2="475" y1="880" y2="880"/></g><!--reverse link Observer to CardObserver--><g id="link_Observer_CardObserver"><path d="M1672.22,60.471 C1582.73,82.6 1441.92,117.42 1359.72,137.749 " fill="none" id="Observer-backto-CardObserver" style="stroke:#E7E7E7;stroke-width:1.0;stroke-dasharray:7.0,7.0;"/><polygon fill="none" points="1670.77,53.618,1691.87,55.612,1674.13,67.209,1670.77,53.618" style="stroke:#E7E7E7;stroke-width:1.0;"/></g><!--reverse link Observer to DeckObserver--><g id="link_Observer_DeckObserver"><path d="M1671.87,53.727 C1565.13,71.392 1374.21,103.13 1211,131 C1189.79,134.622 1166.67,138.629 1145.8,142.271 " fill="none" id="Observer-backto-DeckObserver" style="stroke:#E7E7E7;stroke-width:1.0;stroke-dasharray:7.0,7.0;"/><polygon fill="none" points="1670.87,46.798,1691.74,50.44,1673.15,60.61,1670.87,46.798" style="stroke:#E7E7E7;stroke-width:1.0;"/></g><!--reverse link Observer to DeckListObserver--><g id="link_Observer_DeckListObserver"><path d="M1837.63,60.433 C1922.61,81.448 2054,113.939 2137.46,134.577 " fill="none" id="Observer-backto-DeckListObserver" style="stroke:#E7E7E7;stroke-width:1.0;stroke-dasharray:7.0,7.0;"/><polygon fill="none" points="1835.87,67.209,1818.13,55.612,1839.23,53.618,1835.87,67.209" style="stroke:#E7E7E7;stroke-width:1.0;"/></g><!--reverse link Observer to StageObserver--><g id="link_Observer_StageObserver"><path d="M1838.53,39.884 C2044.7,42.397 2590.95,66.208 3003,239 C3025.76,248.546 3048.09,265.312 3064.28,279.22 " fill="none" id="Observer-backto-StageObserver" style="stroke:#E7E7E7;stroke-width:1.0;stroke-dasharray:7.0,7.0;"/><polygon fill="none" points="1838.16,46.881,1818.22,39.694,1838.29,32.882,1838.16,46.881" style="stroke:#E7E7E7;stroke-width:1.0;"/></g><!--reverse link DeckListObserver to GlobalView--><g id="link_DeckListObserver_GlobalView"><path d="M2314.5,174.678 C2392.84,190.133 2505.01,213.604 2602,239 C2610.83,241.312 2619.85,243.763 2628.94,246.306 " fill="none" id="DeckListObserver-backto-GlobalView" style="stroke:#E7E7E7;stroke-width:1.0;"/><polygon fill="none" points="2313.13,181.542,2294.85,170.828,2315.82,167.803,2313.13,181.542" style="stroke:#E7E7E7;stroke-width:1.0;"/></g><!--reverse link DeckObserver to DeckView--><g id="link_DeckObserver_DeckView"><path d="M1165.46,172.478 C1180.59,174.958 1196.22,177.263 1211,179 C1641.3,229.598 1759.55,152.02 2184,239 C2189.62,240.153 2195.31,241.445 2201.03,242.851 " fill="none" id="DeckObserver-backto-DeckView" style="stroke:#E7E7E7;stroke-width:1.0;"/><polygon fill="none" points="1164.14,179.354,1145.6,169.087,1166.5,165.554,1164.14,179.354" style="stroke:#E7E7E7;stroke-width:1.0;"/></g><!--reverse link StageObserver to StageView--><g id="link_StageObserver_StageView"><path d="M3089.76,347.792 C3090.6,395.805 3091.93,471.471 3092.59,509.322 " fill="none" id="StageObserver-backto-StageView" style="stroke:#E7E7E7;stroke-width:1.0;"/><polygon fill="none" points="3082.76,347.736,3089.41,327.617,3096.76,347.491,3082.76,347.736" style="stroke:#E7E7E7;stroke-width:1.0;"/></g><!--reverse link Observed to DeckListModel--><g id="link_Observed_DeckListModel"><path d="M1683.28,354.996 C1745.69,393.77 1831.28,446.938 1892.47,484.955 " fill="none" id="Observed-backto-DeckListModel" style="stroke:#E7E7E7;stroke-width:1.0;"/><polygon fill="none" points="1679.22,360.715,1665.93,344.215,1686.61,348.823,1679.22,360.715" style="stroke:#E7E7E7;stroke-width:1.0;"/></g><!--reverse link Observed to DeckModel--><g id="link_Observed_DeckModel"><path d="M1498.42,351.583 C1482.43,357.738 1465.93,363.468 1450,368 C1287.66,414.189 1236.77,379.843 1075,428 C1069.14,429.745 1063.23,431.605 1057.3,433.561 " fill="none" id="Observed-backto-DeckModel" style="stroke:#E7E7E7;stroke-width:1.0;"/><polygon fill="none" points="1496.09,344.978,1517.26,344.064,1501.28,357.981,1496.09,344.978" style="stroke:#E7E7E7;stroke-width:1.0;"/></g><!--reverse link Observed to CardModel--><g id="link_Observed_CardModel"><path d="M1555.87,359.565 C1528.32,392.459 1493.19,434.383 1464.43,468.715 " fill="none" id="Observed-backto-CardModel" style="stroke:#E7E7E7;stroke-width:1.0;"/><polygon fill="none" points="1550.52,355.051,1568.73,344.215,1561.25,364.041,1550.52,355.051" style="stroke:#E7E7E7;stroke-width:1.0;"/></g><!--reverse link Observed to StageModel--><g id="link_Observed_StageModel"><path d="M1612.43,363.857 C1629.43,441.259 1671.07,574.379 1764,639 C1837.13,689.855 2410.86,721.287 2673.05,733.132 " fill="none" id="Observed-backto-StageModel" style="stroke:#E7E7E7;stroke-width:1.0;"/><polygon fill="none" points="1605.53,365.069,1608.35,344.068,1619.24,362.244,1605.53,365.069" style="stroke:#E7E7E7;stroke-width:1.0;"/></g><!--reverse link Tag to CardTag--><g id="link_Tag_CardTag"><path d="M1205.53,590.745 C1235.08,631.753 1273.6,685.207 1295.27,715.289 " fill="none" id="Tag-backto-CardTag" style="stroke:#E7E7E7;stroke-width:1.0;"/><polygon fill="none" points="1199.71,594.636,1193.69,574.318,1211.06,586.451,1199.71,594.636" style="stroke:#E7E7E7;stroke-width:1.0;"/></g><!--reverse link Tag to DeckTag--><g id="link_Tag_DeckTag"><path d="M1142.08,592.949 C1126.12,633.65 1105.69,685.743 1094.1,715.289 " fill="none" id="Tag-backto-DeckTag" style="stroke:#E7E7E7;stroke-width:1.0;"/><polygon fill="none" points="1135.57,590.381,1149.39,574.318,1148.6,595.493,1135.57,590.381" style="stroke:#E7E7E7;stroke-width:1.0;"/></g><!--reverse link BuildCardStrategy to BuildCardStrategyTheme1--><g id="link_BuildCardStrategy_BuildCardStrategyTheme1"><path d="M881,791.9771 C881,808.6893 881,826.3979 881,839.9519 " fill="none" id="BuildCardStrategy-backto-BuildCardStrategyTheme1" style="stroke:#E7E7E7;stroke-width:1.0;stroke-dasharray:7.0,7.0;"/><polygon fill="none" points="874,791.7289,881,771.729,888,791.7288,874,791.7289" style="stroke:#E7E7E7;stroke-width:1.0;"/></g><!--reverse link BuildCardStrategy to BuildCardStrategyTheme2--><g id="link_BuildCardStrategy_BuildCardStrategyTheme2"><path d="M964.326,780.217 C1005.723,799.9498 1054.29,823.0986 1089.52,839.8923 " fill="none" id="BuildCardStrategy-backto-BuildCardStrategyTheme2" style="stroke:#E7E7E7;stroke-width:1.0;stroke-dasharray:7.0,7.0;"/><polygon fill="none" points="961.226,786.495,946.184,771.57,967.25,773.857,961.226,786.495" style="stroke:#E7E7E7;stroke-width:1.0;"/></g><!--reverse link DrawCardStrategy to DrawCardStrategyRandom--><g id="link_DrawCardStrategy_DrawCardStrategyRandom"><path d="M553.721,794.5588 C569.809,810.452 586.559,827.0001 599.559,839.8428 " fill="none" id="DrawCardStrategy-backto-DrawCardStrategyRandom" style="stroke:#E7E7E7;stroke-width:1.0;stroke-dasharray:7.0,7.0;"/><polygon fill="none" points="548.568,799.3079,539.259,780.272,558.407,789.3483,548.568,799.3079" style="stroke:#E7E7E7;stroke-width:1.0;"/></g><!--reverse link DrawCardStrategy to DrawCardStrategyWeighted--><g id="link_DrawCardStrategy_DrawCardStrategyWeighted"><path d="M358.905,786.264 C302.915,804.5546 240.889,824.8163 194.639,839.9245 " fill="none" id="DrawCardStrategy-backto-DrawCardStrategyWeighted" style="stroke:#E7E7E7;stroke-width:1.0;stroke-dasharray:7.0,7.0;"/><polygon fill="none" points="356.84,779.575,378.025,780.019,361.187,792.883,356.84,779.575" style="stroke:#E7E7E7;stroke-width:1.0;"/></g><!--reverse link DrawCardStrategy to DrawCardStrategyTime--><g id="link_DrawCardStrategy_DrawCardStrategyTime"><path d="M444.721,794.5588 C428.762,810.452 412.147,827.0001 399.252,839.8428 " fill="none" id="DrawCardStrategy-backto-DrawCardStrategyTime" style="stroke:#E7E7E7;stroke-width:1.0;stroke-dasharray:7.0,7.0;"/><polygon fill="none" points="439.955,789.4257,459.065,780.272,449.834,799.3454,439.955,789.4257" style="stroke:#E7E7E7;stroke-width:1.0;"/></g><!--link CardObserver to CardModel--><g id="link_CardObserver_CardModel"><path codeLine="133" d="M1228.37,173.284 C1195.1,185.732 1157.67,206.259 1138,239 C1108.48,288.148 1108.11,319.076 1138,368 C1168.47,417.867 1204.64,398.355 1255,428 C1276.35,440.568 1298.77,454.884 1319.75,468.802 " fill="none" id="CardObserver-CardModel" style="stroke:#E7E7E7;stroke-width:1.0;"/></g><!--link DeckObserver to DeckModel--><g id="link_DeckObserver_DeckModel"><path codeLine="134" d="M1072.89,179.297 C1061.61,219.817 1034.95,304.966 995,368 C982.017,388.487 966.289,408.7 949.909,427.569 " fill="none" id="DeckObserver-DeckModel" style="stroke:#E7E7E7;stroke-width:1.0;"/></g><!--link DeckListObserver to DeckListModel--><g id="link_DeckListObserver_DeckListModel"><path codeLine="135" d="M2294.7,165.126 C2380.68,176.905 2510.18,200.582 2540,239 C2575.15,284.293 2574.48,322.19 2540,368 C2493.32,430.028 2304.18,475.978 2156.21,503.317 " fill="none" id="DeckListObserver-DeckListModel" style="stroke:#E7E7E7;stroke-width:1.0;"/></g><!--link StageObserver to StageModel--><g id="link_StageObserver_StageModel"><path codeLine="136" d="M3074.95,327.585 C3060.48,351.964 3037.86,391.805 3022,428 C2982.23,518.758 3010.15,560.257 2950,639 C2931.76,662.878 2906.09,683.001 2881.3,698.765 " fill="none" id="StageObserver-StageModel" style="stroke:#E7E7E7;stroke-width:1.0;"/></g><!--link CardObserver to CardController--><g id="link_CardObserver_CardController"><path codeLine="138" d="M1294,179.213 C1294,201.643 1294,236.062 1294,262.838 " fill="none" id="CardObserver-CardController" style="stroke:#E7E7E7;stroke-width:1.0;"/></g><!--link DeckObserver to DeckController--><g id="link_DeckObserver_DeckController"><path codeLine="139" d="M1034.78,179.052 C999.932,197.222 949.848,223.333 904.711,246.866 " fill="none" id="DeckObserver-DeckController" style="stroke:#E7E7E7;stroke-width:1.0;"/></g><!--link DeckListObserver to DeckListController--><g id="link_DeckListObserver_DeckListController"><path codeLine="140" d="M2177.13,179.052 C2146.5,197.222 2102.48,223.333 2062.8,246.866 " fill="none" id="DeckListObserver-DeckListController" style="stroke:#E7E7E7;stroke-width:1.0;"/></g><!--link StageObserver to StageController--><g id="link_StageObserver_StageController"><path codeLine="141" d="M3060,327.617 C3013.92,364.354 2923.02,436.823 2862.62,484.974 " fill="none" id="StageObserver-StageController" style="stroke:#E7E7E7;stroke-width:1.0;"/></g><!--link CardController to CardModel--><g id="link_CardController_CardModel"><path codeLine="143" d="M1314.38,344.215 C1331.99,378.535 1357.77,428.766 1378.27,468.715 " fill="none" id="CardController-CardModel" style="stroke:#E7E7E7;stroke-width:1.0;"/></g><!--link DeckController to DeckModel--><g id="link_DeckController_DeckModel"><path codeLine="144" d="M808.519,360.275 C812.373,380.709 816.87,404.555 821.268,427.875 " fill="none" id="DeckController-DeckModel" style="stroke:#E7E7E7;stroke-width:1.0;"/></g><!--link DeckListController to DeckListModel--><g id="link_DeckListController_DeckListModel"><path codeLine="145" d="M1969,360.275 C1969,398.375 1969,448.336 1969,484.629 " fill="none" id="DeckListController-DeckListModel" style="stroke:#E7E7E7;stroke-width:1.0;"/></g><!--link StageController to StageModel--><g id="link_StageController_StageModel"><path codeLine="146" d="M2803,582.071 C2803,617.51 2803,665.344 2803,698.752 " fill="none" id="StageController-StageModel" style="stroke:#E7E7E7;stroke-width:1.0;"/></g><!--link DeckModel to DrawCardStrategy--><g id="link_DeckModel_DrawCardStrategy"><path codeLine="148" d="M665.742,639.04 C629.952,660.388 594.411,681.588 565.395,698.896 " fill="none" id="DeckModel-DrawCardStrategy" style="stroke:#E7E7E7;stroke-width:1.0;"/></g><!--link DeckModel to BuildCardStrategy--><g id="link_DeckModel_BuildCardStrategy"><path codeLine="149" d="M861.527,639.189 C866.4,664.038 871.23,688.673 874.861,707.191 " fill="none" id="DeckModel-BuildCardStrategy" style="stroke:#E7E7E7;stroke-width:1.0;"/></g><!--link GlobalView to StageController--><g id="link_GlobalView_StageController"><path codeLine="151" d="M2805.89,368.011 C2805.24,405.036 2804.43,450.967 2803.84,484.875 " fill="none" id="GlobalView-StageController" style="stroke:#E7E7E7;stroke-width:1.0;"/></g><!--link DeckView to StageController--><g id="link_DeckView_StageController"><path codeLine="152" d="M2484.84,368.011 C2556.46,405.036 2645.3,450.967 2710.88,484.875 " fill="none" id="DeckView-StageController" style="stroke:#E7E7E7;stroke-width:1.0;"/></g><!--link CardModel to CardTag--><g id="link_CardModel_CardTag"><path codeLine="154" d="M1380.08,598.208 C1360.79,637.956 1337.1,686.779 1323.36,715.097 " fill="none" id="CardModel-CardTag" style="stroke:#E7E7E7;stroke-width:1.0;"/></g><!--link DeckModel to DeckTag--><g id="link_DeckModel_DeckTag"><path codeLine="155" d="M966.216,639.189 C1000.617,667.951 1034.68,696.427 1057.44,715.462 " fill="none" id="DeckModel-DeckTag" style="stroke:#E7E7E7;stroke-width:1.0;"/></g><!--SRC=[jLPBSzCm4BxxL-Ze3Eq1ZhcLTePBWO46E30SP6kJQ92b82b9Ent-Er9iovArpgD3Syhess_VkrukBUWbhO5yhWpe7MZoN13tUqEs6qOjbBCvsIdEYhz5GIjZDQqjgGKrXjnIpGABDni13KXhOaqvwGxgtoyYtNDZBoO-MBg2YraTo48gAFE1bgeZpGEzJquh9fNbooSl6IMjLVb1g8gAxnps11ujI8O4rLlJqAWTUBZaSyAbdNK0F6wKjWZW0kk1_gdMuAftU9AqWRbBXUPoTKKOc5hpZULAzeyznoelxvtC0-YHnFtCTM3SVdBc4fkp2BmRh9T7F749zzrL_jc2YV4hGgNP-mgayctAKCeGt523FBn3eoJnfQtpd6R2r-sZOY22EDOpPsO_wQ6y-4YBuUKvwj0rYHtfdX1lEiGD0syJUd2Yisu0gMxYdvCuLUAn_4qmLNA6XEnLQhht0aw3Q-hLKscwFtCoXZBk-oqNR8ASOIdxx2v4AeZ54whbmHFL6jliwv8OxXutsZLsnGMtBgQbK3IgrvTEJpuNMHqEgaiyj7HGJlZUDiz33H96tNCp8AK9EDhDViHkbRHQ2H5jc8lsMXAYSndiz6JbopM1unMBkOku-l-dvLKR4e_WLVe7DtMyEO8OiiQZR4vzlnPqTMmJ2jTjtmom_lddhpGvdjxtUwiggJuAyt1RZPTKY7fD9HCmobobb00g-m-NT8eFnPkbIhFb5RHMFT9IMZSpySNQtK9luwC8qtY2_-vi_ZW7NrtegedfI9OcsJ-0hzRMxPmNyXUyWTFSvCAzlXxsTf5SFmu9tzyYE-iwD9mCHNfPE7ZOgRZ9OLnGkoDuodWaXdiG2HIZXP35dc9vz3a-YZyLY3Cmd3AUEQfBYcODLnJHeOt45QxOgPY3wcxeHzwqe_uF]--></g></svg>