<?xml version="1.0" encoding="UTF-8" standalone="no"?><svg xmlns="http://www.w3.org/2000/svg" xmlns:xlink="http://www.w3.org/1999/xlink" contentStyleType="text/css" height="1430px" preserveAspectRatio="none" style="width:2424px;height:1430px;background:#000000;" version="1.1" viewBox="0 0 2424 1430" width="2424px" zoomAndPan="magnify"><defs/><g><!--class Observer--><g id="elem_Observer"><rect codeLine="1" fill="#303030" height="64.2969" id="Observer" rx="2.5" ry="2.5" style="stroke:#E7E7E7;stroke-width:0.5;" width="113" x="1062.4287" y="7"/><ellipse cx="1084.6287" cy="23" fill="#352866" rx="11" ry="11" style="stroke:#E7E7E7;stroke-width:1.0;"/><path d="M1085.5818,19.7813 L1087.3006,19.7813 C1087.6912,19.7813 1087.8787,19.75 1088.0037,19.6719 C1088.2693,19.5156 1088.41,19.2344 1088.41,18.9375 C1088.41,18.6719 1088.3006,18.4063 1088.0662,18.2344 C1087.8943,18.125 1087.7537,18.0938 1087.3006,18.0938 L1082.16,18.0938 C1081.7225,18.0938 1081.5975,18.1094 1081.4412,18.2031 C1081.1912,18.3594 1081.035,18.6563 1081.035,18.9375 C1081.035,19.2188 1081.1756,19.4688 1081.3943,19.6406 C1081.5506,19.75 1081.7381,19.7813 1082.16,19.7813 L1083.8787,19.7813 L1083.8787,26.2969 L1082.16,26.2969 C1081.7225,26.2969 1081.5975,26.3125 1081.4412,26.4219 C1081.1912,26.5781 1081.035,26.8594 1081.035,27.1563 C1081.035,27.4063 1081.1756,27.6719 1081.3943,27.8281 C1081.5506,27.9531 1081.7537,28 1082.16,28 L1087.3006,28 C1088.0506,28 1088.41,27.7188 1088.41,27.1563 C1088.41,26.875 1088.3006,26.625 1088.0662,26.4531 C1087.8943,26.3281 1087.7537,26.2969 1087.3006,26.2969 L1085.5818,26.2969 L1085.5818,19.7813 Z " fill="#FFFFFF"/><text fill="#FFFFFF" font-family="sans-serif" font-size="14" font-style="italic" lengthAdjust="spacing" textLength="65" x="1100.2287" y="27.8467">Observer</text><line style="stroke:#E7E7E7;stroke-width:0.5;" x1="1063.4287" x2="1174.4287" y1="39" y2="39"/><line style="stroke:#E7E7E7;stroke-width:0.5;" x1="1063.4287" x2="1174.4287" y1="47" y2="47"/><ellipse cx="1073.4287" cy="60.6484" fill="#84BE84" rx="3" ry="3" style="stroke:#038048;stroke-width:1.0;"/><text fill="#FFFFFF" font-family="sans-serif" font-size="14" lengthAdjust="spacing" textLength="87" x="1082.4287" y="63.9951">react(): void</text></g><!--class CardObserver--><g id="elem_CardObserver"><rect codeLine="5" fill="#303030" height="48" id="CardObserver" rx="2.5" ry="2.5" style="stroke:#E7E7E7;stroke-width:0.5;" width="131" x="1550.4287" y="131"/><ellipse cx="1565.4287" cy="147" fill="#2A5D60" rx="11" ry="11" style="stroke:#E7E7E7;stroke-width:1.0;"/><path d="M1567.5068,148.8125 L1567.8975,149.7969 L1567.5068,149.7969 C1567.0537,149.7969 1566.9443,149.8125 1566.7881,149.9219 C1566.5381,150.0781 1566.3818,150.3594 1566.3818,150.6563 C1566.3818,150.9219 1566.5225,151.1719 1566.7412,151.3281 C1566.8818,151.4531 1567.085,151.5 1567.5068,151.5 L1569.8662,151.5 C1570.2256,151.5 1570.4443,151.4688 1570.585,151.375 C1570.835,151.2344 1570.9912,150.9375 1570.9912,150.6563 C1570.9912,150.375 1570.8506,150.125 1570.6318,149.9688 C1570.46,149.8281 1570.3037,149.7969 1569.835,149.7969 L1566.4443,141.5938 L1562.7725,141.5938 C1562.3193,141.5938 1562.1943,141.6094 1562.0381,141.7031 C1561.7881,141.875 1561.6318,142.1563 1561.6318,142.4375 C1561.6318,142.7188 1561.7725,142.9688 1561.9912,143.1406 C1562.1631,143.25 1562.335,143.2813 1562.7725,143.2813 L1563.8506,143.2813 L1561.21,149.7969 C1560.7881,149.7969 1560.6318,149.8125 1560.4756,149.9219 C1560.2256,150.0781 1560.0693,150.3594 1560.0693,150.6563 C1560.0693,151.2188 1560.4443,151.5 1561.1943,151.5 L1563.46,151.5 C1563.8193,151.5 1564.0381,151.4688 1564.1631,151.375 C1564.4287,151.2344 1564.5693,150.9375 1564.5693,150.6563 C1564.5693,150.375 1564.4443,150.125 1564.2256,149.9531 C1564.0537,149.8281 1563.9131,149.7969 1563.46,149.7969 L1563.0693,149.7969 L1563.46,148.8125 L1567.5068,148.8125 Z M1566.8037,147.1094 L1564.1318,147.1094 L1565.4756,143.8438 L1566.8037,147.1094 Z " fill="#FFFFFF"/><text fill="#FFFFFF" font-family="sans-serif" font-size="14" font-style="italic" lengthAdjust="spacing" textLength="99" x="1579.4287" y="151.8467">CardObserver</text><line style="stroke:#E7E7E7;stroke-width:0.5;" x1="1551.4287" x2="1680.4287" y1="163" y2="163"/><line style="stroke:#E7E7E7;stroke-width:0.5;" x1="1551.4287" x2="1680.4287" y1="171" y2="171"/></g><!--class DeckObserver--><g id="elem_DeckObserver"><rect codeLine="8" fill="#303030" height="48" id="DeckObserver" rx="2.5" ry="2.5" style="stroke:#E7E7E7;stroke-width:0.5;" width="133" x="643.4307" y="239"/><ellipse cx="658.4307" cy="255" fill="#2A5D60" rx="11" ry="11" style="stroke:#E7E7E7;stroke-width:1.0;"/><path d="M660.5088,256.8125 L660.8995,257.7969 L660.5088,257.7969 C660.0557,257.7969 659.9463,257.8125 659.7901,257.9219 C659.5401,258.0781 659.3838,258.3594 659.3838,258.6563 C659.3838,258.9219 659.5245,259.1719 659.7432,259.3281 C659.8838,259.4531 660.087,259.5 660.5088,259.5 L662.8682,259.5 C663.2276,259.5 663.4463,259.4688 663.587,259.375 C663.837,259.2344 663.9932,258.9375 663.9932,258.6563 C663.9932,258.375 663.8526,258.125 663.6338,257.9688 C663.462,257.8281 663.3057,257.7969 662.837,257.7969 L659.4463,249.5938 L655.7745,249.5938 C655.3213,249.5938 655.1963,249.6094 655.0401,249.7031 C654.7901,249.875 654.6338,250.1563 654.6338,250.4375 C654.6338,250.7188 654.7745,250.9688 654.9932,251.1406 C655.1651,251.25 655.337,251.2813 655.7745,251.2813 L656.8526,251.2813 L654.212,257.7969 C653.7901,257.7969 653.6338,257.8125 653.4776,257.9219 C653.2276,258.0781 653.0713,258.3594 653.0713,258.6563 C653.0713,259.2188 653.4463,259.5 654.1963,259.5 L656.462,259.5 C656.8213,259.5 657.0401,259.4688 657.1651,259.375 C657.4307,259.2344 657.5713,258.9375 657.5713,258.6563 C657.5713,258.375 657.4463,258.125 657.2276,257.9531 C657.0557,257.8281 656.9151,257.7969 656.462,257.7969 L656.0713,257.7969 L656.462,256.8125 L660.5088,256.8125 Z M659.8057,255.1094 L657.1338,255.1094 L658.4776,251.8438 L659.8057,255.1094 Z " fill="#FFFFFF"/><text fill="#FFFFFF" font-family="sans-serif" font-size="14" font-style="italic" lengthAdjust="spacing" textLength="101" x="672.4307" y="259.8467">DeckObserver</text><line style="stroke:#E7E7E7;stroke-width:0.5;" x1="644.4307" x2="775.4307" y1="271" y2="271"/><line style="stroke:#E7E7E7;stroke-width:0.5;" x1="644.4307" x2="775.4307" y1="279" y2="279"/></g><!--class DeckListObserver--><g id="elem_DeckListObserver"><rect codeLine="11" fill="#303030" height="48" id="DeckListObserver" rx="2.5" ry="2.5" style="stroke:#E7E7E7;stroke-width:0.5;" width="157" x="1183.4287" y="239"/><ellipse cx="1198.4287" cy="255" fill="#2A5D60" rx="11" ry="11" style="stroke:#E7E7E7;stroke-width:1.0;"/><path d="M1200.5068,256.8125 L1200.8975,257.7969 L1200.5068,257.7969 C1200.0537,257.7969 1199.9443,257.8125 1199.7881,257.9219 C1199.5381,258.0781 1199.3818,258.3594 1199.3818,258.6563 C1199.3818,258.9219 1199.5225,259.1719 1199.7412,259.3281 C1199.8818,259.4531 1200.085,259.5 1200.5068,259.5 L1202.8662,259.5 C1203.2256,259.5 1203.4443,259.4688 1203.585,259.375 C1203.835,259.2344 1203.9912,258.9375 1203.9912,258.6563 C1203.9912,258.375 1203.8506,258.125 1203.6318,257.9688 C1203.46,257.8281 1203.3037,257.7969 1202.835,257.7969 L1199.4443,249.5938 L1195.7725,249.5938 C1195.3193,249.5938 1195.1943,249.6094 1195.0381,249.7031 C1194.7881,249.875 1194.6318,250.1563 1194.6318,250.4375 C1194.6318,250.7188 1194.7725,250.9688 1194.9912,251.1406 C1195.1631,251.25 1195.335,251.2813 1195.7725,251.2813 L1196.8506,251.2813 L1194.21,257.7969 C1193.7881,257.7969 1193.6318,257.8125 1193.4756,257.9219 C1193.2256,258.0781 1193.0693,258.3594 1193.0693,258.6563 C1193.0693,259.2188 1193.4443,259.5 1194.1943,259.5 L1196.46,259.5 C1196.8193,259.5 1197.0381,259.4688 1197.1631,259.375 C1197.4287,259.2344 1197.5693,258.9375 1197.5693,258.6563 C1197.5693,258.375 1197.4443,258.125 1197.2256,257.9531 C1197.0537,257.8281 1196.9131,257.7969 1196.46,257.7969 L1196.0693,257.7969 L1196.46,256.8125 L1200.5068,256.8125 Z M1199.8037,255.1094 L1197.1318,255.1094 L1198.4756,251.8438 L1199.8037,255.1094 Z " fill="#FFFFFF"/><text fill="#FFFFFF" font-family="sans-serif" font-size="14" font-style="italic" lengthAdjust="spacing" textLength="125" x="1212.4287" y="259.8467">DeckListObserver</text><line style="stroke:#E7E7E7;stroke-width:0.5;" x1="1184.4287" x2="1339.4287" y1="271" y2="271"/><line style="stroke:#E7E7E7;stroke-width:0.5;" x1="1184.4287" x2="1339.4287" y1="279" y2="279"/></g><!--class StageObserver--><g id="elem_StageObserver"><rect codeLine="14" fill="#303030" height="48" id="StageObserver" rx="2.5" ry="2.5" style="stroke:#E7E7E7;stroke-width:0.5;" width="138" x="961.9307" y="131"/><ellipse cx="976.9307" cy="147" fill="#2A5D60" rx="11" ry="11" style="stroke:#E7E7E7;stroke-width:1.0;"/><path d="M979.0088,148.8125 L979.3995,149.7969 L979.0088,149.7969 C978.5557,149.7969 978.4463,149.8125 978.2901,149.9219 C978.0401,150.0781 977.8838,150.3594 977.8838,150.6563 C977.8838,150.9219 978.0245,151.1719 978.2432,151.3281 C978.3838,151.4531 978.587,151.5 979.0088,151.5 L981.3682,151.5 C981.7276,151.5 981.9463,151.4688 982.087,151.375 C982.337,151.2344 982.4932,150.9375 982.4932,150.6563 C982.4932,150.375 982.3526,150.125 982.1338,149.9688 C981.962,149.8281 981.8057,149.7969 981.337,149.7969 L977.9463,141.5938 L974.2745,141.5938 C973.8213,141.5938 973.6963,141.6094 973.5401,141.7031 C973.2901,141.875 973.1338,142.1563 973.1338,142.4375 C973.1338,142.7188 973.2745,142.9688 973.4932,143.1406 C973.6651,143.25 973.837,143.2813 974.2745,143.2813 L975.3526,143.2813 L972.712,149.7969 C972.2901,149.7969 972.1338,149.8125 971.9776,149.9219 C971.7276,150.0781 971.5713,150.3594 971.5713,150.6563 C971.5713,151.2188 971.9463,151.5 972.6963,151.5 L974.962,151.5 C975.3213,151.5 975.5401,151.4688 975.6651,151.375 C975.9307,151.2344 976.0713,150.9375 976.0713,150.6563 C976.0713,150.375 975.9463,150.125 975.7276,149.9531 C975.5557,149.8281 975.4151,149.7969 974.962,149.7969 L974.5713,149.7969 L974.962,148.8125 L979.0088,148.8125 Z M978.3057,147.1094 L975.6338,147.1094 L976.9776,143.8438 L978.3057,147.1094 Z " fill="#FFFFFF"/><text fill="#FFFFFF" font-family="sans-serif" font-size="14" font-style="italic" lengthAdjust="spacing" textLength="106" x="990.9307" y="151.8467">StageObserver</text><line style="stroke:#E7E7E7;stroke-width:0.5;" x1="962.9307" x2="1098.9307" y1="163" y2="163"/><line style="stroke:#E7E7E7;stroke-width:0.5;" x1="962.9307" x2="1098.9307" y1="171" y2="171"/></g><!--class Observed--><g id="elem_Observed"><rect codeLine="17" fill="#303030" height="80.5938" id="Observed" rx="2.5" ry="2.5" style="stroke:#E7E7E7;stroke-width:0.5;" width="268" x="1083.9287" y="584.5"/><ellipse cx="1179.6787" cy="600.5" fill="#2A5D60" rx="11" ry="11" style="stroke:#E7E7E7;stroke-width:1.0;"/><path d="M1181.7568,602.3125 L1182.1475,603.2969 L1181.7568,603.2969 C1181.3037,603.2969 1181.1943,603.3125 1181.0381,603.4219 C1180.7881,603.5781 1180.6318,603.8594 1180.6318,604.1563 C1180.6318,604.4219 1180.7725,604.6719 1180.9912,604.8281 C1181.1318,604.9531 1181.335,605 1181.7568,605 L1184.1162,605 C1184.4756,605 1184.6943,604.9688 1184.835,604.875 C1185.085,604.7344 1185.2412,604.4375 1185.2412,604.1563 C1185.2412,603.875 1185.1006,603.625 1184.8818,603.4688 C1184.71,603.3281 1184.5537,603.2969 1184.085,603.2969 L1180.6943,595.0938 L1177.0225,595.0938 C1176.5693,595.0938 1176.4443,595.1094 1176.2881,595.2031 C1176.0381,595.375 1175.8818,595.6563 1175.8818,595.9375 C1175.8818,596.2188 1176.0225,596.4688 1176.2412,596.6406 C1176.4131,596.75 1176.585,596.7813 1177.0225,596.7813 L1178.1006,596.7813 L1175.46,603.2969 C1175.0381,603.2969 1174.8818,603.3125 1174.7256,603.4219 C1174.4756,603.5781 1174.3193,603.8594 1174.3193,604.1563 C1174.3193,604.7188 1174.6943,605 1175.4443,605 L1177.71,605 C1178.0693,605 1178.2881,604.9688 1178.4131,604.875 C1178.6787,604.7344 1178.8193,604.4375 1178.8193,604.1563 C1178.8193,603.875 1178.6943,603.625 1178.4756,603.4531 C1178.3037,603.3281 1178.1631,603.2969 1177.71,603.2969 L1177.3193,603.2969 L1177.71,602.3125 L1181.7568,602.3125 Z M1181.0537,600.6094 L1178.3818,600.6094 L1179.7256,597.3438 L1181.0537,600.6094 Z " fill="#FFFFFF"/><text fill="#FFFFFF" font-family="sans-serif" font-size="14" font-style="italic" lengthAdjust="spacing" textLength="68" x="1200.1787" y="605.3467">Observed</text><line style="stroke:#E7E7E7;stroke-width:0.5;" x1="1084.9287" x2="1350.9287" y1="616.5" y2="616.5"/><line style="stroke:#E7E7E7;stroke-width:0.5;" x1="1084.9287" x2="1350.9287" y1="624.5" y2="624.5"/><ellipse cx="1094.9287" cy="638.1484" fill="#84BE84" rx="3" ry="3" style="stroke:#038048;stroke-width:1.0;"/><text fill="#FFFFFF" font-family="sans-serif" font-size="14" lengthAdjust="spacing" textLength="242" x="1103.9287" y="641.4951">addObs(observer: Observer): void</text><ellipse cx="1094.9287" cy="654.4453" fill="#84BE84" rx="3" ry="3" style="stroke:#038048;stroke-width:1.0;"/><text fill="#FFFFFF" font-family="sans-serif" font-size="14" lengthAdjust="spacing" textLength="120" x="1103.9287" y="657.792">notifyObs(): void</text></g><!--class GlobalView--><g id="elem_GlobalView"><rect codeLine="22" fill="#303030" height="129.4844" id="GlobalView" rx="2.5" ry="2.5" style="stroke:#E7E7E7;stroke-width:0.5;" width="356" x="1083.9287" y="347"/><ellipse cx="1217.6787" cy="363" fill="#2E5233" rx="11" ry="11" style="stroke:#E7E7E7;stroke-width:1.0;"/><path d="M1220.0225,358.6719 C1219.085,358.2344 1218.4912,358.0938 1217.6162,358.0938 C1214.9912,358.0938 1212.9912,360.1719 1212.9912,362.8906 L1212.9912,364.0156 C1212.9912,366.5938 1215.1006,368.4844 1217.9912,368.4844 C1219.21,368.4844 1220.3662,368.1875 1221.1162,367.6406 C1221.6943,367.2344 1222.0225,366.7813 1222.0225,366.3906 C1222.0225,365.9375 1221.6318,365.5469 1221.1631,365.5469 C1220.9443,365.5469 1220.7412,365.625 1220.5537,365.8125 C1220.1006,366.2969 1220.1006,366.2969 1219.9131,366.3906 C1219.4912,366.6563 1218.8037,366.7813 1218.0381,366.7813 C1215.9912,366.7813 1214.6943,365.6875 1214.6943,363.9844 L1214.6943,362.8906 C1214.6943,361.1094 1215.9443,359.7969 1217.6787,359.7969 C1218.2568,359.7969 1218.8662,359.9531 1219.335,360.2031 C1219.8193,360.4844 1219.9912,360.7031 1220.085,361.1094 C1220.1475,361.5156 1220.1787,361.6406 1220.3193,361.7656 C1220.46,361.9063 1220.6943,362.0156 1220.9131,362.0156 C1221.1787,362.0156 1221.4443,361.875 1221.6162,361.6563 C1221.7256,361.5 1221.7568,361.3125 1221.7568,360.8906 L1221.7568,359.4688 C1221.7568,359.0313 1221.7412,358.9063 1221.6475,358.75 C1221.4912,358.4844 1221.21,358.3438 1220.9131,358.3438 C1220.6162,358.3438 1220.4131,358.4375 1220.1943,358.75 L1220.0225,358.6719 Z " fill="#FFFFFF"/><text fill="#FFFFFF" font-family="sans-serif" font-size="14" lengthAdjust="spacing" textLength="80" x="1238.1787" y="367.8467">GlobalView</text><line style="stroke:#E7E7E7;stroke-width:0.5;" x1="1084.9287" x2="1438.9287" y1="379" y2="379"/><line style="stroke:#E7E7E7;stroke-width:0.5;" x1="1084.9287" x2="1438.9287" y1="387" y2="387"/><ellipse cx="1094.9287" cy="400.6484" fill="#84BE84" rx="3" ry="3" style="stroke:#038048;stroke-width:1.0;"/><text fill="#FFFFFF" font-family="sans-serif" font-size="14" lengthAdjust="spacing" textLength="135" x="1103.9287" y="403.9951">removeDeck(i: int)</text><ellipse cx="1094.9287" cy="416.9453" fill="#84BE84" rx="3" ry="3" style="stroke:#038048;stroke-width:1.0;"/><text fill="#FFFFFF" font-family="sans-serif" font-size="14" lengthAdjust="spacing" textLength="129" x="1103.9287" y="420.292">exportDeck(i: int)</text><ellipse cx="1094.9287" cy="433.2422" fill="#84BE84" rx="3" ry="3" style="stroke:#038048;stroke-width:1.0;"/><text fill="#FFFFFF" font-family="sans-serif" font-size="14" lengthAdjust="spacing" textLength="97" x="1103.9287" y="436.5889">importDeck()</text><ellipse cx="1094.9287" cy="449.5391" fill="#84BE84" rx="3" ry="3" style="stroke:#038048;stroke-width:1.0;"/><text fill="#FFFFFF" font-family="sans-serif" font-size="14" lengthAdjust="spacing" textLength="330" x="1103.9287" y="452.8857">createDeck(name: String, description: String)</text><ellipse cx="1094.9287" cy="465.8359" fill="#84BE84" rx="3" ry="3" style="stroke:#038048;stroke-width:1.0;"/><text fill="#FFFFFF" font-family="sans-serif" font-size="14" lengthAdjust="spacing" textLength="136" x="1103.9287" y="469.1826">toDeckView(): void</text></g><!--class DeckView--><g id="elem_DeckView"><rect codeLine="30" fill="#303030" height="129.4844" id="DeckView" rx="2.5" ry="2.5" style="stroke:#E7E7E7;stroke-width:0.5;" width="321" x="549.4307" y="347"/><ellipse cx="670.1807" cy="363" fill="#2E5233" rx="11" ry="11" style="stroke:#E7E7E7;stroke-width:1.0;"/><path d="M672.5245,358.6719 C671.587,358.2344 670.9932,358.0938 670.1182,358.0938 C667.4932,358.0938 665.4932,360.1719 665.4932,362.8906 L665.4932,364.0156 C665.4932,366.5938 667.6026,368.4844 670.4932,368.4844 C671.712,368.4844 672.8682,368.1875 673.6182,367.6406 C674.1963,367.2344 674.5245,366.7813 674.5245,366.3906 C674.5245,365.9375 674.1338,365.5469 673.6651,365.5469 C673.4463,365.5469 673.2432,365.625 673.0557,365.8125 C672.6026,366.2969 672.6026,366.2969 672.4151,366.3906 C671.9932,366.6563 671.3057,366.7813 670.5401,366.7813 C668.4932,366.7813 667.1963,365.6875 667.1963,363.9844 L667.1963,362.8906 C667.1963,361.1094 668.4463,359.7969 670.1807,359.7969 C670.7588,359.7969 671.3682,359.9531 671.837,360.2031 C672.3213,360.4844 672.4932,360.7031 672.587,361.1094 C672.6495,361.5156 672.6807,361.6406 672.8213,361.7656 C672.962,361.9063 673.1963,362.0156 673.4151,362.0156 C673.6807,362.0156 673.9463,361.875 674.1182,361.6563 C674.2276,361.5 674.2588,361.3125 674.2588,360.8906 L674.2588,359.4688 C674.2588,359.0313 674.2432,358.9063 674.1495,358.75 C673.9932,358.4844 673.712,358.3438 673.4151,358.3438 C673.1182,358.3438 672.9151,358.4375 672.6963,358.75 L672.5245,358.6719 Z " fill="#FFFFFF"/><text fill="#FFFFFF" font-family="sans-serif" font-size="14" lengthAdjust="spacing" textLength="71" x="690.6807" y="367.8467">DeckView</text><line style="stroke:#E7E7E7;stroke-width:0.5;" x1="550.4307" x2="869.4307" y1="379" y2="379"/><line style="stroke:#E7E7E7;stroke-width:0.5;" x1="550.4307" x2="869.4307" y1="387" y2="387"/><ellipse cx="560.4307" cy="400.6484" fill="#84BE84" rx="3" ry="3" style="stroke:#038048;stroke-width:1.0;"/><text fill="#FFFFFF" font-family="sans-serif" font-size="14" lengthAdjust="spacing" textLength="173" x="569.4307" y="403.9951">editName(name: String)</text><ellipse cx="560.4307" cy="416.9453" fill="#84BE84" rx="3" ry="3" style="stroke:#038048;stroke-width:1.0;"/><text fill="#FFFFFF" font-family="sans-serif" font-size="14" lengthAdjust="spacing" textLength="258" x="569.4307" y="420.292">editDescription(description: String)</text><ellipse cx="560.4307" cy="433.2422" fill="#84BE84" rx="3" ry="3" style="stroke:#038048;stroke-width:1.0;"/><text fill="#FFFFFF" font-family="sans-serif" font-size="14" lengthAdjust="spacing" textLength="295" x="569.4307" y="436.5889">addCard(question: String, answer: String)</text><ellipse cx="560.4307" cy="449.5391" fill="#84BE84" rx="3" ry="3" style="stroke:#038048;stroke-width:1.0;"/><text fill="#FFFFFF" font-family="sans-serif" font-size="14" lengthAdjust="spacing" textLength="213" x="569.4307" y="452.8857">removeCard(question: String)</text><ellipse cx="560.4307" cy="465.8359" fill="#84BE84" rx="3" ry="3" style="stroke:#038048;stroke-width:1.0;"/><text fill="#FFFFFF" font-family="sans-serif" font-size="14" lengthAdjust="spacing" textLength="145" x="569.4307" y="469.1826">toGlobalView(): void</text></g><!--class StageView--><g id="elem_StageView"><rect codeLine="38" fill="#303030" height="48" id="StageView" rx="2.5" ry="2.5" style="stroke:#E7E7E7;stroke-width:0.5;" width="108" x="869.9307" y="239"/><ellipse cx="884.9307" cy="255" fill="#2E5233" rx="11" ry="11" style="stroke:#E7E7E7;stroke-width:1.0;"/><path d="M887.2745,250.6719 C886.337,250.2344 885.7432,250.0938 884.8682,250.0938 C882.2432,250.0938 880.2432,252.1719 880.2432,254.8906 L880.2432,256.0156 C880.2432,258.5938 882.3526,260.4844 885.2432,260.4844 C886.462,260.4844 887.6182,260.1875 888.3682,259.6406 C888.9463,259.2344 889.2745,258.7813 889.2745,258.3906 C889.2745,257.9375 888.8838,257.5469 888.4151,257.5469 C888.1963,257.5469 887.9932,257.625 887.8057,257.8125 C887.3526,258.2969 887.3526,258.2969 887.1651,258.3906 C886.7432,258.6563 886.0557,258.7813 885.2901,258.7813 C883.2432,258.7813 881.9463,257.6875 881.9463,255.9844 L881.9463,254.8906 C881.9463,253.1094 883.1963,251.7969 884.9307,251.7969 C885.5088,251.7969 886.1182,251.9531 886.587,252.2031 C887.0713,252.4844 887.2432,252.7031 887.337,253.1094 C887.3995,253.5156 887.4307,253.6406 887.5713,253.7656 C887.712,253.9063 887.9463,254.0156 888.1651,254.0156 C888.4307,254.0156 888.6963,253.875 888.8682,253.6563 C888.9776,253.5 889.0088,253.3125 889.0088,252.8906 L889.0088,251.4688 C889.0088,251.0313 888.9932,250.9063 888.8995,250.75 C888.7432,250.4844 888.462,250.3438 888.1651,250.3438 C887.8682,250.3438 887.6651,250.4375 887.4463,250.75 L887.2745,250.6719 Z " fill="#FFFFFF"/><text fill="#FFFFFF" font-family="sans-serif" font-size="14" lengthAdjust="spacing" textLength="76" x="898.9307" y="259.8467">StageView</text><line style="stroke:#E7E7E7;stroke-width:0.5;" x1="870.9307" x2="976.9307" y1="271" y2="271"/><line style="stroke:#E7E7E7;stroke-width:0.5;" x1="870.9307" x2="976.9307" y1="279" y2="279"/></g><!--class DeckListModel--><g id="elem_DeckListModel"><rect codeLine="41" fill="#303030" height="80.5938" id="DeckListModel" rx="2.5" ry="2.5" style="stroke:#E7E7E7;stroke-width:0.5;" width="374" x="1438.9287" y="774"/><ellipse cx="1568.6787" cy="790" fill="#2E5233" rx="11" ry="11" style="stroke:#E7E7E7;stroke-width:1.0;"/><path d="M1571.0225,785.6719 C1570.085,785.2344 1569.4912,785.0938 1568.6162,785.0938 C1565.9912,785.0938 1563.9912,787.1719 1563.9912,789.8906 L1563.9912,791.0156 C1563.9912,793.5938 1566.1006,795.4844 1568.9912,795.4844 C1570.21,795.4844 1571.3662,795.1875 1572.1162,794.6406 C1572.6943,794.2344 1573.0225,793.7813 1573.0225,793.3906 C1573.0225,792.9375 1572.6318,792.5469 1572.1631,792.5469 C1571.9443,792.5469 1571.7412,792.625 1571.5537,792.8125 C1571.1006,793.2969 1571.1006,793.2969 1570.9131,793.3906 C1570.4912,793.6563 1569.8037,793.7813 1569.0381,793.7813 C1566.9912,793.7813 1565.6943,792.6875 1565.6943,790.9844 L1565.6943,789.8906 C1565.6943,788.1094 1566.9443,786.7969 1568.6787,786.7969 C1569.2568,786.7969 1569.8662,786.9531 1570.335,787.2031 C1570.8193,787.4844 1570.9912,787.7031 1571.085,788.1094 C1571.1475,788.5156 1571.1787,788.6406 1571.3193,788.7656 C1571.46,788.9063 1571.6943,789.0156 1571.9131,789.0156 C1572.1787,789.0156 1572.4443,788.875 1572.6162,788.6563 C1572.7256,788.5 1572.7568,788.3125 1572.7568,787.8906 L1572.7568,786.4688 C1572.7568,786.0313 1572.7412,785.9063 1572.6475,785.75 C1572.4912,785.4844 1572.21,785.3438 1571.9131,785.3438 C1571.6162,785.3438 1571.4131,785.4375 1571.1943,785.75 L1571.0225,785.6719 Z " fill="#FFFFFF"/><text fill="#FFFFFF" font-family="sans-serif" font-size="14" lengthAdjust="spacing" textLength="106" x="1589.1787" y="794.8467">DeckListModel</text><line style="stroke:#E7E7E7;stroke-width:0.5;" x1="1439.9287" x2="1811.9287" y1="806" y2="806"/><line style="stroke:#E7E7E7;stroke-width:0.5;" x1="1439.9287" x2="1811.9287" y1="814" y2="814"/><ellipse cx="1449.9287" cy="827.6484" fill="#84BE84" rx="3" ry="3" style="stroke:#038048;stroke-width:1.0;"/><text fill="#FFFFFF" font-family="sans-serif" font-size="14" lengthAdjust="spacing" textLength="348" x="1458.9287" y="830.9951">addDeck(name: String, description: String): void</text><ellipse cx="1449.9287" cy="843.9453" fill="#84BE84" rx="3" ry="3" style="stroke:#038048;stroke-width:1.0;"/><text fill="#FFFFFF" font-family="sans-serif" font-size="14" lengthAdjust="spacing" textLength="174" x="1458.9287" y="847.292">removeDeck(i: int): void</text></g><!--class DeckModel--><g id="elem_DeckModel"><rect codeLine="46" fill="#303030" height="210.9688" id="DeckModel" rx="2.5" ry="2.5" style="stroke:#E7E7E7;stroke-width:0.5;" width="432" x="900.9307" y="915"/><ellipse cx="1072.6807" cy="931" fill="#2E5233" rx="11" ry="11" style="stroke:#E7E7E7;stroke-width:1.0;"/><path d="M1075.0245,926.6719 C1074.087,926.2344 1073.4932,926.0938 1072.6182,926.0938 C1069.9932,926.0938 1067.9932,928.1719 1067.9932,930.8906 L1067.9932,932.0156 C1067.9932,934.5938 1070.1026,936.4844 1072.9932,936.4844 C1074.212,936.4844 1075.3682,936.1875 1076.1182,935.6406 C1076.6963,935.2344 1077.0245,934.7813 1077.0245,934.3906 C1077.0245,933.9375 1076.6338,933.5469 1076.1651,933.5469 C1075.9463,933.5469 1075.7432,933.625 1075.5557,933.8125 C1075.1026,934.2969 1075.1026,934.2969 1074.9151,934.3906 C1074.4932,934.6563 1073.8057,934.7813 1073.0401,934.7813 C1070.9932,934.7813 1069.6963,933.6875 1069.6963,931.9844 L1069.6963,930.8906 C1069.6963,929.1094 1070.9463,927.7969 1072.6807,927.7969 C1073.2588,927.7969 1073.8682,927.9531 1074.337,928.2031 C1074.8213,928.4844 1074.9932,928.7031 1075.087,929.1094 C1075.1495,929.5156 1075.1807,929.6406 1075.3213,929.7656 C1075.462,929.9063 1075.6963,930.0156 1075.9151,930.0156 C1076.1807,930.0156 1076.4463,929.875 1076.6182,929.6563 C1076.7276,929.5 1076.7588,929.3125 1076.7588,928.8906 L1076.7588,927.4688 C1076.7588,927.0313 1076.7432,926.9063 1076.6495,926.75 C1076.4932,926.4844 1076.212,926.3438 1075.9151,926.3438 C1075.6182,926.3438 1075.4151,926.4375 1075.1963,926.75 L1075.0245,926.6719 Z " fill="#FFFFFF"/><text fill="#FFFFFF" font-family="sans-serif" font-size="14" lengthAdjust="spacing" textLength="80" x="1093.1807" y="935.8467">DeckModel</text><line style="stroke:#E7E7E7;stroke-width:0.5;" x1="901.9307" x2="1331.9307" y1="947" y2="947"/><rect fill="none" height="6" style="stroke:#C82930;stroke-width:1.0;" width="6" x="908.9307" y="957.6484"/><text fill="#FFFFFF" font-family="sans-serif" font-size="14" lengthAdjust="spacing" textLength="93" x="920.9307" y="963.9951">name: String</text><rect fill="none" height="6" style="stroke:#C82930;stroke-width:1.0;" width="6" x="908.9307" y="973.9453"/><text fill="#FFFFFF" font-family="sans-serif" font-size="14" lengthAdjust="spacing" textLength="135" x="920.9307" y="980.292">description: String</text><rect fill="none" height="6" style="stroke:#C82930;stroke-width:1.0;" width="6" x="908.9307" y="990.2422"/><text fill="#FFFFFF" font-family="sans-serif" font-size="14" lengthAdjust="spacing" textLength="106" x="920.9307" y="996.5889">activeCard: int</text><line style="stroke:#E7E7E7;stroke-width:0.5;" x1="901.9307" x2="1331.9307" y1="1003.8906" y2="1003.8906"/><ellipse cx="911.9307" cy="1017.5391" fill="#84BE84" rx="3" ry="3" style="stroke:#038048;stroke-width:1.0;"/><text fill="#FFFFFF" font-family="sans-serif" font-size="14" lengthAdjust="spacing" textLength="206" x="920.9307" y="1020.8857">setName(name: String): void</text><ellipse cx="911.9307" cy="1033.8359" fill="#84BE84" rx="3" ry="3" style="stroke:#038048;stroke-width:1.0;"/><text fill="#FFFFFF" font-family="sans-serif" font-size="14" lengthAdjust="spacing" textLength="291" x="920.9307" y="1037.1826">setDescription(description: String): void</text><ellipse cx="911.9307" cy="1050.1328" fill="#84BE84" rx="3" ry="3" style="stroke:#038048;stroke-width:1.0;"/><text fill="#FFFFFF" font-family="sans-serif" font-size="14" lengthAdjust="spacing" textLength="193" x="920.9307" y="1053.4795">setActiveCard(id: int): void</text><ellipse cx="911.9307" cy="1066.4297" fill="#84BE84" rx="3" ry="3" style="stroke:#038048;stroke-width:1.0;"/><text fill="#FFFFFF" font-family="sans-serif" font-size="14" lengthAdjust="spacing" textLength="406" x="920.9307" y="1069.7764">setDrawCardStrategy(strategy: DrawCardStrategy): void</text><ellipse cx="911.9307" cy="1082.7266" fill="#84BE84" rx="3" ry="3" style="stroke:#038048;stroke-width:1.0;"/><text fill="#FFFFFF" font-family="sans-serif" font-size="14" lengthAdjust="spacing" textLength="404" x="920.9307" y="1086.0732">setBuildCardStrategy(strategy: BuildCardStrategy): void</text><ellipse cx="911.9307" cy="1099.0234" fill="#84BE84" rx="3" ry="3" style="stroke:#038048;stroke-width:1.0;"/><text fill="#FFFFFF" font-family="sans-serif" font-size="14" lengthAdjust="spacing" textLength="334" x="920.9307" y="1102.3701">addCard(question: String, answer: String): void</text><ellipse cx="911.9307" cy="1115.3203" fill="#84BE84" rx="3" ry="3" style="stroke:#038048;stroke-width:1.0;"/><text fill="#FFFFFF" font-family="sans-serif" font-size="14" lengthAdjust="spacing" textLength="179" x="920.9307" y="1118.667">removeCard(id: int): void</text></g><!--class CardModel--><g id="elem_CardModel"><rect codeLine="59" fill="#303030" height="129.4844" id="CardModel" rx="2.5" ry="2.5" style="stroke:#E7E7E7;stroke-width:0.5;" width="277" x="1768.4287" y="1186"/><ellipse cx="1864.6787" cy="1202" fill="#2E5233" rx="11" ry="11" style="stroke:#E7E7E7;stroke-width:1.0;"/><path d="M1867.0225,1197.6719 C1866.085,1197.2344 1865.4912,1197.0938 1864.6162,1197.0938 C1861.9912,1197.0938 1859.9912,1199.1719 1859.9912,1201.8906 L1859.9912,1203.0156 C1859.9912,1205.5938 1862.1006,1207.4844 1864.9912,1207.4844 C1866.21,1207.4844 1867.3662,1207.1875 1868.1162,1206.6406 C1868.6943,1206.2344 1869.0225,1205.7813 1869.0225,1205.3906 C1869.0225,1204.9375 1868.6318,1204.5469 1868.1631,1204.5469 C1867.9443,1204.5469 1867.7412,1204.625 1867.5537,1204.8125 C1867.1006,1205.2969 1867.1006,1205.2969 1866.9131,1205.3906 C1866.4912,1205.6563 1865.8037,1205.7813 1865.0381,1205.7813 C1862.9912,1205.7813 1861.6943,1204.6875 1861.6943,1202.9844 L1861.6943,1201.8906 C1861.6943,1200.1094 1862.9443,1198.7969 1864.6787,1198.7969 C1865.2568,1198.7969 1865.8662,1198.9531 1866.335,1199.2031 C1866.8193,1199.4844 1866.9912,1199.7031 1867.085,1200.1094 C1867.1475,1200.5156 1867.1787,1200.6406 1867.3193,1200.7656 C1867.46,1200.9063 1867.6943,1201.0156 1867.9131,1201.0156 C1868.1787,1201.0156 1868.4443,1200.875 1868.6162,1200.6563 C1868.7256,1200.5 1868.7568,1200.3125 1868.7568,1199.8906 L1868.7568,1198.4688 C1868.7568,1198.0313 1868.7412,1197.9063 1868.6475,1197.75 C1868.4912,1197.4844 1868.21,1197.3438 1867.9131,1197.3438 C1867.6162,1197.3438 1867.4131,1197.4375 1867.1943,1197.75 L1867.0225,1197.6719 Z " fill="#FFFFFF"/><text fill="#FFFFFF" font-family="sans-serif" font-size="14" lengthAdjust="spacing" textLength="76" x="1885.1787" y="1206.8467">CardModel</text><line style="stroke:#E7E7E7;stroke-width:0.5;" x1="1769.4287" x2="2044.4287" y1="1218" y2="1218"/><rect fill="none" height="6" style="stroke:#C82930;stroke-width:1.0;" width="6" x="1776.4287" y="1228.6484"/><text fill="#FFFFFF" font-family="sans-serif" font-size="14" lengthAdjust="spacing" textLength="115" x="1788.4287" y="1234.9951">question: String</text><rect fill="none" height="6" style="stroke:#C82930;stroke-width:1.0;" width="6" x="1776.4287" y="1244.9453"/><text fill="#FFFFFF" font-family="sans-serif" font-size="14" lengthAdjust="spacing" textLength="103" x="1788.4287" y="1251.292">answer: String</text><rect fill="none" height="6" style="stroke:#C82930;stroke-width:1.0;" width="6" x="1776.4287" y="1261.2422"/><text fill="#FFFFFF" font-family="sans-serif" font-size="14" lengthAdjust="spacing" textLength="123" x="1788.4287" y="1267.5889">probability: float</text><line style="stroke:#E7E7E7;stroke-width:0.5;" x1="1769.4287" x2="2044.4287" y1="1274.8906" y2="1274.8906"/><ellipse cx="1779.4287" cy="1288.5391" fill="#84BE84" rx="3" ry="3" style="stroke:#038048;stroke-width:1.0;"/><text fill="#FFFFFF" font-family="sans-serif" font-size="14" lengthAdjust="spacing" textLength="251" x="1788.4287" y="1291.8857">setQuestion(question: String): void</text><ellipse cx="1779.4287" cy="1304.8359" fill="#84BE84" rx="3" ry="3" style="stroke:#038048;stroke-width:1.0;"/><text fill="#FFFFFF" font-family="sans-serif" font-size="14" lengthAdjust="spacing" textLength="227" x="1788.4287" y="1308.1826">setAnswer(answer: String): void</text></g><!--class StageModel--><g id="elem_StageModel"><rect codeLine="67" fill="#303030" height="80.5938" id="StageModel" rx="2.5" ry="2.5" style="stroke:#E7E7E7;stroke-width:0.5;" width="259" x="901.4307" y="774"/><ellipse cx="984.1807" cy="790" fill="#2E5233" rx="11" ry="11" style="stroke:#E7E7E7;stroke-width:1.0;"/><path d="M986.5245,785.6719 C985.587,785.2344 984.9932,785.0938 984.1182,785.0938 C981.4932,785.0938 979.4932,787.1719 979.4932,789.8906 L979.4932,791.0156 C979.4932,793.5938 981.6026,795.4844 984.4932,795.4844 C985.712,795.4844 986.8682,795.1875 987.6182,794.6406 C988.1963,794.2344 988.5245,793.7813 988.5245,793.3906 C988.5245,792.9375 988.1338,792.5469 987.6651,792.5469 C987.4463,792.5469 987.2432,792.625 987.0557,792.8125 C986.6026,793.2969 986.6026,793.2969 986.4151,793.3906 C985.9932,793.6563 985.3057,793.7813 984.5401,793.7813 C982.4932,793.7813 981.1963,792.6875 981.1963,790.9844 L981.1963,789.8906 C981.1963,788.1094 982.4463,786.7969 984.1807,786.7969 C984.7588,786.7969 985.3682,786.9531 985.837,787.2031 C986.3213,787.4844 986.4932,787.7031 986.587,788.1094 C986.6495,788.5156 986.6807,788.6406 986.8213,788.7656 C986.962,788.9063 987.1963,789.0156 987.4151,789.0156 C987.6807,789.0156 987.9463,788.875 988.1182,788.6563 C988.2276,788.5 988.2588,788.3125 988.2588,787.8906 L988.2588,786.4688 C988.2588,786.0313 988.2432,785.9063 988.1495,785.75 C987.9932,785.4844 987.712,785.3438 987.4151,785.3438 C987.1182,785.3438 986.9151,785.4375 986.6963,785.75 L986.5245,785.6719 Z " fill="#FFFFFF"/><text fill="#FFFFFF" font-family="sans-serif" font-size="14" lengthAdjust="spacing" textLength="85" x="1004.6807" y="794.8467">StageModel</text><line style="stroke:#E7E7E7;stroke-width:0.5;" x1="902.4307" x2="1159.4307" y1="806" y2="806"/><rect fill="none" height="6" style="stroke:#C82930;stroke-width:1.0;" width="6" x="909.4307" y="816.6484"/><text fill="#FFFFFF" font-family="sans-serif" font-size="14" lengthAdjust="spacing" textLength="117" x="921.4307" y="822.9951">activeScene: int</text><line style="stroke:#E7E7E7;stroke-width:0.5;" x1="902.4307" x2="1159.4307" y1="830.2969" y2="830.2969"/><ellipse cx="912.4307" cy="843.9453" fill="#84BE84" rx="3" ry="3" style="stroke:#038048;stroke-width:1.0;"/><text fill="#FFFFFF" font-family="sans-serif" font-size="14" lengthAdjust="spacing" textLength="233" x="921.4307" y="847.292">setActiveScene(scene: int): void</text></g><!--class DeckListController--><g id="elem_DeckListController"><rect codeLine="72" fill="#303030" height="113.1875" id="DeckListController" rx="2.5" ry="2.5" style="stroke:#E7E7E7;stroke-width:0.5;" width="395" x="1387.4287" y="568.5"/><ellipse cx="1512.6787" cy="584.5" fill="#2E5233" rx="11" ry="11" style="stroke:#E7E7E7;stroke-width:1.0;"/><path d="M1515.0225,580.1719 C1514.085,579.7344 1513.4912,579.5938 1512.6162,579.5938 C1509.9912,579.5938 1507.9912,581.6719 1507.9912,584.3906 L1507.9912,585.5156 C1507.9912,588.0938 1510.1006,589.9844 1512.9912,589.9844 C1514.21,589.9844 1515.3662,589.6875 1516.1162,589.1406 C1516.6943,588.7344 1517.0225,588.2813 1517.0225,587.8906 C1517.0225,587.4375 1516.6318,587.0469 1516.1631,587.0469 C1515.9443,587.0469 1515.7412,587.125 1515.5537,587.3125 C1515.1006,587.7969 1515.1006,587.7969 1514.9131,587.8906 C1514.4912,588.1563 1513.8037,588.2813 1513.0381,588.2813 C1510.9912,588.2813 1509.6943,587.1875 1509.6943,585.4844 L1509.6943,584.3906 C1509.6943,582.6094 1510.9443,581.2969 1512.6787,581.2969 C1513.2568,581.2969 1513.8662,581.4531 1514.335,581.7031 C1514.8193,581.9844 1514.9912,582.2031 1515.085,582.6094 C1515.1475,583.0156 1515.1787,583.1406 1515.3193,583.2656 C1515.46,583.4063 1515.6943,583.5156 1515.9131,583.5156 C1516.1787,583.5156 1516.4443,583.375 1516.6162,583.1563 C1516.7256,583 1516.7568,582.8125 1516.7568,582.3906 L1516.7568,580.9688 C1516.7568,580.5313 1516.7412,580.4063 1516.6475,580.25 C1516.4912,579.9844 1516.21,579.8438 1515.9131,579.8438 C1515.6162,579.8438 1515.4131,579.9375 1515.1943,580.25 L1515.0225,580.1719 Z " fill="#FFFFFF"/><text fill="#FFFFFF" font-family="sans-serif" font-size="14" lengthAdjust="spacing" textLength="136" x="1533.1787" y="589.3467">DeckListController</text><line style="stroke:#E7E7E7;stroke-width:0.5;" x1="1388.4287" x2="1781.4287" y1="600.5" y2="600.5"/><line style="stroke:#E7E7E7;stroke-width:0.5;" x1="1388.4287" x2="1781.4287" y1="608.5" y2="608.5"/><ellipse cx="1398.4287" cy="622.1484" fill="#84BE84" rx="3" ry="3" style="stroke:#038048;stroke-width:1.0;"/><text fill="#FFFFFF" font-family="sans-serif" font-size="14" lengthAdjust="spacing" textLength="369" x="1407.4287" y="625.4951">createDeck(name: String, description: String): void</text><ellipse cx="1398.4287" cy="638.4453" fill="#84BE84" rx="3" ry="3" style="stroke:#038048;stroke-width:1.0;"/><text fill="#FFFFFF" font-family="sans-serif" font-size="14" lengthAdjust="spacing" textLength="174" x="1407.4287" y="641.792">removeDeck(i: int): void</text><ellipse cx="1398.4287" cy="654.7422" fill="#84BE84" rx="3" ry="3" style="stroke:#038048;stroke-width:1.0;"/><text fill="#FFFFFF" font-family="sans-serif" font-size="14" lengthAdjust="spacing" textLength="168" x="1407.4287" y="658.0889">exportDeck(i: int): void</text><ellipse cx="1398.4287" cy="671.0391" fill="#84BE84" rx="3" ry="3" style="stroke:#038048;stroke-width:1.0;"/><text fill="#FFFFFF" font-family="sans-serif" font-size="14" lengthAdjust="spacing" textLength="136" x="1407.4287" y="674.3857">importDeck(): void</text></g><!--class DeckController--><g id="elem_DeckController"><rect codeLine="79" fill="#303030" height="178.375" id="DeckController" rx="2.5" ry="2.5" style="stroke:#E7E7E7;stroke-width:0.5;" width="360" x="322.9307" y="536"/><ellipse cx="443.6807" cy="552" fill="#2E5233" rx="11" ry="11" style="stroke:#E7E7E7;stroke-width:1.0;"/><path d="M446.0245,547.6719 C445.087,547.2344 444.4932,547.0938 443.6182,547.0938 C440.9932,547.0938 438.9932,549.1719 438.9932,551.8906 L438.9932,553.0156 C438.9932,555.5938 441.1026,557.4844 443.9932,557.4844 C445.212,557.4844 446.3682,557.1875 447.1182,556.6406 C447.6963,556.2344 448.0245,555.7813 448.0245,555.3906 C448.0245,554.9375 447.6338,554.5469 447.1651,554.5469 C446.9463,554.5469 446.7432,554.625 446.5557,554.8125 C446.1026,555.2969 446.1026,555.2969 445.9151,555.3906 C445.4932,555.6563 444.8057,555.7813 444.0401,555.7813 C441.9932,555.7813 440.6963,554.6875 440.6963,552.9844 L440.6963,551.8906 C440.6963,550.1094 441.9463,548.7969 443.6807,548.7969 C444.2588,548.7969 444.8682,548.9531 445.337,549.2031 C445.8213,549.4844 445.9932,549.7031 446.087,550.1094 C446.1495,550.5156 446.1807,550.6406 446.3213,550.7656 C446.462,550.9063 446.6963,551.0156 446.9151,551.0156 C447.1807,551.0156 447.4463,550.875 447.6182,550.6563 C447.7276,550.5 447.7588,550.3125 447.7588,549.8906 L447.7588,548.4688 C447.7588,548.0313 447.7432,547.9063 447.6495,547.75 C447.4932,547.4844 447.212,547.3438 446.9151,547.3438 C446.6182,547.3438 446.4151,547.4375 446.1963,547.75 L446.0245,547.6719 Z " fill="#FFFFFF"/><text fill="#FFFFFF" font-family="sans-serif" font-size="14" lengthAdjust="spacing" textLength="110" x="464.1807" y="556.8467">DeckController</text><line style="stroke:#E7E7E7;stroke-width:0.5;" x1="323.9307" x2="681.9307" y1="568" y2="568"/><line style="stroke:#E7E7E7;stroke-width:0.5;" x1="323.9307" x2="681.9307" y1="576" y2="576"/><ellipse cx="333.9307" cy="589.6484" fill="#84BE84" rx="3" ry="3" style="stroke:#038048;stroke-width:1.0;"/><text fill="#FFFFFF" font-family="sans-serif" font-size="14" lengthAdjust="spacing" textLength="206" x="342.9307" y="592.9951">setName(name: String): void</text><ellipse cx="333.9307" cy="605.9453" fill="#84BE84" rx="3" ry="3" style="stroke:#038048;stroke-width:1.0;"/><text fill="#FFFFFF" font-family="sans-serif" font-size="14" lengthAdjust="spacing" textLength="291" x="342.9307" y="609.292">setDescription(description: String): void</text><ellipse cx="333.9307" cy="622.2422" fill="#84BE84" rx="3" ry="3" style="stroke:#038048;stroke-width:1.0;"/><text fill="#FFFFFF" font-family="sans-serif" font-size="14" lengthAdjust="spacing" textLength="334" x="342.9307" y="625.5889">addCard(question: String, answer: String): void</text><ellipse cx="333.9307" cy="638.5391" fill="#84BE84" rx="3" ry="3" style="stroke:#038048;stroke-width:1.0;"/><text fill="#FFFFFF" font-family="sans-serif" font-size="14" lengthAdjust="spacing" textLength="179" x="342.9307" y="641.8857">removeCard(id: int): void</text><ellipse cx="333.9307" cy="654.8359" fill="#84BE84" rx="3" ry="3" style="stroke:#038048;stroke-width:1.0;"/><text fill="#FFFFFF" font-family="sans-serif" font-size="14" lengthAdjust="spacing" textLength="156" x="342.9307" y="658.1826">answeredRight(): void</text><ellipse cx="333.9307" cy="671.1328" fill="#84BE84" rx="3" ry="3" style="stroke:#038048;stroke-width:1.0;"/><text fill="#FFFFFF" font-family="sans-serif" font-size="14" lengthAdjust="spacing" textLength="164" x="342.9307" y="674.4795">answeredWrong(): void</text><ellipse cx="333.9307" cy="687.4297" fill="#84BE84" rx="3" ry="3" style="stroke:#038048;stroke-width:1.0;"/><text fill="#FFFFFF" font-family="sans-serif" font-size="14" lengthAdjust="spacing" textLength="304" x="342.9307" y="690.7764">handleAnswer(goodAnswer: boolean): void</text><ellipse cx="333.9307" cy="703.7266" fill="#84BE84" rx="3" ry="3" style="stroke:#038048;stroke-width:1.0;"/><text fill="#FFFFFF" font-family="sans-serif" font-size="14" lengthAdjust="spacing" textLength="115" x="342.9307" y="707.0732">nextCard(): void</text></g><!--class CardController--><g id="elem_CardController"><rect codeLine="90" fill="#303030" height="80.5938" id="CardController" rx="2.5" ry="2.5" style="stroke:#E7E7E7;stroke-width:0.5;" width="277" x="1960.4287" y="980"/><ellipse cx="2041.6787" cy="996" fill="#2E5233" rx="11" ry="11" style="stroke:#E7E7E7;stroke-width:1.0;"/><path d="M2044.0225,991.6719 C2043.085,991.2344 2042.4912,991.0938 2041.6162,991.0938 C2038.9912,991.0938 2036.9912,993.1719 2036.9912,995.8906 L2036.9912,997.0156 C2036.9912,999.5938 2039.1006,1001.4844 2041.9912,1001.4844 C2043.21,1001.4844 2044.3662,1001.1875 2045.1162,1000.6406 C2045.6943,1000.2344 2046.0225,999.7813 2046.0225,999.3906 C2046.0225,998.9375 2045.6318,998.5469 2045.1631,998.5469 C2044.9443,998.5469 2044.7412,998.625 2044.5537,998.8125 C2044.1006,999.2969 2044.1006,999.2969 2043.9131,999.3906 C2043.4912,999.6563 2042.8037,999.7813 2042.0381,999.7813 C2039.9912,999.7813 2038.6943,998.6875 2038.6943,996.9844 L2038.6943,995.8906 C2038.6943,994.1094 2039.9443,992.7969 2041.6787,992.7969 C2042.2568,992.7969 2042.8662,992.9531 2043.335,993.2031 C2043.8193,993.4844 2043.9912,993.7031 2044.085,994.1094 C2044.1475,994.5156 2044.1787,994.6406 2044.3193,994.7656 C2044.46,994.9063 2044.6943,995.0156 2044.9131,995.0156 C2045.1787,995.0156 2045.4443,994.875 2045.6162,994.6563 C2045.7256,994.5 2045.7568,994.3125 2045.7568,993.8906 L2045.7568,992.4688 C2045.7568,992.0313 2045.7412,991.9063 2045.6475,991.75 C2045.4912,991.4844 2045.21,991.3438 2044.9131,991.3438 C2044.6162,991.3438 2044.4131,991.4375 2044.1943,991.75 L2044.0225,991.6719 Z " fill="#FFFFFF"/><text fill="#FFFFFF" font-family="sans-serif" font-size="14" lengthAdjust="spacing" textLength="106" x="2062.1787" y="1000.8467">CardController</text><line style="stroke:#E7E7E7;stroke-width:0.5;" x1="1961.4287" x2="2236.4287" y1="1012" y2="1012"/><line style="stroke:#E7E7E7;stroke-width:0.5;" x1="1961.4287" x2="2236.4287" y1="1020" y2="1020"/><ellipse cx="1971.4287" cy="1033.6484" fill="#84BE84" rx="3" ry="3" style="stroke:#038048;stroke-width:1.0;"/><text fill="#FFFFFF" font-family="sans-serif" font-size="14" lengthAdjust="spacing" textLength="251" x="1980.4287" y="1036.9951">setQuestion(question: String): void</text><ellipse cx="1971.4287" cy="1049.9453" fill="#84BE84" rx="3" ry="3" style="stroke:#038048;stroke-width:1.0;"/><text fill="#FFFFFF" font-family="sans-serif" font-size="14" lengthAdjust="spacing" textLength="227" x="1980.4287" y="1053.292">setAnswer(answer: String): void</text></g><!--class StageController--><g id="elem_StageController"><rect codeLine="95" fill="#303030" height="96.8906" id="StageController" rx="2.5" ry="2.5" style="stroke:#E7E7E7;stroke-width:0.5;" width="259" x="718.4307" y="576.5"/><ellipse cx="786.1807" cy="592.5" fill="#2E5233" rx="11" ry="11" style="stroke:#E7E7E7;stroke-width:1.0;"/><path d="M788.5245,588.1719 C787.587,587.7344 786.9932,587.5938 786.1182,587.5938 C783.4932,587.5938 781.4932,589.6719 781.4932,592.3906 L781.4932,593.5156 C781.4932,596.0938 783.6026,597.9844 786.4932,597.9844 C787.712,597.9844 788.8682,597.6875 789.6182,597.1406 C790.1963,596.7344 790.5245,596.2813 790.5245,595.8906 C790.5245,595.4375 790.1338,595.0469 789.6651,595.0469 C789.4463,595.0469 789.2432,595.125 789.0557,595.3125 C788.6026,595.7969 788.6026,595.7969 788.4151,595.8906 C787.9932,596.1563 787.3057,596.2813 786.5401,596.2813 C784.4932,596.2813 783.1963,595.1875 783.1963,593.4844 L783.1963,592.3906 C783.1963,590.6094 784.4463,589.2969 786.1807,589.2969 C786.7588,589.2969 787.3682,589.4531 787.837,589.7031 C788.3213,589.9844 788.4932,590.2031 788.587,590.6094 C788.6495,591.0156 788.6807,591.1406 788.8213,591.2656 C788.962,591.4063 789.1963,591.5156 789.4151,591.5156 C789.6807,591.5156 789.9463,591.375 790.1182,591.1563 C790.2276,591 790.2588,590.8125 790.2588,590.3906 L790.2588,588.9688 C790.2588,588.5313 790.2432,588.4063 790.1495,588.25 C789.9932,587.9844 789.712,587.8438 789.4151,587.8438 C789.1182,587.8438 788.9151,587.9375 788.6963,588.25 L788.5245,588.1719 Z " fill="#FFFFFF"/><text fill="#FFFFFF" font-family="sans-serif" font-size="14" lengthAdjust="spacing" textLength="115" x="806.6807" y="597.3467">StageController</text><line style="stroke:#E7E7E7;stroke-width:0.5;" x1="719.4307" x2="976.4307" y1="608.5" y2="608.5"/><line style="stroke:#E7E7E7;stroke-width:0.5;" x1="719.4307" x2="976.4307" y1="616.5" y2="616.5"/><ellipse cx="729.4307" cy="630.1484" fill="#84BE84" rx="3" ry="3" style="stroke:#038048;stroke-width:1.0;"/><text fill="#FFFFFF" font-family="sans-serif" font-size="14" lengthAdjust="spacing" textLength="233" x="738.4307" y="633.4951">setActiveScene(scene: int): void</text><ellipse cx="729.4307" cy="646.4453" fill="#84BE84" rx="3" ry="3" style="stroke:#038048;stroke-width:1.0;"/><text fill="#FFFFFF" font-family="sans-serif" font-size="14" lengthAdjust="spacing" textLength="152" x="738.4307" y="649.792">setGlobalView(): void</text><ellipse cx="729.4307" cy="662.7422" fill="#84BE84" rx="3" ry="3" style="stroke:#038048;stroke-width:1.0;"/><text fill="#FFFFFF" font-family="sans-serif" font-size="14" lengthAdjust="spacing" textLength="143" x="738.4307" y="666.0889">setDeckView(): void</text></g><!--class Tag--><g id="elem_Tag"><rect codeLine="101" fill="#303030" height="80.5938" id="Tag" rx="2.5" ry="2.5" style="stroke:#E7E7E7;stroke-width:0.5;" width="145" x="2272.4287" y="980"/><ellipse cx="2327.6787" cy="996" fill="#2E5233" rx="11" ry="11" style="stroke:#E7E7E7;stroke-width:1.0;"/><path d="M2330.0225,991.6719 C2329.085,991.2344 2328.4912,991.0938 2327.6162,991.0938 C2324.9912,991.0938 2322.9912,993.1719 2322.9912,995.8906 L2322.9912,997.0156 C2322.9912,999.5938 2325.1006,1001.4844 2327.9912,1001.4844 C2329.21,1001.4844 2330.3662,1001.1875 2331.1162,1000.6406 C2331.6943,1000.2344 2332.0225,999.7813 2332.0225,999.3906 C2332.0225,998.9375 2331.6318,998.5469 2331.1631,998.5469 C2330.9443,998.5469 2330.7412,998.625 2330.5537,998.8125 C2330.1006,999.2969 2330.1006,999.2969 2329.9131,999.3906 C2329.4912,999.6563 2328.8037,999.7813 2328.0381,999.7813 C2325.9912,999.7813 2324.6943,998.6875 2324.6943,996.9844 L2324.6943,995.8906 C2324.6943,994.1094 2325.9443,992.7969 2327.6787,992.7969 C2328.2568,992.7969 2328.8662,992.9531 2329.335,993.2031 C2329.8193,993.4844 2329.9912,993.7031 2330.085,994.1094 C2330.1475,994.5156 2330.1787,994.6406 2330.3193,994.7656 C2330.46,994.9063 2330.6943,995.0156 2330.9131,995.0156 C2331.1787,995.0156 2331.4443,994.875 2331.6162,994.6563 C2331.7256,994.5 2331.7568,994.3125 2331.7568,993.8906 L2331.7568,992.4688 C2331.7568,992.0313 2331.7412,991.9063 2331.6475,991.75 C2331.4912,991.4844 2331.21,991.3438 2330.9131,991.3438 C2330.6162,991.3438 2330.4131,991.4375 2330.1943,991.75 L2330.0225,991.6719 Z " fill="#FFFFFF"/><text fill="#FFFFFF" font-family="sans-serif" font-size="14" lengthAdjust="spacing" textLength="26" x="2348.1787" y="1000.8467">Tag</text><line style="stroke:#E7E7E7;stroke-width:0.5;" x1="2273.4287" x2="2416.4287" y1="1012" y2="1012"/><rect fill="none" height="6" style="stroke:#C82930;stroke-width:1.0;" width="6" x="2280.4287" y="1022.6484"/><text fill="#FFFFFF" font-family="sans-serif" font-size="14" lengthAdjust="spacing" textLength="93" x="2292.4287" y="1028.9951">name: String</text><rect fill="none" height="6" style="stroke:#C82930;stroke-width:1.0;" width="6" x="2280.4287" y="1038.9453"/><text fill="#FFFFFF" font-family="sans-serif" font-size="14" lengthAdjust="spacing" textLength="119" x="2292.4287" y="1045.292">listUsed: String[]</text><line style="stroke:#E7E7E7;stroke-width:0.5;" x1="2273.4287" x2="2416.4287" y1="1052.5938" y2="1052.5938"/></g><!--class CardTag--><g id="elem_CardTag"><rect codeLine="106" fill="#303030" height="48" id="CardTag" rx="2.5" ry="2.5" style="stroke:#E7E7E7;stroke-width:0.5;" width="91" x="2059.4287" y="1375"/><ellipse cx="2074.4287" cy="1391" fill="#2E5233" rx="11" ry="11" style="stroke:#E7E7E7;stroke-width:1.0;"/><path d="M2076.7725,1386.6719 C2075.835,1386.2344 2075.2412,1386.0938 2074.3662,1386.0938 C2071.7412,1386.0938 2069.7412,1388.1719 2069.7412,1390.8906 L2069.7412,1392.0156 C2069.7412,1394.5938 2071.8506,1396.4844 2074.7412,1396.4844 C2075.96,1396.4844 2077.1162,1396.1875 2077.8662,1395.6406 C2078.4443,1395.2344 2078.7725,1394.7813 2078.7725,1394.3906 C2078.7725,1393.9375 2078.3818,1393.5469 2077.9131,1393.5469 C2077.6943,1393.5469 2077.4912,1393.625 2077.3037,1393.8125 C2076.8506,1394.2969 2076.8506,1394.2969 2076.6631,1394.3906 C2076.2412,1394.6563 2075.5537,1394.7813 2074.7881,1394.7813 C2072.7412,1394.7813 2071.4443,1393.6875 2071.4443,1391.9844 L2071.4443,1390.8906 C2071.4443,1389.1094 2072.6943,1387.7969 2074.4287,1387.7969 C2075.0068,1387.7969 2075.6162,1387.9531 2076.085,1388.2031 C2076.5693,1388.4844 2076.7412,1388.7031 2076.835,1389.1094 C2076.8975,1389.5156 2076.9287,1389.6406 2077.0693,1389.7656 C2077.21,1389.9063 2077.4443,1390.0156 2077.6631,1390.0156 C2077.9287,1390.0156 2078.1943,1389.875 2078.3662,1389.6563 C2078.4756,1389.5 2078.5068,1389.3125 2078.5068,1388.8906 L2078.5068,1387.4688 C2078.5068,1387.0313 2078.4912,1386.9063 2078.3975,1386.75 C2078.2412,1386.4844 2077.96,1386.3438 2077.6631,1386.3438 C2077.3662,1386.3438 2077.1631,1386.4375 2076.9443,1386.75 L2076.7725,1386.6719 Z " fill="#FFFFFF"/><text fill="#FFFFFF" font-family="sans-serif" font-size="14" lengthAdjust="spacing" textLength="59" x="2088.4287" y="1395.8467">CardTag</text><line style="stroke:#E7E7E7;stroke-width:0.5;" x1="2060.4287" x2="2149.4287" y1="1407" y2="1407"/><line style="stroke:#E7E7E7;stroke-width:0.5;" x1="2060.4287" x2="2149.4287" y1="1415" y2="1415"/></g><!--class DeckTag--><g id="elem_DeckTag"><rect codeLine="109" fill="#303030" height="48" id="DeckTag" rx="2.5" ry="2.5" style="stroke:#E7E7E7;stroke-width:0.5;" width="95" x="2138.4287" y="1226.5"/><ellipse cx="2153.4287" cy="1242.5" fill="#2E5233" rx="11" ry="11" style="stroke:#E7E7E7;stroke-width:1.0;"/><path d="M2155.7725,1238.1719 C2154.835,1237.7344 2154.2412,1237.5938 2153.3662,1237.5938 C2150.7412,1237.5938 2148.7412,1239.6719 2148.7412,1242.3906 L2148.7412,1243.5156 C2148.7412,1246.0938 2150.8506,1247.9844 2153.7412,1247.9844 C2154.96,1247.9844 2156.1162,1247.6875 2156.8662,1247.1406 C2157.4443,1246.7344 2157.7725,1246.2813 2157.7725,1245.8906 C2157.7725,1245.4375 2157.3818,1245.0469 2156.9131,1245.0469 C2156.6943,1245.0469 2156.4912,1245.125 2156.3037,1245.3125 C2155.8506,1245.7969 2155.8506,1245.7969 2155.6631,1245.8906 C2155.2412,1246.1563 2154.5537,1246.2813 2153.7881,1246.2813 C2151.7412,1246.2813 2150.4443,1245.1875 2150.4443,1243.4844 L2150.4443,1242.3906 C2150.4443,1240.6094 2151.6943,1239.2969 2153.4287,1239.2969 C2154.0068,1239.2969 2154.6162,1239.4531 2155.085,1239.7031 C2155.5693,1239.9844 2155.7412,1240.2031 2155.835,1240.6094 C2155.8975,1241.0156 2155.9287,1241.1406 2156.0693,1241.2656 C2156.21,1241.4063 2156.4443,1241.5156 2156.6631,1241.5156 C2156.9287,1241.5156 2157.1943,1241.375 2157.3662,1241.1563 C2157.4756,1241 2157.5068,1240.8125 2157.5068,1240.3906 L2157.5068,1238.9688 C2157.5068,1238.5313 2157.4912,1238.4063 2157.3975,1238.25 C2157.2412,1237.9844 2156.96,1237.8438 2156.6631,1237.8438 C2156.3662,1237.8438 2156.1631,1237.9375 2155.9443,1238.25 L2155.7725,1238.1719 Z " fill="#FFFFFF"/><text fill="#FFFFFF" font-family="sans-serif" font-size="14" lengthAdjust="spacing" textLength="63" x="2167.4287" y="1247.3467">DeckTag</text><line style="stroke:#E7E7E7;stroke-width:0.5;" x1="2139.4287" x2="2232.4287" y1="1258.5" y2="1258.5"/><line style="stroke:#E7E7E7;stroke-width:0.5;" x1="2139.4287" x2="2232.4287" y1="1266.5" y2="1266.5"/></g><!--class DrawCardStrategy--><g id="elem_DrawCardStrategy"><rect codeLine="112" fill="#303030" height="80.5938" id="DrawCardStrategy" rx="2.5" ry="2.5" style="stroke:#E7E7E7;stroke-width:0.5;" width="462" x="833.9307" y="1210"/><ellipse cx="995.1807" cy="1226" fill="#352866" rx="11" ry="11" style="stroke:#E7E7E7;stroke-width:1.0;"/><path d="M996.1338,1222.7813 L997.8526,1222.7813 C998.2432,1222.7813 998.4307,1222.75 998.5557,1222.6719 C998.8213,1222.5156 998.962,1222.2344 998.962,1221.9375 C998.962,1221.6719 998.8526,1221.4063 998.6182,1221.2344 C998.4463,1221.125 998.3057,1221.0938 997.8526,1221.0938 L992.712,1221.0938 C992.2745,1221.0938 992.1495,1221.1094 991.9932,1221.2031 C991.7432,1221.3594 991.587,1221.6563 991.587,1221.9375 C991.587,1222.2188 991.7276,1222.4688 991.9463,1222.6406 C992.1026,1222.75 992.2901,1222.7813 992.712,1222.7813 L994.4307,1222.7813 L994.4307,1229.2969 L992.712,1229.2969 C992.2745,1229.2969 992.1495,1229.3125 991.9932,1229.4219 C991.7432,1229.5781 991.587,1229.8594 991.587,1230.1563 C991.587,1230.4063 991.7276,1230.6719 991.9463,1230.8281 C992.1026,1230.9531 992.3057,1231 992.712,1231 L997.8526,1231 C998.6026,1231 998.962,1230.7188 998.962,1230.1563 C998.962,1229.875 998.8526,1229.625 998.6182,1229.4531 C998.4463,1229.3281 998.3057,1229.2969 997.8526,1229.2969 L996.1338,1229.2969 L996.1338,1222.7813 Z " fill="#FFFFFF"/><text fill="#FFFFFF" font-family="sans-serif" font-size="14" font-style="italic" lengthAdjust="spacing" textLength="131" x="1015.6807" y="1230.8467">DrawCardStrategy</text><line style="stroke:#E7E7E7;stroke-width:0.5;" x1="834.9307" x2="1294.9307" y1="1242" y2="1242"/><line style="stroke:#E7E7E7;stroke-width:0.5;" x1="834.9307" x2="1294.9307" y1="1250" y2="1250"/><ellipse cx="844.9307" cy="1263.6484" fill="#84BE84" rx="3" ry="3" style="stroke:#038048;stroke-width:1.0;"/><text fill="#FFFFFF" font-family="sans-serif" font-size="14" lengthAdjust="spacing" textLength="436" x="853.9307" y="1266.9951">handleAnswer(answer: boolean, DeckModel deckModel): void</text><ellipse cx="844.9307" cy="1279.9453" fill="#84BE84" rx="3" ry="3" style="stroke:#038048;stroke-width:1.0;"/><text fill="#FFFFFF" font-family="sans-serif" font-size="14" lengthAdjust="spacing" textLength="267" x="853.9307" y="1283.292">nextCard(DeckModel deckModel): int</text></g><!--class BuildCardStrategy--><g id="elem_BuildCardStrategy"><rect codeLine="117" fill="#303030" height="64.2969" id="BuildCardStrategy" rx="2.5" ry="2.5" style="stroke:#E7E7E7;stroke-width:0.5;" width="162" x="1403.9287" y="1218.5"/><ellipse cx="1418.9287" cy="1234.5" fill="#352866" rx="11" ry="11" style="stroke:#E7E7E7;stroke-width:1.0;"/><path d="M1419.8818,1231.2813 L1421.6006,1231.2813 C1421.9912,1231.2813 1422.1787,1231.25 1422.3037,1231.1719 C1422.5693,1231.0156 1422.71,1230.7344 1422.71,1230.4375 C1422.71,1230.1719 1422.6006,1229.9063 1422.3662,1229.7344 C1422.1943,1229.625 1422.0537,1229.5938 1421.6006,1229.5938 L1416.46,1229.5938 C1416.0225,1229.5938 1415.8975,1229.6094 1415.7412,1229.7031 C1415.4912,1229.8594 1415.335,1230.1563 1415.335,1230.4375 C1415.335,1230.7188 1415.4756,1230.9688 1415.6943,1231.1406 C1415.8506,1231.25 1416.0381,1231.2813 1416.46,1231.2813 L1418.1787,1231.2813 L1418.1787,1237.7969 L1416.46,1237.7969 C1416.0225,1237.7969 1415.8975,1237.8125 1415.7412,1237.9219 C1415.4912,1238.0781 1415.335,1238.3594 1415.335,1238.6563 C1415.335,1238.9063 1415.4756,1239.1719 1415.6943,1239.3281 C1415.8506,1239.4531 1416.0537,1239.5 1416.46,1239.5 L1421.6006,1239.5 C1422.3506,1239.5 1422.71,1239.2188 1422.71,1238.6563 C1422.71,1238.375 1422.6006,1238.125 1422.3662,1237.9531 C1422.1943,1237.8281 1422.0537,1237.7969 1421.6006,1237.7969 L1419.8818,1237.7969 L1419.8818,1231.2813 Z " fill="#FFFFFF"/><text fill="#FFFFFF" font-family="sans-serif" font-size="14" font-style="italic" lengthAdjust="spacing" textLength="130" x="1432.9287" y="1239.3467">BuildCardStrategy</text><line style="stroke:#E7E7E7;stroke-width:0.5;" x1="1404.9287" x2="1564.9287" y1="1250.5" y2="1250.5"/><line style="stroke:#E7E7E7;stroke-width:0.5;" x1="1404.9287" x2="1564.9287" y1="1258.5" y2="1258.5"/><ellipse cx="1414.9287" cy="1272.1484" fill="#84BE84" rx="3" ry="3" style="stroke:#038048;stroke-width:1.0;"/><text fill="#FFFFFF" font-family="sans-serif" font-size="14" lengthAdjust="spacing" textLength="78" x="1423.9287" y="1275.4951">buildCard()</text></g><!--class BuildCardStrategyClassic--><g id="elem_BuildCardStrategyClassic"><rect codeLine="121" fill="#303030" height="48" id="BuildCardStrategyClassic" rx="2.5" ry="2.5" style="stroke:#E7E7E7;stroke-width:0.5;" width="211" x="1379.4287" y="1375"/><ellipse cx="1394.4287" cy="1391" fill="#2E5233" rx="11" ry="11" style="stroke:#E7E7E7;stroke-width:1.0;"/><path d="M1396.7725,1386.6719 C1395.835,1386.2344 1395.2412,1386.0938 1394.3662,1386.0938 C1391.7412,1386.0938 1389.7412,1388.1719 1389.7412,1390.8906 L1389.7412,1392.0156 C1389.7412,1394.5938 1391.8506,1396.4844 1394.7412,1396.4844 C1395.96,1396.4844 1397.1162,1396.1875 1397.8662,1395.6406 C1398.4443,1395.2344 1398.7725,1394.7813 1398.7725,1394.3906 C1398.7725,1393.9375 1398.3818,1393.5469 1397.9131,1393.5469 C1397.6943,1393.5469 1397.4912,1393.625 1397.3037,1393.8125 C1396.8506,1394.2969 1396.8506,1394.2969 1396.6631,1394.3906 C1396.2412,1394.6563 1395.5537,1394.7813 1394.7881,1394.7813 C1392.7412,1394.7813 1391.4443,1393.6875 1391.4443,1391.9844 L1391.4443,1390.8906 C1391.4443,1389.1094 1392.6943,1387.7969 1394.4287,1387.7969 C1395.0068,1387.7969 1395.6162,1387.9531 1396.085,1388.2031 C1396.5693,1388.4844 1396.7412,1388.7031 1396.835,1389.1094 C1396.8975,1389.5156 1396.9287,1389.6406 1397.0693,1389.7656 C1397.21,1389.9063 1397.4443,1390.0156 1397.6631,1390.0156 C1397.9287,1390.0156 1398.1943,1389.875 1398.3662,1389.6563 C1398.4756,1389.5 1398.5068,1389.3125 1398.5068,1388.8906 L1398.5068,1387.4688 C1398.5068,1387.0313 1398.4912,1386.9063 1398.3975,1386.75 C1398.2412,1386.4844 1397.96,1386.3438 1397.6631,1386.3438 C1397.3662,1386.3438 1397.1631,1386.4375 1396.9443,1386.75 L1396.7725,1386.6719 Z " fill="#FFFFFF"/><text fill="#FFFFFF" font-family="sans-serif" font-size="14" lengthAdjust="spacing" textLength="179" x="1408.4287" y="1395.8467">BuildCardStrategyClassic</text><line style="stroke:#E7E7E7;stroke-width:0.5;" x1="1380.4287" x2="1589.4287" y1="1407" y2="1407"/><line style="stroke:#E7E7E7;stroke-width:0.5;" x1="1380.4287" x2="1589.4287" y1="1415" y2="1415"/></g><!--class BuildCardStrategyTheme2--><g id="elem_BuildCardStrategyTheme2"><rect codeLine="124" fill="#303030" height="48" id="BuildCardStrategyTheme2" rx="2.5" ry="2.5" style="stroke:#E7E7E7;stroke-width:0.5;" width="221" x="1625.4287" y="1375"/><ellipse cx="1640.4287" cy="1391" fill="#2E5233" rx="11" ry="11" style="stroke:#E7E7E7;stroke-width:1.0;"/><path d="M1642.7725,1386.6719 C1641.835,1386.2344 1641.2412,1386.0938 1640.3662,1386.0938 C1637.7412,1386.0938 1635.7412,1388.1719 1635.7412,1390.8906 L1635.7412,1392.0156 C1635.7412,1394.5938 1637.8506,1396.4844 1640.7412,1396.4844 C1641.96,1396.4844 1643.1162,1396.1875 1643.8662,1395.6406 C1644.4443,1395.2344 1644.7725,1394.7813 1644.7725,1394.3906 C1644.7725,1393.9375 1644.3818,1393.5469 1643.9131,1393.5469 C1643.6943,1393.5469 1643.4912,1393.625 1643.3037,1393.8125 C1642.8506,1394.2969 1642.8506,1394.2969 1642.6631,1394.3906 C1642.2412,1394.6563 1641.5537,1394.7813 1640.7881,1394.7813 C1638.7412,1394.7813 1637.4443,1393.6875 1637.4443,1391.9844 L1637.4443,1390.8906 C1637.4443,1389.1094 1638.6943,1387.7969 1640.4287,1387.7969 C1641.0068,1387.7969 1641.6162,1387.9531 1642.085,1388.2031 C1642.5693,1388.4844 1642.7412,1388.7031 1642.835,1389.1094 C1642.8975,1389.5156 1642.9287,1389.6406 1643.0693,1389.7656 C1643.21,1389.9063 1643.4443,1390.0156 1643.6631,1390.0156 C1643.9287,1390.0156 1644.1943,1389.875 1644.3662,1389.6563 C1644.4756,1389.5 1644.5068,1389.3125 1644.5068,1388.8906 L1644.5068,1387.4688 C1644.5068,1387.0313 1644.4912,1386.9063 1644.3975,1386.75 C1644.2412,1386.4844 1643.96,1386.3438 1643.6631,1386.3438 C1643.3662,1386.3438 1643.1631,1386.4375 1642.9443,1386.75 L1642.7725,1386.6719 Z " fill="#FFFFFF"/><text fill="#FFFFFF" font-family="sans-serif" font-size="14" lengthAdjust="spacing" textLength="189" x="1654.4287" y="1395.8467">BuildCardStrategyTheme2</text><line style="stroke:#E7E7E7;stroke-width:0.5;" x1="1626.4287" x2="1845.4287" y1="1407" y2="1407"/><line style="stroke:#E7E7E7;stroke-width:0.5;" x1="1626.4287" x2="1845.4287" y1="1415" y2="1415"/></g><!--class DrawCardStrategyRandom--><g id="elem_DrawCardStrategyRandom"><rect codeLine="127" fill="#303030" height="48" id="DrawCardStrategyRandom" rx="2.5" ry="2.5" style="stroke:#E7E7E7;stroke-width:0.5;" width="223" x="616.4307" y="1375"/><ellipse cx="631.4307" cy="1391" fill="#2E5233" rx="11" ry="11" style="stroke:#E7E7E7;stroke-width:1.0;"/><path d="M633.7745,1386.6719 C632.837,1386.2344 632.2432,1386.0938 631.3682,1386.0938 C628.7432,1386.0938 626.7432,1388.1719 626.7432,1390.8906 L626.7432,1392.0156 C626.7432,1394.5938 628.8526,1396.4844 631.7432,1396.4844 C632.962,1396.4844 634.1182,1396.1875 634.8682,1395.6406 C635.4463,1395.2344 635.7745,1394.7813 635.7745,1394.3906 C635.7745,1393.9375 635.3838,1393.5469 634.9151,1393.5469 C634.6963,1393.5469 634.4932,1393.625 634.3057,1393.8125 C633.8526,1394.2969 633.8526,1394.2969 633.6651,1394.3906 C633.2432,1394.6563 632.5557,1394.7813 631.7901,1394.7813 C629.7432,1394.7813 628.4463,1393.6875 628.4463,1391.9844 L628.4463,1390.8906 C628.4463,1389.1094 629.6963,1387.7969 631.4307,1387.7969 C632.0088,1387.7969 632.6182,1387.9531 633.087,1388.2031 C633.5713,1388.4844 633.7432,1388.7031 633.837,1389.1094 C633.8995,1389.5156 633.9307,1389.6406 634.0713,1389.7656 C634.212,1389.9063 634.4463,1390.0156 634.6651,1390.0156 C634.9307,1390.0156 635.1963,1389.875 635.3682,1389.6563 C635.4776,1389.5 635.5088,1389.3125 635.5088,1388.8906 L635.5088,1387.4688 C635.5088,1387.0313 635.4932,1386.9063 635.3995,1386.75 C635.2432,1386.4844 634.962,1386.3438 634.6651,1386.3438 C634.3682,1386.3438 634.1651,1386.4375 633.9463,1386.75 L633.7745,1386.6719 Z " fill="#FFFFFF"/><text fill="#FFFFFF" font-family="sans-serif" font-size="14" lengthAdjust="spacing" textLength="191" x="645.4307" y="1395.8467">DrawCardStrategyRandom</text><line style="stroke:#E7E7E7;stroke-width:0.5;" x1="617.4307" x2="838.4307" y1="1407" y2="1407"/><line style="stroke:#E7E7E7;stroke-width:0.5;" x1="617.4307" x2="838.4307" y1="1415" y2="1415"/></g><!--class DrawCardStrategyWeighted--><g id="elem_DrawCardStrategyWeighted"><rect codeLine="130" fill="#303030" height="48" id="DrawCardStrategyWeighted" rx="2.5" ry="2.5" style="stroke:#E7E7E7;stroke-width:0.5;" width="234" x="874.9307" y="1375"/><ellipse cx="889.9307" cy="1391" fill="#2E5233" rx="11" ry="11" style="stroke:#E7E7E7;stroke-width:1.0;"/><path d="M892.2745,1386.6719 C891.337,1386.2344 890.7432,1386.0938 889.8682,1386.0938 C887.2432,1386.0938 885.2432,1388.1719 885.2432,1390.8906 L885.2432,1392.0156 C885.2432,1394.5938 887.3526,1396.4844 890.2432,1396.4844 C891.462,1396.4844 892.6182,1396.1875 893.3682,1395.6406 C893.9463,1395.2344 894.2745,1394.7813 894.2745,1394.3906 C894.2745,1393.9375 893.8838,1393.5469 893.4151,1393.5469 C893.1963,1393.5469 892.9932,1393.625 892.8057,1393.8125 C892.3526,1394.2969 892.3526,1394.2969 892.1651,1394.3906 C891.7432,1394.6563 891.0557,1394.7813 890.2901,1394.7813 C888.2432,1394.7813 886.9463,1393.6875 886.9463,1391.9844 L886.9463,1390.8906 C886.9463,1389.1094 888.1963,1387.7969 889.9307,1387.7969 C890.5088,1387.7969 891.1182,1387.9531 891.587,1388.2031 C892.0713,1388.4844 892.2432,1388.7031 892.337,1389.1094 C892.3995,1389.5156 892.4307,1389.6406 892.5713,1389.7656 C892.712,1389.9063 892.9463,1390.0156 893.1651,1390.0156 C893.4307,1390.0156 893.6963,1389.875 893.8682,1389.6563 C893.9776,1389.5 894.0088,1389.3125 894.0088,1388.8906 L894.0088,1387.4688 C894.0088,1387.0313 893.9932,1386.9063 893.8995,1386.75 C893.7432,1386.4844 893.462,1386.3438 893.1651,1386.3438 C892.8682,1386.3438 892.6651,1386.4375 892.4463,1386.75 L892.2745,1386.6719 Z " fill="#FFFFFF"/><text fill="#FFFFFF" font-family="sans-serif" font-size="14" lengthAdjust="spacing" textLength="202" x="903.9307" y="1395.8467">DrawCardStrategyWeighted</text><line style="stroke:#E7E7E7;stroke-width:0.5;" x1="875.9307" x2="1107.9307" y1="1407" y2="1407"/><line style="stroke:#E7E7E7;stroke-width:0.5;" x1="875.9307" x2="1107.9307" y1="1415" y2="1415"/></g><!--class DrawCardStrategyTime--><g id="elem_DrawCardStrategyTime"><rect codeLine="133" fill="#303030" height="48" id="DrawCardStrategyTime" rx="2.5" ry="2.5" style="stroke:#E7E7E7;stroke-width:0.5;" width="200" x="1143.9287" y="1375"/><ellipse cx="1158.9287" cy="1391" fill="#2E5233" rx="11" ry="11" style="stroke:#E7E7E7;stroke-width:1.0;"/><path d="M1161.2725,1386.6719 C1160.335,1386.2344 1159.7412,1386.0938 1158.8662,1386.0938 C1156.2412,1386.0938 1154.2412,1388.1719 1154.2412,1390.8906 L1154.2412,1392.0156 C1154.2412,1394.5938 1156.3506,1396.4844 1159.2412,1396.4844 C1160.46,1396.4844 1161.6162,1396.1875 1162.3662,1395.6406 C1162.9443,1395.2344 1163.2725,1394.7813 1163.2725,1394.3906 C1163.2725,1393.9375 1162.8818,1393.5469 1162.4131,1393.5469 C1162.1943,1393.5469 1161.9912,1393.625 1161.8037,1393.8125 C1161.3506,1394.2969 1161.3506,1394.2969 1161.1631,1394.3906 C1160.7412,1394.6563 1160.0537,1394.7813 1159.2881,1394.7813 C1157.2412,1394.7813 1155.9443,1393.6875 1155.9443,1391.9844 L1155.9443,1390.8906 C1155.9443,1389.1094 1157.1943,1387.7969 1158.9287,1387.7969 C1159.5068,1387.7969 1160.1162,1387.9531 1160.585,1388.2031 C1161.0693,1388.4844 1161.2412,1388.7031 1161.335,1389.1094 C1161.3975,1389.5156 1161.4287,1389.6406 1161.5693,1389.7656 C1161.71,1389.9063 1161.9443,1390.0156 1162.1631,1390.0156 C1162.4287,1390.0156 1162.6943,1389.875 1162.8662,1389.6563 C1162.9756,1389.5 1163.0068,1389.3125 1163.0068,1388.8906 L1163.0068,1387.4688 C1163.0068,1387.0313 1162.9912,1386.9063 1162.8975,1386.75 C1162.7412,1386.4844 1162.46,1386.3438 1162.1631,1386.3438 C1161.8662,1386.3438 1161.6631,1386.4375 1161.4443,1386.75 L1161.2725,1386.6719 Z " fill="#FFFFFF"/><text fill="#FFFFFF" font-family="sans-serif" font-size="14" lengthAdjust="spacing" textLength="168" x="1172.9287" y="1395.8467">DrawCardStrategyTime</text><line style="stroke:#E7E7E7;stroke-width:0.5;" x1="1144.9287" x2="1342.9287" y1="1407" y2="1407"/><line style="stroke:#E7E7E7;stroke-width:0.5;" x1="1144.9287" x2="1342.9287" y1="1415" y2="1415"/></g><!--class Learning--><g id="elem_Learning"><rect codeLine="136" fill="#303030" height="80.5938" id="Learning" rx="2.5" ry="2.5" style="stroke:#E7E7E7;stroke-width:0.5;" width="219" x="210.4307" y="371"/><ellipse cx="284.1807" cy="387" fill="#2A5D60" rx="11" ry="11" style="stroke:#E7E7E7;stroke-width:1.0;"/><path d="M286.2588,388.8125 L286.6495,389.7969 L286.2588,389.7969 C285.8057,389.7969 285.6963,389.8125 285.5401,389.9219 C285.2901,390.0781 285.1338,390.3594 285.1338,390.6563 C285.1338,390.9219 285.2745,391.1719 285.4932,391.3281 C285.6338,391.4531 285.837,391.5 286.2588,391.5 L288.6182,391.5 C288.9776,391.5 289.1963,391.4688 289.337,391.375 C289.587,391.2344 289.7432,390.9375 289.7432,390.6563 C289.7432,390.375 289.6026,390.125 289.3838,389.9688 C289.212,389.8281 289.0557,389.7969 288.587,389.7969 L285.1963,381.5938 L281.5245,381.5938 C281.0713,381.5938 280.9463,381.6094 280.7901,381.7031 C280.5401,381.875 280.3838,382.1563 280.3838,382.4375 C280.3838,382.7188 280.5245,382.9688 280.7432,383.1406 C280.9151,383.25 281.087,383.2813 281.5245,383.2813 L282.6026,383.2813 L279.962,389.7969 C279.5401,389.7969 279.3838,389.8125 279.2276,389.9219 C278.9776,390.0781 278.8213,390.3594 278.8213,390.6563 C278.8213,391.2188 279.1963,391.5 279.9463,391.5 L282.212,391.5 C282.5713,391.5 282.7901,391.4688 282.9151,391.375 C283.1807,391.2344 283.3213,390.9375 283.3213,390.6563 C283.3213,390.375 283.1963,390.125 282.9776,389.9531 C282.8057,389.8281 282.6651,389.7969 282.212,389.7969 L281.8213,389.7969 L282.212,388.8125 L286.2588,388.8125 Z M285.5557,387.1094 L282.8838,387.1094 L284.2276,383.8438 L285.5557,387.1094 Z " fill="#FFFFFF"/><text fill="#FFFFFF" font-family="sans-serif" font-size="14" font-style="italic" lengthAdjust="spacing" textLength="63" x="304.6807" y="391.8467">Learning</text><line style="stroke:#E7E7E7;stroke-width:0.5;" x1="211.4307" x2="428.4307" y1="403" y2="403"/><line style="stroke:#E7E7E7;stroke-width:0.5;" x1="211.4307" x2="428.4307" y1="411" y2="411"/><ellipse cx="221.4307" cy="424.6484" fill="#84BE84" rx="3" ry="3" style="stroke:#038048;stroke-width:1.0;"/><text fill="#FFFFFF" font-family="sans-serif" font-size="14" font-style="italic" lengthAdjust="spacing" textLength="147" x="230.4307" y="427.9951">isFinished(): boolean</text><ellipse cx="221.4307" cy="440.9453" fill="#84BE84" rx="3" ry="3" style="stroke:#038048;stroke-width:1.0;"/><text fill="#FFFFFF" font-family="sans-serif" font-size="14" lengthAdjust="spacing" textLength="193" x="230.4307" y="444.292">nextCard(answer: boolean)</text></g><!--class LearningXTimes--><g id="elem_LearningXTimes"><rect codeLine="141" fill="#303030" height="80.5938" id="LearningXTimes" rx="2.5" ry="2.5" style="stroke:#E7E7E7;stroke-width:0.5;" width="164" x="123.9302" y="584.5"/><ellipse cx="146.5802" cy="600.5" fill="#2E5233" rx="11" ry="11" style="stroke:#E7E7E7;stroke-width:1.0;"/><path d="M148.924,596.1719 C147.9865,595.7344 147.3927,595.5938 146.5177,595.5938 C143.8927,595.5938 141.8927,597.6719 141.8927,600.3906 L141.8927,601.5156 C141.8927,604.0938 144.0021,605.9844 146.8927,605.9844 C148.1115,605.9844 149.2677,605.6875 150.0177,605.1406 C150.5958,604.7344 150.924,604.2813 150.924,603.8906 C150.924,603.4375 150.5333,603.0469 150.0646,603.0469 C149.8458,603.0469 149.6427,603.125 149.4552,603.3125 C149.0021,603.7969 149.0021,603.7969 148.8146,603.8906 C148.3927,604.1563 147.7052,604.2813 146.9396,604.2813 C144.8927,604.2813 143.5958,603.1875 143.5958,601.4844 L143.5958,600.3906 C143.5958,598.6094 144.8458,597.2969 146.5802,597.2969 C147.1583,597.2969 147.7677,597.4531 148.2365,597.7031 C148.7208,597.9844 148.8927,598.2031 148.9865,598.6094 C149.049,599.0156 149.0802,599.1406 149.2208,599.2656 C149.3615,599.4063 149.5958,599.5156 149.8146,599.5156 C150.0802,599.5156 150.3458,599.375 150.5177,599.1563 C150.6271,599 150.6583,598.8125 150.6583,598.3906 L150.6583,596.9688 C150.6583,596.5313 150.6427,596.4063 150.549,596.25 C150.3927,595.9844 150.1115,595.8438 149.8146,595.8438 C149.5177,595.8438 149.3146,595.9375 149.0958,596.25 L148.924,596.1719 Z " fill="#FFFFFF"/><text fill="#FFFFFF" font-family="sans-serif" font-size="14" lengthAdjust="spacing" textLength="115" x="162.2802" y="605.3467">LearningXTimes</text><line style="stroke:#E7E7E7;stroke-width:0.5;" x1="124.9302" x2="286.9302" y1="616.5" y2="616.5"/><rect fill="none" height="6" style="stroke:#C82930;stroke-width:1.0;" width="6" x="131.9302" y="627.1484"/><text fill="#FFFFFF" font-family="sans-serif" font-size="14" lengthAdjust="spacing" textLength="119" x="143.9302" y="633.4951">nbTimesMax: int</text><rect fill="none" height="6" style="stroke:#C82930;stroke-width:1.0;" width="6" x="131.9302" y="643.4453"/><text fill="#FFFFFF" font-family="sans-serif" font-size="14" lengthAdjust="spacing" textLength="138" x="143.9302" y="649.792">nbTimesPlayed: int</text><line style="stroke:#E7E7E7;stroke-width:0.5;" x1="124.9302" x2="286.9302" y1="657.0938" y2="657.0938"/></g><!--reverse link Observer to CardObserver--><g id="link_Observer_CardObserver"><path d="M1195.0887,57.47 C1292.2487,79.75 1458.6587,117.93 1550.4087,138.97 " fill="none" id="Observer-backto-CardObserver" style="stroke:#E7E7E7;stroke-width:1.0;stroke-dasharray:7.0,7.0;"/><polygon fill="none" points="1193.3887,64.26,1175.4587,52.97,1196.5187,50.61,1193.3887,64.26" style="stroke:#E7E7E7;stroke-width:1.0;"/></g><!--reverse link Observer to DeckObserver--><g id="link_Observer_DeckObserver"><path d="M1044.2217,78.21 C1013.0967,94.29 976.6507,113.34 943.9307,131 C875.5087,167.93 796.7767,212.43 750.3027,238.9 " fill="none" id="Observer-backto-DeckObserver" style="stroke:#E7E7E7;stroke-width:1.0;stroke-dasharray:7.0,7.0;"/><polygon fill="none" points="1041.3627,71.8,1062.3487,68.86,1047.7767,84.25,1041.3627,71.8" style="stroke:#E7E7E7;stroke-width:1.0;"/></g><!--reverse link Observer to DeckListObserver--><g id="link_Observer_DeckListObserver"><path d="M1150.0487,88.32 C1180.0887,134.94 1224.2587,203.52 1247.0787,238.94 " fill="none" id="Observer-backto-DeckListObserver" style="stroke:#E7E7E7;stroke-width:1.0;stroke-dasharray:7.0,7.0;"/><polygon fill="none" points="1144.0587,91.94,1139.1187,71.34,1155.8287,84.36,1144.0587,91.94" style="stroke:#E7E7E7;stroke-width:1.0;"/></g><!--reverse link Observer to StageObserver--><g id="link_Observer_StageObserver"><path d="M1082.2887,87.46 C1070.7187,102.45 1058.4487,118.35 1048.8047,130.84 " fill="none" id="Observer-backto-StageObserver" style="stroke:#E7E7E7;stroke-width:1.0;stroke-dasharray:7.0,7.0;"/><polygon fill="none" points="1077.1187,82.71,1094.8887,71.15,1088.2087,91.26,1077.1187,82.71" style="stroke:#E7E7E7;stroke-width:1.0;"/></g><!--reverse link DeckListObserver to GlobalView--><g id="link_DeckListObserver_GlobalView"><path d="M1261.9287,307.6 C1261.9287,319.95 1261.9287,333.66 1261.9287,346.93 " fill="none" id="DeckListObserver-backto-GlobalView" style="stroke:#E7E7E7;stroke-width:1.0;"/><polygon fill="none" points="1254.9287,307.21,1261.9287,287.21,1268.9287,307.21,1254.9287,307.21" style="stroke:#E7E7E7;stroke-width:1.0;"/></g><!--reverse link DeckObserver to DeckView--><g id="link_DeckObserver_DeckView"><path d="M709.9307,307.6 C709.9307,319.95 709.9307,333.66 709.9307,346.93 " fill="none" id="DeckObserver-backto-DeckView" style="stroke:#E7E7E7;stroke-width:1.0;"/><polygon fill="none" points="702.9307,307.21,709.9307,287.21,716.9307,307.21,702.9307,307.21" style="stroke:#E7E7E7;stroke-width:1.0;"/></g><!--reverse link StageObserver to StageView--><g id="link_StageObserver_StageView"><path d="M993.2987,193.28 C978.0457,208.39 960.9007,225.38 947.4717,238.68 " fill="none" id="StageObserver-backto-StageView" style="stroke:#E7E7E7;stroke-width:1.0;"/><polygon fill="none" points="988.5777,188.1,1007.7127,179,998.4307,198.05,988.5777,188.1" style="stroke:#E7E7E7;stroke-width:1.0;"/></g><!--reverse link Observed to DeckListModel--><g id="link_Observed_DeckListModel"><path d="M1299.0287,676.037 C1321.6087,689.113 1346.3987,702.698 1369.9287,714 C1415.8187,736.037 1467.9487,756.997 1513.1387,773.946 " fill="none" id="Observed-backto-DeckListModel" style="stroke:#E7E7E7;stroke-width:1.0;"/><polygon fill="none" points="1295.1587,681.881,1281.4587,665.712,1302.2487,669.812,1295.1587,681.881" style="stroke:#E7E7E7;stroke-width:1.0;"/></g><!--reverse link Observed to DeckModel--><g id="link_Observed_DeckModel"><path d="M1210.5387,685.717 C1204.0487,732.312 1193.2287,798.408 1177.9287,855 C1172.6487,874.554 1165.9887,895.049 1159.0287,914.677 " fill="none" id="Observed-backto-DeckModel" style="stroke:#E7E7E7;stroke-width:1.0;"/><polygon fill="none" points="1203.6187,684.673,1213.2187,665.784,1217.4887,686.539,1203.6187,684.673" style="stroke:#E7E7E7;stroke-width:1.0;"/></g><!--reverse link Observed to CardModel--><g id="link_Observed_CardModel"><path d="M1262.7287,681.49 C1302.3687,729.347 1362.7887,799.332 1420.9287,855 C1552.4087,980.888 1719.8987,1110.927 1819.9787,1185.792 " fill="none" id="Observed-backto-CardModel" style="stroke:#E7E7E7;stroke-width:1.0;"/><polygon fill="none" points="1257.1587,685.745,1249.8587,665.853,1267.9687,676.85,1257.1587,685.745" style="stroke:#E7E7E7;stroke-width:1.0;"/></g><!--reverse link Observed to StageModel--><g id="link_Observed_StageModel"><path d="M1163.7987,680.273 C1133.9987,710.156 1097.6687,746.586 1070.5287,773.793 " fill="none" id="Observed-backto-StageModel" style="stroke:#E7E7E7;stroke-width:1.0;"/><polygon fill="none" points="1159.1887,674.982,1178.2687,665.764,1169.1087,684.868,1159.1887,674.982" style="stroke:#E7E7E7;stroke-width:1.0;"/></g><!--reverse link Tag to CardTag--><g id="link_Tag_CardTag"><path d="M2338.6587,1081.619 C2329.2487,1145.626 2306.2187,1246.89 2250.9287,1315 C2224.8387,1347.1439 2182.7687,1369.1655 2150.4787,1382.4042 " fill="none" id="Tag-backto-CardTag" style="stroke:#E7E7E7;stroke-width:1.0;"/><polygon fill="none" points="2331.7687,1080.338,2341.3487,1061.441,2345.6387,1082.192,2331.7687,1080.338" style="stroke:#E7E7E7;stroke-width:1.0;"/></g><!--reverse link Tag to DeckTag--><g id="link_Tag_DeckTag"><path d="M2305.6087,1077.883 C2272.3187,1125.623 2226.2687,1191.651 2202.1487,1226.238 " fill="none" id="Tag-backto-DeckTag" style="stroke:#E7E7E7;stroke-width:1.0;"/><polygon fill="none" points="2300.0487,1073.615,2317.2387,1061.215,2311.5387,1081.624,2300.0487,1073.615" style="stroke:#E7E7E7;stroke-width:1.0;"/></g><!--reverse link BuildCardStrategy to BuildCardStrategyClassic--><g id="link_BuildCardStrategy_BuildCardStrategyClassic"><path d="M1484.9287,1302.842 C1484.9287,1327.3184 1484.9287,1355.3894 1484.9287,1374.6652 " fill="none" id="BuildCardStrategy-backto-BuildCardStrategyClassic" style="stroke:#E7E7E7;stroke-width:1.0;stroke-dasharray:7.0,7.0;"/><polygon fill="none" points="1477.9287,1302.569,1484.9287,1282.569,1491.9287,1302.569,1477.9287,1302.569" style="stroke:#E7E7E7;stroke-width:1.0;"/></g><!--reverse link BuildCardStrategy to BuildCardStrategyTheme2--><g id="link_BuildCardStrategy_BuildCardStrategyTheme2"><path d="M1555.5887,1292.741 C1601.1287,1319.322 1658.6687,1352.9035 1696.3387,1374.8927 " fill="none" id="BuildCardStrategy-backto-BuildCardStrategyTheme2" style="stroke:#E7E7E7;stroke-width:1.0;stroke-dasharray:7.0,7.0;"/><polygon fill="none" points="1551.9087,1298.696,1538.1587,1282.569,1558.9587,1286.605,1551.9087,1298.696" style="stroke:#E7E7E7;stroke-width:1.0;"/></g><!--reverse link DrawCardStrategy to DrawCardStrategyRandom--><g id="link_DrawCardStrategy_DrawCardStrategyRandom"><path d="M955.1657,1299.217 C896.6787,1324.6418 827.4007,1354.7582 780.8457,1374.9967 " fill="none" id="DrawCardStrategy-backto-DrawCardStrategyRandom" style="stroke:#E7E7E7;stroke-width:1.0;stroke-dasharray:7.0,7.0;"/><polygon fill="none" points="952.6007,1292.699,973.7327,1291.145,958.1817,1305.538,952.6007,1292.699" style="stroke:#E7E7E7;stroke-width:1.0;"/></g><!--reverse link DrawCardStrategy to DrawCardStrategyWeighted--><g id="link_DrawCardStrategy_DrawCardStrategyWeighted"><path d="M1036.1447,1309.269 C1024.7367,1332.1621 1012.2757,1357.1698 1003.4987,1374.7841 " fill="none" id="DrawCardStrategy-backto-DrawCardStrategyWeighted" style="stroke:#E7E7E7;stroke-width:1.0;stroke-dasharray:7.0,7.0;"/><polygon fill="none" points="1029.9907,1305.924,1045.1757,1291.145,1042.5207,1312.168,1029.9907,1305.924" style="stroke:#E7E7E7;stroke-width:1.0;"/></g><!--reverse link DrawCardStrategy to DrawCardStrategyTime--><g id="link_DrawCardStrategy_DrawCardStrategyTime"><path d="M1128.9387,1303.888 C1158.7187,1328.256 1192.5987,1355.9848 1215.8287,1374.9967 " fill="none" id="DrawCardStrategy-backto-DrawCardStrategyTime" style="stroke:#E7E7E7;stroke-width:1.0;stroke-dasharray:7.0,7.0;"/><polygon fill="none" points="1124.4187,1309.229,1113.3687,1291.145,1133.2787,1298.395,1124.4187,1309.229" style="stroke:#E7E7E7;stroke-width:1.0;"/></g><!--reverse link Learning to LearningXTimes--><g id="link_Learning_LearningXTimes"><path d="M288.8107,470.236 C269.2807,506.468 244.6057,552.247 227.2767,584.397 " fill="none" id="Learning-backto-LearningXTimes" style="stroke:#E7E7E7;stroke-width:1.0;"/><polygon fill="none" points="282.8367,466.566,298.4877,452.282,295.1597,473.208,282.8367,466.566" style="stroke:#E7E7E7;stroke-width:1.0;"/></g><!--link CardObserver to CardModel--><g id="link_CardObserver_CardModel"><path codeLine="146" d="M1680.1487,179.06 C1765.8487,214.45 1906.9287,290.87 1906.9287,410.5 C1906.9287,410.5 1906.9287,410.5 1906.9287,815.5 C1906.9287,947.169 1906.9287,1101.308 1906.9287,1185.887 " fill="none" id="CardObserver-CardModel" style="stroke:#E7E7E7;stroke-width:1.0;"/></g><!--link DeckObserver to DeckModel--><g id="link_DeckObserver_DeckModel"><path codeLine="147" d="M643.1457,267.02 C519.8337,273.82 262.6227,294.1 192.9307,347 C59.4094,448.354 6,579.411 105.9302,714 C200.9577,841.987 633.2867,937.047 900.8887,984.867 " fill="none" id="DeckObserver-DeckModel" style="stroke:#E7E7E7;stroke-width:1.0;"/></g><!--link DeckListObserver to DeckListModel--><g id="link_DeckListObserver_DeckListModel"><path codeLine="148" d="M1340.6487,276.74 C1464.6587,301.57 1701.5187,369.4 1799.9287,536 C1840.1687,604.114 1839.6287,645.57 1799.9287,714 C1785.0887,739.585 1760.9187,759.15 1735.2487,773.871 " fill="none" id="DeckListObserver-DeckListModel" style="stroke:#E7E7E7;stroke-width:1.0;"/></g><!--link StageObserver to StageModel--><g id="link_StageObserver_StageModel"><path codeLine="149" d="M1030.9307,179.02 C1030.9307,275.73 1030.9307,649.901 1030.9307,773.571 " fill="none" id="StageObserver-StageModel" style="stroke:#E7E7E7;stroke-width:1.0;"/></g><!--link GlobalView to DeckListController--><g id="link_GlobalView_DeckListController"><path codeLine="151" d="M1359.2787,476.244 C1404.1387,505.617 1456.8787,540.154 1500.0887,568.448 " fill="none" id="GlobalView-DeckListController" style="stroke:#E7E7E7;stroke-width:1.0;"/></g><!--link DeckView to DeckController--><g id="link_DeckView_DeckController"><path codeLine="152" d="M647.5427,476.244 C629.2097,494.975 608.8227,515.805 589.2757,535.778 " fill="none" id="DeckView-DeckController" style="stroke:#E7E7E7;stroke-width:1.0;"/></g><!--link StageView to StageController--><g id="link_StageView_StageController"><path codeLine="153" d="M920.7567,287.04 C915.2077,326.12 902.8987,407.81 887.9307,476 C880.5117,509.797 870.3127,547.434 862.0697,576.296 " fill="none" id="StageView-StageController" style="stroke:#E7E7E7;stroke-width:1.0;"/></g><!--link GlobalView to StageController--><g id="link_GlobalView_StageController"><path codeLine="154" d="M1137.4387,476.1 C1074.3287,508.339 998.9947,546.826 940.9937,576.457 " fill="none" id="GlobalView-StageController" style="stroke:#E7E7E7;stroke-width:1.0;"/></g><!--link DeckView to StageController--><g id="link_DeckView_StageController"><path codeLine="155" d="M751.5217,476.244 C772.4737,508.354 797.4507,546.635 816.7317,576.185 " fill="none" id="DeckView-StageController" style="stroke:#E7E7E7;stroke-width:1.0;"/></g><!--link CardController to CardModel--><g id="link_CardController_CardModel"><path codeLine="157" d="M2065.4887,1061.215 C2036.5887,1095.535 1994.2887,1145.766 1960.6487,1185.715 " fill="none" id="CardController-CardModel" style="stroke:#E7E7E7;stroke-width:1.0;"/></g><!--link DeckController to DeckModel--><g id="link_DeckController_DeckModel"><path codeLine="158" d="M640.3417,714.064 C733.1367,773.534 856.0547,852.31 953.8167,914.964 " fill="none" id="DeckController-DeckModel" style="stroke:#E7E7E7;stroke-width:1.0;"/></g><!--link DeckListController to DeckListModel--><g id="link_DeckListController_DeckListModel"><path codeLine="159" d="M1597.1187,681.749 C1603.5887,711.327 1611.3887,746.979 1617.2387,773.734 " fill="none" id="DeckListController-DeckListModel" style="stroke:#E7E7E7;stroke-width:1.0;"/></g><!--link StageController to StageModel--><g id="link_StageController_StageModel"><path codeLine="160" d="M894.5827,673.799 C924.7627,704.722 963.5907,744.505 992.0887,773.703 " fill="none" id="StageController-StageModel" style="stroke:#E7E7E7;stroke-width:1.0;"/></g><!--link DeckModel to DrawCardStrategy--><g id="link_DeckModel_DrawCardStrategy"><path codeLine="162" d="M1093.0587,1126.158 C1086.2787,1155.892 1079.2987,1186.48 1073.9987,1209.757 " fill="none" id="DeckModel-DrawCardStrategy" style="stroke:#E7E7E7;stroke-width:1.0;"/></g><!--link DeckModel to BuildCardStrategy--><g id="link_DeckModel_BuildCardStrategy"><path codeLine="163" d="M1285.8487,1126.158 C1340.0787,1159.755 1396.0687,1194.443 1434.7987,1218.441 " fill="none" id="DeckModel-BuildCardStrategy" style="stroke:#E7E7E7;stroke-width:1.0;"/></g><!--link DeckModel to CardModel--><g id="link_DeckModel_CardModel"><path codeLine="164" d="M1333.1087,1116.832 C1342.1187,1120.054 1351.0887,1123.127 1359.9287,1126 C1434.5787,1150.251 1632.2187,1192.95 1768.2787,1221.236 " fill="none" id="DeckModel-CardModel" style="stroke:#E7E7E7;stroke-width:1.0;"/></g><!--link DeckListModel to DeckModel--><g id="link_DeckListModel_DeckModel"><path codeLine="165" d="M1527.1887,855.075 C1471.8987,877.235 1400.6687,905.782 1333.1287,932.852 " fill="none" id="DeckListModel-DeckModel" style="stroke:#E7E7E7;stroke-width:1.0;"/></g><!--link StageView to DeckView--><g id="link_StageView_DeckView"><path codeLine="167" d="M890.0217,287.21 C866.4497,303.35 833.8147,325.69 802.7917,346.93 " fill="none" id="StageView-DeckView" style="stroke:#E7E7E7;stroke-width:1.0;"/></g><!--link StageView to GlobalView--><g id="link_StageView_GlobalView"><path codeLine="168" d="M977.1147,287.05 C1014.3897,303.21 1066.1487,325.64 1115.3287,346.96 " fill="none" id="StageView-GlobalView" style="stroke:#E7E7E7;stroke-width:1.0;"/></g><!--link CardModel to CardTag--><g id="link_CardModel_CardTag"><path codeLine="170" d="M1992.9087,1315.118 C2021.7187,1336.4304 2052.0187,1358.8499 2073.8287,1374.9898 " fill="none" id="CardModel-CardTag" style="stroke:#E7E7E7;stroke-width:1.0;"/></g><!--link DeckModel to DeckTag--><g id="link_DeckModel_DeckTag"><path codeLine="171" d="M1333.3287,1040.222 C1528.1187,1061.481 1820.1887,1104.38 2062.9287,1186 C2092.9987,1196.11 2124.7587,1212.677 2148.4787,1226.354 " fill="none" id="DeckModel-DeckTag" style="stroke:#E7E7E7;stroke-width:1.0;"/></g><!--link Learning to DeckController--><g id="link_Learning_DeckController"><path codeLine="173" d="M354.3507,452.282 C374.7477,475.855 401.4447,506.71 426.5747,535.753 " fill="none" id="Learning-DeckController" style="stroke:#E7E7E7;stroke-width:1.0;"/></g><!--SRC=[jLTBJzmm4BxdL-GOLD1AFUwDWie5-W1QAbKzEF6GjPgrjx5v2VM_rzxuDRRt0Q9xYlpDUxwnPnbNCDwI3khFhOJn7iRwkQhrxrqz0kbKSp2lxmMZrT-g8grKepwhku58MP-GaNebjbmDi0IkP6meLpg5xlUhbCwPL2zMl5AaXnThMP3wIX1g4cs4LPfxTLUSIOmBnMwVZ6HKjCdasI1QCdndy533em9E2qc5kY_5FHYuOVEQSNLW0NXSYL4L09sO0znHfxkd9YESB66kIp4otX_M56GtifLYWhj3fwE4aJT1vWau18MVXGwKgK_Q7V9v486dmNkp9H9TSCEkviyTo1W_h0cN3wO3M7ugML4b91TwaAUt9WhA3rFd6LV2zEr2K1YyU8apUrOVSIXlVgaJMtqVrR5FUrHmR17DUpRLRktFnY6Xq4WKgPROrSrK_jYxQXX5sGMJ8tam0jg2vc__r4ZxCQzJADFzSCS6ka4vmx3steGhDAkKZ- -M0NTqA_Nf-e8SsyFLg3dSie4fdTFj84ZKhw_MJZu2MH_MffjoQdWcTiG-aUUg0mu9Uuu3qaYF5zbifkb4S3MAOOWkanTTOViDqQPx5C7nRLeAjn3gsq_BMnFIMbth0hra_I8yxHYx6GNl4sn1E1t0qgONWXxR85eX1Y0yUGSrNTOn5AUXNBx_Gjwog-tCz6A5vo9gvQPtyfhqswxXGLFzcmJgZd_-miKnwcxO9bE8UaMO-HKklI5zrgX_1FVkC7fHgFlQqD2of9bx54TssVf0MeVeHSLdbecVc6FMnGjRoUHc0zSBhVP-R_sqRfUwN68PgnSgkr7x1inqwKlobVhNR0cxTPETzHp8o3MXVALdCoO_Cixa0jQ3QBizcwKzJUWGzSNP_64YafvuYIlDytOjS44UmnlWJxyCv0ce9mdwqt1q5Dx72YsK6l5Sgx9DsQ9-2wlmigRXy7PLLRHxHuhXRgZyRclX20fxeJCQWTXmYiPMKwnABiAi41ZBIv7ZIJ6mG5oECCD6C-4MHhEXmJ0EEUp4A69SGbSKV1eAELK6UT3tN1BpT15MbITYrhT_]--></g></svg>