<?xml version="1.0" encoding="UTF-8" standalone="no"?><svg xmlns="http://www.w3.org/2000/svg" xmlns:xlink="http://www.w3.org/1999/xlink" contentStyleType="text/css" height="927px" preserveAspectRatio="none" style="width:2776px;height:927px;background:#000000;" version="1.1" viewBox="0 0 2776 927" width="2776px" zoomAndPan="magnify"><defs/><g><!--class Observer--><g id="elem_Observer"><rect codeLine="1" fill="#303030" height="64.2969" id="Observer" rx="2.5" ry="2.5" style="stroke:#E7E7E7;stroke-width:0.5;" width="126" x="1737.5" y="7"/><ellipse cx="1765.55" cy="23" fill="#352866" rx="11" ry="11" style="stroke:#E7E7E7;stroke-width:1.0;"/><path d="M1766.5031,19.7813 L1768.2219,19.7813 C1768.6125,19.7813 1768.8,19.75 1768.925,19.6719 C1769.1906,19.5156 1769.3313,19.2344 1769.3313,18.9375 C1769.3313,18.6719 1769.2219,18.4063 1768.9875,18.2344 C1768.8156,18.125 1768.675,18.0938 1768.2219,18.0938 L1763.0813,18.0938 C1762.6438,18.0938 1762.5188,18.1094 1762.3625,18.2031 C1762.1125,18.3594 1761.9563,18.6563 1761.9563,18.9375 C1761.9563,19.2188 1762.0969,19.4688 1762.3156,19.6406 C1762.4719,19.75 1762.6594,19.7813 1763.0813,19.7813 L1764.8,19.7813 L1764.8,26.2969 L1763.0813,26.2969 C1762.6438,26.2969 1762.5188,26.3125 1762.3625,26.4219 C1762.1125,26.5781 1761.9563,26.8594 1761.9563,27.1563 C1761.9563,27.4063 1762.0969,27.6719 1762.3156,27.8281 C1762.4719,27.9531 1762.675,28 1763.0813,28 L1768.2219,28 C1768.9719,28 1769.3313,27.7188 1769.3313,27.1563 C1769.3313,26.875 1769.2219,26.625 1768.9875,26.4531 C1768.8156,26.3281 1768.675,26.2969 1768.2219,26.2969 L1766.5031,26.2969 L1766.5031,19.7813 Z " fill="#FFFFFF"/><text fill="#FFFFFF" font-family="sans-serif" font-size="14" font-style="italic" lengthAdjust="spacing" textLength="65" x="1782.45" y="27.8467">Observer</text><line style="stroke:#E7E7E7;stroke-width:0.5;" x1="1738.5" x2="1862.5" y1="39" y2="39"/><line style="stroke:#E7E7E7;stroke-width:0.5;" x1="1738.5" x2="1862.5" y1="47" y2="47"/><ellipse cx="1748.5" cy="60.6484" fill="#84BE84" rx="3" ry="3" style="stroke:#038048;stroke-width:1.0;"/><text fill="#FFFFFF" font-family="sans-serif" font-size="14" lengthAdjust="spacing" textLength="100" x="1757.5" y="63.9951">update(): void</text></g><!--class CardObserver--><g id="elem_CardObserver"><rect codeLine="5" fill="#303030" height="48" id="CardObserver" rx="2.5" ry="2.5" style="stroke:#E7E7E7;stroke-width:0.5;" width="131" x="1487" y="131"/><ellipse cx="1502" cy="147" fill="#2A5D60" rx="11" ry="11" style="stroke:#E7E7E7;stroke-width:1.0;"/><path d="M1504.0781,148.8125 L1504.4688,149.7969 L1504.0781,149.7969 C1503.625,149.7969 1503.5156,149.8125 1503.3594,149.9219 C1503.1094,150.0781 1502.9531,150.3594 1502.9531,150.6563 C1502.9531,150.9219 1503.0938,151.1719 1503.3125,151.3281 C1503.4531,151.4531 1503.6563,151.5 1504.0781,151.5 L1506.4375,151.5 C1506.7969,151.5 1507.0156,151.4688 1507.1563,151.375 C1507.4063,151.2344 1507.5625,150.9375 1507.5625,150.6563 C1507.5625,150.375 1507.4219,150.125 1507.2031,149.9688 C1507.0313,149.8281 1506.875,149.7969 1506.4063,149.7969 L1503.0156,141.5938 L1499.3438,141.5938 C1498.8906,141.5938 1498.7656,141.6094 1498.6094,141.7031 C1498.3594,141.875 1498.2031,142.1563 1498.2031,142.4375 C1498.2031,142.7188 1498.3438,142.9688 1498.5625,143.1406 C1498.7344,143.25 1498.9063,143.2813 1499.3438,143.2813 L1500.4219,143.2813 L1497.7813,149.7969 C1497.3594,149.7969 1497.2031,149.8125 1497.0469,149.9219 C1496.7969,150.0781 1496.6406,150.3594 1496.6406,150.6563 C1496.6406,151.2188 1497.0156,151.5 1497.7656,151.5 L1500.0313,151.5 C1500.3906,151.5 1500.6094,151.4688 1500.7344,151.375 C1501,151.2344 1501.1406,150.9375 1501.1406,150.6563 C1501.1406,150.375 1501.0156,150.125 1500.7969,149.9531 C1500.625,149.8281 1500.4844,149.7969 1500.0313,149.7969 L1499.6406,149.7969 L1500.0313,148.8125 L1504.0781,148.8125 Z M1503.375,147.1094 L1500.7031,147.1094 L1502.0469,143.8438 L1503.375,147.1094 Z " fill="#FFFFFF"/><text fill="#FFFFFF" font-family="sans-serif" font-size="14" font-style="italic" lengthAdjust="spacing" textLength="99" x="1516" y="151.8467">CardObserver</text><line style="stroke:#E7E7E7;stroke-width:0.5;" x1="1488" x2="1617" y1="163" y2="163"/><line style="stroke:#E7E7E7;stroke-width:0.5;" x1="1488" x2="1617" y1="171" y2="171"/></g><!--class DeckObserver--><g id="elem_DeckObserver"><rect codeLine="8" fill="#303030" height="48" id="DeckObserver" rx="2.5" ry="2.5" style="stroke:#E7E7E7;stroke-width:0.5;" width="133" x="1036" y="131"/><ellipse cx="1051" cy="147" fill="#2A5D60" rx="11" ry="11" style="stroke:#E7E7E7;stroke-width:1.0;"/><path d="M1053.0781,148.8125 L1053.4688,149.7969 L1053.0781,149.7969 C1052.625,149.7969 1052.5156,149.8125 1052.3594,149.9219 C1052.1094,150.0781 1051.9531,150.3594 1051.9531,150.6563 C1051.9531,150.9219 1052.0938,151.1719 1052.3125,151.3281 C1052.4531,151.4531 1052.6563,151.5 1053.0781,151.5 L1055.4375,151.5 C1055.7969,151.5 1056.0156,151.4688 1056.1563,151.375 C1056.4063,151.2344 1056.5625,150.9375 1056.5625,150.6563 C1056.5625,150.375 1056.4219,150.125 1056.2031,149.9688 C1056.0313,149.8281 1055.875,149.7969 1055.4063,149.7969 L1052.0156,141.5938 L1048.3438,141.5938 C1047.8906,141.5938 1047.7656,141.6094 1047.6094,141.7031 C1047.3594,141.875 1047.2031,142.1563 1047.2031,142.4375 C1047.2031,142.7188 1047.3438,142.9688 1047.5625,143.1406 C1047.7344,143.25 1047.9063,143.2813 1048.3438,143.2813 L1049.4219,143.2813 L1046.7813,149.7969 C1046.3594,149.7969 1046.2031,149.8125 1046.0469,149.9219 C1045.7969,150.0781 1045.6406,150.3594 1045.6406,150.6563 C1045.6406,151.2188 1046.0156,151.5 1046.7656,151.5 L1049.0313,151.5 C1049.3906,151.5 1049.6094,151.4688 1049.7344,151.375 C1050,151.2344 1050.1406,150.9375 1050.1406,150.6563 C1050.1406,150.375 1050.0156,150.125 1049.7969,149.9531 C1049.625,149.8281 1049.4844,149.7969 1049.0313,149.7969 L1048.6406,149.7969 L1049.0313,148.8125 L1053.0781,148.8125 Z M1052.375,147.1094 L1049.7031,147.1094 L1051.0469,143.8438 L1052.375,147.1094 Z " fill="#FFFFFF"/><text fill="#FFFFFF" font-family="sans-serif" font-size="14" font-style="italic" lengthAdjust="spacing" textLength="101" x="1065" y="151.8467">DeckObserver</text><line style="stroke:#E7E7E7;stroke-width:0.5;" x1="1037" x2="1168" y1="163" y2="163"/><line style="stroke:#E7E7E7;stroke-width:0.5;" x1="1037" x2="1168" y1="171" y2="171"/></g><!--class DeckListObserver--><g id="elem_DeckListObserver"><rect codeLine="11" fill="#303030" height="48" id="DeckListObserver" rx="2.5" ry="2.5" style="stroke:#E7E7E7;stroke-width:0.5;" width="157" x="1970" y="131"/><ellipse cx="1985" cy="147" fill="#2A5D60" rx="11" ry="11" style="stroke:#E7E7E7;stroke-width:1.0;"/><path d="M1987.0781,148.8125 L1987.4688,149.7969 L1987.0781,149.7969 C1986.625,149.7969 1986.5156,149.8125 1986.3594,149.9219 C1986.1094,150.0781 1985.9531,150.3594 1985.9531,150.6563 C1985.9531,150.9219 1986.0938,151.1719 1986.3125,151.3281 C1986.4531,151.4531 1986.6563,151.5 1987.0781,151.5 L1989.4375,151.5 C1989.7969,151.5 1990.0156,151.4688 1990.1563,151.375 C1990.4063,151.2344 1990.5625,150.9375 1990.5625,150.6563 C1990.5625,150.375 1990.4219,150.125 1990.2031,149.9688 C1990.0313,149.8281 1989.875,149.7969 1989.4063,149.7969 L1986.0156,141.5938 L1982.3438,141.5938 C1981.8906,141.5938 1981.7656,141.6094 1981.6094,141.7031 C1981.3594,141.875 1981.2031,142.1563 1981.2031,142.4375 C1981.2031,142.7188 1981.3438,142.9688 1981.5625,143.1406 C1981.7344,143.25 1981.9063,143.2813 1982.3438,143.2813 L1983.4219,143.2813 L1980.7813,149.7969 C1980.3594,149.7969 1980.2031,149.8125 1980.0469,149.9219 C1979.7969,150.0781 1979.6406,150.3594 1979.6406,150.6563 C1979.6406,151.2188 1980.0156,151.5 1980.7656,151.5 L1983.0313,151.5 C1983.3906,151.5 1983.6094,151.4688 1983.7344,151.375 C1984,151.2344 1984.1406,150.9375 1984.1406,150.6563 C1984.1406,150.375 1984.0156,150.125 1983.7969,149.9531 C1983.625,149.8281 1983.4844,149.7969 1983.0313,149.7969 L1982.6406,149.7969 L1983.0313,148.8125 L1987.0781,148.8125 Z M1986.375,147.1094 L1983.7031,147.1094 L1985.0469,143.8438 L1986.375,147.1094 Z " fill="#FFFFFF"/><text fill="#FFFFFF" font-family="sans-serif" font-size="14" font-style="italic" lengthAdjust="spacing" textLength="125" x="1999" y="151.8467">DeckListObserver</text><line style="stroke:#E7E7E7;stroke-width:0.5;" x1="1971" x2="2126" y1="163" y2="163"/><line style="stroke:#E7E7E7;stroke-width:0.5;" x1="1971" x2="2126" y1="171" y2="171"/></g><!--class StageObserver--><g id="elem_StageObserver"><rect codeLine="14" fill="#303030" height="48" id="StageObserver" rx="2.5" ry="2.5" style="stroke:#E7E7E7;stroke-width:0.5;" width="138" x="2524.5" y="131"/><ellipse cx="2539.5" cy="147" fill="#2A5D60" rx="11" ry="11" style="stroke:#E7E7E7;stroke-width:1.0;"/><path d="M2541.5781,148.8125 L2541.9688,149.7969 L2541.5781,149.7969 C2541.125,149.7969 2541.0156,149.8125 2540.8594,149.9219 C2540.6094,150.0781 2540.4531,150.3594 2540.4531,150.6563 C2540.4531,150.9219 2540.5938,151.1719 2540.8125,151.3281 C2540.9531,151.4531 2541.1563,151.5 2541.5781,151.5 L2543.9375,151.5 C2544.2969,151.5 2544.5156,151.4688 2544.6563,151.375 C2544.9063,151.2344 2545.0625,150.9375 2545.0625,150.6563 C2545.0625,150.375 2544.9219,150.125 2544.7031,149.9688 C2544.5313,149.8281 2544.375,149.7969 2543.9063,149.7969 L2540.5156,141.5938 L2536.8438,141.5938 C2536.3906,141.5938 2536.2656,141.6094 2536.1094,141.7031 C2535.8594,141.875 2535.7031,142.1563 2535.7031,142.4375 C2535.7031,142.7188 2535.8438,142.9688 2536.0625,143.1406 C2536.2344,143.25 2536.4063,143.2813 2536.8438,143.2813 L2537.9219,143.2813 L2535.2813,149.7969 C2534.8594,149.7969 2534.7031,149.8125 2534.5469,149.9219 C2534.2969,150.0781 2534.1406,150.3594 2534.1406,150.6563 C2534.1406,151.2188 2534.5156,151.5 2535.2656,151.5 L2537.5313,151.5 C2537.8906,151.5 2538.1094,151.4688 2538.2344,151.375 C2538.5,151.2344 2538.6406,150.9375 2538.6406,150.6563 C2538.6406,150.375 2538.5156,150.125 2538.2969,149.9531 C2538.125,149.8281 2537.9844,149.7969 2537.5313,149.7969 L2537.1406,149.7969 L2537.5313,148.8125 L2541.5781,148.8125 Z M2540.875,147.1094 L2538.2031,147.1094 L2539.5469,143.8438 L2540.875,147.1094 Z " fill="#FFFFFF"/><text fill="#FFFFFF" font-family="sans-serif" font-size="14" font-style="italic" lengthAdjust="spacing" textLength="106" x="2553.5" y="151.8467">StageObserver</text><line style="stroke:#E7E7E7;stroke-width:0.5;" x1="2525.5" x2="2661.5" y1="163" y2="163"/><line style="stroke:#E7E7E7;stroke-width:0.5;" x1="2525.5" x2="2661.5" y1="171" y2="171"/></g><!--class Observed--><g id="elem_Observed"><rect codeLine="17" fill="#303030" height="80.5938" id="Observed" rx="2.5" ry="2.5" style="stroke:#E7E7E7;stroke-width:0.5;" width="268" x="968.5" y="255"/><ellipse cx="1064.25" cy="271" fill="#2A5D60" rx="11" ry="11" style="stroke:#E7E7E7;stroke-width:1.0;"/><path d="M1066.3281,272.8125 L1066.7188,273.7969 L1066.3281,273.7969 C1065.875,273.7969 1065.7656,273.8125 1065.6094,273.9219 C1065.3594,274.0781 1065.2031,274.3594 1065.2031,274.6563 C1065.2031,274.9219 1065.3438,275.1719 1065.5625,275.3281 C1065.7031,275.4531 1065.9063,275.5 1066.3281,275.5 L1068.6875,275.5 C1069.0469,275.5 1069.2656,275.4688 1069.4063,275.375 C1069.6563,275.2344 1069.8125,274.9375 1069.8125,274.6563 C1069.8125,274.375 1069.6719,274.125 1069.4531,273.9688 C1069.2813,273.8281 1069.125,273.7969 1068.6563,273.7969 L1065.2656,265.5938 L1061.5938,265.5938 C1061.1406,265.5938 1061.0156,265.6094 1060.8594,265.7031 C1060.6094,265.875 1060.4531,266.1563 1060.4531,266.4375 C1060.4531,266.7188 1060.5938,266.9688 1060.8125,267.1406 C1060.9844,267.25 1061.1563,267.2813 1061.5938,267.2813 L1062.6719,267.2813 L1060.0313,273.7969 C1059.6094,273.7969 1059.4531,273.8125 1059.2969,273.9219 C1059.0469,274.0781 1058.8906,274.3594 1058.8906,274.6563 C1058.8906,275.2188 1059.2656,275.5 1060.0156,275.5 L1062.2813,275.5 C1062.6406,275.5 1062.8594,275.4688 1062.9844,275.375 C1063.25,275.2344 1063.3906,274.9375 1063.3906,274.6563 C1063.3906,274.375 1063.2656,274.125 1063.0469,273.9531 C1062.875,273.8281 1062.7344,273.7969 1062.2813,273.7969 L1061.8906,273.7969 L1062.2813,272.8125 L1066.3281,272.8125 Z M1065.625,271.1094 L1062.9531,271.1094 L1064.2969,267.8438 L1065.625,271.1094 Z " fill="#FFFFFF"/><text fill="#FFFFFF" font-family="sans-serif" font-size="14" font-style="italic" lengthAdjust="spacing" textLength="68" x="1084.75" y="275.8467">Observed</text><line style="stroke:#E7E7E7;stroke-width:0.5;" x1="969.5" x2="1235.5" y1="287" y2="287"/><line style="stroke:#E7E7E7;stroke-width:0.5;" x1="969.5" x2="1235.5" y1="295" y2="295"/><ellipse cx="979.5" cy="308.6484" fill="#84BE84" rx="3" ry="3" style="stroke:#038048;stroke-width:1.0;"/><text fill="#FFFFFF" font-family="sans-serif" font-size="14" lengthAdjust="spacing" textLength="242" x="988.5" y="311.9951">addObs(observer: Observer): void</text><ellipse cx="979.5" cy="324.9453" fill="#84BE84" rx="3" ry="3" style="stroke:#038048;stroke-width:1.0;"/><text fill="#FFFFFF" font-family="sans-serif" font-size="14" lengthAdjust="spacing" textLength="120" x="988.5" y="328.292">notifyObs(): void</text></g><!--class GlobalView--><g id="elem_GlobalView"><rect codeLine="22" fill="#303030" height="129.4844" id="GlobalView" rx="2.5" ry="2.5" style="stroke:#E7E7E7;stroke-width:0.5;" width="356" x="2300.5" y="453"/><ellipse cx="2434.25" cy="469" fill="#2E5233" rx="11" ry="11" style="stroke:#E7E7E7;stroke-width:1.0;"/><path d="M2436.5938,464.6719 C2435.6563,464.2344 2435.0625,464.0938 2434.1875,464.0938 C2431.5625,464.0938 2429.5625,466.1719 2429.5625,468.8906 L2429.5625,470.0156 C2429.5625,472.5938 2431.6719,474.4844 2434.5625,474.4844 C2435.7813,474.4844 2436.9375,474.1875 2437.6875,473.6406 C2438.2656,473.2344 2438.5938,472.7813 2438.5938,472.3906 C2438.5938,471.9375 2438.2031,471.5469 2437.7344,471.5469 C2437.5156,471.5469 2437.3125,471.625 2437.125,471.8125 C2436.6719,472.2969 2436.6719,472.2969 2436.4844,472.3906 C2436.0625,472.6563 2435.375,472.7813 2434.6094,472.7813 C2432.5625,472.7813 2431.2656,471.6875 2431.2656,469.9844 L2431.2656,468.8906 C2431.2656,467.1094 2432.5156,465.7969 2434.25,465.7969 C2434.8281,465.7969 2435.4375,465.9531 2435.9063,466.2031 C2436.3906,466.4844 2436.5625,466.7031 2436.6563,467.1094 C2436.7188,467.5156 2436.75,467.6406 2436.8906,467.7656 C2437.0313,467.9063 2437.2656,468.0156 2437.4844,468.0156 C2437.75,468.0156 2438.0156,467.875 2438.1875,467.6563 C2438.2969,467.5 2438.3281,467.3125 2438.3281,466.8906 L2438.3281,465.4688 C2438.3281,465.0313 2438.3125,464.9063 2438.2188,464.75 C2438.0625,464.4844 2437.7813,464.3438 2437.4844,464.3438 C2437.1875,464.3438 2436.9844,464.4375 2436.7656,464.75 L2436.5938,464.6719 Z " fill="#FFFFFF"/><text fill="#FFFFFF" font-family="sans-serif" font-size="14" lengthAdjust="spacing" textLength="80" x="2454.75" y="473.8467">GlobalView</text><line style="stroke:#E7E7E7;stroke-width:0.5;" x1="2301.5" x2="2655.5" y1="485" y2="485"/><line style="stroke:#E7E7E7;stroke-width:0.5;" x1="2301.5" x2="2655.5" y1="493" y2="493"/><ellipse cx="2311.5" cy="506.6484" fill="#84BE84" rx="3" ry="3" style="stroke:#038048;stroke-width:1.0;"/><text fill="#FFFFFF" font-family="sans-serif" font-size="14" lengthAdjust="spacing" textLength="135" x="2320.5" y="509.9951">removeDeck(i: int)</text><ellipse cx="2311.5" cy="522.9453" fill="#84BE84" rx="3" ry="3" style="stroke:#038048;stroke-width:1.0;"/><text fill="#FFFFFF" font-family="sans-serif" font-size="14" lengthAdjust="spacing" textLength="129" x="2320.5" y="526.292">exportDeck(i: int)</text><ellipse cx="2311.5" cy="539.2422" fill="#84BE84" rx="3" ry="3" style="stroke:#038048;stroke-width:1.0;"/><text fill="#FFFFFF" font-family="sans-serif" font-size="14" lengthAdjust="spacing" textLength="97" x="2320.5" y="542.5889">importDeck()</text><ellipse cx="2311.5" cy="555.5391" fill="#84BE84" rx="3" ry="3" style="stroke:#038048;stroke-width:1.0;"/><text fill="#FFFFFF" font-family="sans-serif" font-size="14" lengthAdjust="spacing" textLength="330" x="2320.5" y="558.8857">createDeck(name: String, description: String)</text><ellipse cx="2311.5" cy="571.8359" fill="#84BE84" rx="3" ry="3" style="stroke:#038048;stroke-width:1.0;"/><text fill="#FFFFFF" font-family="sans-serif" font-size="14" lengthAdjust="spacing" textLength="136" x="2320.5" y="575.1826">toDeckView(): void</text></g><!--class DeckView--><g id="elem_DeckView"><rect codeLine="30" fill="#303030" height="129.4844" id="DeckView" rx="2.5" ry="2.5" style="stroke:#E7E7E7;stroke-width:0.5;" width="321" x="1944" y="453"/><ellipse cx="2064.75" cy="469" fill="#2E5233" rx="11" ry="11" style="stroke:#E7E7E7;stroke-width:1.0;"/><path d="M2067.0938,464.6719 C2066.1563,464.2344 2065.5625,464.0938 2064.6875,464.0938 C2062.0625,464.0938 2060.0625,466.1719 2060.0625,468.8906 L2060.0625,470.0156 C2060.0625,472.5938 2062.1719,474.4844 2065.0625,474.4844 C2066.2813,474.4844 2067.4375,474.1875 2068.1875,473.6406 C2068.7656,473.2344 2069.0938,472.7813 2069.0938,472.3906 C2069.0938,471.9375 2068.7031,471.5469 2068.2344,471.5469 C2068.0156,471.5469 2067.8125,471.625 2067.625,471.8125 C2067.1719,472.2969 2067.1719,472.2969 2066.9844,472.3906 C2066.5625,472.6563 2065.875,472.7813 2065.1094,472.7813 C2063.0625,472.7813 2061.7656,471.6875 2061.7656,469.9844 L2061.7656,468.8906 C2061.7656,467.1094 2063.0156,465.7969 2064.75,465.7969 C2065.3281,465.7969 2065.9375,465.9531 2066.4063,466.2031 C2066.8906,466.4844 2067.0625,466.7031 2067.1563,467.1094 C2067.2188,467.5156 2067.25,467.6406 2067.3906,467.7656 C2067.5313,467.9063 2067.7656,468.0156 2067.9844,468.0156 C2068.25,468.0156 2068.5156,467.875 2068.6875,467.6563 C2068.7969,467.5 2068.8281,467.3125 2068.8281,466.8906 L2068.8281,465.4688 C2068.8281,465.0313 2068.8125,464.9063 2068.7188,464.75 C2068.5625,464.4844 2068.2813,464.3438 2067.9844,464.3438 C2067.6875,464.3438 2067.4844,464.4375 2067.2656,464.75 L2067.0938,464.6719 Z " fill="#FFFFFF"/><text fill="#FFFFFF" font-family="sans-serif" font-size="14" lengthAdjust="spacing" textLength="71" x="2085.25" y="473.8467">DeckView</text><line style="stroke:#E7E7E7;stroke-width:0.5;" x1="1945" x2="2264" y1="485" y2="485"/><line style="stroke:#E7E7E7;stroke-width:0.5;" x1="1945" x2="2264" y1="493" y2="493"/><ellipse cx="1955" cy="506.6484" fill="#84BE84" rx="3" ry="3" style="stroke:#038048;stroke-width:1.0;"/><text fill="#FFFFFF" font-family="sans-serif" font-size="14" lengthAdjust="spacing" textLength="173" x="1964" y="509.9951">editName(name: String)</text><ellipse cx="1955" cy="522.9453" fill="#84BE84" rx="3" ry="3" style="stroke:#038048;stroke-width:1.0;"/><text fill="#FFFFFF" font-family="sans-serif" font-size="14" lengthAdjust="spacing" textLength="258" x="1964" y="526.292">editDescription(description: String)</text><ellipse cx="1955" cy="539.2422" fill="#84BE84" rx="3" ry="3" style="stroke:#038048;stroke-width:1.0;"/><text fill="#FFFFFF" font-family="sans-serif" font-size="14" lengthAdjust="spacing" textLength="295" x="1964" y="542.5889">addCard(question: String, answer: String)</text><ellipse cx="1955" cy="555.5391" fill="#84BE84" rx="3" ry="3" style="stroke:#038048;stroke-width:1.0;"/><text fill="#FFFFFF" font-family="sans-serif" font-size="14" lengthAdjust="spacing" textLength="213" x="1964" y="558.8857">removeCard(question: String)</text><ellipse cx="1955" cy="571.8359" fill="#84BE84" rx="3" ry="3" style="stroke:#038048;stroke-width:1.0;"/><text fill="#FFFFFF" font-family="sans-serif" font-size="14" lengthAdjust="spacing" textLength="145" x="1964" y="575.1826">toGlobalView(): void</text></g><!--class StageView--><g id="elem_StageView"><rect codeLine="38" fill="#303030" height="48" id="StageView" rx="2.5" ry="2.5" style="stroke:#E7E7E7;stroke-width:0.5;" width="108" x="2424.5" y="271.5"/><ellipse cx="2439.5" cy="287.5" fill="#2E5233" rx="11" ry="11" style="stroke:#E7E7E7;stroke-width:1.0;"/><path d="M2441.8438,283.1719 C2440.9063,282.7344 2440.3125,282.5938 2439.4375,282.5938 C2436.8125,282.5938 2434.8125,284.6719 2434.8125,287.3906 L2434.8125,288.5156 C2434.8125,291.0938 2436.9219,292.9844 2439.8125,292.9844 C2441.0313,292.9844 2442.1875,292.6875 2442.9375,292.1406 C2443.5156,291.7344 2443.8438,291.2813 2443.8438,290.8906 C2443.8438,290.4375 2443.4531,290.0469 2442.9844,290.0469 C2442.7656,290.0469 2442.5625,290.125 2442.375,290.3125 C2441.9219,290.7969 2441.9219,290.7969 2441.7344,290.8906 C2441.3125,291.1563 2440.625,291.2813 2439.8594,291.2813 C2437.8125,291.2813 2436.5156,290.1875 2436.5156,288.4844 L2436.5156,287.3906 C2436.5156,285.6094 2437.7656,284.2969 2439.5,284.2969 C2440.0781,284.2969 2440.6875,284.4531 2441.1563,284.7031 C2441.6406,284.9844 2441.8125,285.2031 2441.9063,285.6094 C2441.9688,286.0156 2442,286.1406 2442.1406,286.2656 C2442.2813,286.4063 2442.5156,286.5156 2442.7344,286.5156 C2443,286.5156 2443.2656,286.375 2443.4375,286.1563 C2443.5469,286 2443.5781,285.8125 2443.5781,285.3906 L2443.5781,283.9688 C2443.5781,283.5313 2443.5625,283.4063 2443.4688,283.25 C2443.3125,282.9844 2443.0313,282.8438 2442.7344,282.8438 C2442.4375,282.8438 2442.2344,282.9375 2442.0156,283.25 L2441.8438,283.1719 Z " fill="#FFFFFF"/><text fill="#FFFFFF" font-family="sans-serif" font-size="14" lengthAdjust="spacing" textLength="76" x="2453.5" y="292.3467">StageView</text><line style="stroke:#E7E7E7;stroke-width:0.5;" x1="2425.5" x2="2531.5" y1="303.5" y2="303.5"/><line style="stroke:#E7E7E7;stroke-width:0.5;" x1="2425.5" x2="2531.5" y1="311.5" y2="311.5"/></g><!--class DeckListModel--><g id="elem_DeckListModel"><rect codeLine="41" fill="#303030" height="96.8906" id="DeckListModel" rx="2.5" ry="2.5" style="stroke:#E7E7E7;stroke-width:0.5;" width="374" x="1534.5" y="469"/><ellipse cx="1664.25" cy="485" fill="#2E5233" rx="11" ry="11" style="stroke:#E7E7E7;stroke-width:1.0;"/><path d="M1666.5938,480.6719 C1665.6563,480.2344 1665.0625,480.0938 1664.1875,480.0938 C1661.5625,480.0938 1659.5625,482.1719 1659.5625,484.8906 L1659.5625,486.0156 C1659.5625,488.5938 1661.6719,490.4844 1664.5625,490.4844 C1665.7813,490.4844 1666.9375,490.1875 1667.6875,489.6406 C1668.2656,489.2344 1668.5938,488.7813 1668.5938,488.3906 C1668.5938,487.9375 1668.2031,487.5469 1667.7344,487.5469 C1667.5156,487.5469 1667.3125,487.625 1667.125,487.8125 C1666.6719,488.2969 1666.6719,488.2969 1666.4844,488.3906 C1666.0625,488.6563 1665.375,488.7813 1664.6094,488.7813 C1662.5625,488.7813 1661.2656,487.6875 1661.2656,485.9844 L1661.2656,484.8906 C1661.2656,483.1094 1662.5156,481.7969 1664.25,481.7969 C1664.8281,481.7969 1665.4375,481.9531 1665.9063,482.2031 C1666.3906,482.4844 1666.5625,482.7031 1666.6563,483.1094 C1666.7188,483.5156 1666.75,483.6406 1666.8906,483.7656 C1667.0313,483.9063 1667.2656,484.0156 1667.4844,484.0156 C1667.75,484.0156 1668.0156,483.875 1668.1875,483.6563 C1668.2969,483.5 1668.3281,483.3125 1668.3281,482.8906 L1668.3281,481.4688 C1668.3281,481.0313 1668.3125,480.9063 1668.2188,480.75 C1668.0625,480.4844 1667.7813,480.3438 1667.4844,480.3438 C1667.1875,480.3438 1666.9844,480.4375 1666.7656,480.75 L1666.5938,480.6719 Z " fill="#FFFFFF"/><text fill="#FFFFFF" font-family="sans-serif" font-size="14" lengthAdjust="spacing" textLength="106" x="1684.75" y="489.8467">DeckListModel</text><line style="stroke:#E7E7E7;stroke-width:0.5;" x1="1535.5" x2="1907.5" y1="501" y2="501"/><line style="stroke:#E7E7E7;stroke-width:0.5;" x1="1535.5" x2="1907.5" y1="509" y2="509"/><ellipse cx="1545.5" cy="522.6484" fill="#84BE84" rx="3" ry="3" style="stroke:#038048;stroke-width:1.0;"/><text fill="#FFFFFF" font-family="sans-serif" font-size="14" lengthAdjust="spacing" textLength="348" x="1554.5" y="525.9951">addDeck(name: String, description: String): void</text><ellipse cx="1545.5" cy="538.9453" fill="#84BE84" rx="3" ry="3" style="stroke:#038048;stroke-width:1.0;"/><text fill="#FFFFFF" font-family="sans-serif" font-size="14" lengthAdjust="spacing" textLength="174" x="1554.5" y="542.292">removeDeck(i: int): void</text><ellipse cx="1545.5" cy="555.2422" fill="#84BE84" rx="3" ry="3" style="stroke:#038048;stroke-width:1.0;"/><text fill="#FFFFFF" font-family="sans-serif" font-size="14" lengthAdjust="spacing" textLength="92" x="1554.5" y="558.5889">notify(): void</text></g><!--class DeckModel--><g id="elem_DeckModel"><rect codeLine="47" fill="#303030" height="210.9688" id="DeckModel" rx="2.5" ry="2.5" style="stroke:#E7E7E7;stroke-width:0.5;" width="432" x="503.5" y="412"/><ellipse cx="675.25" cy="428" fill="#2E5233" rx="11" ry="11" style="stroke:#E7E7E7;stroke-width:1.0;"/><path d="M677.5938,423.6719 C676.6563,423.2344 676.0625,423.0938 675.1875,423.0938 C672.5625,423.0938 670.5625,425.1719 670.5625,427.8906 L670.5625,429.0156 C670.5625,431.5938 672.6719,433.4844 675.5625,433.4844 C676.7813,433.4844 677.9375,433.1875 678.6875,432.6406 C679.2656,432.2344 679.5938,431.7813 679.5938,431.3906 C679.5938,430.9375 679.2031,430.5469 678.7344,430.5469 C678.5156,430.5469 678.3125,430.625 678.125,430.8125 C677.6719,431.2969 677.6719,431.2969 677.4844,431.3906 C677.0625,431.6563 676.375,431.7813 675.6094,431.7813 C673.5625,431.7813 672.2656,430.6875 672.2656,428.9844 L672.2656,427.8906 C672.2656,426.1094 673.5156,424.7969 675.25,424.7969 C675.8281,424.7969 676.4375,424.9531 676.9063,425.2031 C677.3906,425.4844 677.5625,425.7031 677.6563,426.1094 C677.7188,426.5156 677.75,426.6406 677.8906,426.7656 C678.0313,426.9063 678.2656,427.0156 678.4844,427.0156 C678.75,427.0156 679.0156,426.875 679.1875,426.6563 C679.2969,426.5 679.3281,426.3125 679.3281,425.8906 L679.3281,424.4688 C679.3281,424.0313 679.3125,423.9063 679.2188,423.75 C679.0625,423.4844 678.7813,423.3438 678.4844,423.3438 C678.1875,423.3438 677.9844,423.4375 677.7656,423.75 L677.5938,423.6719 Z " fill="#FFFFFF"/><text fill="#FFFFFF" font-family="sans-serif" font-size="14" lengthAdjust="spacing" textLength="80" x="695.75" y="432.8467">DeckModel</text><line style="stroke:#E7E7E7;stroke-width:0.5;" x1="504.5" x2="934.5" y1="444" y2="444"/><rect fill="none" height="6" style="stroke:#C82930;stroke-width:1.0;" width="6" x="511.5" y="454.6484"/><text fill="#FFFFFF" font-family="sans-serif" font-size="14" lengthAdjust="spacing" textLength="93" x="523.5" y="460.9951">name: String</text><rect fill="none" height="6" style="stroke:#C82930;stroke-width:1.0;" width="6" x="511.5" y="470.9453"/><text fill="#FFFFFF" font-family="sans-serif" font-size="14" lengthAdjust="spacing" textLength="135" x="523.5" y="477.292">description: String</text><rect fill="none" height="6" style="stroke:#C82930;stroke-width:1.0;" width="6" x="511.5" y="487.2422"/><text fill="#FFFFFF" font-family="sans-serif" font-size="14" lengthAdjust="spacing" textLength="106" x="523.5" y="493.5889">activeCard: int</text><line style="stroke:#E7E7E7;stroke-width:0.5;" x1="504.5" x2="934.5" y1="500.8906" y2="500.8906"/><ellipse cx="514.5" cy="514.5391" fill="#84BE84" rx="3" ry="3" style="stroke:#038048;stroke-width:1.0;"/><text fill="#FFFFFF" font-family="sans-serif" font-size="14" lengthAdjust="spacing" textLength="206" x="523.5" y="517.8857">setName(name: String): void</text><ellipse cx="514.5" cy="530.8359" fill="#84BE84" rx="3" ry="3" style="stroke:#038048;stroke-width:1.0;"/><text fill="#FFFFFF" font-family="sans-serif" font-size="14" lengthAdjust="spacing" textLength="291" x="523.5" y="534.1826">setDescription(description: String): void</text><ellipse cx="514.5" cy="547.1328" fill="#84BE84" rx="3" ry="3" style="stroke:#038048;stroke-width:1.0;"/><text fill="#FFFFFF" font-family="sans-serif" font-size="14" lengthAdjust="spacing" textLength="193" x="523.5" y="550.4795">setActiveCard(id: int): void</text><ellipse cx="514.5" cy="563.4297" fill="#84BE84" rx="3" ry="3" style="stroke:#038048;stroke-width:1.0;"/><text fill="#FFFFFF" font-family="sans-serif" font-size="14" lengthAdjust="spacing" textLength="406" x="523.5" y="566.7764">setDrawCardStrategy(strategy: DrawCardStrategy): void</text><ellipse cx="514.5" cy="579.7266" fill="#84BE84" rx="3" ry="3" style="stroke:#038048;stroke-width:1.0;"/><text fill="#FFFFFF" font-family="sans-serif" font-size="14" lengthAdjust="spacing" textLength="404" x="523.5" y="583.0732">setBuildCardStrategy(strategy: BuildCardStrategy): void</text><ellipse cx="514.5" cy="596.0234" fill="#84BE84" rx="3" ry="3" style="stroke:#038048;stroke-width:1.0;"/><text fill="#FFFFFF" font-family="sans-serif" font-size="14" lengthAdjust="spacing" textLength="334" x="523.5" y="599.3701">addCard(question: String, answer: String): void</text><ellipse cx="514.5" cy="612.3203" fill="#84BE84" rx="3" ry="3" style="stroke:#038048;stroke-width:1.0;"/><text fill="#FFFFFF" font-family="sans-serif" font-size="14" lengthAdjust="spacing" textLength="179" x="523.5" y="615.667">removeCard(id: int): void</text></g><!--class CardModel--><g id="elem_CardModel"><rect codeLine="60" fill="#303030" height="129.4844" id="CardModel" rx="2.5" ry="2.5" style="stroke:#E7E7E7;stroke-width:0.5;" width="277" x="1222" y="453"/><ellipse cx="1318.25" cy="469" fill="#2E5233" rx="11" ry="11" style="stroke:#E7E7E7;stroke-width:1.0;"/><path d="M1320.5938,464.6719 C1319.6563,464.2344 1319.0625,464.0938 1318.1875,464.0938 C1315.5625,464.0938 1313.5625,466.1719 1313.5625,468.8906 L1313.5625,470.0156 C1313.5625,472.5938 1315.6719,474.4844 1318.5625,474.4844 C1319.7813,474.4844 1320.9375,474.1875 1321.6875,473.6406 C1322.2656,473.2344 1322.5938,472.7813 1322.5938,472.3906 C1322.5938,471.9375 1322.2031,471.5469 1321.7344,471.5469 C1321.5156,471.5469 1321.3125,471.625 1321.125,471.8125 C1320.6719,472.2969 1320.6719,472.2969 1320.4844,472.3906 C1320.0625,472.6563 1319.375,472.7813 1318.6094,472.7813 C1316.5625,472.7813 1315.2656,471.6875 1315.2656,469.9844 L1315.2656,468.8906 C1315.2656,467.1094 1316.5156,465.7969 1318.25,465.7969 C1318.8281,465.7969 1319.4375,465.9531 1319.9063,466.2031 C1320.3906,466.4844 1320.5625,466.7031 1320.6563,467.1094 C1320.7188,467.5156 1320.75,467.6406 1320.8906,467.7656 C1321.0313,467.9063 1321.2656,468.0156 1321.4844,468.0156 C1321.75,468.0156 1322.0156,467.875 1322.1875,467.6563 C1322.2969,467.5 1322.3281,467.3125 1322.3281,466.8906 L1322.3281,465.4688 C1322.3281,465.0313 1322.3125,464.9063 1322.2188,464.75 C1322.0625,464.4844 1321.7813,464.3438 1321.4844,464.3438 C1321.1875,464.3438 1320.9844,464.4375 1320.7656,464.75 L1320.5938,464.6719 Z " fill="#FFFFFF"/><text fill="#FFFFFF" font-family="sans-serif" font-size="14" lengthAdjust="spacing" textLength="76" x="1338.75" y="473.8467">CardModel</text><line style="stroke:#E7E7E7;stroke-width:0.5;" x1="1223" x2="1498" y1="485" y2="485"/><rect fill="none" height="6" style="stroke:#C82930;stroke-width:1.0;" width="6" x="1230" y="495.6484"/><text fill="#FFFFFF" font-family="sans-serif" font-size="14" lengthAdjust="spacing" textLength="115" x="1242" y="501.9951">question: String</text><rect fill="none" height="6" style="stroke:#C82930;stroke-width:1.0;" width="6" x="1230" y="511.9453"/><text fill="#FFFFFF" font-family="sans-serif" font-size="14" lengthAdjust="spacing" textLength="103" x="1242" y="518.292">answer: String</text><rect fill="none" height="6" style="stroke:#C82930;stroke-width:1.0;" width="6" x="1230" y="528.2422"/><text fill="#FFFFFF" font-family="sans-serif" font-size="14" lengthAdjust="spacing" textLength="123" x="1242" y="534.5889">probability: float</text><line style="stroke:#E7E7E7;stroke-width:0.5;" x1="1223" x2="1498" y1="541.8906" y2="541.8906"/><ellipse cx="1233" cy="555.5391" fill="#84BE84" rx="3" ry="3" style="stroke:#038048;stroke-width:1.0;"/><text fill="#FFFFFF" font-family="sans-serif" font-size="14" lengthAdjust="spacing" textLength="251" x="1242" y="558.8857">setQuestion(question: String): void</text><ellipse cx="1233" cy="571.8359" fill="#84BE84" rx="3" ry="3" style="stroke:#038048;stroke-width:1.0;"/><text fill="#FFFFFF" font-family="sans-serif" font-size="14" lengthAdjust="spacing" textLength="227" x="1242" y="575.1826">setAnswer(answer: String): void</text></g><!--class StageModel--><g id="elem_StageModel"><rect codeLine="68" fill="#303030" height="80.5938" id="StageModel" rx="2.5" ry="2.5" style="stroke:#E7E7E7;stroke-width:0.5;" width="259" x="2349" y="840"/><ellipse cx="2431.75" cy="856" fill="#2E5233" rx="11" ry="11" style="stroke:#E7E7E7;stroke-width:1.0;"/><path d="M2434.0938,851.6719 C2433.1563,851.2344 2432.5625,851.0938 2431.6875,851.0938 C2429.0625,851.0938 2427.0625,853.1719 2427.0625,855.8906 L2427.0625,857.0156 C2427.0625,859.5938 2429.1719,861.4844 2432.0625,861.4844 C2433.2813,861.4844 2434.4375,861.1875 2435.1875,860.6406 C2435.7656,860.2344 2436.0938,859.7813 2436.0938,859.3906 C2436.0938,858.9375 2435.7031,858.5469 2435.2344,858.5469 C2435.0156,858.5469 2434.8125,858.625 2434.625,858.8125 C2434.1719,859.2969 2434.1719,859.2969 2433.9844,859.3906 C2433.5625,859.6563 2432.875,859.7813 2432.1094,859.7813 C2430.0625,859.7813 2428.7656,858.6875 2428.7656,856.9844 L2428.7656,855.8906 C2428.7656,854.1094 2430.0156,852.7969 2431.75,852.7969 C2432.3281,852.7969 2432.9375,852.9531 2433.4063,853.2031 C2433.8906,853.4844 2434.0625,853.7031 2434.1563,854.1094 C2434.2188,854.5156 2434.25,854.6406 2434.3906,854.7656 C2434.5313,854.9063 2434.7656,855.0156 2434.9844,855.0156 C2435.25,855.0156 2435.5156,854.875 2435.6875,854.6563 C2435.7969,854.5 2435.8281,854.3125 2435.8281,853.8906 L2435.8281,852.4688 C2435.8281,852.0313 2435.8125,851.9063 2435.7188,851.75 C2435.5625,851.4844 2435.2813,851.3438 2434.9844,851.3438 C2434.6875,851.3438 2434.4844,851.4375 2434.2656,851.75 L2434.0938,851.6719 Z " fill="#FFFFFF"/><text fill="#FFFFFF" font-family="sans-serif" font-size="14" lengthAdjust="spacing" textLength="85" x="2452.25" y="860.8467">StageModel</text><line style="stroke:#E7E7E7;stroke-width:0.5;" x1="2350" x2="2607" y1="872" y2="872"/><rect fill="none" height="6" style="stroke:#C82930;stroke-width:1.0;" width="6" x="2357" y="882.6484"/><text fill="#FFFFFF" font-family="sans-serif" font-size="14" lengthAdjust="spacing" textLength="117" x="2369" y="888.9951">activeScene: int</text><line style="stroke:#E7E7E7;stroke-width:0.5;" x1="2350" x2="2607" y1="896.2969" y2="896.2969"/><ellipse cx="2360" cy="909.9453" fill="#84BE84" rx="3" ry="3" style="stroke:#038048;stroke-width:1.0;"/><text fill="#FFFFFF" font-family="sans-serif" font-size="14" lengthAdjust="spacing" textLength="233" x="2369" y="913.292">setActiveScene(scene: int): void</text></g><!--class DeckListController--><g id="elem_DeckListController"><rect codeLine="73" fill="#303030" height="113.1875" id="DeckListController" rx="2.5" ry="2.5" style="stroke:#E7E7E7;stroke-width:0.5;" width="395" x="1726" y="239"/><ellipse cx="1851.25" cy="255" fill="#2E5233" rx="11" ry="11" style="stroke:#E7E7E7;stroke-width:1.0;"/><path d="M1853.5938,250.6719 C1852.6563,250.2344 1852.0625,250.0938 1851.1875,250.0938 C1848.5625,250.0938 1846.5625,252.1719 1846.5625,254.8906 L1846.5625,256.0156 C1846.5625,258.5938 1848.6719,260.4844 1851.5625,260.4844 C1852.7813,260.4844 1853.9375,260.1875 1854.6875,259.6406 C1855.2656,259.2344 1855.5938,258.7813 1855.5938,258.3906 C1855.5938,257.9375 1855.2031,257.5469 1854.7344,257.5469 C1854.5156,257.5469 1854.3125,257.625 1854.125,257.8125 C1853.6719,258.2969 1853.6719,258.2969 1853.4844,258.3906 C1853.0625,258.6563 1852.375,258.7813 1851.6094,258.7813 C1849.5625,258.7813 1848.2656,257.6875 1848.2656,255.9844 L1848.2656,254.8906 C1848.2656,253.1094 1849.5156,251.7969 1851.25,251.7969 C1851.8281,251.7969 1852.4375,251.9531 1852.9063,252.2031 C1853.3906,252.4844 1853.5625,252.7031 1853.6563,253.1094 C1853.7188,253.5156 1853.75,253.6406 1853.8906,253.7656 C1854.0313,253.9063 1854.2656,254.0156 1854.4844,254.0156 C1854.75,254.0156 1855.0156,253.875 1855.1875,253.6563 C1855.2969,253.5 1855.3281,253.3125 1855.3281,252.8906 L1855.3281,251.4688 C1855.3281,251.0313 1855.3125,250.9063 1855.2188,250.75 C1855.0625,250.4844 1854.7813,250.3438 1854.4844,250.3438 C1854.1875,250.3438 1853.9844,250.4375 1853.7656,250.75 L1853.5938,250.6719 Z " fill="#FFFFFF"/><text fill="#FFFFFF" font-family="sans-serif" font-size="14" lengthAdjust="spacing" textLength="136" x="1871.75" y="259.8467">DeckListController</text><line style="stroke:#E7E7E7;stroke-width:0.5;" x1="1727" x2="2120" y1="271" y2="271"/><line style="stroke:#E7E7E7;stroke-width:0.5;" x1="1727" x2="2120" y1="279" y2="279"/><ellipse cx="1737" cy="292.6484" fill="#84BE84" rx="3" ry="3" style="stroke:#038048;stroke-width:1.0;"/><text fill="#FFFFFF" font-family="sans-serif" font-size="14" lengthAdjust="spacing" textLength="369" x="1746" y="295.9951">createDeck(name: String, description: String): void</text><ellipse cx="1737" cy="308.9453" fill="#84BE84" rx="3" ry="3" style="stroke:#038048;stroke-width:1.0;"/><text fill="#FFFFFF" font-family="sans-serif" font-size="14" lengthAdjust="spacing" textLength="166" x="1746" y="312.292">deleteDeck(i: int): void</text><ellipse cx="1737" cy="325.2422" fill="#84BE84" rx="3" ry="3" style="stroke:#038048;stroke-width:1.0;"/><text fill="#FFFFFF" font-family="sans-serif" font-size="14" lengthAdjust="spacing" textLength="168" x="1746" y="328.5889">exportDeck(i: int): void</text><ellipse cx="1737" cy="341.5391" fill="#84BE84" rx="3" ry="3" style="stroke:#038048;stroke-width:1.0;"/><text fill="#FFFFFF" font-family="sans-serif" font-size="14" lengthAdjust="spacing" textLength="136" x="1746" y="344.8857">importDeck(): void</text></g><!--class DeckController--><g id="elem_DeckController"><rect codeLine="80" fill="#303030" height="113.1875" id="DeckController" rx="2.5" ry="2.5" style="stroke:#E7E7E7;stroke-width:0.5;" width="360" x="502.5" y="239"/><ellipse cx="623.25" cy="255" fill="#2E5233" rx="11" ry="11" style="stroke:#E7E7E7;stroke-width:1.0;"/><path d="M625.5938,250.6719 C624.6563,250.2344 624.0625,250.0938 623.1875,250.0938 C620.5625,250.0938 618.5625,252.1719 618.5625,254.8906 L618.5625,256.0156 C618.5625,258.5938 620.6719,260.4844 623.5625,260.4844 C624.7813,260.4844 625.9375,260.1875 626.6875,259.6406 C627.2656,259.2344 627.5938,258.7813 627.5938,258.3906 C627.5938,257.9375 627.2031,257.5469 626.7344,257.5469 C626.5156,257.5469 626.3125,257.625 626.125,257.8125 C625.6719,258.2969 625.6719,258.2969 625.4844,258.3906 C625.0625,258.6563 624.375,258.7813 623.6094,258.7813 C621.5625,258.7813 620.2656,257.6875 620.2656,255.9844 L620.2656,254.8906 C620.2656,253.1094 621.5156,251.7969 623.25,251.7969 C623.8281,251.7969 624.4375,251.9531 624.9063,252.2031 C625.3906,252.4844 625.5625,252.7031 625.6563,253.1094 C625.7188,253.5156 625.75,253.6406 625.8906,253.7656 C626.0313,253.9063 626.2656,254.0156 626.4844,254.0156 C626.75,254.0156 627.0156,253.875 627.1875,253.6563 C627.2969,253.5 627.3281,253.3125 627.3281,252.8906 L627.3281,251.4688 C627.3281,251.0313 627.3125,250.9063 627.2188,250.75 C627.0625,250.4844 626.7813,250.3438 626.4844,250.3438 C626.1875,250.3438 625.9844,250.4375 625.7656,250.75 L625.5938,250.6719 Z " fill="#FFFFFF"/><text fill="#FFFFFF" font-family="sans-serif" font-size="14" lengthAdjust="spacing" textLength="110" x="643.75" y="259.8467">DeckController</text><line style="stroke:#E7E7E7;stroke-width:0.5;" x1="503.5" x2="861.5" y1="271" y2="271"/><line style="stroke:#E7E7E7;stroke-width:0.5;" x1="503.5" x2="861.5" y1="279" y2="279"/><ellipse cx="513.5" cy="292.6484" fill="#84BE84" rx="3" ry="3" style="stroke:#038048;stroke-width:1.0;"/><text fill="#FFFFFF" font-family="sans-serif" font-size="14" lengthAdjust="spacing" textLength="206" x="522.5" y="295.9951">setName(name: String): void</text><ellipse cx="513.5" cy="308.9453" fill="#84BE84" rx="3" ry="3" style="stroke:#038048;stroke-width:1.0;"/><text fill="#FFFFFF" font-family="sans-serif" font-size="14" lengthAdjust="spacing" textLength="291" x="522.5" y="312.292">setDescription(description: String): void</text><ellipse cx="513.5" cy="325.2422" fill="#84BE84" rx="3" ry="3" style="stroke:#038048;stroke-width:1.0;"/><text fill="#FFFFFF" font-family="sans-serif" font-size="14" lengthAdjust="spacing" textLength="334" x="522.5" y="328.5889">addCard(question: String, answer: String): void</text><ellipse cx="513.5" cy="341.5391" fill="#84BE84" rx="3" ry="3" style="stroke:#038048;stroke-width:1.0;"/><text fill="#FFFFFF" font-family="sans-serif" font-size="14" lengthAdjust="spacing" textLength="179" x="522.5" y="344.8857">removeCard(id: int): void</text></g><!--class CardController--><g id="elem_CardController"><rect codeLine="87" fill="#303030" height="80.5938" id="CardController" rx="2.5" ry="2.5" style="stroke:#E7E7E7;stroke-width:0.5;" width="277" x="1414" y="255"/><ellipse cx="1495.25" cy="271" fill="#2E5233" rx="11" ry="11" style="stroke:#E7E7E7;stroke-width:1.0;"/><path d="M1497.5938,266.6719 C1496.6563,266.2344 1496.0625,266.0938 1495.1875,266.0938 C1492.5625,266.0938 1490.5625,268.1719 1490.5625,270.8906 L1490.5625,272.0156 C1490.5625,274.5938 1492.6719,276.4844 1495.5625,276.4844 C1496.7813,276.4844 1497.9375,276.1875 1498.6875,275.6406 C1499.2656,275.2344 1499.5938,274.7813 1499.5938,274.3906 C1499.5938,273.9375 1499.2031,273.5469 1498.7344,273.5469 C1498.5156,273.5469 1498.3125,273.625 1498.125,273.8125 C1497.6719,274.2969 1497.6719,274.2969 1497.4844,274.3906 C1497.0625,274.6563 1496.375,274.7813 1495.6094,274.7813 C1493.5625,274.7813 1492.2656,273.6875 1492.2656,271.9844 L1492.2656,270.8906 C1492.2656,269.1094 1493.5156,267.7969 1495.25,267.7969 C1495.8281,267.7969 1496.4375,267.9531 1496.9063,268.2031 C1497.3906,268.4844 1497.5625,268.7031 1497.6563,269.1094 C1497.7188,269.5156 1497.75,269.6406 1497.8906,269.7656 C1498.0313,269.9063 1498.2656,270.0156 1498.4844,270.0156 C1498.75,270.0156 1499.0156,269.875 1499.1875,269.6563 C1499.2969,269.5 1499.3281,269.3125 1499.3281,268.8906 L1499.3281,267.4688 C1499.3281,267.0313 1499.3125,266.9063 1499.2188,266.75 C1499.0625,266.4844 1498.7813,266.3438 1498.4844,266.3438 C1498.1875,266.3438 1497.9844,266.4375 1497.7656,266.75 L1497.5938,266.6719 Z " fill="#FFFFFF"/><text fill="#FFFFFF" font-family="sans-serif" font-size="14" lengthAdjust="spacing" textLength="106" x="1515.75" y="275.8467">CardController</text><line style="stroke:#E7E7E7;stroke-width:0.5;" x1="1415" x2="1690" y1="287" y2="287"/><line style="stroke:#E7E7E7;stroke-width:0.5;" x1="1415" x2="1690" y1="295" y2="295"/><ellipse cx="1425" cy="308.6484" fill="#84BE84" rx="3" ry="3" style="stroke:#038048;stroke-width:1.0;"/><text fill="#FFFFFF" font-family="sans-serif" font-size="14" lengthAdjust="spacing" textLength="251" x="1434" y="311.9951">setQuestion(question: String): void</text><ellipse cx="1425" cy="324.9453" fill="#84BE84" rx="3" ry="3" style="stroke:#038048;stroke-width:1.0;"/><text fill="#FFFFFF" font-family="sans-serif" font-size="14" lengthAdjust="spacing" textLength="227" x="1434" y="328.292">setAnswer(answer: String): void</text></g><!--class StageController--><g id="elem_StageController"><rect codeLine="92" fill="#303030" height="96.8906" id="StageController" rx="2.5" ry="2.5" style="stroke:#E7E7E7;stroke-width:0.5;" width="259" x="2349" y="683"/><ellipse cx="2416.75" cy="699" fill="#2E5233" rx="11" ry="11" style="stroke:#E7E7E7;stroke-width:1.0;"/><path d="M2419.0938,694.6719 C2418.1563,694.2344 2417.5625,694.0938 2416.6875,694.0938 C2414.0625,694.0938 2412.0625,696.1719 2412.0625,698.8906 L2412.0625,700.0156 C2412.0625,702.5938 2414.1719,704.4844 2417.0625,704.4844 C2418.2813,704.4844 2419.4375,704.1875 2420.1875,703.6406 C2420.7656,703.2344 2421.0938,702.7813 2421.0938,702.3906 C2421.0938,701.9375 2420.7031,701.5469 2420.2344,701.5469 C2420.0156,701.5469 2419.8125,701.625 2419.625,701.8125 C2419.1719,702.2969 2419.1719,702.2969 2418.9844,702.3906 C2418.5625,702.6563 2417.875,702.7813 2417.1094,702.7813 C2415.0625,702.7813 2413.7656,701.6875 2413.7656,699.9844 L2413.7656,698.8906 C2413.7656,697.1094 2415.0156,695.7969 2416.75,695.7969 C2417.3281,695.7969 2417.9375,695.9531 2418.4063,696.2031 C2418.8906,696.4844 2419.0625,696.7031 2419.1563,697.1094 C2419.2188,697.5156 2419.25,697.6406 2419.3906,697.7656 C2419.5313,697.9063 2419.7656,698.0156 2419.9844,698.0156 C2420.25,698.0156 2420.5156,697.875 2420.6875,697.6563 C2420.7969,697.5 2420.8281,697.3125 2420.8281,696.8906 L2420.8281,695.4688 C2420.8281,695.0313 2420.8125,694.9063 2420.7188,694.75 C2420.5625,694.4844 2420.2813,694.3438 2419.9844,694.3438 C2419.6875,694.3438 2419.4844,694.4375 2419.2656,694.75 L2419.0938,694.6719 Z " fill="#FFFFFF"/><text fill="#FFFFFF" font-family="sans-serif" font-size="14" lengthAdjust="spacing" textLength="115" x="2437.25" y="703.8467">StageController</text><line style="stroke:#E7E7E7;stroke-width:0.5;" x1="2350" x2="2607" y1="715" y2="715"/><line style="stroke:#E7E7E7;stroke-width:0.5;" x1="2350" x2="2607" y1="723" y2="723"/><ellipse cx="2360" cy="736.6484" fill="#84BE84" rx="3" ry="3" style="stroke:#038048;stroke-width:1.0;"/><text fill="#FFFFFF" font-family="sans-serif" font-size="14" lengthAdjust="spacing" textLength="233" x="2369" y="739.9951">setActiveScene(scene: int): void</text><ellipse cx="2360" cy="752.9453" fill="#84BE84" rx="3" ry="3" style="stroke:#038048;stroke-width:1.0;"/><text fill="#FFFFFF" font-family="sans-serif" font-size="14" lengthAdjust="spacing" textLength="152" x="2369" y="756.292">setGlobalView(): void</text><ellipse cx="2360" cy="769.2422" fill="#84BE84" rx="3" ry="3" style="stroke:#038048;stroke-width:1.0;"/><text fill="#FFFFFF" font-family="sans-serif" font-size="14" lengthAdjust="spacing" textLength="143" x="2369" y="772.5889">setDeckView(): void</text></g><!--class Tag--><g id="elem_Tag"><rect codeLine="98" fill="#303030" height="80.5938" id="Tag" rx="2.5" ry="2.5" style="stroke:#E7E7E7;stroke-width:0.5;" width="145" x="1042" y="477"/><ellipse cx="1097.25" cy="493" fill="#2E5233" rx="11" ry="11" style="stroke:#E7E7E7;stroke-width:1.0;"/><path d="M1099.5938,488.6719 C1098.6563,488.2344 1098.0625,488.0938 1097.1875,488.0938 C1094.5625,488.0938 1092.5625,490.1719 1092.5625,492.8906 L1092.5625,494.0156 C1092.5625,496.5938 1094.6719,498.4844 1097.5625,498.4844 C1098.7813,498.4844 1099.9375,498.1875 1100.6875,497.6406 C1101.2656,497.2344 1101.5938,496.7813 1101.5938,496.3906 C1101.5938,495.9375 1101.2031,495.5469 1100.7344,495.5469 C1100.5156,495.5469 1100.3125,495.625 1100.125,495.8125 C1099.6719,496.2969 1099.6719,496.2969 1099.4844,496.3906 C1099.0625,496.6563 1098.375,496.7813 1097.6094,496.7813 C1095.5625,496.7813 1094.2656,495.6875 1094.2656,493.9844 L1094.2656,492.8906 C1094.2656,491.1094 1095.5156,489.7969 1097.25,489.7969 C1097.8281,489.7969 1098.4375,489.9531 1098.9063,490.2031 C1099.3906,490.4844 1099.5625,490.7031 1099.6563,491.1094 C1099.7188,491.5156 1099.75,491.6406 1099.8906,491.7656 C1100.0313,491.9063 1100.2656,492.0156 1100.4844,492.0156 C1100.75,492.0156 1101.0156,491.875 1101.1875,491.6563 C1101.2969,491.5 1101.3281,491.3125 1101.3281,490.8906 L1101.3281,489.4688 C1101.3281,489.0313 1101.3125,488.9063 1101.2188,488.75 C1101.0625,488.4844 1100.7813,488.3438 1100.4844,488.3438 C1100.1875,488.3438 1099.9844,488.4375 1099.7656,488.75 L1099.5938,488.6719 Z " fill="#FFFFFF"/><text fill="#FFFFFF" font-family="sans-serif" font-size="14" lengthAdjust="spacing" textLength="26" x="1117.75" y="497.8467">Tag</text><line style="stroke:#E7E7E7;stroke-width:0.5;" x1="1043" x2="1186" y1="509" y2="509"/><rect fill="none" height="6" style="stroke:#C82930;stroke-width:1.0;" width="6" x="1050" y="519.6484"/><text fill="#FFFFFF" font-family="sans-serif" font-size="14" lengthAdjust="spacing" textLength="93" x="1062" y="525.9951">name: String</text><rect fill="none" height="6" style="stroke:#C82930;stroke-width:1.0;" width="6" x="1050" y="535.9453"/><text fill="#FFFFFF" font-family="sans-serif" font-size="14" lengthAdjust="spacing" textLength="119" x="1062" y="542.292">listUsed: String[]</text><line style="stroke:#E7E7E7;stroke-width:0.5;" x1="1043" x2="1186" y1="549.5938" y2="549.5938"/></g><!--class CardTag--><g id="elem_CardTag"><rect codeLine="103" fill="#303030" height="48" id="CardTag" rx="2.5" ry="2.5" style="stroke:#E7E7E7;stroke-width:0.5;" width="91" x="1250" y="707.5"/><ellipse cx="1265" cy="723.5" fill="#2E5233" rx="11" ry="11" style="stroke:#E7E7E7;stroke-width:1.0;"/><path d="M1267.3438,719.1719 C1266.4063,718.7344 1265.8125,718.5938 1264.9375,718.5938 C1262.3125,718.5938 1260.3125,720.6719 1260.3125,723.3906 L1260.3125,724.5156 C1260.3125,727.0938 1262.4219,728.9844 1265.3125,728.9844 C1266.5313,728.9844 1267.6875,728.6875 1268.4375,728.1406 C1269.0156,727.7344 1269.3438,727.2813 1269.3438,726.8906 C1269.3438,726.4375 1268.9531,726.0469 1268.4844,726.0469 C1268.2656,726.0469 1268.0625,726.125 1267.875,726.3125 C1267.4219,726.7969 1267.4219,726.7969 1267.2344,726.8906 C1266.8125,727.1563 1266.125,727.2813 1265.3594,727.2813 C1263.3125,727.2813 1262.0156,726.1875 1262.0156,724.4844 L1262.0156,723.3906 C1262.0156,721.6094 1263.2656,720.2969 1265,720.2969 C1265.5781,720.2969 1266.1875,720.4531 1266.6563,720.7031 C1267.1406,720.9844 1267.3125,721.2031 1267.4063,721.6094 C1267.4688,722.0156 1267.5,722.1406 1267.6406,722.2656 C1267.7813,722.4063 1268.0156,722.5156 1268.2344,722.5156 C1268.5,722.5156 1268.7656,722.375 1268.9375,722.1563 C1269.0469,722 1269.0781,721.8125 1269.0781,721.3906 L1269.0781,719.9688 C1269.0781,719.5313 1269.0625,719.4063 1268.9688,719.25 C1268.8125,718.9844 1268.5313,718.8438 1268.2344,718.8438 C1267.9375,718.8438 1267.7344,718.9375 1267.5156,719.25 L1267.3438,719.1719 Z " fill="#FFFFFF"/><text fill="#FFFFFF" font-family="sans-serif" font-size="14" lengthAdjust="spacing" textLength="59" x="1279" y="728.3467">CardTag</text><line style="stroke:#E7E7E7;stroke-width:0.5;" x1="1251" x2="1340" y1="739.5" y2="739.5"/><line style="stroke:#E7E7E7;stroke-width:0.5;" x1="1251" x2="1340" y1="747.5" y2="747.5"/></g><!--class DeckTag--><g id="elem_DeckTag"><rect codeLine="106" fill="#303030" height="48" id="DeckTag" rx="2.5" ry="2.5" style="stroke:#E7E7E7;stroke-width:0.5;" width="95" x="1055" y="707.5"/><ellipse cx="1070" cy="723.5" fill="#2E5233" rx="11" ry="11" style="stroke:#E7E7E7;stroke-width:1.0;"/><path d="M1072.3438,719.1719 C1071.4063,718.7344 1070.8125,718.5938 1069.9375,718.5938 C1067.3125,718.5938 1065.3125,720.6719 1065.3125,723.3906 L1065.3125,724.5156 C1065.3125,727.0938 1067.4219,728.9844 1070.3125,728.9844 C1071.5313,728.9844 1072.6875,728.6875 1073.4375,728.1406 C1074.0156,727.7344 1074.3438,727.2813 1074.3438,726.8906 C1074.3438,726.4375 1073.9531,726.0469 1073.4844,726.0469 C1073.2656,726.0469 1073.0625,726.125 1072.875,726.3125 C1072.4219,726.7969 1072.4219,726.7969 1072.2344,726.8906 C1071.8125,727.1563 1071.125,727.2813 1070.3594,727.2813 C1068.3125,727.2813 1067.0156,726.1875 1067.0156,724.4844 L1067.0156,723.3906 C1067.0156,721.6094 1068.2656,720.2969 1070,720.2969 C1070.5781,720.2969 1071.1875,720.4531 1071.6563,720.7031 C1072.1406,720.9844 1072.3125,721.2031 1072.4063,721.6094 C1072.4688,722.0156 1072.5,722.1406 1072.6406,722.2656 C1072.7813,722.4063 1073.0156,722.5156 1073.2344,722.5156 C1073.5,722.5156 1073.7656,722.375 1073.9375,722.1563 C1074.0469,722 1074.0781,721.8125 1074.0781,721.3906 L1074.0781,719.9688 C1074.0781,719.5313 1074.0625,719.4063 1073.9688,719.25 C1073.8125,718.9844 1073.5313,718.8438 1073.2344,718.8438 C1072.9375,718.8438 1072.7344,718.9375 1072.5156,719.25 L1072.3438,719.1719 Z " fill="#FFFFFF"/><text fill="#FFFFFF" font-family="sans-serif" font-size="14" lengthAdjust="spacing" textLength="63" x="1084" y="728.3467">DeckTag</text><line style="stroke:#E7E7E7;stroke-width:0.5;" x1="1056" x2="1149" y1="739.5" y2="739.5"/><line style="stroke:#E7E7E7;stroke-width:0.5;" x1="1056" x2="1149" y1="747.5" y2="747.5"/></g><!--class DrawCardStrategy--><g id="elem_DrawCardStrategy"><rect codeLine="109" fill="#303030" height="80.5938" id="DrawCardStrategy" rx="2.5" ry="2.5" style="stroke:#E7E7E7;stroke-width:0.5;" width="253" x="638" y="691"/><ellipse cx="694.75" cy="707" fill="#352866" rx="11" ry="11" style="stroke:#E7E7E7;stroke-width:1.0;"/><path d="M695.7031,703.7813 L697.4219,703.7813 C697.8125,703.7813 698,703.75 698.125,703.6719 C698.3906,703.5156 698.5313,703.2344 698.5313,702.9375 C698.5313,702.6719 698.4219,702.4063 698.1875,702.2344 C698.0156,702.125 697.875,702.0938 697.4219,702.0938 L692.2813,702.0938 C691.8438,702.0938 691.7188,702.1094 691.5625,702.2031 C691.3125,702.3594 691.1563,702.6563 691.1563,702.9375 C691.1563,703.2188 691.2969,703.4688 691.5156,703.6406 C691.6719,703.75 691.8594,703.7813 692.2813,703.7813 L694,703.7813 L694,710.2969 L692.2813,710.2969 C691.8438,710.2969 691.7188,710.3125 691.5625,710.4219 C691.3125,710.5781 691.1563,710.8594 691.1563,711.1563 C691.1563,711.4063 691.2969,711.6719 691.5156,711.8281 C691.6719,711.9531 691.875,712 692.2813,712 L697.4219,712 C698.1719,712 698.5313,711.7188 698.5313,711.1563 C698.5313,710.875 698.4219,710.625 698.1875,710.4531 C698.0156,710.3281 697.875,710.2969 697.4219,710.2969 L695.7031,710.2969 L695.7031,703.7813 Z " fill="#FFFFFF"/><text fill="#FFFFFF" font-family="sans-serif" font-size="14" font-style="italic" lengthAdjust="spacing" textLength="131" x="715.25" y="711.8467">DrawCardStrategy</text><line style="stroke:#E7E7E7;stroke-width:0.5;" x1="639" x2="890" y1="723" y2="723"/><line style="stroke:#E7E7E7;stroke-width:0.5;" x1="639" x2="890" y1="731" y2="731"/><ellipse cx="649" cy="744.6484" fill="#84BE84" rx="3" ry="3" style="stroke:#038048;stroke-width:1.0;"/><text fill="#FFFFFF" font-family="sans-serif" font-size="14" lengthAdjust="spacing" textLength="227" x="658" y="747.9951">handleAnswer(answer: boolean)</text><ellipse cx="649" cy="760.9453" fill="#84BE84" rx="3" ry="3" style="stroke:#038048;stroke-width:1.0;"/><text fill="#FFFFFF" font-family="sans-serif" font-size="14" lengthAdjust="spacing" textLength="76" x="658" y="764.292">nextCard()</text></g><!--class BuildCardStrategy--><g id="elem_BuildCardStrategy"><rect codeLine="114" fill="#303030" height="64.2969" id="BuildCardStrategy" rx="2.5" ry="2.5" style="stroke:#E7E7E7;stroke-width:0.5;" width="162" x="293.5" y="699.5"/><ellipse cx="308.5" cy="715.5" fill="#352866" rx="11" ry="11" style="stroke:#E7E7E7;stroke-width:1.0;"/><path d="M309.4531,712.2813 L311.1719,712.2813 C311.5625,712.2813 311.75,712.25 311.875,712.1719 C312.1406,712.0156 312.2813,711.7344 312.2813,711.4375 C312.2813,711.1719 312.1719,710.9063 311.9375,710.7344 C311.7656,710.625 311.625,710.5938 311.1719,710.5938 L306.0313,710.5938 C305.5938,710.5938 305.4688,710.6094 305.3125,710.7031 C305.0625,710.8594 304.9063,711.1563 304.9063,711.4375 C304.9063,711.7188 305.0469,711.9688 305.2656,712.1406 C305.4219,712.25 305.6094,712.2813 306.0313,712.2813 L307.75,712.2813 L307.75,718.7969 L306.0313,718.7969 C305.5938,718.7969 305.4688,718.8125 305.3125,718.9219 C305.0625,719.0781 304.9063,719.3594 304.9063,719.6563 C304.9063,719.9063 305.0469,720.1719 305.2656,720.3281 C305.4219,720.4531 305.625,720.5 306.0313,720.5 L311.1719,720.5 C311.9219,720.5 312.2813,720.2188 312.2813,719.6563 C312.2813,719.375 312.1719,719.125 311.9375,718.9531 C311.7656,718.8281 311.625,718.7969 311.1719,718.7969 L309.4531,718.7969 L309.4531,712.2813 Z " fill="#FFFFFF"/><text fill="#FFFFFF" font-family="sans-serif" font-size="14" font-style="italic" lengthAdjust="spacing" textLength="130" x="322.5" y="720.3467">BuildCardStrategy</text><line style="stroke:#E7E7E7;stroke-width:0.5;" x1="294.5" x2="454.5" y1="731.5" y2="731.5"/><line style="stroke:#E7E7E7;stroke-width:0.5;" x1="294.5" x2="454.5" y1="739.5" y2="739.5"/><ellipse cx="304.5" cy="753.1484" fill="#84BE84" rx="3" ry="3" style="stroke:#038048;stroke-width:1.0;"/><text fill="#FFFFFF" font-family="sans-serif" font-size="14" lengthAdjust="spacing" textLength="78" x="313.5" y="756.4951">buildCard()</text></g><!--class BuildCardStrategyTheme1--><g id="elem_BuildCardStrategyTheme1"><rect codeLine="118" fill="#303030" height="48" id="BuildCardStrategyTheme1" rx="2.5" ry="2.5" style="stroke:#E7E7E7;stroke-width:0.5;" width="222" x="263.5" y="856.5"/><ellipse cx="278.5" cy="872.5" fill="#2E5233" rx="11" ry="11" style="stroke:#E7E7E7;stroke-width:1.0;"/><path d="M280.8438,868.1719 C279.9063,867.7344 279.3125,867.5938 278.4375,867.5938 C275.8125,867.5938 273.8125,869.6719 273.8125,872.3906 L273.8125,873.5156 C273.8125,876.0938 275.9219,877.9844 278.8125,877.9844 C280.0313,877.9844 281.1875,877.6875 281.9375,877.1406 C282.5156,876.7344 282.8438,876.2813 282.8438,875.8906 C282.8438,875.4375 282.4531,875.0469 281.9844,875.0469 C281.7656,875.0469 281.5625,875.125 281.375,875.3125 C280.9219,875.7969 280.9219,875.7969 280.7344,875.8906 C280.3125,876.1563 279.625,876.2813 278.8594,876.2813 C276.8125,876.2813 275.5156,875.1875 275.5156,873.4844 L275.5156,872.3906 C275.5156,870.6094 276.7656,869.2969 278.5,869.2969 C279.0781,869.2969 279.6875,869.4531 280.1563,869.7031 C280.6406,869.9844 280.8125,870.2031 280.9063,870.6094 C280.9688,871.0156 281,871.1406 281.1406,871.2656 C281.2813,871.4063 281.5156,871.5156 281.7344,871.5156 C282,871.5156 282.2656,871.375 282.4375,871.1563 C282.5469,871 282.5781,870.8125 282.5781,870.3906 L282.5781,868.9688 C282.5781,868.5313 282.5625,868.4063 282.4688,868.25 C282.3125,867.9844 282.0313,867.8438 281.7344,867.8438 C281.4375,867.8438 281.2344,867.9375 281.0156,868.25 L280.8438,868.1719 Z " fill="#FFFFFF"/><text fill="#FFFFFF" font-family="sans-serif" font-size="14" lengthAdjust="spacing" textLength="190" x="292.5" y="877.3467">BuildCardStrategyTheme1</text><line style="stroke:#E7E7E7;stroke-width:0.5;" x1="264.5" x2="484.5" y1="888.5" y2="888.5"/><line style="stroke:#E7E7E7;stroke-width:0.5;" x1="264.5" x2="484.5" y1="896.5" y2="896.5"/></g><!--class BuildCardStrategyTheme2--><g id="elem_BuildCardStrategyTheme2"><rect codeLine="121" fill="#303030" height="48" id="BuildCardStrategyTheme2" rx="2.5" ry="2.5" style="stroke:#E7E7E7;stroke-width:0.5;" width="221" x="7" y="856.5"/><ellipse cx="22" cy="872.5" fill="#2E5233" rx="11" ry="11" style="stroke:#E7E7E7;stroke-width:1.0;"/><path d="M24.3438,868.1719 C23.4063,867.7344 22.8125,867.5938 21.9375,867.5938 C19.3125,867.5938 17.3125,869.6719 17.3125,872.3906 L17.3125,873.5156 C17.3125,876.0938 19.4219,877.9844 22.3125,877.9844 C23.5313,877.9844 24.6875,877.6875 25.4375,877.1406 C26.0156,876.7344 26.3438,876.2813 26.3438,875.8906 C26.3438,875.4375 25.9531,875.0469 25.4844,875.0469 C25.2656,875.0469 25.0625,875.125 24.875,875.3125 C24.4219,875.7969 24.4219,875.7969 24.2344,875.8906 C23.8125,876.1563 23.125,876.2813 22.3594,876.2813 C20.3125,876.2813 19.0156,875.1875 19.0156,873.4844 L19.0156,872.3906 C19.0156,870.6094 20.2656,869.2969 22,869.2969 C22.5781,869.2969 23.1875,869.4531 23.6563,869.7031 C24.1406,869.9844 24.3125,870.2031 24.4063,870.6094 C24.4688,871.0156 24.5,871.1406 24.6406,871.2656 C24.7813,871.4063 25.0156,871.5156 25.2344,871.5156 C25.5,871.5156 25.7656,871.375 25.9375,871.1563 C26.0469,871 26.0781,870.8125 26.0781,870.3906 L26.0781,868.9688 C26.0781,868.5313 26.0625,868.4063 25.9688,868.25 C25.8125,867.9844 25.5313,867.8438 25.2344,867.8438 C24.9375,867.8438 24.7344,867.9375 24.5156,868.25 L24.3438,868.1719 Z " fill="#FFFFFF"/><text fill="#FFFFFF" font-family="sans-serif" font-size="14" lengthAdjust="spacing" textLength="189" x="36" y="877.3467">BuildCardStrategyTheme2</text><line style="stroke:#E7E7E7;stroke-width:0.5;" x1="8" x2="227" y1="888.5" y2="888.5"/><line style="stroke:#E7E7E7;stroke-width:0.5;" x1="8" x2="227" y1="896.5" y2="896.5"/></g><!--class DrawCardStrategyRandom--><g id="elem_DrawCardStrategyRandom"><rect codeLine="124" fill="#303030" height="48" id="DrawCardStrategyRandom" rx="2.5" ry="2.5" style="stroke:#E7E7E7;stroke-width:0.5;" width="223" x="521" y="856.5"/><ellipse cx="536" cy="872.5" fill="#2E5233" rx="11" ry="11" style="stroke:#E7E7E7;stroke-width:1.0;"/><path d="M538.3438,868.1719 C537.4063,867.7344 536.8125,867.5938 535.9375,867.5938 C533.3125,867.5938 531.3125,869.6719 531.3125,872.3906 L531.3125,873.5156 C531.3125,876.0938 533.4219,877.9844 536.3125,877.9844 C537.5313,877.9844 538.6875,877.6875 539.4375,877.1406 C540.0156,876.7344 540.3438,876.2813 540.3438,875.8906 C540.3438,875.4375 539.9531,875.0469 539.4844,875.0469 C539.2656,875.0469 539.0625,875.125 538.875,875.3125 C538.4219,875.7969 538.4219,875.7969 538.2344,875.8906 C537.8125,876.1563 537.125,876.2813 536.3594,876.2813 C534.3125,876.2813 533.0156,875.1875 533.0156,873.4844 L533.0156,872.3906 C533.0156,870.6094 534.2656,869.2969 536,869.2969 C536.5781,869.2969 537.1875,869.4531 537.6563,869.7031 C538.1406,869.9844 538.3125,870.2031 538.4063,870.6094 C538.4688,871.0156 538.5,871.1406 538.6406,871.2656 C538.7813,871.4063 539.0156,871.5156 539.2344,871.5156 C539.5,871.5156 539.7656,871.375 539.9375,871.1563 C540.0469,871 540.0781,870.8125 540.0781,870.3906 L540.0781,868.9688 C540.0781,868.5313 540.0625,868.4063 539.9688,868.25 C539.8125,867.9844 539.5313,867.8438 539.2344,867.8438 C538.9375,867.8438 538.7344,867.9375 538.5156,868.25 L538.3438,868.1719 Z " fill="#FFFFFF"/><text fill="#FFFFFF" font-family="sans-serif" font-size="14" lengthAdjust="spacing" textLength="191" x="550" y="877.3467">DrawCardStrategyRandom</text><line style="stroke:#E7E7E7;stroke-width:0.5;" x1="522" x2="743" y1="888.5" y2="888.5"/><line style="stroke:#E7E7E7;stroke-width:0.5;" x1="522" x2="743" y1="896.5" y2="896.5"/></g><!--class DrawCardStrategyWeighted--><g id="elem_DrawCardStrategyWeighted"><rect codeLine="127" fill="#303030" height="48" id="DrawCardStrategyWeighted" rx="2.5" ry="2.5" style="stroke:#E7E7E7;stroke-width:0.5;" width="234" x="779.5" y="856.5"/><ellipse cx="794.5" cy="872.5" fill="#2E5233" rx="11" ry="11" style="stroke:#E7E7E7;stroke-width:1.0;"/><path d="M796.8438,868.1719 C795.9063,867.7344 795.3125,867.5938 794.4375,867.5938 C791.8125,867.5938 789.8125,869.6719 789.8125,872.3906 L789.8125,873.5156 C789.8125,876.0938 791.9219,877.9844 794.8125,877.9844 C796.0313,877.9844 797.1875,877.6875 797.9375,877.1406 C798.5156,876.7344 798.8438,876.2813 798.8438,875.8906 C798.8438,875.4375 798.4531,875.0469 797.9844,875.0469 C797.7656,875.0469 797.5625,875.125 797.375,875.3125 C796.9219,875.7969 796.9219,875.7969 796.7344,875.8906 C796.3125,876.1563 795.625,876.2813 794.8594,876.2813 C792.8125,876.2813 791.5156,875.1875 791.5156,873.4844 L791.5156,872.3906 C791.5156,870.6094 792.7656,869.2969 794.5,869.2969 C795.0781,869.2969 795.6875,869.4531 796.1563,869.7031 C796.6406,869.9844 796.8125,870.2031 796.9063,870.6094 C796.9688,871.0156 797,871.1406 797.1406,871.2656 C797.2813,871.4063 797.5156,871.5156 797.7344,871.5156 C798,871.5156 798.2656,871.375 798.4375,871.1563 C798.5469,871 798.5781,870.8125 798.5781,870.3906 L798.5781,868.9688 C798.5781,868.5313 798.5625,868.4063 798.4688,868.25 C798.3125,867.9844 798.0313,867.8438 797.7344,867.8438 C797.4375,867.8438 797.2344,867.9375 797.0156,868.25 L796.8438,868.1719 Z " fill="#FFFFFF"/><text fill="#FFFFFF" font-family="sans-serif" font-size="14" lengthAdjust="spacing" textLength="202" x="808.5" y="877.3467">DrawCardStrategyWeighted</text><line style="stroke:#E7E7E7;stroke-width:0.5;" x1="780.5" x2="1012.5" y1="888.5" y2="888.5"/><line style="stroke:#E7E7E7;stroke-width:0.5;" x1="780.5" x2="1012.5" y1="896.5" y2="896.5"/></g><!--class DrawCardStrategyTime--><g id="elem_DrawCardStrategyTime"><rect codeLine="130" fill="#303030" height="48" id="DrawCardStrategyTime" rx="2.5" ry="2.5" style="stroke:#E7E7E7;stroke-width:0.5;" width="200" x="1048.5" y="856.5"/><ellipse cx="1063.5" cy="872.5" fill="#2E5233" rx="11" ry="11" style="stroke:#E7E7E7;stroke-width:1.0;"/><path d="M1065.8438,868.1719 C1064.9063,867.7344 1064.3125,867.5938 1063.4375,867.5938 C1060.8125,867.5938 1058.8125,869.6719 1058.8125,872.3906 L1058.8125,873.5156 C1058.8125,876.0938 1060.9219,877.9844 1063.8125,877.9844 C1065.0313,877.9844 1066.1875,877.6875 1066.9375,877.1406 C1067.5156,876.7344 1067.8438,876.2813 1067.8438,875.8906 C1067.8438,875.4375 1067.4531,875.0469 1066.9844,875.0469 C1066.7656,875.0469 1066.5625,875.125 1066.375,875.3125 C1065.9219,875.7969 1065.9219,875.7969 1065.7344,875.8906 C1065.3125,876.1563 1064.625,876.2813 1063.8594,876.2813 C1061.8125,876.2813 1060.5156,875.1875 1060.5156,873.4844 L1060.5156,872.3906 C1060.5156,870.6094 1061.7656,869.2969 1063.5,869.2969 C1064.0781,869.2969 1064.6875,869.4531 1065.1563,869.7031 C1065.6406,869.9844 1065.8125,870.2031 1065.9063,870.6094 C1065.9688,871.0156 1066,871.1406 1066.1406,871.2656 C1066.2813,871.4063 1066.5156,871.5156 1066.7344,871.5156 C1067,871.5156 1067.2656,871.375 1067.4375,871.1563 C1067.5469,871 1067.5781,870.8125 1067.5781,870.3906 L1067.5781,868.9688 C1067.5781,868.5313 1067.5625,868.4063 1067.4688,868.25 C1067.3125,867.9844 1067.0313,867.8438 1066.7344,867.8438 C1066.4375,867.8438 1066.2344,867.9375 1066.0156,868.25 L1065.8438,868.1719 Z " fill="#FFFFFF"/><text fill="#FFFFFF" font-family="sans-serif" font-size="14" lengthAdjust="spacing" textLength="168" x="1077.5" y="877.3467">DrawCardStrategyTime</text><line style="stroke:#E7E7E7;stroke-width:0.5;" x1="1049.5" x2="1247.5" y1="888.5" y2="888.5"/><line style="stroke:#E7E7E7;stroke-width:0.5;" x1="1049.5" x2="1247.5" y1="896.5" y2="896.5"/></g><!--reverse link Observer to CardObserver--><g id="link_Observer_CardObserver"><path d="M1719.01,77.459 C1680.63,95.099 1636.08,115.581 1602.72,130.916 " fill="none" id="Observer-backto-CardObserver" style="stroke:#E7E7E7;stroke-width:1.0;stroke-dasharray:7.0,7.0;"/><polygon fill="none" points="1716.18,71.055,1737.28,69.062,1722.03,83.776,1716.18,71.055" style="stroke:#E7E7E7;stroke-width:1.0;"/></g><!--reverse link Observer to DeckObserver--><g id="link_Observer_DeckObserver"><path d="M1717.31,53.588 C1577.24,76.464 1297.11,122.216 1169.09,143.124 " fill="none" id="Observer-backto-DeckObserver" style="stroke:#E7E7E7;stroke-width:1.0;stroke-dasharray:7.0,7.0;"/><polygon fill="none" points="1716.46,46.633,1737.33,50.318,1718.72,60.45,1716.46,46.633" style="stroke:#E7E7E7;stroke-width:1.0;"/></g><!--reverse link Observer to DeckListObserver--><g id="link_Observer_DeckListObserver"><path d="M1881.99,77.459 C1920.37,95.099 1964.92,115.581 1998.28,130.916 " fill="none" id="Observer-backto-DeckListObserver" style="stroke:#E7E7E7;stroke-width:1.0;stroke-dasharray:7.0,7.0;"/><polygon fill="none" points="1878.97,83.776,1863.72,69.062,1884.82,71.055,1878.97,83.776" style="stroke:#E7E7E7;stroke-width:1.0;"/></g><!--reverse link Observer to StageObserver--><g id="link_Observer_StageObserver"><path d="M1883.76,51.97 C2040.92,74.563 2378.54,123.097 2524.23,144.042 " fill="none" id="Observer-backto-StageObserver" style="stroke:#E7E7E7;stroke-width:1.0;stroke-dasharray:7.0,7.0;"/><polygon fill="none" points="1882.52,58.863,1863.72,49.088,1884.51,45.006,1882.52,58.863" style="stroke:#E7E7E7;stroke-width:1.0;"/></g><!--reverse link DeckListObserver to GlobalView--><g id="link_DeckListObserver_GlobalView"><path d="M2103.94,189.847 C2126.4,204.237 2152.23,221.676 2174.5,239 C2261.92,307.013 2354.93,394.396 2414.7,452.76 " fill="none" id="DeckListObserver-backto-GlobalView" style="stroke:#E7E7E7;stroke-width:1.0;"/><polygon fill="none" points="2099.96,195.614,2086.79,179.02,2107.44,183.775,2099.96,195.614" style="stroke:#E7E7E7;stroke-width:1.0;"/></g><!--reverse link DeckObserver to DeckView--><g id="link_DeckObserver_DeckView"><path d="M1167.3,188.571 C1194.52,203.03 1226.16,220.863 1253.5,239 C1321,283.775 1321.6,321.14 1396.5,352 C1615.27,442.144 1700.94,337.415 1925.5,412 C1955.21,421.868 1985.4,437.098 2012.31,452.906 " fill="none" id="DeckObserver-backto-DeckView" style="stroke:#E7E7E7;stroke-width:1.0;"/><polygon fill="none" points="1163.74,194.609,1149.26,179.138,1170.22,182.203,1163.74,194.609" style="stroke:#E7E7E7;stroke-width:1.0;"/></g><!--reverse link StageObserver to StageView--><g id="link_StageObserver_StageView"><path d="M2561.43,194.624 C2540.98,219.25 2515.16,250.345 2497.81,271.243 " fill="none" id="StageObserver-backto-StageView" style="stroke:#E7E7E7;stroke-width:1.0;"/><polygon fill="none" points="2556.09,190.097,2574.25,179.182,2566.86,199.041,2556.09,190.097" style="stroke:#E7E7E7;stroke-width:1.0;"/></g><!--reverse link Observed to DeckListModel--><g id="link_Observed_DeckListModel"><path d="M1231.7,342.287 C1242.42,345.704 1253.12,348.988 1263.5,352 C1374.49,384.204 1408.03,372.142 1516.5,412 C1558.31,427.363 1602.59,449.167 1639.25,468.887 " fill="none" id="Observed-backto-DeckListModel" style="stroke:#E7E7E7;stroke-width:1.0;"/><polygon fill="none" points="1229.31,348.871,1212.46,336.024,1233.65,335.558,1229.31,348.871" style="stroke:#E7E7E7;stroke-width:1.0;"/></g><!--reverse link Observed to DeckModel--><g id="link_Observed_DeckModel"><path d="M1015.91,346.24 C981.897,365.776 941.502,388.979 901.648,411.872 " fill="none" id="Observed-backto-DeckModel" style="stroke:#E7E7E7;stroke-width:1.0;"/><polygon fill="none" points="1012.76,339.978,1033.58,336.086,1019.73,352.117,1012.76,339.978" style="stroke:#E7E7E7;stroke-width:1.0;"/></g><!--reverse link Observed to CardModel--><g id="link_Observed_CardModel"><path d="M1164.42,349.299 C1200.92,380.425 1247.35,420.018 1285.87,452.862 " fill="none" id="Observed-backto-CardModel" style="stroke:#E7E7E7;stroke-width:1.0;"/><polygon fill="none" points="1159.6,354.389,1148.92,336.086,1168.68,343.736,1159.6,354.389" style="stroke:#E7E7E7;stroke-width:1.0;"/></g><!--reverse link Observed to StageModel--><g id="link_Observed_StageModel"><path d="M1055.07,352.39 C1042.65,370.293 1030.94,390.96 1024.5,412 C976.607,568.493 920.988,665.071 1037.5,780 C1129.75,870.9963 2012.36,879.9159 2348.96,879.9758 " fill="none" id="Observed-backto-StageModel" style="stroke:#E7E7E7;stroke-width:1.0;"/><polygon fill="none" points="1049.54,348.091,1067.04,336.149,1060.81,356.4,1049.54,348.091" style="stroke:#E7E7E7;stroke-width:1.0;"/></g><!--reverse link Tag to CardTag--><g id="link_Tag_CardTag"><path d="M1161.59,573.651 C1198.74,617.163 1248.68,675.656 1275.86,707.496 " fill="none" id="Tag-backto-CardTag" style="stroke:#E7E7E7;stroke-width:1.0;"/><polygon fill="none" points="1156.21,578.131,1148.54,558.376,1166.85,569.041,1156.21,578.131" style="stroke:#E7E7E7;stroke-width:1.0;"/></g><!--reverse link Tag to DeckTag--><g id="link_Tag_DeckTag"><path d="M1111.1,578.578 C1108.67,621.488 1105.54,676.843 1103.8,707.496 " fill="none" id="Tag-backto-DeckTag" style="stroke:#E7E7E7;stroke-width:1.0;"/><polygon fill="none" points="1104.12,577.948,1112.24,558.376,1118.1,578.739,1104.12,577.948" style="stroke:#E7E7E7;stroke-width:1.0;"/></g><!--reverse link BuildCardStrategy to BuildCardStrategyTheme1--><g id="link_BuildCardStrategy_BuildCardStrategyTheme1"><path d="M374.5,784.017 C374.5,808.577 374.5,836.7439 374.5,856.0855 " fill="none" id="BuildCardStrategy-backto-BuildCardStrategyTheme1" style="stroke:#E7E7E7;stroke-width:1.0;stroke-dasharray:7.0,7.0;"/><polygon fill="none" points="367.5,783.675,374.5,763.675,381.5,783.675,367.5,783.675" style="stroke:#E7E7E7;stroke-width:1.0;"/></g><!--reverse link BuildCardStrategy to BuildCardStrategyTheme2--><g id="link_BuildCardStrategy_BuildCardStrategyTheme2"><path d="M302.462,773.705 C255.783,800.404 196.697,834.2008 158.036,856.3139 " fill="none" id="BuildCardStrategy-backto-BuildCardStrategyTheme2" style="stroke:#E7E7E7;stroke-width:1.0;stroke-dasharray:7.0,7.0;"/><polygon fill="none" points="299.161,767.529,319.997,763.675,306.112,779.681,299.161,767.529" style="stroke:#E7E7E7;stroke-width:1.0;"/></g><!--reverse link DrawCardStrategy to DrawCardStrategyRandom--><g id="link_DrawCardStrategy_DrawCardStrategyRandom"><path d="M715.208,787.394 C693.853,811.175 670,837.739 653.418,856.2049 " fill="none" id="DrawCardStrategy-backto-DrawCardStrategyRandom" style="stroke:#E7E7E7;stroke-width:1.0;stroke-dasharray:7.0,7.0;"/><polygon fill="none" points="710.208,782.484,728.779,772.28,720.625,791.838,710.208,782.484" style="stroke:#E7E7E7;stroke-width:1.0;"/></g><!--reverse link DrawCardStrategy to DrawCardStrategyWeighted--><g id="link_DrawCardStrategy_DrawCardStrategyWeighted"><path d="M813.792,787.394 C835.147,811.175 859,837.739 875.582,856.2049 " fill="none" id="DrawCardStrategy-backto-DrawCardStrategyWeighted" style="stroke:#E7E7E7;stroke-width:1.0;stroke-dasharray:7.0,7.0;"/><polygon fill="none" points="808.375,791.838,800.221,772.28,818.792,782.484,808.375,791.838" style="stroke:#E7E7E7;stroke-width:1.0;"/></g><!--reverse link DrawCardStrategy to DrawCardStrategyTime--><g id="link_DrawCardStrategy_DrawCardStrategyTime"><path d="M886.944,779.373 C954.18,805.112 1034.57,835.8878 1088.32,856.4632 " fill="none" id="DrawCardStrategy-backto-DrawCardStrategyTime" style="stroke:#E7E7E7;stroke-width:1.0;stroke-dasharray:7.0,7.0;"/><polygon fill="none" points="884.086,785.774,867.91,772.087,889.091,772.7,884.086,785.774" style="stroke:#E7E7E7;stroke-width:1.0;"/></g><!--link CardObserver to CardModel--><g id="link_CardObserver_CardModel"><path codeLine="133" d="M1486.92,174.963 C1454.53,187.766 1417.89,208.099 1396.5,239 C1352.95,301.915 1349.36,392.453 1353.05,452.81 " fill="none" id="CardObserver-CardModel" style="stroke:#E7E7E7;stroke-width:1.0;"/></g><!--link DeckObserver to DeckModel--><g id="link_DeckObserver_DeckModel"><path codeLine="134" d="M1044.6,179.07 C1014.17,193.184 977.657,213.456 950.5,239 C907.296,279.638 916.158,305.372 879.5,352 C863.618,372.201 845.582,392.666 827.486,411.978 " fill="none" id="DeckObserver-DeckModel" style="stroke:#E7E7E7;stroke-width:1.0;"/></g><!--link DeckListObserver to DeckListModel--><g id="link_DeckListObserver_DeckListModel"><path codeLine="135" d="M2085.78,179.151 C2105.43,193.655 2127.67,214.275 2138.5,239 C2158.65,285.001 2168.79,311.943 2138.5,352 C2079.43,430.103 2017.67,376.26 1926.5,412 C1885.59,428.038 1841.99,449.588 1805.56,468.951 " fill="none" id="DeckListObserver-DeckListModel" style="stroke:#E7E7E7;stroke-width:1.0;"/></g><!--link StageObserver to StageModel--><g id="link_StageObserver_StageModel"><path codeLine="136" d="M2629.91,179.337 C2649.8,194.033 2673.05,214.783 2686.5,239 C2769.61,388.658 2760.95,457.684 2716.5,623 C2695.56,700.886 2680.51,721.017 2625.5,780 C2603.96,803.101 2576.1,823.6544 2550.44,839.9967 " fill="none" id="StageObserver-StageModel" style="stroke:#E7E7E7;stroke-width:1.0;"/></g><!--link CardObserver to CardController--><g id="link_CardObserver_CardController"><path codeLine="138" d="M1552.5,179.182 C1552.5,199.82 1552.5,230.448 1552.5,254.953 " fill="none" id="CardObserver-CardController" style="stroke:#E7E7E7;stroke-width:1.0;"/></g><!--link DeckObserver to DeckController--><g id="link_DeckObserver_DeckController"><path codeLine="139" d="M1035.95,177.946 C986.219,194.345 915.929,217.524 851.115,238.897 " fill="none" id="DeckObserver-DeckController" style="stroke:#E7E7E7;stroke-width:1.0;"/></g><!--link DeckListObserver to DeckListController--><g id="link_DeckListObserver_DeckListController"><path codeLine="140" d="M2027.58,179.182 C2012.84,195.507 1992.47,218.084 1973.65,238.937 " fill="none" id="DeckListObserver-DeckListController" style="stroke:#E7E7E7;stroke-width:1.0;"/></g><!--link StageObserver to StageController--><g id="link_StageObserver_StageController"><path codeLine="141" d="M2607.58,179.088 C2649.23,250.612 2763.48,472.712 2674.5,623 C2658.98,649.215 2634.55,669.462 2608.13,684.934 " fill="none" id="StageObserver-StageController" style="stroke:#E7E7E7;stroke-width:1.0;"/></g><!--link CardController to CardModel--><g id="link_CardController_CardModel"><path codeLine="143" d="M1517.95,336.086 C1489.67,368.498 1449.1,414.981 1416.23,452.646 " fill="none" id="CardController-CardModel" style="stroke:#E7E7E7;stroke-width:1.0;"/></g><!--link DeckController to DeckModel--><g id="link_DeckController_DeckModel"><path codeLine="144" d="M691.837,352.015 C694.898,370.218 698.407,391.084 701.875,411.705 " fill="none" id="DeckController-DeckModel" style="stroke:#E7E7E7;stroke-width:1.0;"/></g><!--link DeckListController to DeckListModel--><g id="link_DeckListController_DeckListModel"><path codeLine="145" d="M1872.53,352.015 C1839.45,388.039 1796.8,434.492 1765.26,468.84 " fill="none" id="DeckListController-DeckListModel" style="stroke:#E7E7E7;stroke-width:1.0;"/></g><!--link StageController to StageModel--><g id="link_StageController_StageModel"><path codeLine="146" d="M2478.5,780.227 C2478.5,799.509 2478.5,821.4999 2478.5,839.8755 " fill="none" id="StageController-StageModel" style="stroke:#E7E7E7;stroke-width:1.0;"/></g><!--link DeckModel to DrawCardStrategy--><g id="link_DeckModel_DrawCardStrategy"><path codeLine="148" d="M741.736,623.258 C746.851,647.355 751.985,671.538 756.078,690.825 " fill="none" id="DeckModel-DrawCardStrategy" style="stroke:#E7E7E7;stroke-width:1.0;"/></g><!--link DeckModel to BuildCardStrategy--><g id="link_DeckModel_BuildCardStrategy"><path codeLine="149" d="M549.274,623.103 C503.904,650.982 458.325,678.99 425.092,699.411 " fill="none" id="DeckModel-BuildCardStrategy" style="stroke:#E7E7E7;stroke-width:1.0;"/></g><!--link GlobalView to StageController--><g id="link_GlobalView_StageController"><path codeLine="151" d="M2478.5,582.107 C2478.5,614.428 2478.5,653.044 2478.5,682.781 " fill="none" id="GlobalView-StageController" style="stroke:#E7E7E7;stroke-width:1.0;"/></g><!--link DeckView to StageController--><g id="link_DeckView_StageController"><path codeLine="152" d="M2211.51,582.004 C2234.84,595.656 2259.44,609.91 2282.5,623 C2317.6,642.924 2356.53,664.402 2390.38,682.882 " fill="none" id="DeckView-StageController" style="stroke:#E7E7E7;stroke-width:1.0;"/></g><!--link StageView to DeckView--><g id="link_StageView_DeckView"><path codeLine="154" d="M2439.18,319.628 C2385.92,350.959 2288.77,408.105 2212.81,452.788 " fill="none" id="StageView-DeckView" style="stroke:#E7E7E7;stroke-width:1.0;"/></g><!--link StageView to GlobalView--><g id="link_StageView_GlobalView"><path codeLine="155" d="M2478.5,319.628 C2478.5,350.959 2478.5,408.105 2478.5,452.788 " fill="none" id="StageView-GlobalView" style="stroke:#E7E7E7;stroke-width:1.0;"/></g><!--link CardModel to CardTag--><g id="link_CardModel_CardTag"><path codeLine="157" d="M1341,582.107 C1328.02,624.429 1311.74,677.545 1302.59,707.385 " fill="none" id="CardModel-CardTag" style="stroke:#E7E7E7;stroke-width:1.0;"/></g><!--link DeckModel to DeckTag--><g id="link_DeckModel_DeckTag"><path codeLine="158" d="M908.475,623.103 C965.822,654.845 1023.47,686.755 1060.85,707.444 " fill="none" id="DeckModel-DeckTag" style="stroke:#E7E7E7;stroke-width:1.0;"/></g><!--SRC=[jLPDRnCn4Btlh_1n8ze377ChhSIbWA013eY3ivua5buxs4xIgkA_OsTtlVwOV5KqfyXldcVUp7XskBIW5xG1ydbkG6z1a-UAkDyRibapQg6UJCbMSLRzhIewDrRJnf96K6F8BTKii7Yx5j22j2Q-gIJTGVFxHQHxRkp5n0TBbt0ngmTPI0LbNcYjUj8qq8VaT6PIMRvuyfPHqhehFmWrf-8xXns1HmkI8Q86RnfQjGKFrtnAkBIJ7e37jT8M0Pom0HYE6WskUliZILkOkbHeBfTNX85fD5zRhkHmE72iylO-o5B0W2JX5w43u_QJSvVud4JWtUYzFXA9IxZlhlhF1aoCNn4gpSvN8BNlKePIHd5Z3Kfv-qP9zAMjyvncmjVjes8WWZdMCsTcF-cXilX8Y-7bEHhGDOa3wO-GQ7h4FGRU9NGVHE_T05BT93vdSQh4kVrDS5LpXaZsLsgwymRk1jVKowVQz7-c98SAxliD5-m0kS1IzjbTY5GGqnEgvS4JrSfz3dL97FU7Q-qQUyu5jqxJGYWQrUjBVq_vBeewxA-kSMdfGpaHUzSy3mr8oBhdPaHg4t2qc_qJkrNIQYL4D64kcck9H1SosCClgnok2HoFM2nS9DJ__rfUjI5n1Q_IFxYhuyqHp90n7cNpqFThHfV79g5mtVRD01kEV_vAa-FfGxztLoNLHs4UTgjyI0NLAogPW2npSwK4K3bykAIxU5-yINffCRp2hVC1wIXTc8NvRELseRVnKeJTU8B_xcn-deElJhfgOpgIfOFi7y2NA-jcpWlvCzx2QMwouLvVZtExIhOVXuJlRrMiTJqQLeOgtImSFCvKtENuN52_6Np8UMI6Hn0PLDb0ABIdMAc-n3FzgK6SWN6LySoiBYbQD5nLHOiseYjiiPZcSGViG_R_qzFnzYv58P9-HcJ1TvFX7m00]--></g></svg>