<?xml version="1.0" encoding="UTF-8" standalone="no"?><svg xmlns="http://www.w3.org/2000/svg" xmlns:xlink="http://www.w3.org/1999/xlink" contentStyleType="text/css" height="1397px" preserveAspectRatio="none" style="width:2078px;height:1397px;background:#000000;" version="1.1" viewBox="0 0 2078 1397" width="2078px" zoomAndPan="magnify"><defs/><g><!--class Observer--><g id="elem_Observer"><rect codeLine="1" fill="#303030" height="64.2969" id="Observer" rx="2.5" ry="2.5" style="stroke:#E7E7E7;stroke-width:0.5;" width="113" x="1356" y="7"/><ellipse cx="1378.2" cy="23" fill="#352866" rx="11" ry="11" style="stroke:#E7E7E7;stroke-width:1.0;"/><path d="M1379.1531,19.7813 L1380.8719,19.7813 C1381.2625,19.7813 1381.45,19.75 1381.575,19.6719 C1381.8406,19.5156 1381.9813,19.2344 1381.9813,18.9375 C1381.9813,18.6719 1381.8719,18.4063 1381.6375,18.2344 C1381.4656,18.125 1381.325,18.0938 1380.8719,18.0938 L1375.7313,18.0938 C1375.2938,18.0938 1375.1688,18.1094 1375.0125,18.2031 C1374.7625,18.3594 1374.6063,18.6563 1374.6063,18.9375 C1374.6063,19.2188 1374.7469,19.4688 1374.9656,19.6406 C1375.1219,19.75 1375.3094,19.7813 1375.7313,19.7813 L1377.45,19.7813 L1377.45,26.2969 L1375.7313,26.2969 C1375.2938,26.2969 1375.1688,26.3125 1375.0125,26.4219 C1374.7625,26.5781 1374.6063,26.8594 1374.6063,27.1563 C1374.6063,27.4063 1374.7469,27.6719 1374.9656,27.8281 C1375.1219,27.9531 1375.325,28 1375.7313,28 L1380.8719,28 C1381.6219,28 1381.9813,27.7188 1381.9813,27.1563 C1381.9813,26.875 1381.8719,26.625 1381.6375,26.4531 C1381.4656,26.3281 1381.325,26.2969 1380.8719,26.2969 L1379.1531,26.2969 L1379.1531,19.7813 Z " fill="#FFFFFF"/><text fill="#FFFFFF" font-family="sans-serif" font-size="14" font-style="italic" lengthAdjust="spacing" textLength="65" x="1393.8" y="27.8467">Observer</text><line style="stroke:#E7E7E7;stroke-width:0.5;" x1="1357" x2="1468" y1="39" y2="39"/><line style="stroke:#E7E7E7;stroke-width:0.5;" x1="1357" x2="1468" y1="47" y2="47"/><ellipse cx="1367" cy="60.6484" fill="#84BE84" rx="3" ry="3" style="stroke:#038048;stroke-width:1.0;"/><text fill="#FFFFFF" font-family="sans-serif" font-size="14" lengthAdjust="spacing" textLength="87" x="1376" y="63.9951">react(): void</text></g><!--class CardObserver--><g id="elem_CardObserver"><rect codeLine="5" fill="#303030" height="48" id="CardObserver" rx="2.5" ry="2.5" style="stroke:#E7E7E7;stroke-width:0.5;" width="131" x="1798" y="131"/><ellipse cx="1813" cy="147" fill="#2A5D60" rx="11" ry="11" style="stroke:#E7E7E7;stroke-width:1.0;"/><path d="M1815.0781,148.8125 L1815.4688,149.7969 L1815.0781,149.7969 C1814.625,149.7969 1814.5156,149.8125 1814.3594,149.9219 C1814.1094,150.0781 1813.9531,150.3594 1813.9531,150.6563 C1813.9531,150.9219 1814.0938,151.1719 1814.3125,151.3281 C1814.4531,151.4531 1814.6563,151.5 1815.0781,151.5 L1817.4375,151.5 C1817.7969,151.5 1818.0156,151.4688 1818.1563,151.375 C1818.4063,151.2344 1818.5625,150.9375 1818.5625,150.6563 C1818.5625,150.375 1818.4219,150.125 1818.2031,149.9688 C1818.0313,149.8281 1817.875,149.7969 1817.4063,149.7969 L1814.0156,141.5938 L1810.3438,141.5938 C1809.8906,141.5938 1809.7656,141.6094 1809.6094,141.7031 C1809.3594,141.875 1809.2031,142.1563 1809.2031,142.4375 C1809.2031,142.7188 1809.3438,142.9688 1809.5625,143.1406 C1809.7344,143.25 1809.9063,143.2813 1810.3438,143.2813 L1811.4219,143.2813 L1808.7813,149.7969 C1808.3594,149.7969 1808.2031,149.8125 1808.0469,149.9219 C1807.7969,150.0781 1807.6406,150.3594 1807.6406,150.6563 C1807.6406,151.2188 1808.0156,151.5 1808.7656,151.5 L1811.0313,151.5 C1811.3906,151.5 1811.6094,151.4688 1811.7344,151.375 C1812,151.2344 1812.1406,150.9375 1812.1406,150.6563 C1812.1406,150.375 1812.0156,150.125 1811.7969,149.9531 C1811.625,149.8281 1811.4844,149.7969 1811.0313,149.7969 L1810.6406,149.7969 L1811.0313,148.8125 L1815.0781,148.8125 Z M1814.375,147.1094 L1811.7031,147.1094 L1813.0469,143.8438 L1814.375,147.1094 Z " fill="#FFFFFF"/><text fill="#FFFFFF" font-family="sans-serif" font-size="14" font-style="italic" lengthAdjust="spacing" textLength="99" x="1827" y="151.8467">CardObserver</text><line style="stroke:#E7E7E7;stroke-width:0.5;" x1="1799" x2="1928" y1="163" y2="163"/><line style="stroke:#E7E7E7;stroke-width:0.5;" x1="1799" x2="1928" y1="171" y2="171"/></g><!--class DeckObserver--><g id="elem_DeckObserver"><rect codeLine="8" fill="#303030" height="48" id="DeckObserver" rx="2.5" ry="2.5" style="stroke:#E7E7E7;stroke-width:0.5;" width="133" x="705" y="239"/><ellipse cx="720" cy="255" fill="#2A5D60" rx="11" ry="11" style="stroke:#E7E7E7;stroke-width:1.0;"/><path d="M722.0781,256.8125 L722.4688,257.7969 L722.0781,257.7969 C721.625,257.7969 721.5156,257.8125 721.3594,257.9219 C721.1094,258.0781 720.9531,258.3594 720.9531,258.6563 C720.9531,258.9219 721.0938,259.1719 721.3125,259.3281 C721.4531,259.4531 721.6563,259.5 722.0781,259.5 L724.4375,259.5 C724.7969,259.5 725.0156,259.4688 725.1563,259.375 C725.4063,259.2344 725.5625,258.9375 725.5625,258.6563 C725.5625,258.375 725.4219,258.125 725.2031,257.9688 C725.0313,257.8281 724.875,257.7969 724.4063,257.7969 L721.0156,249.5938 L717.3438,249.5938 C716.8906,249.5938 716.7656,249.6094 716.6094,249.7031 C716.3594,249.875 716.2031,250.1563 716.2031,250.4375 C716.2031,250.7188 716.3438,250.9688 716.5625,251.1406 C716.7344,251.25 716.9063,251.2813 717.3438,251.2813 L718.4219,251.2813 L715.7813,257.7969 C715.3594,257.7969 715.2031,257.8125 715.0469,257.9219 C714.7969,258.0781 714.6406,258.3594 714.6406,258.6563 C714.6406,259.2188 715.0156,259.5 715.7656,259.5 L718.0313,259.5 C718.3906,259.5 718.6094,259.4688 718.7344,259.375 C719,259.2344 719.1406,258.9375 719.1406,258.6563 C719.1406,258.375 719.0156,258.125 718.7969,257.9531 C718.625,257.8281 718.4844,257.7969 718.0313,257.7969 L717.6406,257.7969 L718.0313,256.8125 L722.0781,256.8125 Z M721.375,255.1094 L718.7031,255.1094 L720.0469,251.8438 L721.375,255.1094 Z " fill="#FFFFFF"/><text fill="#FFFFFF" font-family="sans-serif" font-size="14" font-style="italic" lengthAdjust="spacing" textLength="101" x="734" y="259.8467">DeckObserver</text><line style="stroke:#E7E7E7;stroke-width:0.5;" x1="706" x2="837" y1="271" y2="271"/><line style="stroke:#E7E7E7;stroke-width:0.5;" x1="706" x2="837" y1="279" y2="279"/></g><!--class DeckListObserver--><g id="elem_DeckListObserver"><rect codeLine="11" fill="#303030" height="48" id="DeckListObserver" rx="2.5" ry="2.5" style="stroke:#E7E7E7;stroke-width:0.5;" width="157" x="1239" y="239"/><ellipse cx="1254" cy="255" fill="#2A5D60" rx="11" ry="11" style="stroke:#E7E7E7;stroke-width:1.0;"/><path d="M1256.0781,256.8125 L1256.4688,257.7969 L1256.0781,257.7969 C1255.625,257.7969 1255.5156,257.8125 1255.3594,257.9219 C1255.1094,258.0781 1254.9531,258.3594 1254.9531,258.6563 C1254.9531,258.9219 1255.0938,259.1719 1255.3125,259.3281 C1255.4531,259.4531 1255.6563,259.5 1256.0781,259.5 L1258.4375,259.5 C1258.7969,259.5 1259.0156,259.4688 1259.1563,259.375 C1259.4063,259.2344 1259.5625,258.9375 1259.5625,258.6563 C1259.5625,258.375 1259.4219,258.125 1259.2031,257.9688 C1259.0313,257.8281 1258.875,257.7969 1258.4063,257.7969 L1255.0156,249.5938 L1251.3438,249.5938 C1250.8906,249.5938 1250.7656,249.6094 1250.6094,249.7031 C1250.3594,249.875 1250.2031,250.1563 1250.2031,250.4375 C1250.2031,250.7188 1250.3438,250.9688 1250.5625,251.1406 C1250.7344,251.25 1250.9063,251.2813 1251.3438,251.2813 L1252.4219,251.2813 L1249.7813,257.7969 C1249.3594,257.7969 1249.2031,257.8125 1249.0469,257.9219 C1248.7969,258.0781 1248.6406,258.3594 1248.6406,258.6563 C1248.6406,259.2188 1249.0156,259.5 1249.7656,259.5 L1252.0313,259.5 C1252.3906,259.5 1252.6094,259.4688 1252.7344,259.375 C1253,259.2344 1253.1406,258.9375 1253.1406,258.6563 C1253.1406,258.375 1253.0156,258.125 1252.7969,257.9531 C1252.625,257.8281 1252.4844,257.7969 1252.0313,257.7969 L1251.6406,257.7969 L1252.0313,256.8125 L1256.0781,256.8125 Z M1255.375,255.1094 L1252.7031,255.1094 L1254.0469,251.8438 L1255.375,255.1094 Z " fill="#FFFFFF"/><text fill="#FFFFFF" font-family="sans-serif" font-size="14" font-style="italic" lengthAdjust="spacing" textLength="125" x="1268" y="259.8467">DeckListObserver</text><line style="stroke:#E7E7E7;stroke-width:0.5;" x1="1240" x2="1395" y1="271" y2="271"/><line style="stroke:#E7E7E7;stroke-width:0.5;" x1="1240" x2="1395" y1="279" y2="279"/></g><!--class StageObserver--><g id="elem_StageObserver"><rect codeLine="14" fill="#303030" height="48" id="StageObserver" rx="2.5" ry="2.5" style="stroke:#E7E7E7;stroke-width:0.5;" width="138" x="1416.5" y="131"/><ellipse cx="1431.5" cy="147" fill="#2A5D60" rx="11" ry="11" style="stroke:#E7E7E7;stroke-width:1.0;"/><path d="M1433.5781,148.8125 L1433.9688,149.7969 L1433.5781,149.7969 C1433.125,149.7969 1433.0156,149.8125 1432.8594,149.9219 C1432.6094,150.0781 1432.4531,150.3594 1432.4531,150.6563 C1432.4531,150.9219 1432.5938,151.1719 1432.8125,151.3281 C1432.9531,151.4531 1433.1563,151.5 1433.5781,151.5 L1435.9375,151.5 C1436.2969,151.5 1436.5156,151.4688 1436.6563,151.375 C1436.9063,151.2344 1437.0625,150.9375 1437.0625,150.6563 C1437.0625,150.375 1436.9219,150.125 1436.7031,149.9688 C1436.5313,149.8281 1436.375,149.7969 1435.9063,149.7969 L1432.5156,141.5938 L1428.8438,141.5938 C1428.3906,141.5938 1428.2656,141.6094 1428.1094,141.7031 C1427.8594,141.875 1427.7031,142.1563 1427.7031,142.4375 C1427.7031,142.7188 1427.8438,142.9688 1428.0625,143.1406 C1428.2344,143.25 1428.4063,143.2813 1428.8438,143.2813 L1429.9219,143.2813 L1427.2813,149.7969 C1426.8594,149.7969 1426.7031,149.8125 1426.5469,149.9219 C1426.2969,150.0781 1426.1406,150.3594 1426.1406,150.6563 C1426.1406,151.2188 1426.5156,151.5 1427.2656,151.5 L1429.5313,151.5 C1429.8906,151.5 1430.1094,151.4688 1430.2344,151.375 C1430.5,151.2344 1430.6406,150.9375 1430.6406,150.6563 C1430.6406,150.375 1430.5156,150.125 1430.2969,149.9531 C1430.125,149.8281 1429.9844,149.7969 1429.5313,149.7969 L1429.1406,149.7969 L1429.5313,148.8125 L1433.5781,148.8125 Z M1432.875,147.1094 L1430.2031,147.1094 L1431.5469,143.8438 L1432.875,147.1094 Z " fill="#FFFFFF"/><text fill="#FFFFFF" font-family="sans-serif" font-size="14" font-style="italic" lengthAdjust="spacing" textLength="106" x="1445.5" y="151.8467">StageObserver</text><line style="stroke:#E7E7E7;stroke-width:0.5;" x1="1417.5" x2="1553.5" y1="163" y2="163"/><line style="stroke:#E7E7E7;stroke-width:0.5;" x1="1417.5" x2="1553.5" y1="171" y2="171"/></g><!--class Observed--><g id="elem_Observed"><rect codeLine="17" fill="#303030" height="80.5938" id="Observed" rx="2.5" ry="2.5" style="stroke:#E7E7E7;stroke-width:0.5;" width="268" x="1384.5" y="552"/><ellipse cx="1480.25" cy="568" fill="#2A5D60" rx="11" ry="11" style="stroke:#E7E7E7;stroke-width:1.0;"/><path d="M1482.3281,569.8125 L1482.7188,570.7969 L1482.3281,570.7969 C1481.875,570.7969 1481.7656,570.8125 1481.6094,570.9219 C1481.3594,571.0781 1481.2031,571.3594 1481.2031,571.6563 C1481.2031,571.9219 1481.3438,572.1719 1481.5625,572.3281 C1481.7031,572.4531 1481.9063,572.5 1482.3281,572.5 L1484.6875,572.5 C1485.0469,572.5 1485.2656,572.4688 1485.4063,572.375 C1485.6563,572.2344 1485.8125,571.9375 1485.8125,571.6563 C1485.8125,571.375 1485.6719,571.125 1485.4531,570.9688 C1485.2813,570.8281 1485.125,570.7969 1484.6563,570.7969 L1481.2656,562.5938 L1477.5938,562.5938 C1477.1406,562.5938 1477.0156,562.6094 1476.8594,562.7031 C1476.6094,562.875 1476.4531,563.1563 1476.4531,563.4375 C1476.4531,563.7188 1476.5938,563.9688 1476.8125,564.1406 C1476.9844,564.25 1477.1563,564.2813 1477.5938,564.2813 L1478.6719,564.2813 L1476.0313,570.7969 C1475.6094,570.7969 1475.4531,570.8125 1475.2969,570.9219 C1475.0469,571.0781 1474.8906,571.3594 1474.8906,571.6563 C1474.8906,572.2188 1475.2656,572.5 1476.0156,572.5 L1478.2813,572.5 C1478.6406,572.5 1478.8594,572.4688 1478.9844,572.375 C1479.25,572.2344 1479.3906,571.9375 1479.3906,571.6563 C1479.3906,571.375 1479.2656,571.125 1479.0469,570.9531 C1478.875,570.8281 1478.7344,570.7969 1478.2813,570.7969 L1477.8906,570.7969 L1478.2813,569.8125 L1482.3281,569.8125 Z M1481.625,568.1094 L1478.9531,568.1094 L1480.2969,564.8438 L1481.625,568.1094 Z " fill="#FFFFFF"/><text fill="#FFFFFF" font-family="sans-serif" font-size="14" font-style="italic" lengthAdjust="spacing" textLength="68" x="1500.75" y="572.8467">Observed</text><line style="stroke:#E7E7E7;stroke-width:0.5;" x1="1385.5" x2="1651.5" y1="584" y2="584"/><line style="stroke:#E7E7E7;stroke-width:0.5;" x1="1385.5" x2="1651.5" y1="592" y2="592"/><ellipse cx="1395.5" cy="605.6484" fill="#84BE84" rx="3" ry="3" style="stroke:#038048;stroke-width:1.0;"/><text fill="#FFFFFF" font-family="sans-serif" font-size="14" lengthAdjust="spacing" textLength="242" x="1404.5" y="608.9951">addObs(observer: Observer): void</text><ellipse cx="1395.5" cy="621.9453" fill="#84BE84" rx="3" ry="3" style="stroke:#038048;stroke-width:1.0;"/><text fill="#FFFFFF" font-family="sans-serif" font-size="14" lengthAdjust="spacing" textLength="120" x="1404.5" y="625.292">notifyObs(): void</text></g><!--class GlobalView--><g id="elem_GlobalView"><rect codeLine="22" fill="#303030" height="129.4844" id="GlobalView" rx="2.5" ry="2.5" style="stroke:#E7E7E7;stroke-width:0.5;" width="356" x="1223.5" y="347"/><ellipse cx="1357.25" cy="363" fill="#2E5233" rx="11" ry="11" style="stroke:#E7E7E7;stroke-width:1.0;"/><path d="M1359.5938,358.6719 C1358.6563,358.2344 1358.0625,358.0938 1357.1875,358.0938 C1354.5625,358.0938 1352.5625,360.1719 1352.5625,362.8906 L1352.5625,364.0156 C1352.5625,366.5938 1354.6719,368.4844 1357.5625,368.4844 C1358.7813,368.4844 1359.9375,368.1875 1360.6875,367.6406 C1361.2656,367.2344 1361.5938,366.7813 1361.5938,366.3906 C1361.5938,365.9375 1361.2031,365.5469 1360.7344,365.5469 C1360.5156,365.5469 1360.3125,365.625 1360.125,365.8125 C1359.6719,366.2969 1359.6719,366.2969 1359.4844,366.3906 C1359.0625,366.6563 1358.375,366.7813 1357.6094,366.7813 C1355.5625,366.7813 1354.2656,365.6875 1354.2656,363.9844 L1354.2656,362.8906 C1354.2656,361.1094 1355.5156,359.7969 1357.25,359.7969 C1357.8281,359.7969 1358.4375,359.9531 1358.9063,360.2031 C1359.3906,360.4844 1359.5625,360.7031 1359.6563,361.1094 C1359.7188,361.5156 1359.75,361.6406 1359.8906,361.7656 C1360.0313,361.9063 1360.2656,362.0156 1360.4844,362.0156 C1360.75,362.0156 1361.0156,361.875 1361.1875,361.6563 C1361.2969,361.5 1361.3281,361.3125 1361.3281,360.8906 L1361.3281,359.4688 C1361.3281,359.0313 1361.3125,358.9063 1361.2188,358.75 C1361.0625,358.4844 1360.7813,358.3438 1360.4844,358.3438 C1360.1875,358.3438 1359.9844,358.4375 1359.7656,358.75 L1359.5938,358.6719 Z " fill="#FFFFFF"/><text fill="#FFFFFF" font-family="sans-serif" font-size="14" lengthAdjust="spacing" textLength="80" x="1377.75" y="367.8467">GlobalView</text><line style="stroke:#E7E7E7;stroke-width:0.5;" x1="1224.5" x2="1578.5" y1="379" y2="379"/><line style="stroke:#E7E7E7;stroke-width:0.5;" x1="1224.5" x2="1578.5" y1="387" y2="387"/><ellipse cx="1234.5" cy="400.6484" fill="#84BE84" rx="3" ry="3" style="stroke:#038048;stroke-width:1.0;"/><text fill="#FFFFFF" font-family="sans-serif" font-size="14" lengthAdjust="spacing" textLength="135" x="1243.5" y="403.9951">removeDeck(i: int)</text><ellipse cx="1234.5" cy="416.9453" fill="#84BE84" rx="3" ry="3" style="stroke:#038048;stroke-width:1.0;"/><text fill="#FFFFFF" font-family="sans-serif" font-size="14" lengthAdjust="spacing" textLength="129" x="1243.5" y="420.292">exportDeck(i: int)</text><ellipse cx="1234.5" cy="433.2422" fill="#84BE84" rx="3" ry="3" style="stroke:#038048;stroke-width:1.0;"/><text fill="#FFFFFF" font-family="sans-serif" font-size="14" lengthAdjust="spacing" textLength="97" x="1243.5" y="436.5889">importDeck()</text><ellipse cx="1234.5" cy="449.5391" fill="#84BE84" rx="3" ry="3" style="stroke:#038048;stroke-width:1.0;"/><text fill="#FFFFFF" font-family="sans-serif" font-size="14" lengthAdjust="spacing" textLength="330" x="1243.5" y="452.8857">createDeck(name: String, description: String)</text><ellipse cx="1234.5" cy="465.8359" fill="#84BE84" rx="3" ry="3" style="stroke:#038048;stroke-width:1.0;"/><text fill="#FFFFFF" font-family="sans-serif" font-size="14" lengthAdjust="spacing" textLength="136" x="1243.5" y="469.1826">toDeckView(): void</text></g><!--class DeckView--><g id="elem_DeckView"><rect codeLine="30" fill="#303030" height="129.4844" id="DeckView" rx="2.5" ry="2.5" style="stroke:#E7E7E7;stroke-width:0.5;" width="321" x="611" y="347"/><ellipse cx="731.75" cy="363" fill="#2E5233" rx="11" ry="11" style="stroke:#E7E7E7;stroke-width:1.0;"/><path d="M734.0938,358.6719 C733.1563,358.2344 732.5625,358.0938 731.6875,358.0938 C729.0625,358.0938 727.0625,360.1719 727.0625,362.8906 L727.0625,364.0156 C727.0625,366.5938 729.1719,368.4844 732.0625,368.4844 C733.2813,368.4844 734.4375,368.1875 735.1875,367.6406 C735.7656,367.2344 736.0938,366.7813 736.0938,366.3906 C736.0938,365.9375 735.7031,365.5469 735.2344,365.5469 C735.0156,365.5469 734.8125,365.625 734.625,365.8125 C734.1719,366.2969 734.1719,366.2969 733.9844,366.3906 C733.5625,366.6563 732.875,366.7813 732.1094,366.7813 C730.0625,366.7813 728.7656,365.6875 728.7656,363.9844 L728.7656,362.8906 C728.7656,361.1094 730.0156,359.7969 731.75,359.7969 C732.3281,359.7969 732.9375,359.9531 733.4063,360.2031 C733.8906,360.4844 734.0625,360.7031 734.1563,361.1094 C734.2188,361.5156 734.25,361.6406 734.3906,361.7656 C734.5313,361.9063 734.7656,362.0156 734.9844,362.0156 C735.25,362.0156 735.5156,361.875 735.6875,361.6563 C735.7969,361.5 735.8281,361.3125 735.8281,360.8906 L735.8281,359.4688 C735.8281,359.0313 735.8125,358.9063 735.7188,358.75 C735.5625,358.4844 735.2813,358.3438 734.9844,358.3438 C734.6875,358.3438 734.4844,358.4375 734.2656,358.75 L734.0938,358.6719 Z " fill="#FFFFFF"/><text fill="#FFFFFF" font-family="sans-serif" font-size="14" lengthAdjust="spacing" textLength="71" x="752.25" y="367.8467">DeckView</text><line style="stroke:#E7E7E7;stroke-width:0.5;" x1="612" x2="931" y1="379" y2="379"/><line style="stroke:#E7E7E7;stroke-width:0.5;" x1="612" x2="931" y1="387" y2="387"/><ellipse cx="622" cy="400.6484" fill="#84BE84" rx="3" ry="3" style="stroke:#038048;stroke-width:1.0;"/><text fill="#FFFFFF" font-family="sans-serif" font-size="14" lengthAdjust="spacing" textLength="173" x="631" y="403.9951">editName(name: String)</text><ellipse cx="622" cy="416.9453" fill="#84BE84" rx="3" ry="3" style="stroke:#038048;stroke-width:1.0;"/><text fill="#FFFFFF" font-family="sans-serif" font-size="14" lengthAdjust="spacing" textLength="258" x="631" y="420.292">editDescription(description: String)</text><ellipse cx="622" cy="433.2422" fill="#84BE84" rx="3" ry="3" style="stroke:#038048;stroke-width:1.0;"/><text fill="#FFFFFF" font-family="sans-serif" font-size="14" lengthAdjust="spacing" textLength="295" x="631" y="436.5889">addCard(question: String, answer: String)</text><ellipse cx="622" cy="449.5391" fill="#84BE84" rx="3" ry="3" style="stroke:#038048;stroke-width:1.0;"/><text fill="#FFFFFF" font-family="sans-serif" font-size="14" lengthAdjust="spacing" textLength="213" x="631" y="452.8857">removeCard(question: String)</text><ellipse cx="622" cy="465.8359" fill="#84BE84" rx="3" ry="3" style="stroke:#038048;stroke-width:1.0;"/><text fill="#FFFFFF" font-family="sans-serif" font-size="14" lengthAdjust="spacing" textLength="145" x="631" y="469.1826">toGlobalView(): void</text></g><!--class StageView--><g id="elem_StageView"><rect codeLine="38" fill="#303030" height="48" id="StageView" rx="2.5" ry="2.5" style="stroke:#E7E7E7;stroke-width:0.5;" width="108" x="1431.5" y="239"/><ellipse cx="1446.5" cy="255" fill="#2E5233" rx="11" ry="11" style="stroke:#E7E7E7;stroke-width:1.0;"/><path d="M1448.8438,250.6719 C1447.9063,250.2344 1447.3125,250.0938 1446.4375,250.0938 C1443.8125,250.0938 1441.8125,252.1719 1441.8125,254.8906 L1441.8125,256.0156 C1441.8125,258.5938 1443.9219,260.4844 1446.8125,260.4844 C1448.0313,260.4844 1449.1875,260.1875 1449.9375,259.6406 C1450.5156,259.2344 1450.8438,258.7813 1450.8438,258.3906 C1450.8438,257.9375 1450.4531,257.5469 1449.9844,257.5469 C1449.7656,257.5469 1449.5625,257.625 1449.375,257.8125 C1448.9219,258.2969 1448.9219,258.2969 1448.7344,258.3906 C1448.3125,258.6563 1447.625,258.7813 1446.8594,258.7813 C1444.8125,258.7813 1443.5156,257.6875 1443.5156,255.9844 L1443.5156,254.8906 C1443.5156,253.1094 1444.7656,251.7969 1446.5,251.7969 C1447.0781,251.7969 1447.6875,251.9531 1448.1563,252.2031 C1448.6406,252.4844 1448.8125,252.7031 1448.9063,253.1094 C1448.9688,253.5156 1449,253.6406 1449.1406,253.7656 C1449.2813,253.9063 1449.5156,254.0156 1449.7344,254.0156 C1450,254.0156 1450.2656,253.875 1450.4375,253.6563 C1450.5469,253.5 1450.5781,253.3125 1450.5781,252.8906 L1450.5781,251.4688 C1450.5781,251.0313 1450.5625,250.9063 1450.4688,250.75 C1450.3125,250.4844 1450.0313,250.3438 1449.7344,250.3438 C1449.4375,250.3438 1449.2344,250.4375 1449.0156,250.75 L1448.8438,250.6719 Z " fill="#FFFFFF"/><text fill="#FFFFFF" font-family="sans-serif" font-size="14" lengthAdjust="spacing" textLength="76" x="1460.5" y="259.8467">StageView</text><line style="stroke:#E7E7E7;stroke-width:0.5;" x1="1432.5" x2="1538.5" y1="271" y2="271"/><line style="stroke:#E7E7E7;stroke-width:0.5;" x1="1432.5" x2="1538.5" y1="279" y2="279"/></g><!--class DeckListModel--><g id="elem_DeckListModel"><rect codeLine="41" fill="#303030" height="80.5938" id="DeckListModel" rx="2.5" ry="2.5" style="stroke:#E7E7E7;stroke-width:0.5;" width="374" x="1000.5" y="725"/><ellipse cx="1130.25" cy="741" fill="#2E5233" rx="11" ry="11" style="stroke:#E7E7E7;stroke-width:1.0;"/><path d="M1132.5938,736.6719 C1131.6563,736.2344 1131.0625,736.0938 1130.1875,736.0938 C1127.5625,736.0938 1125.5625,738.1719 1125.5625,740.8906 L1125.5625,742.0156 C1125.5625,744.5938 1127.6719,746.4844 1130.5625,746.4844 C1131.7813,746.4844 1132.9375,746.1875 1133.6875,745.6406 C1134.2656,745.2344 1134.5938,744.7813 1134.5938,744.3906 C1134.5938,743.9375 1134.2031,743.5469 1133.7344,743.5469 C1133.5156,743.5469 1133.3125,743.625 1133.125,743.8125 C1132.6719,744.2969 1132.6719,744.2969 1132.4844,744.3906 C1132.0625,744.6563 1131.375,744.7813 1130.6094,744.7813 C1128.5625,744.7813 1127.2656,743.6875 1127.2656,741.9844 L1127.2656,740.8906 C1127.2656,739.1094 1128.5156,737.7969 1130.25,737.7969 C1130.8281,737.7969 1131.4375,737.9531 1131.9063,738.2031 C1132.3906,738.4844 1132.5625,738.7031 1132.6563,739.1094 C1132.7188,739.5156 1132.75,739.6406 1132.8906,739.7656 C1133.0313,739.9063 1133.2656,740.0156 1133.4844,740.0156 C1133.75,740.0156 1134.0156,739.875 1134.1875,739.6563 C1134.2969,739.5 1134.3281,739.3125 1134.3281,738.8906 L1134.3281,737.4688 C1134.3281,737.0313 1134.3125,736.9063 1134.2188,736.75 C1134.0625,736.4844 1133.7813,736.3438 1133.4844,736.3438 C1133.1875,736.3438 1132.9844,736.4375 1132.7656,736.75 L1132.5938,736.6719 Z " fill="#FFFFFF"/><text fill="#FFFFFF" font-family="sans-serif" font-size="14" lengthAdjust="spacing" textLength="106" x="1150.75" y="745.8467">DeckListModel</text><line style="stroke:#E7E7E7;stroke-width:0.5;" x1="1001.5" x2="1373.5" y1="757" y2="757"/><line style="stroke:#E7E7E7;stroke-width:0.5;" x1="1001.5" x2="1373.5" y1="765" y2="765"/><ellipse cx="1011.5" cy="778.6484" fill="#84BE84" rx="3" ry="3" style="stroke:#038048;stroke-width:1.0;"/><text fill="#FFFFFF" font-family="sans-serif" font-size="14" lengthAdjust="spacing" textLength="348" x="1020.5" y="781.9951">addDeck(name: String, description: String): void</text><ellipse cx="1011.5" cy="794.9453" fill="#84BE84" rx="3" ry="3" style="stroke:#038048;stroke-width:1.0;"/><text fill="#FFFFFF" font-family="sans-serif" font-size="14" lengthAdjust="spacing" textLength="174" x="1020.5" y="798.292">removeDeck(i: int): void</text></g><!--class DeckModel--><g id="elem_DeckModel"><rect codeLine="46" fill="#303030" height="210.9688" id="DeckModel" rx="2.5" ry="2.5" style="stroke:#E7E7E7;stroke-width:0.5;" width="432" x="644.5" y="882"/><ellipse cx="816.25" cy="898" fill="#2E5233" rx="11" ry="11" style="stroke:#E7E7E7;stroke-width:1.0;"/><path d="M818.5938,893.6719 C817.6563,893.2344 817.0625,893.0938 816.1875,893.0938 C813.5625,893.0938 811.5625,895.1719 811.5625,897.8906 L811.5625,899.0156 C811.5625,901.5938 813.6719,903.4844 816.5625,903.4844 C817.7813,903.4844 818.9375,903.1875 819.6875,902.6406 C820.2656,902.2344 820.5938,901.7813 820.5938,901.3906 C820.5938,900.9375 820.2031,900.5469 819.7344,900.5469 C819.5156,900.5469 819.3125,900.625 819.125,900.8125 C818.6719,901.2969 818.6719,901.2969 818.4844,901.3906 C818.0625,901.6563 817.375,901.7813 816.6094,901.7813 C814.5625,901.7813 813.2656,900.6875 813.2656,898.9844 L813.2656,897.8906 C813.2656,896.1094 814.5156,894.7969 816.25,894.7969 C816.8281,894.7969 817.4375,894.9531 817.9063,895.2031 C818.3906,895.4844 818.5625,895.7031 818.6563,896.1094 C818.7188,896.5156 818.75,896.6406 818.8906,896.7656 C819.0313,896.9063 819.2656,897.0156 819.4844,897.0156 C819.75,897.0156 820.0156,896.875 820.1875,896.6563 C820.2969,896.5 820.3281,896.3125 820.3281,895.8906 L820.3281,894.4688 C820.3281,894.0313 820.3125,893.9063 820.2188,893.75 C820.0625,893.4844 819.7813,893.3438 819.4844,893.3438 C819.1875,893.3438 818.9844,893.4375 818.7656,893.75 L818.5938,893.6719 Z " fill="#FFFFFF"/><text fill="#FFFFFF" font-family="sans-serif" font-size="14" lengthAdjust="spacing" textLength="80" x="836.75" y="902.8467">DeckModel</text><line style="stroke:#E7E7E7;stroke-width:0.5;" x1="645.5" x2="1075.5" y1="914" y2="914"/><rect fill="none" height="6" style="stroke:#C82930;stroke-width:1.0;" width="6" x="652.5" y="924.6484"/><text fill="#FFFFFF" font-family="sans-serif" font-size="14" lengthAdjust="spacing" textLength="93" x="664.5" y="930.9951">name: String</text><rect fill="none" height="6" style="stroke:#C82930;stroke-width:1.0;" width="6" x="652.5" y="940.9453"/><text fill="#FFFFFF" font-family="sans-serif" font-size="14" lengthAdjust="spacing" textLength="135" x="664.5" y="947.292">description: String</text><rect fill="none" height="6" style="stroke:#C82930;stroke-width:1.0;" width="6" x="652.5" y="957.2422"/><text fill="#FFFFFF" font-family="sans-serif" font-size="14" lengthAdjust="spacing" textLength="106" x="664.5" y="963.5889">activeCard: int</text><line style="stroke:#E7E7E7;stroke-width:0.5;" x1="645.5" x2="1075.5" y1="970.8906" y2="970.8906"/><ellipse cx="655.5" cy="984.5391" fill="#84BE84" rx="3" ry="3" style="stroke:#038048;stroke-width:1.0;"/><text fill="#FFFFFF" font-family="sans-serif" font-size="14" lengthAdjust="spacing" textLength="206" x="664.5" y="987.8857">setName(name: String): void</text><ellipse cx="655.5" cy="1000.8359" fill="#84BE84" rx="3" ry="3" style="stroke:#038048;stroke-width:1.0;"/><text fill="#FFFFFF" font-family="sans-serif" font-size="14" lengthAdjust="spacing" textLength="291" x="664.5" y="1004.1826">setDescription(description: String): void</text><ellipse cx="655.5" cy="1017.1328" fill="#84BE84" rx="3" ry="3" style="stroke:#038048;stroke-width:1.0;"/><text fill="#FFFFFF" font-family="sans-serif" font-size="14" lengthAdjust="spacing" textLength="193" x="664.5" y="1020.4795">setActiveCard(id: int): void</text><ellipse cx="655.5" cy="1033.4297" fill="#84BE84" rx="3" ry="3" style="stroke:#038048;stroke-width:1.0;"/><text fill="#FFFFFF" font-family="sans-serif" font-size="14" lengthAdjust="spacing" textLength="406" x="664.5" y="1036.7764">setDrawCardStrategy(strategy: DrawCardStrategy): void</text><ellipse cx="655.5" cy="1049.7266" fill="#84BE84" rx="3" ry="3" style="stroke:#038048;stroke-width:1.0;"/><text fill="#FFFFFF" font-family="sans-serif" font-size="14" lengthAdjust="spacing" textLength="404" x="664.5" y="1053.0732">setBuildCardStrategy(strategy: BuildCardStrategy): void</text><ellipse cx="655.5" cy="1066.0234" fill="#84BE84" rx="3" ry="3" style="stroke:#038048;stroke-width:1.0;"/><text fill="#FFFFFF" font-family="sans-serif" font-size="14" lengthAdjust="spacing" textLength="334" x="664.5" y="1069.3701">addCard(question: String, answer: String): void</text><ellipse cx="655.5" cy="1082.3203" fill="#84BE84" rx="3" ry="3" style="stroke:#038048;stroke-width:1.0;"/><text fill="#FFFFFF" font-family="sans-serif" font-size="14" lengthAdjust="spacing" textLength="179" x="664.5" y="1085.667">removeCard(id: int): void</text></g><!--class CardModel--><g id="elem_CardModel"><rect codeLine="59" fill="#303030" height="129.4844" id="CardModel" rx="2.5" ry="2.5" style="stroke:#E7E7E7;stroke-width:0.5;" width="277" x="1292" y="1153"/><ellipse cx="1388.25" cy="1169" fill="#2E5233" rx="11" ry="11" style="stroke:#E7E7E7;stroke-width:1.0;"/><path d="M1390.5938,1164.6719 C1389.6563,1164.2344 1389.0625,1164.0938 1388.1875,1164.0938 C1385.5625,1164.0938 1383.5625,1166.1719 1383.5625,1168.8906 L1383.5625,1170.0156 C1383.5625,1172.5938 1385.6719,1174.4844 1388.5625,1174.4844 C1389.7813,1174.4844 1390.9375,1174.1875 1391.6875,1173.6406 C1392.2656,1173.2344 1392.5938,1172.7813 1392.5938,1172.3906 C1392.5938,1171.9375 1392.2031,1171.5469 1391.7344,1171.5469 C1391.5156,1171.5469 1391.3125,1171.625 1391.125,1171.8125 C1390.6719,1172.2969 1390.6719,1172.2969 1390.4844,1172.3906 C1390.0625,1172.6563 1389.375,1172.7813 1388.6094,1172.7813 C1386.5625,1172.7813 1385.2656,1171.6875 1385.2656,1169.9844 L1385.2656,1168.8906 C1385.2656,1167.1094 1386.5156,1165.7969 1388.25,1165.7969 C1388.8281,1165.7969 1389.4375,1165.9531 1389.9063,1166.2031 C1390.3906,1166.4844 1390.5625,1166.7031 1390.6563,1167.1094 C1390.7188,1167.5156 1390.75,1167.6406 1390.8906,1167.7656 C1391.0313,1167.9063 1391.2656,1168.0156 1391.4844,1168.0156 C1391.75,1168.0156 1392.0156,1167.875 1392.1875,1167.6563 C1392.2969,1167.5 1392.3281,1167.3125 1392.3281,1166.8906 L1392.3281,1165.4688 C1392.3281,1165.0313 1392.3125,1164.9063 1392.2188,1164.75 C1392.0625,1164.4844 1391.7813,1164.3438 1391.4844,1164.3438 C1391.1875,1164.3438 1390.9844,1164.4375 1390.7656,1164.75 L1390.5938,1164.6719 Z " fill="#FFFFFF"/><text fill="#FFFFFF" font-family="sans-serif" font-size="14" lengthAdjust="spacing" textLength="76" x="1408.75" y="1173.8467">CardModel</text><line style="stroke:#E7E7E7;stroke-width:0.5;" x1="1293" x2="1568" y1="1185" y2="1185"/><rect fill="none" height="6" style="stroke:#C82930;stroke-width:1.0;" width="6" x="1300" y="1195.6484"/><text fill="#FFFFFF" font-family="sans-serif" font-size="14" lengthAdjust="spacing" textLength="115" x="1312" y="1201.9951">question: String</text><rect fill="none" height="6" style="stroke:#C82930;stroke-width:1.0;" width="6" x="1300" y="1211.9453"/><text fill="#FFFFFF" font-family="sans-serif" font-size="14" lengthAdjust="spacing" textLength="103" x="1312" y="1218.292">answer: String</text><rect fill="none" height="6" style="stroke:#C82930;stroke-width:1.0;" width="6" x="1300" y="1228.2422"/><text fill="#FFFFFF" font-family="sans-serif" font-size="14" lengthAdjust="spacing" textLength="123" x="1312" y="1234.5889">probability: float</text><line style="stroke:#E7E7E7;stroke-width:0.5;" x1="1293" x2="1568" y1="1241.8906" y2="1241.8906"/><ellipse cx="1303" cy="1255.5391" fill="#84BE84" rx="3" ry="3" style="stroke:#038048;stroke-width:1.0;"/><text fill="#FFFFFF" font-family="sans-serif" font-size="14" lengthAdjust="spacing" textLength="251" x="1312" y="1258.8857">setQuestion(question: String): void</text><ellipse cx="1303" cy="1271.8359" fill="#84BE84" rx="3" ry="3" style="stroke:#038048;stroke-width:1.0;"/><text fill="#FFFFFF" font-family="sans-serif" font-size="14" lengthAdjust="spacing" textLength="227" x="1312" y="1275.1826">setAnswer(answer: String): void</text></g><!--class StageModel--><g id="elem_StageModel"><rect codeLine="67" fill="#303030" height="80.5938" id="StageModel" rx="2.5" ry="2.5" style="stroke:#E7E7E7;stroke-width:0.5;" width="259" x="1688" y="725"/><ellipse cx="1770.75" cy="741" fill="#2E5233" rx="11" ry="11" style="stroke:#E7E7E7;stroke-width:1.0;"/><path d="M1773.0938,736.6719 C1772.1563,736.2344 1771.5625,736.0938 1770.6875,736.0938 C1768.0625,736.0938 1766.0625,738.1719 1766.0625,740.8906 L1766.0625,742.0156 C1766.0625,744.5938 1768.1719,746.4844 1771.0625,746.4844 C1772.2813,746.4844 1773.4375,746.1875 1774.1875,745.6406 C1774.7656,745.2344 1775.0938,744.7813 1775.0938,744.3906 C1775.0938,743.9375 1774.7031,743.5469 1774.2344,743.5469 C1774.0156,743.5469 1773.8125,743.625 1773.625,743.8125 C1773.1719,744.2969 1773.1719,744.2969 1772.9844,744.3906 C1772.5625,744.6563 1771.875,744.7813 1771.1094,744.7813 C1769.0625,744.7813 1767.7656,743.6875 1767.7656,741.9844 L1767.7656,740.8906 C1767.7656,739.1094 1769.0156,737.7969 1770.75,737.7969 C1771.3281,737.7969 1771.9375,737.9531 1772.4063,738.2031 C1772.8906,738.4844 1773.0625,738.7031 1773.1563,739.1094 C1773.2188,739.5156 1773.25,739.6406 1773.3906,739.7656 C1773.5313,739.9063 1773.7656,740.0156 1773.9844,740.0156 C1774.25,740.0156 1774.5156,739.875 1774.6875,739.6563 C1774.7969,739.5 1774.8281,739.3125 1774.8281,738.8906 L1774.8281,737.4688 C1774.8281,737.0313 1774.8125,736.9063 1774.7188,736.75 C1774.5625,736.4844 1774.2813,736.3438 1773.9844,736.3438 C1773.6875,736.3438 1773.4844,736.4375 1773.2656,736.75 L1773.0938,736.6719 Z " fill="#FFFFFF"/><text fill="#FFFFFF" font-family="sans-serif" font-size="14" lengthAdjust="spacing" textLength="85" x="1791.25" y="745.8467">StageModel</text><line style="stroke:#E7E7E7;stroke-width:0.5;" x1="1689" x2="1946" y1="757" y2="757"/><rect fill="none" height="6" style="stroke:#C82930;stroke-width:1.0;" width="6" x="1696" y="767.6484"/><text fill="#FFFFFF" font-family="sans-serif" font-size="14" lengthAdjust="spacing" textLength="117" x="1708" y="773.9951">activeScene: int</text><line style="stroke:#E7E7E7;stroke-width:0.5;" x1="1689" x2="1946" y1="781.2969" y2="781.2969"/><ellipse cx="1699" cy="794.9453" fill="#84BE84" rx="3" ry="3" style="stroke:#038048;stroke-width:1.0;"/><text fill="#FFFFFF" font-family="sans-serif" font-size="14" lengthAdjust="spacing" textLength="233" x="1708" y="798.292">setActiveScene(scene: int): void</text></g><!--class DeckListController--><g id="elem_DeckListController"><rect codeLine="72" fill="#303030" height="113.1875" id="DeckListController" rx="2.5" ry="2.5" style="stroke:#E7E7E7;stroke-width:0.5;" width="395" x="954" y="536"/><ellipse cx="1079.25" cy="552" fill="#2E5233" rx="11" ry="11" style="stroke:#E7E7E7;stroke-width:1.0;"/><path d="M1081.5938,547.6719 C1080.6563,547.2344 1080.0625,547.0938 1079.1875,547.0938 C1076.5625,547.0938 1074.5625,549.1719 1074.5625,551.8906 L1074.5625,553.0156 C1074.5625,555.5938 1076.6719,557.4844 1079.5625,557.4844 C1080.7813,557.4844 1081.9375,557.1875 1082.6875,556.6406 C1083.2656,556.2344 1083.5938,555.7813 1083.5938,555.3906 C1083.5938,554.9375 1083.2031,554.5469 1082.7344,554.5469 C1082.5156,554.5469 1082.3125,554.625 1082.125,554.8125 C1081.6719,555.2969 1081.6719,555.2969 1081.4844,555.3906 C1081.0625,555.6563 1080.375,555.7813 1079.6094,555.7813 C1077.5625,555.7813 1076.2656,554.6875 1076.2656,552.9844 L1076.2656,551.8906 C1076.2656,550.1094 1077.5156,548.7969 1079.25,548.7969 C1079.8281,548.7969 1080.4375,548.9531 1080.9063,549.2031 C1081.3906,549.4844 1081.5625,549.7031 1081.6563,550.1094 C1081.7188,550.5156 1081.75,550.6406 1081.8906,550.7656 C1082.0313,550.9063 1082.2656,551.0156 1082.4844,551.0156 C1082.75,551.0156 1083.0156,550.875 1083.1875,550.6563 C1083.2969,550.5 1083.3281,550.3125 1083.3281,549.8906 L1083.3281,548.4688 C1083.3281,548.0313 1083.3125,547.9063 1083.2188,547.75 C1083.0625,547.4844 1082.7813,547.3438 1082.4844,547.3438 C1082.1875,547.3438 1081.9844,547.4375 1081.7656,547.75 L1081.5938,547.6719 Z " fill="#FFFFFF"/><text fill="#FFFFFF" font-family="sans-serif" font-size="14" lengthAdjust="spacing" textLength="136" x="1099.75" y="556.8467">DeckListController</text><line style="stroke:#E7E7E7;stroke-width:0.5;" x1="955" x2="1348" y1="568" y2="568"/><line style="stroke:#E7E7E7;stroke-width:0.5;" x1="955" x2="1348" y1="576" y2="576"/><ellipse cx="965" cy="589.6484" fill="#84BE84" rx="3" ry="3" style="stroke:#038048;stroke-width:1.0;"/><text fill="#FFFFFF" font-family="sans-serif" font-size="14" lengthAdjust="spacing" textLength="369" x="974" y="592.9951">createDeck(name: String, description: String): void</text><ellipse cx="965" cy="605.9453" fill="#84BE84" rx="3" ry="3" style="stroke:#038048;stroke-width:1.0;"/><text fill="#FFFFFF" font-family="sans-serif" font-size="14" lengthAdjust="spacing" textLength="174" x="974" y="609.292">removeDeck(i: int): void</text><ellipse cx="965" cy="622.2422" fill="#84BE84" rx="3" ry="3" style="stroke:#038048;stroke-width:1.0;"/><text fill="#FFFFFF" font-family="sans-serif" font-size="14" lengthAdjust="spacing" textLength="168" x="974" y="625.5889">exportDeck(i: int): void</text><ellipse cx="965" cy="638.5391" fill="#84BE84" rx="3" ry="3" style="stroke:#038048;stroke-width:1.0;"/><text fill="#FFFFFF" font-family="sans-serif" font-size="14" lengthAdjust="spacing" textLength="136" x="974" y="641.8857">importDeck(): void</text></g><!--class DeckController--><g id="elem_DeckController"><rect codeLine="79" fill="#303030" height="113.1875" id="DeckController" rx="2.5" ry="2.5" style="stroke:#E7E7E7;stroke-width:0.5;" width="360" x="605.5" y="709"/><ellipse cx="726.25" cy="725" fill="#2E5233" rx="11" ry="11" style="stroke:#E7E7E7;stroke-width:1.0;"/><path d="M728.5938,720.6719 C727.6563,720.2344 727.0625,720.0938 726.1875,720.0938 C723.5625,720.0938 721.5625,722.1719 721.5625,724.8906 L721.5625,726.0156 C721.5625,728.5938 723.6719,730.4844 726.5625,730.4844 C727.7813,730.4844 728.9375,730.1875 729.6875,729.6406 C730.2656,729.2344 730.5938,728.7813 730.5938,728.3906 C730.5938,727.9375 730.2031,727.5469 729.7344,727.5469 C729.5156,727.5469 729.3125,727.625 729.125,727.8125 C728.6719,728.2969 728.6719,728.2969 728.4844,728.3906 C728.0625,728.6563 727.375,728.7813 726.6094,728.7813 C724.5625,728.7813 723.2656,727.6875 723.2656,725.9844 L723.2656,724.8906 C723.2656,723.1094 724.5156,721.7969 726.25,721.7969 C726.8281,721.7969 727.4375,721.9531 727.9063,722.2031 C728.3906,722.4844 728.5625,722.7031 728.6563,723.1094 C728.7188,723.5156 728.75,723.6406 728.8906,723.7656 C729.0313,723.9063 729.2656,724.0156 729.4844,724.0156 C729.75,724.0156 730.0156,723.875 730.1875,723.6563 C730.2969,723.5 730.3281,723.3125 730.3281,722.8906 L730.3281,721.4688 C730.3281,721.0313 730.3125,720.9063 730.2188,720.75 C730.0625,720.4844 729.7813,720.3438 729.4844,720.3438 C729.1875,720.3438 728.9844,720.4375 728.7656,720.75 L728.5938,720.6719 Z " fill="#FFFFFF"/><text fill="#FFFFFF" font-family="sans-serif" font-size="14" lengthAdjust="spacing" textLength="110" x="746.75" y="729.8467">DeckController</text><line style="stroke:#E7E7E7;stroke-width:0.5;" x1="606.5" x2="964.5" y1="741" y2="741"/><line style="stroke:#E7E7E7;stroke-width:0.5;" x1="606.5" x2="964.5" y1="749" y2="749"/><ellipse cx="616.5" cy="762.6484" fill="#84BE84" rx="3" ry="3" style="stroke:#038048;stroke-width:1.0;"/><text fill="#FFFFFF" font-family="sans-serif" font-size="14" lengthAdjust="spacing" textLength="206" x="625.5" y="765.9951">setName(name: String): void</text><ellipse cx="616.5" cy="778.9453" fill="#84BE84" rx="3" ry="3" style="stroke:#038048;stroke-width:1.0;"/><text fill="#FFFFFF" font-family="sans-serif" font-size="14" lengthAdjust="spacing" textLength="291" x="625.5" y="782.292">setDescription(description: String): void</text><ellipse cx="616.5" cy="795.2422" fill="#84BE84" rx="3" ry="3" style="stroke:#038048;stroke-width:1.0;"/><text fill="#FFFFFF" font-family="sans-serif" font-size="14" lengthAdjust="spacing" textLength="334" x="625.5" y="798.5889">addCard(question: String, answer: String): void</text><ellipse cx="616.5" cy="811.5391" fill="#84BE84" rx="3" ry="3" style="stroke:#038048;stroke-width:1.0;"/><text fill="#FFFFFF" font-family="sans-serif" font-size="14" lengthAdjust="spacing" textLength="179" x="625.5" y="814.8857">removeCard(id: int): void</text></g><!--class CardController--><g id="elem_CardController"><rect codeLine="86" fill="#303030" height="80.5938" id="CardController" rx="2.5" ry="2.5" style="stroke:#E7E7E7;stroke-width:0.5;" width="277" x="1292" y="947"/><ellipse cx="1373.25" cy="963" fill="#2E5233" rx="11" ry="11" style="stroke:#E7E7E7;stroke-width:1.0;"/><path d="M1375.5938,958.6719 C1374.6563,958.2344 1374.0625,958.0938 1373.1875,958.0938 C1370.5625,958.0938 1368.5625,960.1719 1368.5625,962.8906 L1368.5625,964.0156 C1368.5625,966.5938 1370.6719,968.4844 1373.5625,968.4844 C1374.7813,968.4844 1375.9375,968.1875 1376.6875,967.6406 C1377.2656,967.2344 1377.5938,966.7813 1377.5938,966.3906 C1377.5938,965.9375 1377.2031,965.5469 1376.7344,965.5469 C1376.5156,965.5469 1376.3125,965.625 1376.125,965.8125 C1375.6719,966.2969 1375.6719,966.2969 1375.4844,966.3906 C1375.0625,966.6563 1374.375,966.7813 1373.6094,966.7813 C1371.5625,966.7813 1370.2656,965.6875 1370.2656,963.9844 L1370.2656,962.8906 C1370.2656,961.1094 1371.5156,959.7969 1373.25,959.7969 C1373.8281,959.7969 1374.4375,959.9531 1374.9063,960.2031 C1375.3906,960.4844 1375.5625,960.7031 1375.6563,961.1094 C1375.7188,961.5156 1375.75,961.6406 1375.8906,961.7656 C1376.0313,961.9063 1376.2656,962.0156 1376.4844,962.0156 C1376.75,962.0156 1377.0156,961.875 1377.1875,961.6563 C1377.2969,961.5 1377.3281,961.3125 1377.3281,960.8906 L1377.3281,959.4688 C1377.3281,959.0313 1377.3125,958.9063 1377.2188,958.75 C1377.0625,958.4844 1376.7813,958.3438 1376.4844,958.3438 C1376.1875,958.3438 1375.9844,958.4375 1375.7656,958.75 L1375.5938,958.6719 Z " fill="#FFFFFF"/><text fill="#FFFFFF" font-family="sans-serif" font-size="14" lengthAdjust="spacing" textLength="106" x="1393.75" y="967.8467">CardController</text><line style="stroke:#E7E7E7;stroke-width:0.5;" x1="1293" x2="1568" y1="979" y2="979"/><line style="stroke:#E7E7E7;stroke-width:0.5;" x1="1293" x2="1568" y1="987" y2="987"/><ellipse cx="1303" cy="1000.6484" fill="#84BE84" rx="3" ry="3" style="stroke:#038048;stroke-width:1.0;"/><text fill="#FFFFFF" font-family="sans-serif" font-size="14" lengthAdjust="spacing" textLength="251" x="1312" y="1003.9951">setQuestion(question: String): void</text><ellipse cx="1303" cy="1016.9453" fill="#84BE84" rx="3" ry="3" style="stroke:#038048;stroke-width:1.0;"/><text fill="#FFFFFF" font-family="sans-serif" font-size="14" lengthAdjust="spacing" textLength="227" x="1312" y="1020.292">setAnswer(answer: String): void</text></g><!--class StageController--><g id="elem_StageController"><rect codeLine="91" fill="#303030" height="96.8906" id="StageController" rx="2.5" ry="2.5" style="stroke:#E7E7E7;stroke-width:0.5;" width="259" x="1688" y="544"/><ellipse cx="1755.75" cy="560" fill="#2E5233" rx="11" ry="11" style="stroke:#E7E7E7;stroke-width:1.0;"/><path d="M1758.0938,555.6719 C1757.1563,555.2344 1756.5625,555.0938 1755.6875,555.0938 C1753.0625,555.0938 1751.0625,557.1719 1751.0625,559.8906 L1751.0625,561.0156 C1751.0625,563.5938 1753.1719,565.4844 1756.0625,565.4844 C1757.2813,565.4844 1758.4375,565.1875 1759.1875,564.6406 C1759.7656,564.2344 1760.0938,563.7813 1760.0938,563.3906 C1760.0938,562.9375 1759.7031,562.5469 1759.2344,562.5469 C1759.0156,562.5469 1758.8125,562.625 1758.625,562.8125 C1758.1719,563.2969 1758.1719,563.2969 1757.9844,563.3906 C1757.5625,563.6563 1756.875,563.7813 1756.1094,563.7813 C1754.0625,563.7813 1752.7656,562.6875 1752.7656,560.9844 L1752.7656,559.8906 C1752.7656,558.1094 1754.0156,556.7969 1755.75,556.7969 C1756.3281,556.7969 1756.9375,556.9531 1757.4063,557.2031 C1757.8906,557.4844 1758.0625,557.7031 1758.1563,558.1094 C1758.2188,558.5156 1758.25,558.6406 1758.3906,558.7656 C1758.5313,558.9063 1758.7656,559.0156 1758.9844,559.0156 C1759.25,559.0156 1759.5156,558.875 1759.6875,558.6563 C1759.7969,558.5 1759.8281,558.3125 1759.8281,557.8906 L1759.8281,556.4688 C1759.8281,556.0313 1759.8125,555.9063 1759.7188,555.75 C1759.5625,555.4844 1759.2813,555.3438 1758.9844,555.3438 C1758.6875,555.3438 1758.4844,555.4375 1758.2656,555.75 L1758.0938,555.6719 Z " fill="#FFFFFF"/><text fill="#FFFFFF" font-family="sans-serif" font-size="14" lengthAdjust="spacing" textLength="115" x="1776.25" y="564.8467">StageController</text><line style="stroke:#E7E7E7;stroke-width:0.5;" x1="1689" x2="1946" y1="576" y2="576"/><line style="stroke:#E7E7E7;stroke-width:0.5;" x1="1689" x2="1946" y1="584" y2="584"/><ellipse cx="1699" cy="597.6484" fill="#84BE84" rx="3" ry="3" style="stroke:#038048;stroke-width:1.0;"/><text fill="#FFFFFF" font-family="sans-serif" font-size="14" lengthAdjust="spacing" textLength="233" x="1708" y="600.9951">setActiveScene(scene: int): void</text><ellipse cx="1699" cy="613.9453" fill="#84BE84" rx="3" ry="3" style="stroke:#038048;stroke-width:1.0;"/><text fill="#FFFFFF" font-family="sans-serif" font-size="14" lengthAdjust="spacing" textLength="152" x="1708" y="617.292">setGlobalView(): void</text><ellipse cx="1699" cy="630.2422" fill="#84BE84" rx="3" ry="3" style="stroke:#038048;stroke-width:1.0;"/><text fill="#FFFFFF" font-family="sans-serif" font-size="14" lengthAdjust="spacing" textLength="143" x="1708" y="633.5889">setDeckView(): void</text></g><!--class Tag--><g id="elem_Tag"><rect codeLine="97" fill="#303030" height="80.5938" id="Tag" rx="2.5" ry="2.5" style="stroke:#E7E7E7;stroke-width:0.5;" width="145" x="1112" y="947"/><ellipse cx="1167.25" cy="963" fill="#2E5233" rx="11" ry="11" style="stroke:#E7E7E7;stroke-width:1.0;"/><path d="M1169.5938,958.6719 C1168.6563,958.2344 1168.0625,958.0938 1167.1875,958.0938 C1164.5625,958.0938 1162.5625,960.1719 1162.5625,962.8906 L1162.5625,964.0156 C1162.5625,966.5938 1164.6719,968.4844 1167.5625,968.4844 C1168.7813,968.4844 1169.9375,968.1875 1170.6875,967.6406 C1171.2656,967.2344 1171.5938,966.7813 1171.5938,966.3906 C1171.5938,965.9375 1171.2031,965.5469 1170.7344,965.5469 C1170.5156,965.5469 1170.3125,965.625 1170.125,965.8125 C1169.6719,966.2969 1169.6719,966.2969 1169.4844,966.3906 C1169.0625,966.6563 1168.375,966.7813 1167.6094,966.7813 C1165.5625,966.7813 1164.2656,965.6875 1164.2656,963.9844 L1164.2656,962.8906 C1164.2656,961.1094 1165.5156,959.7969 1167.25,959.7969 C1167.8281,959.7969 1168.4375,959.9531 1168.9063,960.2031 C1169.3906,960.4844 1169.5625,960.7031 1169.6563,961.1094 C1169.7188,961.5156 1169.75,961.6406 1169.8906,961.7656 C1170.0313,961.9063 1170.2656,962.0156 1170.4844,962.0156 C1170.75,962.0156 1171.0156,961.875 1171.1875,961.6563 C1171.2969,961.5 1171.3281,961.3125 1171.3281,960.8906 L1171.3281,959.4688 C1171.3281,959.0313 1171.3125,958.9063 1171.2188,958.75 C1171.0625,958.4844 1170.7813,958.3438 1170.4844,958.3438 C1170.1875,958.3438 1169.9844,958.4375 1169.7656,958.75 L1169.5938,958.6719 Z " fill="#FFFFFF"/><text fill="#FFFFFF" font-family="sans-serif" font-size="14" lengthAdjust="spacing" textLength="26" x="1187.75" y="967.8467">Tag</text><line style="stroke:#E7E7E7;stroke-width:0.5;" x1="1113" x2="1256" y1="979" y2="979"/><rect fill="none" height="6" style="stroke:#C82930;stroke-width:1.0;" width="6" x="1120" y="989.6484"/><text fill="#FFFFFF" font-family="sans-serif" font-size="14" lengthAdjust="spacing" textLength="93" x="1132" y="995.9951">name: String</text><rect fill="none" height="6" style="stroke:#C82930;stroke-width:1.0;" width="6" x="1120" y="1005.9453"/><text fill="#FFFFFF" font-family="sans-serif" font-size="14" lengthAdjust="spacing" textLength="119" x="1132" y="1012.292">listUsed: String[]</text><line style="stroke:#E7E7E7;stroke-width:0.5;" x1="1113" x2="1256" y1="1019.5938" y2="1019.5938"/></g><!--class CardTag--><g id="elem_CardTag"><rect codeLine="102" fill="#303030" height="48" id="CardTag" rx="2.5" ry="2.5" style="stroke:#E7E7E7;stroke-width:0.5;" width="91" x="1328" y="1342"/><ellipse cx="1343" cy="1358" fill="#2E5233" rx="11" ry="11" style="stroke:#E7E7E7;stroke-width:1.0;"/><path d="M1345.3438,1353.6719 C1344.4063,1353.2344 1343.8125,1353.0938 1342.9375,1353.0938 C1340.3125,1353.0938 1338.3125,1355.1719 1338.3125,1357.8906 L1338.3125,1359.0156 C1338.3125,1361.5938 1340.4219,1363.4844 1343.3125,1363.4844 C1344.5313,1363.4844 1345.6875,1363.1875 1346.4375,1362.6406 C1347.0156,1362.2344 1347.3438,1361.7813 1347.3438,1361.3906 C1347.3438,1360.9375 1346.9531,1360.5469 1346.4844,1360.5469 C1346.2656,1360.5469 1346.0625,1360.625 1345.875,1360.8125 C1345.4219,1361.2969 1345.4219,1361.2969 1345.2344,1361.3906 C1344.8125,1361.6563 1344.125,1361.7813 1343.3594,1361.7813 C1341.3125,1361.7813 1340.0156,1360.6875 1340.0156,1358.9844 L1340.0156,1357.8906 C1340.0156,1356.1094 1341.2656,1354.7969 1343,1354.7969 C1343.5781,1354.7969 1344.1875,1354.9531 1344.6563,1355.2031 C1345.1406,1355.4844 1345.3125,1355.7031 1345.4063,1356.1094 C1345.4688,1356.5156 1345.5,1356.6406 1345.6406,1356.7656 C1345.7813,1356.9063 1346.0156,1357.0156 1346.2344,1357.0156 C1346.5,1357.0156 1346.7656,1356.875 1346.9375,1356.6563 C1347.0469,1356.5 1347.0781,1356.3125 1347.0781,1355.8906 L1347.0781,1354.4688 C1347.0781,1354.0313 1347.0625,1353.9063 1346.9688,1353.75 C1346.8125,1353.4844 1346.5313,1353.3438 1346.2344,1353.3438 C1345.9375,1353.3438 1345.7344,1353.4375 1345.5156,1353.75 L1345.3438,1353.6719 Z " fill="#FFFFFF"/><text fill="#FFFFFF" font-family="sans-serif" font-size="14" lengthAdjust="spacing" textLength="59" x="1357" y="1362.8467">CardTag</text><line style="stroke:#E7E7E7;stroke-width:0.5;" x1="1329" x2="1418" y1="1374" y2="1374"/><line style="stroke:#E7E7E7;stroke-width:0.5;" x1="1329" x2="1418" y1="1382" y2="1382"/></g><!--class DeckTag--><g id="elem_DeckTag"><rect codeLine="105" fill="#303030" height="48" id="DeckTag" rx="2.5" ry="2.5" style="stroke:#E7E7E7;stroke-width:0.5;" width="95" x="1020" y="1193.5"/><ellipse cx="1035" cy="1209.5" fill="#2E5233" rx="11" ry="11" style="stroke:#E7E7E7;stroke-width:1.0;"/><path d="M1037.3438,1205.1719 C1036.4063,1204.7344 1035.8125,1204.5938 1034.9375,1204.5938 C1032.3125,1204.5938 1030.3125,1206.6719 1030.3125,1209.3906 L1030.3125,1210.5156 C1030.3125,1213.0938 1032.4219,1214.9844 1035.3125,1214.9844 C1036.5313,1214.9844 1037.6875,1214.6875 1038.4375,1214.1406 C1039.0156,1213.7344 1039.3438,1213.2813 1039.3438,1212.8906 C1039.3438,1212.4375 1038.9531,1212.0469 1038.4844,1212.0469 C1038.2656,1212.0469 1038.0625,1212.125 1037.875,1212.3125 C1037.4219,1212.7969 1037.4219,1212.7969 1037.2344,1212.8906 C1036.8125,1213.1563 1036.125,1213.2813 1035.3594,1213.2813 C1033.3125,1213.2813 1032.0156,1212.1875 1032.0156,1210.4844 L1032.0156,1209.3906 C1032.0156,1207.6094 1033.2656,1206.2969 1035,1206.2969 C1035.5781,1206.2969 1036.1875,1206.4531 1036.6563,1206.7031 C1037.1406,1206.9844 1037.3125,1207.2031 1037.4063,1207.6094 C1037.4688,1208.0156 1037.5,1208.1406 1037.6406,1208.2656 C1037.7813,1208.4063 1038.0156,1208.5156 1038.2344,1208.5156 C1038.5,1208.5156 1038.7656,1208.375 1038.9375,1208.1563 C1039.0469,1208 1039.0781,1207.8125 1039.0781,1207.3906 L1039.0781,1205.9688 C1039.0781,1205.5313 1039.0625,1205.4063 1038.9688,1205.25 C1038.8125,1204.9844 1038.5313,1204.8438 1038.2344,1204.8438 C1037.9375,1204.8438 1037.7344,1204.9375 1037.5156,1205.25 L1037.3438,1205.1719 Z " fill="#FFFFFF"/><text fill="#FFFFFF" font-family="sans-serif" font-size="14" lengthAdjust="spacing" textLength="63" x="1049" y="1214.3467">DeckTag</text><line style="stroke:#E7E7E7;stroke-width:0.5;" x1="1021" x2="1114" y1="1225.5" y2="1225.5"/><line style="stroke:#E7E7E7;stroke-width:0.5;" x1="1021" x2="1114" y1="1233.5" y2="1233.5"/></g><!--class DrawCardStrategy--><g id="elem_DrawCardStrategy"><rect codeLine="108" fill="#303030" height="80.5938" id="DrawCardStrategy" rx="2.5" ry="2.5" style="stroke:#E7E7E7;stroke-width:0.5;" width="462" x="224.5" y="1177"/><ellipse cx="385.75" cy="1193" fill="#352866" rx="11" ry="11" style="stroke:#E7E7E7;stroke-width:1.0;"/><path d="M386.7031,1189.7813 L388.4219,1189.7813 C388.8125,1189.7813 389,1189.75 389.125,1189.6719 C389.3906,1189.5156 389.5313,1189.2344 389.5313,1188.9375 C389.5313,1188.6719 389.4219,1188.4063 389.1875,1188.2344 C389.0156,1188.125 388.875,1188.0938 388.4219,1188.0938 L383.2813,1188.0938 C382.8438,1188.0938 382.7188,1188.1094 382.5625,1188.2031 C382.3125,1188.3594 382.1563,1188.6563 382.1563,1188.9375 C382.1563,1189.2188 382.2969,1189.4688 382.5156,1189.6406 C382.6719,1189.75 382.8594,1189.7813 383.2813,1189.7813 L385,1189.7813 L385,1196.2969 L383.2813,1196.2969 C382.8438,1196.2969 382.7188,1196.3125 382.5625,1196.4219 C382.3125,1196.5781 382.1563,1196.8594 382.1563,1197.1563 C382.1563,1197.4063 382.2969,1197.6719 382.5156,1197.8281 C382.6719,1197.9531 382.875,1198 383.2813,1198 L388.4219,1198 C389.1719,1198 389.5313,1197.7188 389.5313,1197.1563 C389.5313,1196.875 389.4219,1196.625 389.1875,1196.4531 C389.0156,1196.3281 388.875,1196.2969 388.4219,1196.2969 L386.7031,1196.2969 L386.7031,1189.7813 Z " fill="#FFFFFF"/><text fill="#FFFFFF" font-family="sans-serif" font-size="14" font-style="italic" lengthAdjust="spacing" textLength="131" x="406.25" y="1197.8467">DrawCardStrategy</text><line style="stroke:#E7E7E7;stroke-width:0.5;" x1="225.5" x2="685.5" y1="1209" y2="1209"/><line style="stroke:#E7E7E7;stroke-width:0.5;" x1="225.5" x2="685.5" y1="1217" y2="1217"/><ellipse cx="235.5" cy="1230.6484" fill="#84BE84" rx="3" ry="3" style="stroke:#038048;stroke-width:1.0;"/><text fill="#FFFFFF" font-family="sans-serif" font-size="14" lengthAdjust="spacing" textLength="436" x="244.5" y="1233.9951">handleAnswer(answer: boolean, DeckModel deckModel): void</text><ellipse cx="235.5" cy="1246.9453" fill="#84BE84" rx="3" ry="3" style="stroke:#038048;stroke-width:1.0;"/><text fill="#FFFFFF" font-family="sans-serif" font-size="14" lengthAdjust="spacing" textLength="267" x="244.5" y="1250.292">nextCard(DeckModel deckModel): int</text></g><!--class BuildCardStrategy--><g id="elem_BuildCardStrategy"><rect codeLine="113" fill="#303030" height="64.2969" id="BuildCardStrategy" rx="2.5" ry="2.5" style="stroke:#E7E7E7;stroke-width:0.5;" width="162" x="794.5" y="1185.5"/><ellipse cx="809.5" cy="1201.5" fill="#352866" rx="11" ry="11" style="stroke:#E7E7E7;stroke-width:1.0;"/><path d="M810.4531,1198.2813 L812.1719,1198.2813 C812.5625,1198.2813 812.75,1198.25 812.875,1198.1719 C813.1406,1198.0156 813.2813,1197.7344 813.2813,1197.4375 C813.2813,1197.1719 813.1719,1196.9063 812.9375,1196.7344 C812.7656,1196.625 812.625,1196.5938 812.1719,1196.5938 L807.0313,1196.5938 C806.5938,1196.5938 806.4688,1196.6094 806.3125,1196.7031 C806.0625,1196.8594 805.9063,1197.1563 805.9063,1197.4375 C805.9063,1197.7188 806.0469,1197.9688 806.2656,1198.1406 C806.4219,1198.25 806.6094,1198.2813 807.0313,1198.2813 L808.75,1198.2813 L808.75,1204.7969 L807.0313,1204.7969 C806.5938,1204.7969 806.4688,1204.8125 806.3125,1204.9219 C806.0625,1205.0781 805.9063,1205.3594 805.9063,1205.6563 C805.9063,1205.9063 806.0469,1206.1719 806.2656,1206.3281 C806.4219,1206.4531 806.625,1206.5 807.0313,1206.5 L812.1719,1206.5 C812.9219,1206.5 813.2813,1206.2188 813.2813,1205.6563 C813.2813,1205.375 813.1719,1205.125 812.9375,1204.9531 C812.7656,1204.8281 812.625,1204.7969 812.1719,1204.7969 L810.4531,1204.7969 L810.4531,1198.2813 Z " fill="#FFFFFF"/><text fill="#FFFFFF" font-family="sans-serif" font-size="14" font-style="italic" lengthAdjust="spacing" textLength="130" x="823.5" y="1206.3467">BuildCardStrategy</text><line style="stroke:#E7E7E7;stroke-width:0.5;" x1="795.5" x2="955.5" y1="1217.5" y2="1217.5"/><line style="stroke:#E7E7E7;stroke-width:0.5;" x1="795.5" x2="955.5" y1="1225.5" y2="1225.5"/><ellipse cx="805.5" cy="1239.1484" fill="#84BE84" rx="3" ry="3" style="stroke:#038048;stroke-width:1.0;"/><text fill="#FFFFFF" font-family="sans-serif" font-size="14" lengthAdjust="spacing" textLength="78" x="814.5" y="1242.4951">buildCard()</text></g><!--class BuildCardStrategyClassic--><g id="elem_BuildCardStrategyClassic"><rect codeLine="117" fill="#303030" height="48" id="BuildCardStrategyClassic" rx="2.5" ry="2.5" style="stroke:#E7E7E7;stroke-width:0.5;" width="211" x="770" y="1342"/><ellipse cx="785" cy="1358" fill="#2E5233" rx="11" ry="11" style="stroke:#E7E7E7;stroke-width:1.0;"/><path d="M787.3438,1353.6719 C786.4063,1353.2344 785.8125,1353.0938 784.9375,1353.0938 C782.3125,1353.0938 780.3125,1355.1719 780.3125,1357.8906 L780.3125,1359.0156 C780.3125,1361.5938 782.4219,1363.4844 785.3125,1363.4844 C786.5313,1363.4844 787.6875,1363.1875 788.4375,1362.6406 C789.0156,1362.2344 789.3438,1361.7813 789.3438,1361.3906 C789.3438,1360.9375 788.9531,1360.5469 788.4844,1360.5469 C788.2656,1360.5469 788.0625,1360.625 787.875,1360.8125 C787.4219,1361.2969 787.4219,1361.2969 787.2344,1361.3906 C786.8125,1361.6563 786.125,1361.7813 785.3594,1361.7813 C783.3125,1361.7813 782.0156,1360.6875 782.0156,1358.9844 L782.0156,1357.8906 C782.0156,1356.1094 783.2656,1354.7969 785,1354.7969 C785.5781,1354.7969 786.1875,1354.9531 786.6563,1355.2031 C787.1406,1355.4844 787.3125,1355.7031 787.4063,1356.1094 C787.4688,1356.5156 787.5,1356.6406 787.6406,1356.7656 C787.7813,1356.9063 788.0156,1357.0156 788.2344,1357.0156 C788.5,1357.0156 788.7656,1356.875 788.9375,1356.6563 C789.0469,1356.5 789.0781,1356.3125 789.0781,1355.8906 L789.0781,1354.4688 C789.0781,1354.0313 789.0625,1353.9063 788.9688,1353.75 C788.8125,1353.4844 788.5313,1353.3438 788.2344,1353.3438 C787.9375,1353.3438 787.7344,1353.4375 787.5156,1353.75 L787.3438,1353.6719 Z " fill="#FFFFFF"/><text fill="#FFFFFF" font-family="sans-serif" font-size="14" lengthAdjust="spacing" textLength="179" x="799" y="1362.8467">BuildCardStrategyClassic</text><line style="stroke:#E7E7E7;stroke-width:0.5;" x1="771" x2="980" y1="1374" y2="1374"/><line style="stroke:#E7E7E7;stroke-width:0.5;" x1="771" x2="980" y1="1382" y2="1382"/></g><!--class BuildCardStrategyTheme2--><g id="elem_BuildCardStrategyTheme2"><rect codeLine="120" fill="#303030" height="48" id="BuildCardStrategyTheme2" rx="2.5" ry="2.5" style="stroke:#E7E7E7;stroke-width:0.5;" width="221" x="1016" y="1342"/><ellipse cx="1031" cy="1358" fill="#2E5233" rx="11" ry="11" style="stroke:#E7E7E7;stroke-width:1.0;"/><path d="M1033.3438,1353.6719 C1032.4063,1353.2344 1031.8125,1353.0938 1030.9375,1353.0938 C1028.3125,1353.0938 1026.3125,1355.1719 1026.3125,1357.8906 L1026.3125,1359.0156 C1026.3125,1361.5938 1028.4219,1363.4844 1031.3125,1363.4844 C1032.5313,1363.4844 1033.6875,1363.1875 1034.4375,1362.6406 C1035.0156,1362.2344 1035.3438,1361.7813 1035.3438,1361.3906 C1035.3438,1360.9375 1034.9531,1360.5469 1034.4844,1360.5469 C1034.2656,1360.5469 1034.0625,1360.625 1033.875,1360.8125 C1033.4219,1361.2969 1033.4219,1361.2969 1033.2344,1361.3906 C1032.8125,1361.6563 1032.125,1361.7813 1031.3594,1361.7813 C1029.3125,1361.7813 1028.0156,1360.6875 1028.0156,1358.9844 L1028.0156,1357.8906 C1028.0156,1356.1094 1029.2656,1354.7969 1031,1354.7969 C1031.5781,1354.7969 1032.1875,1354.9531 1032.6563,1355.2031 C1033.1406,1355.4844 1033.3125,1355.7031 1033.4063,1356.1094 C1033.4688,1356.5156 1033.5,1356.6406 1033.6406,1356.7656 C1033.7813,1356.9063 1034.0156,1357.0156 1034.2344,1357.0156 C1034.5,1357.0156 1034.7656,1356.875 1034.9375,1356.6563 C1035.0469,1356.5 1035.0781,1356.3125 1035.0781,1355.8906 L1035.0781,1354.4688 C1035.0781,1354.0313 1035.0625,1353.9063 1034.9688,1353.75 C1034.8125,1353.4844 1034.5313,1353.3438 1034.2344,1353.3438 C1033.9375,1353.3438 1033.7344,1353.4375 1033.5156,1353.75 L1033.3438,1353.6719 Z " fill="#FFFFFF"/><text fill="#FFFFFF" font-family="sans-serif" font-size="14" lengthAdjust="spacing" textLength="189" x="1045" y="1362.8467">BuildCardStrategyTheme2</text><line style="stroke:#E7E7E7;stroke-width:0.5;" x1="1017" x2="1236" y1="1374" y2="1374"/><line style="stroke:#E7E7E7;stroke-width:0.5;" x1="1017" x2="1236" y1="1382" y2="1382"/></g><!--class DrawCardStrategyRandom--><g id="elem_DrawCardStrategyRandom"><rect codeLine="123" fill="#303030" height="48" id="DrawCardStrategyRandom" rx="2.5" ry="2.5" style="stroke:#E7E7E7;stroke-width:0.5;" width="223" x="7" y="1342"/><ellipse cx="22" cy="1358" fill="#2E5233" rx="11" ry="11" style="stroke:#E7E7E7;stroke-width:1.0;"/><path d="M24.3438,1353.6719 C23.4063,1353.2344 22.8125,1353.0938 21.9375,1353.0938 C19.3125,1353.0938 17.3125,1355.1719 17.3125,1357.8906 L17.3125,1359.0156 C17.3125,1361.5938 19.4219,1363.4844 22.3125,1363.4844 C23.5313,1363.4844 24.6875,1363.1875 25.4375,1362.6406 C26.0156,1362.2344 26.3438,1361.7813 26.3438,1361.3906 C26.3438,1360.9375 25.9531,1360.5469 25.4844,1360.5469 C25.2656,1360.5469 25.0625,1360.625 24.875,1360.8125 C24.4219,1361.2969 24.4219,1361.2969 24.2344,1361.3906 C23.8125,1361.6563 23.125,1361.7813 22.3594,1361.7813 C20.3125,1361.7813 19.0156,1360.6875 19.0156,1358.9844 L19.0156,1357.8906 C19.0156,1356.1094 20.2656,1354.7969 22,1354.7969 C22.5781,1354.7969 23.1875,1354.9531 23.6563,1355.2031 C24.1406,1355.4844 24.3125,1355.7031 24.4063,1356.1094 C24.4688,1356.5156 24.5,1356.6406 24.6406,1356.7656 C24.7813,1356.9063 25.0156,1357.0156 25.2344,1357.0156 C25.5,1357.0156 25.7656,1356.875 25.9375,1356.6563 C26.0469,1356.5 26.0781,1356.3125 26.0781,1355.8906 L26.0781,1354.4688 C26.0781,1354.0313 26.0625,1353.9063 25.9688,1353.75 C25.8125,1353.4844 25.5313,1353.3438 25.2344,1353.3438 C24.9375,1353.3438 24.7344,1353.4375 24.5156,1353.75 L24.3438,1353.6719 Z " fill="#FFFFFF"/><text fill="#FFFFFF" font-family="sans-serif" font-size="14" lengthAdjust="spacing" textLength="191" x="36" y="1362.8467">DrawCardStrategyRandom</text><line style="stroke:#E7E7E7;stroke-width:0.5;" x1="8" x2="229" y1="1374" y2="1374"/><line style="stroke:#E7E7E7;stroke-width:0.5;" x1="8" x2="229" y1="1382" y2="1382"/></g><!--class DrawCardStrategyWeighted--><g id="elem_DrawCardStrategyWeighted"><rect codeLine="126" fill="#303030" height="48" id="DrawCardStrategyWeighted" rx="2.5" ry="2.5" style="stroke:#E7E7E7;stroke-width:0.5;" width="234" x="265.5" y="1342"/><ellipse cx="280.5" cy="1358" fill="#2E5233" rx="11" ry="11" style="stroke:#E7E7E7;stroke-width:1.0;"/><path d="M282.8438,1353.6719 C281.9063,1353.2344 281.3125,1353.0938 280.4375,1353.0938 C277.8125,1353.0938 275.8125,1355.1719 275.8125,1357.8906 L275.8125,1359.0156 C275.8125,1361.5938 277.9219,1363.4844 280.8125,1363.4844 C282.0313,1363.4844 283.1875,1363.1875 283.9375,1362.6406 C284.5156,1362.2344 284.8438,1361.7813 284.8438,1361.3906 C284.8438,1360.9375 284.4531,1360.5469 283.9844,1360.5469 C283.7656,1360.5469 283.5625,1360.625 283.375,1360.8125 C282.9219,1361.2969 282.9219,1361.2969 282.7344,1361.3906 C282.3125,1361.6563 281.625,1361.7813 280.8594,1361.7813 C278.8125,1361.7813 277.5156,1360.6875 277.5156,1358.9844 L277.5156,1357.8906 C277.5156,1356.1094 278.7656,1354.7969 280.5,1354.7969 C281.0781,1354.7969 281.6875,1354.9531 282.1563,1355.2031 C282.6406,1355.4844 282.8125,1355.7031 282.9063,1356.1094 C282.9688,1356.5156 283,1356.6406 283.1406,1356.7656 C283.2813,1356.9063 283.5156,1357.0156 283.7344,1357.0156 C284,1357.0156 284.2656,1356.875 284.4375,1356.6563 C284.5469,1356.5 284.5781,1356.3125 284.5781,1355.8906 L284.5781,1354.4688 C284.5781,1354.0313 284.5625,1353.9063 284.4688,1353.75 C284.3125,1353.4844 284.0313,1353.3438 283.7344,1353.3438 C283.4375,1353.3438 283.2344,1353.4375 283.0156,1353.75 L282.8438,1353.6719 Z " fill="#FFFFFF"/><text fill="#FFFFFF" font-family="sans-serif" font-size="14" lengthAdjust="spacing" textLength="202" x="294.5" y="1362.8467">DrawCardStrategyWeighted</text><line style="stroke:#E7E7E7;stroke-width:0.5;" x1="266.5" x2="498.5" y1="1374" y2="1374"/><line style="stroke:#E7E7E7;stroke-width:0.5;" x1="266.5" x2="498.5" y1="1382" y2="1382"/></g><!--class DrawCardStrategyTime--><g id="elem_DrawCardStrategyTime"><rect codeLine="129" fill="#303030" height="48" id="DrawCardStrategyTime" rx="2.5" ry="2.5" style="stroke:#E7E7E7;stroke-width:0.5;" width="200" x="534.5" y="1342"/><ellipse cx="549.5" cy="1358" fill="#2E5233" rx="11" ry="11" style="stroke:#E7E7E7;stroke-width:1.0;"/><path d="M551.8438,1353.6719 C550.9063,1353.2344 550.3125,1353.0938 549.4375,1353.0938 C546.8125,1353.0938 544.8125,1355.1719 544.8125,1357.8906 L544.8125,1359.0156 C544.8125,1361.5938 546.9219,1363.4844 549.8125,1363.4844 C551.0313,1363.4844 552.1875,1363.1875 552.9375,1362.6406 C553.5156,1362.2344 553.8438,1361.7813 553.8438,1361.3906 C553.8438,1360.9375 553.4531,1360.5469 552.9844,1360.5469 C552.7656,1360.5469 552.5625,1360.625 552.375,1360.8125 C551.9219,1361.2969 551.9219,1361.2969 551.7344,1361.3906 C551.3125,1361.6563 550.625,1361.7813 549.8594,1361.7813 C547.8125,1361.7813 546.5156,1360.6875 546.5156,1358.9844 L546.5156,1357.8906 C546.5156,1356.1094 547.7656,1354.7969 549.5,1354.7969 C550.0781,1354.7969 550.6875,1354.9531 551.1563,1355.2031 C551.6406,1355.4844 551.8125,1355.7031 551.9063,1356.1094 C551.9688,1356.5156 552,1356.6406 552.1406,1356.7656 C552.2813,1356.9063 552.5156,1357.0156 552.7344,1357.0156 C553,1357.0156 553.2656,1356.875 553.4375,1356.6563 C553.5469,1356.5 553.5781,1356.3125 553.5781,1355.8906 L553.5781,1354.4688 C553.5781,1354.0313 553.5625,1353.9063 553.4688,1353.75 C553.3125,1353.4844 553.0313,1353.3438 552.7344,1353.3438 C552.4375,1353.3438 552.2344,1353.4375 552.0156,1353.75 L551.8438,1353.6719 Z " fill="#FFFFFF"/><text fill="#FFFFFF" font-family="sans-serif" font-size="14" lengthAdjust="spacing" textLength="168" x="563.5" y="1362.8467">DrawCardStrategyTime</text><line style="stroke:#E7E7E7;stroke-width:0.5;" x1="535.5" x2="733.5" y1="1374" y2="1374"/><line style="stroke:#E7E7E7;stroke-width:0.5;" x1="535.5" x2="733.5" y1="1382" y2="1382"/></g><!--reverse link Observer to CardObserver--><g id="link_Observer_CardObserver"><path d="M1488.68,59.26 C1575.47,81.19 1715.85,116.68 1797.95,137.43 " fill="none" id="Observer-backto-CardObserver" style="stroke:#E7E7E7;stroke-width:1.0;stroke-dasharray:7.0,7.0;"/><polygon fill="none" points="1486.84,66.01,1469.16,54.32,1490.27,52.44,1486.84,66.01" style="stroke:#E7E7E7;stroke-width:1.0;"/></g><!--reverse link Observer to DeckObserver--><g id="link_Observer_DeckObserver"><path d="M1336.73,66.24 C1210.32,110.02 958.48,197.24 838.309,238.86 " fill="none" id="Observer-backto-DeckObserver" style="stroke:#E7E7E7;stroke-width:1.0;stroke-dasharray:7.0,7.0;"/><polygon fill="none" points="1334.71,59.53,1355.9,59.6,1339.29,72.76,1334.71,59.53" style="stroke:#E7E7E7;stroke-width:1.0;"/></g><!--reverse link Observer to DeckListObserver--><g id="link_Observer_DeckListObserver"><path d="M1391.16,89.87 C1371.23,136.45 1342.36,203.91 1327.37,238.94 " fill="none" id="Observer-backto-DeckListObserver" style="stroke:#E7E7E7;stroke-width:1.0;stroke-dasharray:7.0,7.0;"/><polygon fill="none" points="1384.79,86.97,1399.09,71.34,1397.66,92.48,1384.79,86.97" style="stroke:#E7E7E7;stroke-width:1.0;"/></g><!--reverse link Observer to StageObserver--><g id="link_Observer_StageObserver"><path d="M1443.51,88.43 C1452.93,103.13 1462.84,118.62 1470.67,130.84 " fill="none" id="Observer-backto-StageObserver" style="stroke:#E7E7E7;stroke-width:1.0;stroke-dasharray:7.0,7.0;"/><polygon fill="none" points="1437.34,91.77,1432.45,71.15,1449.13,84.22,1437.34,91.77" style="stroke:#E7E7E7;stroke-width:1.0;"/></g><!--reverse link DeckListObserver to GlobalView--><g id="link_DeckListObserver_GlobalView"><path d="M1340.92,304.84 C1348.4,317.89 1356.87,332.66 1365.05,346.93 " fill="none" id="DeckListObserver-backto-GlobalView" style="stroke:#E7E7E7;stroke-width:1.0;"/><polygon fill="none" points="1334.69,308.05,1330.81,287.21,1346.83,301.08,1334.69,308.05" style="stroke:#E7E7E7;stroke-width:1.0;"/></g><!--reverse link DeckObserver to DeckView--><g id="link_DeckObserver_DeckView"><path d="M771.5,307.6 C771.5,319.95 771.5,333.66 771.5,346.93 " fill="none" id="DeckObserver-backto-DeckView" style="stroke:#E7E7E7;stroke-width:1.0;"/><polygon fill="none" points="764.5,307.21,771.5,287.21,778.5,307.21,764.5,307.21" style="stroke:#E7E7E7;stroke-width:1.0;"/></g><!--reverse link StageObserver to StageView--><g id="link_StageObserver_StageView"><path d="M1485.5,199.02 C1485.5,212.58 1485.5,227.04 1485.5,238.68 " fill="none" id="StageObserver-backto-StageView" style="stroke:#E7E7E7;stroke-width:1.0;"/><polygon fill="none" points="1478.5,199,1485.5,179,1492.5,199,1478.5,199" style="stroke:#E7E7E7;stroke-width:1.0;"/></g><!--reverse link Observed to DeckListModel--><g id="link_Observed_DeckListModel"><path d="M1423.63,642.51 C1373.06,668.637 1311.65,700.36 1264.14,724.907 " fill="none" id="Observed-backto-DeckListModel" style="stroke:#E7E7E7;stroke-width:1.0;"/><polygon fill="none" points="1420.75,636.121,1441.73,633.161,1427.17,648.56,1420.75,636.121" style="stroke:#E7E7E7;stroke-width:1.0;"/></g><!--reverse link Observed to DeckModel--><g id="link_Observed_DeckModel"><path d="M1501.41,652.464 C1482.99,705.199 1448.39,780.4 1391.5,822 C1282.8,901.493 1222.76,840.961 1094.5,882 C1088.57,883.898 1082.58,885.901 1076.57,887.992 " fill="none" id="Observed-backto-DeckModel" style="stroke:#E7E7E7;stroke-width:1.0;"/><polygon fill="none" points="1494.88,649.921,1507.8,633.126,1508.17,654.312,1494.88,649.921" style="stroke:#E7E7E7;stroke-width:1.0;"/></g><!--reverse link Observed to CardModel--><g id="link_Observed_CardModel"><path d="M1546.59,651.611 C1589.07,748.314 1657.55,946.141 1586.5,1093 C1575.37,1116.011 1557.64,1136.038 1538.05,1152.883 " fill="none" id="Observed-backto-CardModel" style="stroke:#E7E7E7;stroke-width:1.0;"/><polygon fill="none" points="1540.09,654.222,1538.24,633.114,1552.85,648.459,1540.09,654.222" style="stroke:#E7E7E7;stroke-width:1.0;"/></g><!--reverse link Observed to StageModel--><g id="link_Observed_StageModel"><path d="M1605.4,643.198 C1650.85,669.193 1705.72,700.575 1748.27,724.907 " fill="none" id="Observed-backto-StageModel" style="stroke:#E7E7E7;stroke-width:1.0;"/><polygon fill="none" points="1601.73,649.166,1587.85,633.161,1608.68,637.013,1601.73,649.166" style="stroke:#E7E7E7;stroke-width:1.0;"/></g><!--reverse link Tag to CardTag--><g id="link_Tag_CardTag"><path d="M1192.56,1048.222 C1203.22,1110.75 1226.59,1209.715 1274.5,1282 C1290.48,1306.1169 1315.5,1327.004 1336.38,1341.7925 " fill="none" id="Tag-backto-CardTag" style="stroke:#E7E7E7;stroke-width:1.0;"/><polygon fill="none" points="1185.59,1048.969,1189.35,1028.116,1199.41,1046.765,1185.59,1048.969" style="stroke:#E7E7E7;stroke-width:1.0;"/></g><!--reverse link Tag to DeckTag--><g id="link_Tag_DeckTag"><path d="M1154.92,1046.144 C1130.48,1093.779 1097.03,1158.954 1079.44,1193.238 " fill="none" id="Tag-backto-DeckTag" style="stroke:#E7E7E7;stroke-width:1.0;"/><polygon fill="none" points="1148.76,1042.813,1164.12,1028.215,1161.22,1049.204,1148.76,1042.813" style="stroke:#E7E7E7;stroke-width:1.0;"/></g><!--reverse link BuildCardStrategy to BuildCardStrategyClassic--><g id="link_BuildCardStrategy_BuildCardStrategyClassic"><path d="M875.5,1269.842 C875.5,1294.3184 875.5,1322.3894 875.5,1341.6652 " fill="none" id="BuildCardStrategy-backto-BuildCardStrategyClassic" style="stroke:#E7E7E7;stroke-width:1.0;stroke-dasharray:7.0,7.0;"/><polygon fill="none" points="868.5,1269.569,875.5,1249.569,882.5,1269.569,868.5,1269.569" style="stroke:#E7E7E7;stroke-width:1.0;"/></g><!--reverse link BuildCardStrategy to BuildCardStrategyTheme2--><g id="link_BuildCardStrategy_BuildCardStrategyTheme2"><path d="M946.158,1259.741 C991.7,1286.322 1049.24,1319.9035 1086.91,1341.8927 " fill="none" id="BuildCardStrategy-backto-BuildCardStrategyTheme2" style="stroke:#E7E7E7;stroke-width:1.0;stroke-dasharray:7.0,7.0;"/><polygon fill="none" points="942.475,1265.696,928.731,1249.569,949.532,1253.605,942.475,1265.696" style="stroke:#E7E7E7;stroke-width:1.0;"/></g><!--reverse link DrawCardStrategy to DrawCardStrategyRandom--><g id="link_DrawCardStrategy_DrawCardStrategyRandom"><path d="M345.735,1266.217 C287.249,1291.6418 217.971,1321.7582 171.415,1341.9967 " fill="none" id="DrawCardStrategy-backto-DrawCardStrategyRandom" style="stroke:#E7E7E7;stroke-width:1.0;stroke-dasharray:7.0,7.0;"/><polygon fill="none" points="343.17,1259.699,364.303,1258.145,348.752,1272.538,343.17,1259.699" style="stroke:#E7E7E7;stroke-width:1.0;"/></g><!--reverse link DrawCardStrategy to DrawCardStrategyWeighted--><g id="link_DrawCardStrategy_DrawCardStrategyWeighted"><path d="M426.714,1276.269 C415.307,1299.1621 402.845,1324.1698 394.068,1341.7841 " fill="none" id="DrawCardStrategy-backto-DrawCardStrategyWeighted" style="stroke:#E7E7E7;stroke-width:1.0;stroke-dasharray:7.0,7.0;"/><polygon fill="none" points="420.56,1272.924,435.745,1258.145,433.091,1279.168,420.56,1272.924" style="stroke:#E7E7E7;stroke-width:1.0;"/></g><!--reverse link DrawCardStrategy to DrawCardStrategyTime--><g id="link_DrawCardStrategy_DrawCardStrategyTime"><path d="M519.51,1270.888 C549.284,1295.256 583.164,1322.9848 606.394,1341.9967 " fill="none" id="DrawCardStrategy-backto-DrawCardStrategyTime" style="stroke:#E7E7E7;stroke-width:1.0;stroke-dasharray:7.0,7.0;"/><polygon fill="none" points="514.984,1276.229,503.94,1258.145,523.851,1265.395,514.984,1276.229" style="stroke:#E7E7E7;stroke-width:1.0;"/></g><!--link CardObserver to CardModel--><g id="link_CardObserver_CardModel"><path codeLine="132" d="M1902.14,179.19 C1962.29,218.57 2071.5,304.65 2071.5,410.5 C2071.5,410.5 2071.5,410.5 2071.5,766.5 C2071.5,1010.056 1757.67,1133.092 1569.19,1185.022 " fill="none" id="CardObserver-CardModel" style="stroke:#E7E7E7;stroke-width:1.0;"/></g><!--link DeckObserver to DeckModel--><g id="link_DeckObserver_DeckModel"><path codeLine="133" d="M704.806,276.72 C665.263,288.04 618.183,308.96 593.5,347 C478.588,524.117 483.651,638.179 587.5,822 C601.79,847.294 621.7,869.131 644.324,887.867 " fill="none" id="DeckObserver-DeckModel" style="stroke:#E7E7E7;stroke-width:1.0;"/></g><!--link DeckListObserver to DeckListModel--><g id="link_DeckListObserver_DeckListModel"><path codeLine="134" d="M1254.78,287.14 C1165.06,324.07 1003.549,405.751 936.5,536 C913.514,580.653 909.408,606.711 936.5,649 C958.559,683.433 993.761,707.742 1030.91,724.85 " fill="none" id="DeckListObserver-DeckListModel" style="stroke:#E7E7E7;stroke-width:1.0;"/></g><!--link StageObserver to StageModel--><g id="link_StageObserver_StageModel"><path codeLine="135" d="M1539.6,179.07 C1644.85,227.33 1874.68,350.1 1964.5,536 C1986.35,581.221 1986.45,603.83 1964.5,649 C1949.18,680.526 1920.62,706.009 1892.72,724.936 " fill="none" id="StageObserver-StageModel" style="stroke:#E7E7E7;stroke-width:1.0;"/></g><!--link GlobalView to DeckListController--><g id="link_GlobalView_DeckListController"><path codeLine="137" d="M1312.66,476.113 C1285.43,495.607 1255.7,516.895 1229.27,535.818 " fill="none" id="GlobalView-DeckListController" style="stroke:#E7E7E7;stroke-width:1.0;"/></g><!--link DeckView to DeckController--><g id="link_DeckView_DeckController"><path codeLine="138" d="M774.035,476.245 C776.675,542.614 780.768,645.536 783.283,708.766 " fill="none" id="DeckView-DeckController" style="stroke:#E7E7E7;stroke-width:1.0;"/></g><!--link StageView to StageController--><g id="link_StageView_StageController"><path codeLine="139" d="M1519.86,287.09 C1542.5,302.91 1572.31,324.96 1596.5,347 C1665.86,410.201 1737.05,492.769 1779.26,543.952 " fill="none" id="StageView-StageController" style="stroke:#E7E7E7;stroke-width:1.0;"/></g><!--link GlobalView to StageController--><g id="link_GlobalView_StageController"><path codeLine="140" d="M1549.34,476.113 C1601.3,498.471 1658.74,523.188 1707.09,543.991 " fill="none" id="GlobalView-StageController" style="stroke:#E7E7E7;stroke-width:1.0;"/></g><!--link DeckView to StageController--><g id="link_DeckView_StageController"><path codeLine="141" d="M932.173,436.661 C1013.96,448.793 1114.98,463.526 1205.5,476 C1411.49,504.386 1467.7,485.829 1669.5,536 C1678.69,538.284 1688.09,540.961 1697.47,543.883 " fill="none" id="DeckView-StageController" style="stroke:#E7E7E7;stroke-width:1.0;"/></g><!--link CardController to CardModel--><g id="link_CardController_CardModel"><path codeLine="143" d="M1430.5,1028.215 C1430.5,1062.535 1430.5,1112.766 1430.5,1152.715 " fill="none" id="CardController-CardModel" style="stroke:#E7E7E7;stroke-width:1.0;"/></g><!--link DeckController to DeckModel--><g id="link_DeckController_DeckModel"><path codeLine="144" d="M804.426,822.015 C810.631,840.218 817.744,861.084 824.774,881.705 " fill="none" id="DeckController-DeckModel" style="stroke:#E7E7E7;stroke-width:1.0;"/></g><!--link DeckListController to DeckListModel--><g id="link_DeckListController_DeckListModel"><path codeLine="145" d="M1163.19,649.019 C1168.4,673.789 1174.43,702.404 1179.17,724.952 " fill="none" id="DeckListController-DeckListModel" style="stroke:#E7E7E7;stroke-width:1.0;"/></g><!--link StageController to StageModel--><g id="link_StageController_StageModel"><path codeLine="146" d="M1817.5,641.133 C1817.5,667.519 1817.5,699.934 1817.5,724.915 " fill="none" id="StageController-StageModel" style="stroke:#E7E7E7;stroke-width:1.0;"/></g><!--link DeckModel to DrawCardStrategy--><g id="link_DeckModel_DrawCardStrategy"><path codeLine="148" d="M674.595,1093.158 C621.777,1122.892 567.443,1153.48 526.096,1176.757 " fill="none" id="DeckModel-DrawCardStrategy" style="stroke:#E7E7E7;stroke-width:1.0;"/></g><!--link DeckModel to BuildCardStrategy--><g id="link_DeckModel_BuildCardStrategy"><path codeLine="149" d="M867.385,1093.158 C869.596,1126.755 871.878,1161.443 873.457,1185.441 " fill="none" id="DeckModel-BuildCardStrategy" style="stroke:#E7E7E7;stroke-width:1.0;"/></g><!--link DeckModel to CardModel--><g id="link_DeckModel_CardModel"><path codeLine="150" d="M1076.69,1085.677 C1082.68,1088.167 1088.63,1090.612 1094.5,1093 C1158.84,1119.155 1231.03,1146.009 1291.96,1167.967 " fill="none" id="DeckModel-CardModel" style="stroke:#E7E7E7;stroke-width:1.0;"/></g><!--link DeckListModel to DeckModel--><g id="link_DeckListModel_DeckModel"><path codeLine="151" d="M1128.66,806.086 C1096.94,827.426 1056.16,854.865 1016.02,881.872 " fill="none" id="DeckListModel-DeckModel" style="stroke:#E7E7E7;stroke-width:1.0;"/></g><!--link StageView to DeckView--><g id="link_StageView_DeckView"><path codeLine="154" d="M1431.45,282.03 C1425.42,283.81 1419.35,285.51 1413.5,287 C1251.27,328.36 1062.86,363.06 932.292,385.04 " fill="none" id="StageView-DeckView" style="stroke:#E7E7E7;stroke-width:1.0;"/></g><!--link StageView to GlobalView--><g id="link_StageView_GlobalView"><path codeLine="155" d="M1472.19,287.21 C1462.94,303.35 1450.13,325.69 1437.95,346.93 " fill="none" id="StageView-GlobalView" style="stroke:#E7E7E7;stroke-width:1.0;"/></g><!--link CardModel to CardTag--><g id="link_CardModel_CardTag"><path codeLine="157" d="M1405.66,1282.331 C1397.44,1303.4582 1388.81,1325.6484 1382.56,1341.7133 " fill="none" id="CardModel-CardTag" style="stroke:#E7E7E7;stroke-width:1.0;"/></g><!--link DeckModel to DeckTag--><g id="link_DeckModel_DeckTag"><path codeLine="158" d="M955.518,1093.158 C989.529,1130.619 1024.77,1169.434 1046.42,1193.278 " fill="none" id="DeckModel-DeckTag" style="stroke:#E7E7E7;stroke-width:1.0;"/></g><!--SRC=[jLQvRXin4EttArYk4Bb9gSwnWJGva5X9YY05jHn9H2XIMTAI3IF_7bAxF8Qa3XkngWKVtnnlXgFXqa2_f1sGpmiD_GvwyjGG-tj3Ug2TQISpibESDN-RXYwqwUqPwGJLcjpGdWKItsm5R40QdHegIRVG_NuHwGFNvjd4EqDNy6pM2BAW16KkqLQDf5cWUt66Qr8PldnqDnFH1fFlXLfGyPt3di230SagIKNTDse73cxvZ71f9YC03rlLcmfW4_E0F-fizSnWHD8DpAmKFPUhAM6Wkvvl3LVI7tgEKUw-2x9Cm2Ce_29qODnyikwGpqa2taRlxOb8hE2kkze_zw1JV4ger7jN0Nn_aAnAYSd56fJf7He5vOTRvmahuUhsKJ4GuNgjPovK7_LGMVnQ9KxwlYAfp_6eudX4RD_pGRk3lp4E3PL2eaZjZNFLpEzV1rSjPoYxQBAdUtV1Mh3zktfizVWn8pbKSD_TSy6Ea0iCiozkk4gnQlc4QZdmJBLodxukoF5ukErj3o-uuCRcj1IA9lNwCjefdq1HXuFfjfuQVXDdOX-Qvwu32LdtN4UarG6lThDxJJTAcbu9aGoJPusmonxHiJcAu7IQriAjXFh_NykhDcGzWrVfdxghqyqHhbKcTgBciR-gELsTceJ2Tjit3SmV__o5nN5qt- -3ALJzAip35fKFgP3rcaec85DkePG0AgV9K6V-AzijhCz3NUittTD3SHJpBWIoy8ZT5K9cnVKRTyoxT6UgcJnkOBwsjBSNytFTlbgvr2QbLvGzolu1VBKsTawza3_d6pZFHGlmrLMSzGrQZYmIYjOKMz-8XesYmOk7XUCSRffaZqo8yP4rOKyRuGIAEuutce3OS8wcLdEioIPA8GJ6IYbAF1C3NqZbY8_1CRCYORJeFWpZaED-Xo9ki8PU5NmQbHoaGIxinCY27aRAFm00]--></g></svg>